<?xml version="1.0" encoding="UTF-8"?>
<svg id="Layer_1" xmlns="http://www.w3.org/2000/svg" version="1.1" viewBox="0 0 248.22 59.28">
  <!-- Generator: Adobe Illustrator 30.1.0, SVG Export Plug-In . SVG Version: 2.1.1 Build 136)  -->
  <defs>
    <style>
      .st0 {
        fill: #fff;
      }
    </style>
  </defs>
  <path class="st0" d="M5.63,4.17H0V.34h15.4v3.84h-5.63v15.76h-4.14V4.17Z"/>
  <path class="st0" d="M16.13,14.2v-7.98h4v7.81c0,1.48.67,2.55,2.1,2.55,1.74,0,2.35-1.23,2.35-3.33v-7.03h4v13.72h-3.92v-.95c-.84.87-2.1,1.26-3.42,1.26-3.19,0-5.12-2.16-5.12-6.05Z"/>
  <path class="st0" d="M32.12,6.22h3.92v1.23c.76-.9,2.02-1.43,3.42-1.43.48,0,.67,0,1.06.03v3.84h-.62c-2.21,0-3.81,1.4-3.81,4.31v5.74h-3.98V6.22Z"/>
  <path class="st0" d="M42.9,6.22h3.92v.95c.76-.73,1.85-1.29,3.25-1.29,3.36,0,5.6,2.18,5.6,6.08v7.98h-3.98v-7.67c0-1.46-.7-2.69-2.3-2.69-1.88,0-2.52,1.4-2.52,3.5v6.86h-3.98V6.22Z"/>
  <path class="st0" d="M61.18,0c1.29,0,2.32,1.04,2.32,2.32s-1.04,2.3-2.32,2.3-2.3-1.04-2.3-2.3,1.01-2.32,2.3-2.32ZM59.19,6.22h3.98v13.72h-3.98V6.22Z"/>
  <path class="st0" d="M66.86,6.22h3.92v.95c.76-.73,1.85-1.29,3.25-1.29,3.36,0,5.6,2.18,5.6,6.08v7.98h-3.98v-7.67c0-1.46-.7-2.69-2.3-2.69-1.88,0-2.52,1.4-2.52,3.5v6.86h-3.98V6.22Z"/>
  <path class="st0" d="M82.66,22.9l2.77-2.66c.64.92,1.85,1.76,3.44,1.76,2.1,0,3.47-1.23,3.47-3.05v-.36c-.7.62-1.82,1.04-3.36,1.04-3.81,0-6.72-2.52-6.72-6.86s3.19-6.89,6.72-6.89c1.51,0,2.69.62,3.44,1.32v-.98h3.89v12.29c0,4.14-2.69,7.17-7.42,7.17-3.53,0-5.35-1.65-6.24-2.77ZM89.35,16.02c1.68,0,3.08-1.29,3.08-3.25s-1.4-3.28-3.08-3.28-3.02,1.29-3.02,3.28,1.37,3.25,3.02,3.25Z"/>
  <path class="st0" d="M107.04,15.9c0-3.02,2.6-4.42,5.43-4.42,1.06,0,2.04.2,2.72.39v-.22c0-1.29-.84-2.24-2.27-2.24-1.06,0-2.21.5-2.94,1.6l-2.52-2.41c1.76-2.1,3.78-2.72,5.74-2.72,3.33,0,6.02,1.99,6.02,5.49v8.57h-3.98v-.9c-.7.62-1.88,1.2-3.44,1.2-2.97,0-4.76-1.88-4.76-4.34ZM112.75,16.88c.95,0,1.76-.34,2.44-.84v-1.57c-.48-.11-1.12-.25-1.82-.25-1.57,0-2.32.62-2.32,1.43,0,.73.7,1.23,1.71,1.23Z"/>
  <path class="st0" d="M122.61,6.22h3.92v.95c.76-.73,1.9-1.29,3.3-1.29,1.54,0,2.88.59,3.81,1.65.95-.95,2.44-1.65,4.12-1.65,3.67,0,5.74,2.18,5.74,6.08v7.98h-3.98v-7.81c0-1.48-.67-2.55-2.1-2.55-1.51,0-2.38,1.15-2.38,3.05v7.31h-3.98v-7.81c0-1.48-.67-2.55-2.1-2.55-1.57,0-2.38,1.23-2.38,3.33v7.03h-3.98V6.22Z"/>
  <path class="st0" d="M150.86,18.96v.98h-3.98V.34h4.03v6.75c.7-.62,1.9-1.2,3.47-1.2,3.78,0,6.86,2.86,6.86,7.2s-3.08,7.17-6.86,7.17c-1.54,0-2.8-.59-3.53-1.29ZM154,16.66c1.82,0,3.19-1.46,3.19-3.58s-1.37-3.58-3.19-3.58-3.14,1.46-3.14,3.58,1.32,3.58,3.14,3.58Z"/>
  <path class="st0" d="M166.12,0c1.29,0,2.32,1.04,2.32,2.32s-1.04,2.3-2.32,2.3-2.3-1.04-2.3-2.3,1.01-2.32,2.3-2.32ZM164.13,6.22h3.98v13.72h-3.98V6.22Z"/>
  <path class="st0" d="M172.31,15.09v-5.21h-1.79v-3.67h1.79v-3.84h3.98v3.84h3.02v3.67h-3.02v4.73c0,1.37.64,1.68,1.79,1.68h1.18v3.64c-.45.03-1.37.06-2.16.06-3.25,0-4.79-1.74-4.79-4.9Z"/>
  <path class="st0" d="M184.46,0c1.29,0,2.32,1.04,2.32,2.32s-1.04,2.3-2.32,2.3-2.3-1.04-2.3-2.3,1.01-2.32,2.3-2.32ZM182.47,6.22h3.98v13.72h-3.98V6.22Z"/>
  <path class="st0" d="M189.36,13.08c0-4.12,3.14-7.2,7.25-7.2s7.25,3.08,7.25,7.2-3.14,7.17-7.25,7.17-7.25-3.05-7.25-7.17ZM196.61,16.55c1.85,0,3.19-1.46,3.19-3.47s-1.34-3.47-3.19-3.47-3.19,1.46-3.19,3.47,1.34,3.47,3.19,3.47Z"/>
  <path class="st0" d="M206.61,6.22h3.92v.95c.76-.73,1.85-1.29,3.25-1.29,3.36,0,5.6,2.18,5.6,6.08v7.98h-3.98v-7.67c0-1.46-.7-2.69-2.3-2.69-1.88,0-2.52,1.4-2.52,3.5v6.86h-3.98V6.22Z"/>
  <path class="st0" d="M3.05,33.6c1.29,0,2.32,1.04,2.32,2.32s-1.04,2.3-2.32,2.3-2.3-1.04-2.3-2.3,1.01-2.32,2.3-2.32ZM1.06,39.82h3.98v13.72H1.06v-13.72Z"/>
  <path class="st0" d="M8.74,39.82h3.92v.95c.76-.73,1.85-1.29,3.25-1.29,3.36,0,5.6,2.18,5.6,6.08v7.98h-3.98v-7.67c0-1.46-.7-2.69-2.3-2.69-1.88,0-2.52,1.4-2.52,3.5v6.86h-3.98v-13.72Z"/>
  <path class="st0" d="M25.4,48.69v-5.21h-1.79v-3.67h1.79v-3.84h3.98v3.84h3.02v3.67h-3.02v4.73c0,1.37.64,1.68,1.79,1.68h1.18v3.64c-.45.03-1.37.06-2.16.06-3.25,0-4.79-1.74-4.79-4.9Z"/>
  <path class="st0" d="M34.3,46.67c0-4.12,3.14-7.2,7.25-7.2s7.25,3.08,7.25,7.2-3.14,7.17-7.25,7.17-7.25-3.05-7.25-7.17ZM41.55,50.15c1.85,0,3.19-1.46,3.19-3.47s-1.34-3.47-3.19-3.47-3.19,1.46-3.19,3.47,1.34,3.47,3.19,3.47Z"/>
  <path class="st0" d="M59.39,33.94h3.98v19.6h-3.98v-19.6Z"/>
  <path class="st0" d="M66.25,49.5c0-3.02,2.6-4.42,5.43-4.42,1.06,0,2.04.2,2.72.39v-.22c0-1.29-.84-2.24-2.27-2.24-1.06,0-2.21.5-2.94,1.6l-2.52-2.41c1.76-2.1,3.78-2.72,5.74-2.72,3.33,0,6.02,1.99,6.02,5.49v8.57h-3.98v-.9c-.7.62-1.88,1.2-3.44,1.2-2.97,0-4.76-1.88-4.76-4.34ZM71.96,50.48c.95,0,1.76-.34,2.44-.84v-1.57c-.48-.11-1.12-.25-1.82-.25-1.57,0-2.32.62-2.32,1.43,0,.73.7,1.23,1.71,1.23Z"/>
  <path class="st0" d="M81,51.18l2.44-2.49c1.37,1.34,2.69,1.82,3.92,1.82.81,0,1.54-.36,1.54-.9,0-.42-.36-.64-1.23-.87l-1.82-.45c-3.05-.76-4.48-2.27-4.48-4.48,0-2.69,2.46-4.34,5.32-4.34,2.02,0,3.89.7,5.52,2.16l-2.44,2.58c-.84-.7-1.99-1.34-3.25-1.34-.78,0-1.29.36-1.29.81,0,.36.36.59.98.73l2.04.48c2.46.59,4.51,1.79,4.51,4.54,0,2.58-2.18,4.42-5.74,4.42-2.69,0-4.96-1.32-6.02-2.66Z"/>
  <path class="st0" d="M95.81,48.69v-5.21h-1.79v-3.67h1.79v-3.84h3.98v3.84h3.02v3.67h-3.02v4.73c0,1.37.64,1.68,1.79,1.68h1.18v3.64c-.45.03-1.37.06-2.16.06-3.25,0-4.79-1.74-4.79-4.9Z"/>
  <path class="st0" d="M107.97,33.6c1.29,0,2.32,1.04,2.32,2.32s-1.04,2.3-2.32,2.3-2.3-1.04-2.3-2.3,1.01-2.32,2.3-2.32ZM105.98,39.82h3.98v13.72h-3.98v-13.72Z"/>
  <path class="st0" d="M113.65,39.82h3.92v.95c.76-.73,1.85-1.29,3.25-1.29,3.36,0,5.6,2.18,5.6,6.08v7.98h-3.98v-7.67c0-1.46-.7-2.69-2.3-2.69-1.88,0-2.52,1.4-2.52,3.5v6.86h-3.98v-13.72Z"/>
  <path class="st0" d="M129.44,56.5l2.77-2.66c.64.92,1.85,1.76,3.44,1.76,2.1,0,3.47-1.23,3.47-3.05v-.36c-.7.62-1.82,1.04-3.36,1.04-3.81,0-6.72-2.52-6.72-6.86s3.19-6.89,6.72-6.89c1.51,0,2.69.62,3.44,1.32v-.98h3.89v12.29c0,4.14-2.69,7.17-7.42,7.17-3.53,0-5.35-1.65-6.24-2.77ZM136.13,49.62c1.68,0,3.08-1.29,3.08-3.25s-1.4-3.28-3.08-3.28-3.02,1.29-3.02,3.28,1.37,3.25,3.02,3.25Z"/>
  <path class="st0" d="M156.6,33.6c1.29,0,2.32,1.04,2.32,2.32s-1.04,2.3-2.32,2.3-2.3-1.04-2.3-2.3,1.01-2.32,2.3-2.32ZM154.61,39.82h3.98v13.72h-3.98v-13.72Z"/>
  <path class="st0" d="M162.29,39.82h3.92v.95c.76-.73,1.9-1.29,3.3-1.29,1.54,0,2.88.59,3.81,1.65.95-.95,2.44-1.65,4.12-1.65,3.67,0,5.74,2.18,5.74,6.08v7.98h-3.98v-7.81c0-1.48-.67-2.55-2.1-2.55-1.51,0-2.38,1.15-2.38,3.05v7.31h-3.98v-7.81c0-1.48-.67-2.55-2.1-2.55-1.57,0-2.38,1.23-2.38,3.33v7.03h-3.98v-13.72Z"/>
  <path class="st0" d="M186.56,39.82h3.92v.98c.73-.7,2.04-1.32,3.58-1.32,3.78,0,6.86,2.74,6.86,7.2s-3.08,7.17-6.86,7.17c-1.57,0-2.83-.56-3.53-1.18v6.3h-3.98v-19.15ZM193.67,50.26c1.82,0,3.19-1.46,3.19-3.58s-1.37-3.58-3.19-3.58-3.19,1.46-3.19,3.58,1.37,3.58,3.19,3.58Z"/>
  <path class="st0" d="M202.52,49.5c0-3.02,2.6-4.42,5.43-4.42,1.06,0,2.04.2,2.72.39v-.22c0-1.29-.84-2.24-2.27-2.24-1.06,0-2.21.5-2.94,1.6l-2.52-2.41c1.76-2.1,3.78-2.72,5.74-2.72,3.33,0,6.02,1.99,6.02,5.49v8.57h-3.98v-.9c-.7.62-1.88,1.2-3.44,1.2-2.97,0-4.76-1.88-4.76-4.34ZM208.23,50.48c.95,0,1.76-.34,2.44-.84v-1.57c-.48-.11-1.12-.25-1.82-.25-1.57,0-2.32.62-2.32,1.43,0,.73.7,1.23,1.71,1.23Z"/>
  <path class="st0" d="M217.31,46.67c0-4.12,3.14-7.2,7.25-7.2,2.6,0,4.28,1.12,5.74,2.74l-2.69,2.6c-.78-.95-1.65-1.6-2.91-1.6-1.88,0-3.33,1.43-3.33,3.44s1.46,3.44,3.33,3.44c1.37,0,2.32-.67,3.19-1.79l2.69,2.6c-1.4,1.85-3.36,2.91-6.02,2.91-4.12,0-7.25-3.05-7.25-7.17Z"/>
  <path class="st0" d="M233.63,48.69v-5.21h-1.79v-3.67h1.79v-3.84h3.98v3.84h3.02v3.67h-3.02v4.73c0,1.37.64,1.68,1.79,1.68h1.18v3.64c-.45.03-1.37.06-2.16.06-3.25,0-4.79-1.74-4.79-4.9Z"/>
  <path class="st0" d="M243.4,51.44c0-1.34,1.04-2.41,2.38-2.41s2.44,1.06,2.44,2.41-1.09,2.41-2.44,2.41-2.38-1.06-2.38-2.41Z"/>
</svg>