<?xml version="1.0" encoding="UTF-8"?>
<svg id="Layer_1" xmlns="http://www.w3.org/2000/svg" version="1.1" viewBox="0 0 293.38 59.28">
  <!-- Generator: Adobe Illustrator 30.1.0, SVG Export Plug-In . SVG Version: 2.1.1 Build 136)  -->
  <defs>
    <style>
      .st0 {
        fill: #fff;
      }
    </style>
  </defs>
  <path class="st0" d="M0,.34h4.45l3.02,12.54L10.64.34h4.45l3.16,12.54L21.28.34h4.45l-5.24,19.6h-4.26l-3.36-12.94-3.39,12.94h-4.26L0,.34Z"/>
  <path class="st0" d="M28.06.34h3.95v6.66c.62-.56,1.82-1.12,3.22-1.12,3.36,0,5.6,2.18,5.6,6.08v7.98h-3.98v-7.67c0-1.46-.7-2.69-2.3-2.69-1.88,0-2.52,1.4-2.52,3.5v6.86h-3.98V.34Z"/>
  <path class="st0" d="M43.43,13.16c0-4.14,2.77-7.28,6.75-7.28,4.42,0,6.61,3.56,6.61,7.03l-.03,1.18h-9.3c.22,1.43,1.32,2.52,3.08,2.52,1.43,0,2.52-.53,3.36-1.6l2.63,2.46c-1.2,1.51-2.94,2.77-5.88,2.77-4.12,0-7.22-2.77-7.22-7.08ZM52.58,11.42c-.08-1.15-1.01-2.04-2.32-2.04-1.48,0-2.35.92-2.6,2.04h4.93Z"/>
  <path class="st0" d="M59.5,6.22h3.92v.95c.76-.73,1.85-1.29,3.25-1.29,3.36,0,5.6,2.18,5.6,6.08v7.98h-3.98v-7.67c0-1.46-.7-2.69-2.3-2.69-1.88,0-2.52,1.4-2.52,3.5v6.86h-3.98V6.22Z"/>
  <path class="st0" d="M82.71,13.08c0-4.12,3.14-7.2,7.25-7.2,2.6,0,4.28,1.12,5.74,2.74l-2.69,2.6c-.78-.95-1.65-1.6-2.91-1.6-1.88,0-3.33,1.43-3.33,3.44s1.46,3.44,3.33,3.44c1.37,0,2.32-.67,3.19-1.79l2.69,2.6c-1.4,1.85-3.36,2.91-6.02,2.91-4.12,0-7.25-3.05-7.25-7.17Z"/>
  <path class="st0" d="M97.19,13.08c0-4.12,3.14-7.2,7.25-7.2s7.25,3.08,7.25,7.2-3.14,7.17-7.25,7.17-7.25-3.05-7.25-7.17ZM104.44,16.55c1.85,0,3.19-1.46,3.19-3.47s-1.34-3.47-3.19-3.47-3.19,1.46-3.19,3.47,1.34,3.47,3.19,3.47Z"/>
  <path class="st0" d="M114.44,6.22h3.92v1.23c.76-.9,2.02-1.43,3.42-1.43.48,0,.67,0,1.06.03v3.84h-.62c-2.21,0-3.81,1.4-3.81,4.31v5.74h-3.98V6.22Z"/>
  <path class="st0" d="M125.21,6.22h3.92v.98c.73-.7,2.04-1.32,3.58-1.32,3.78,0,6.86,2.74,6.86,7.2s-3.08,7.17-6.86,7.17c-1.57,0-2.83-.56-3.53-1.18v6.3h-3.98V6.22ZM132.33,16.66c1.82,0,3.19-1.46,3.19-3.58s-1.37-3.58-3.19-3.58-3.19,1.46-3.19,3.58,1.37,3.58,3.19,3.58Z"/>
  <path class="st0" d="M141.54,13.08c0-4.12,3.14-7.2,7.25-7.2s7.25,3.08,7.25,7.2-3.14,7.17-7.25,7.17-7.25-3.05-7.25-7.17ZM148.79,16.55c1.85,0,3.19-1.46,3.19-3.47s-1.34-3.47-3.19-3.47-3.19,1.46-3.19,3.47,1.34,3.47,3.19,3.47Z"/>
  <path class="st0" d="M158.79,6.22h3.92v1.23c.76-.9,2.02-1.43,3.42-1.43.48,0,.67,0,1.06.03v3.84h-.62c-2.21,0-3.81,1.4-3.81,4.31v5.74h-3.98V6.22Z"/>
  <path class="st0" d="M168.42,15.9c0-3.02,2.6-4.42,5.43-4.42,1.06,0,2.04.2,2.72.39v-.22c0-1.29-.84-2.24-2.27-2.24-1.06,0-2.21.5-2.94,1.6l-2.52-2.41c1.76-2.1,3.78-2.72,5.74-2.72,3.33,0,6.02,1.99,6.02,5.49v8.57h-3.98v-.9c-.7.62-1.88,1.2-3.44,1.2-2.97,0-4.76-1.88-4.76-4.34ZM174.13,16.88c.95,0,1.76-.34,2.44-.84v-1.57c-.48-.11-1.12-.25-1.82-.25-1.57,0-2.32.62-2.32,1.43,0,.73.7,1.23,1.71,1.23Z"/>
  <path class="st0" d="M184.49,15.09v-5.21h-1.79v-3.67h1.79v-3.84h3.98v3.84h3.02v3.67h-3.02v4.73c0,1.37.64,1.68,1.79,1.68h1.18v3.64c-.45.03-1.37.06-2.16.06-3.25,0-4.79-1.74-4.79-4.9Z"/>
  <path class="st0" d="M193.4,13.16c0-4.14,2.77-7.28,6.75-7.28,4.42,0,6.61,3.56,6.61,7.03l-.03,1.18h-9.3c.22,1.43,1.32,2.52,3.08,2.52,1.43,0,2.52-.53,3.36-1.6l2.63,2.46c-1.2,1.51-2.94,2.77-5.88,2.77-4.12,0-7.22-2.77-7.22-7.08ZM202.55,11.42c-.08-1.15-1.01-2.04-2.32-2.04-1.48,0-2.35.92-2.6,2.04h4.93Z"/>
  <path class="st0" d="M216.94,22.9l2.77-2.66c.64.92,1.85,1.76,3.44,1.76,2.1,0,3.47-1.23,3.47-3.05v-.36c-.7.62-1.82,1.04-3.36,1.04-3.81,0-6.72-2.52-6.72-6.86s3.19-6.89,6.72-6.89c1.51,0,2.69.62,3.44,1.32v-.98h3.89v12.29c0,4.14-2.69,7.17-7.42,7.17-3.53,0-5.35-1.65-6.24-2.77ZM223.63,16.02c1.68,0,3.08-1.29,3.08-3.25s-1.4-3.28-3.08-3.28-3.02,1.29-3.02,3.28,1.37,3.25,3.02,3.25Z"/>
  <path class="st0" d="M236.26,0c1.29,0,2.32,1.04,2.32,2.32s-1.04,2.3-2.32,2.3-2.3-1.04-2.3-2.3,1.01-2.32,2.3-2.32ZM234.28,6.22h3.98v13.72h-3.98V6.22Z"/>
  <path class="st0" d="M240.35,6.22h4.23l2.69,8.48,2.69-8.48h4.23l-4.87,13.72h-4.09l-4.87-13.72Z"/>
  <path class="st0" d="M258.24,0c1.29,0,2.32,1.04,2.32,2.32s-1.04,2.3-2.32,2.3-2.3-1.04-2.3-2.3,1.01-2.32,2.3-2.32ZM256.25,6.22h3.98v13.72h-3.98V6.22Z"/>
  <path class="st0" d="M263.93,6.22h3.92v.95c.76-.73,1.85-1.29,3.25-1.29,3.36,0,5.6,2.18,5.6,6.08v7.98h-3.98v-7.67c0-1.46-.7-2.69-2.3-2.69-1.88,0-2.52,1.4-2.52,3.5v6.86h-3.98V6.22Z"/>
  <path class="st0" d="M279.72,22.9l2.77-2.66c.64.92,1.85,1.76,3.44,1.76,2.1,0,3.47-1.23,3.47-3.05v-.36c-.7.62-1.82,1.04-3.36,1.04-3.81,0-6.72-2.52-6.72-6.86s3.19-6.89,6.72-6.89c1.51,0,2.69.62,3.44,1.32v-.98h3.89v12.29c0,4.14-2.69,7.17-7.42,7.17-3.53,0-5.35-1.65-6.24-2.77ZM286.41,16.02c1.68,0,3.08-1.29,3.08-3.25s-1.4-3.28-3.08-3.28-3.02,1.29-3.02,3.28,1.37,3.25,3.02,3.25Z"/>
  <path class="st0" d="M.56,49.5c0-3.02,2.6-4.42,5.43-4.42,1.06,0,2.04.2,2.72.39v-.22c0-1.29-.84-2.24-2.27-2.24-1.06,0-2.21.5-2.94,1.6l-2.52-2.41c1.76-2.1,3.78-2.72,5.74-2.72,3.33,0,6.02,1.99,6.02,5.49v8.57h-3.98v-.9c-.7.62-1.88,1.2-3.44,1.2-2.97,0-4.76-1.88-4.76-4.34ZM6.27,50.48c.95,0,1.76-.34,2.44-.84v-1.57c-.48-.11-1.12-.25-1.82-.25-1.57,0-2.32.62-2.32,1.43,0,.73.7,1.23,1.71,1.23Z"/>
  <path class="st0" d="M15.34,46.67c0-4.12,3.14-7.2,7.25-7.2,2.6,0,4.28,1.12,5.74,2.74l-2.69,2.6c-.78-.95-1.65-1.6-2.91-1.6-1.88,0-3.33,1.43-3.33,3.44s1.46,3.44,3.33,3.44c1.37,0,2.32-.67,3.19-1.79l2.69,2.6c-1.4,1.85-3.36,2.91-6.02,2.91-4.12,0-7.25-3.05-7.25-7.17Z"/>
  <path class="st0" d="M31.16,33.94h3.95v6.66c.62-.56,1.82-1.12,3.22-1.12,3.36,0,5.6,2.18,5.6,6.08v7.98h-3.98v-7.67c0-1.46-.7-2.69-2.3-2.69-1.88,0-2.52,1.4-2.52,3.5v6.86h-3.98v-19.6Z"/>
  <path class="st0" d="M49.45,33.6c1.29,0,2.32,1.04,2.32,2.32s-1.04,2.3-2.32,2.3-2.3-1.04-2.3-2.3,1.01-2.32,2.3-2.32ZM47.46,39.82h3.98v13.72h-3.98v-13.72Z"/>
  <path class="st0" d="M54.35,46.76c0-4.14,2.77-7.28,6.75-7.28,4.42,0,6.61,3.56,6.61,7.03l-.03,1.18h-9.3c.22,1.43,1.32,2.52,3.08,2.52,1.43,0,2.52-.53,3.36-1.6l2.63,2.46c-1.2,1.51-2.94,2.77-5.88,2.77-4.12,0-7.22-2.77-7.22-7.08ZM63.5,45.02c-.08-1.15-1.01-2.04-2.32-2.04-1.48,0-2.35.92-2.6,2.04h4.93Z"/>
  <path class="st0" d="M68.4,39.82h4.23l2.69,8.48,2.69-8.48h4.23l-4.87,13.72h-4.09l-4.87-13.72Z"/>
  <path class="st0" d="M82.96,46.76c0-4.14,2.77-7.28,6.75-7.28,4.42,0,6.61,3.56,6.61,7.03l-.03,1.18h-9.3c.22,1.43,1.32,2.52,3.08,2.52,1.43,0,2.52-.53,3.36-1.6l2.63,2.46c-1.2,1.51-2.94,2.77-5.88,2.77-4.12,0-7.22-2.77-7.22-7.08ZM92.12,45.02c-.08-1.15-1.01-2.04-2.32-2.04-1.48,0-2.35.92-2.6,2.04h4.93Z"/>
  <path class="st0" d="M98.03,51.18l2.44-2.49c1.37,1.34,2.69,1.82,3.92,1.82.81,0,1.54-.36,1.54-.9,0-.42-.36-.64-1.23-.87l-1.82-.45c-3.05-.76-4.48-2.27-4.48-4.48,0-2.69,2.46-4.34,5.32-4.34,2.02,0,3.89.7,5.52,2.16l-2.44,2.58c-.84-.7-1.99-1.34-3.25-1.34-.78,0-1.29.36-1.29.81,0,.36.36.59.98.73l2.04.48c2.46.59,4.51,1.79,4.51,4.54,0,2.58-2.18,4.42-5.74,4.42-2.69,0-4.96-1.32-6.02-2.66Z"/>
  <path class="st0" d="M120.34,39.82h3.92v1.23c.76-.9,2.02-1.43,3.42-1.43.48,0,.67,0,1.06.03v3.84h-.62c-2.21,0-3.81,1.4-3.81,4.31v5.74h-3.98v-13.72Z"/>
  <path class="st0" d="M129.7,46.76c0-4.14,2.77-7.28,6.75-7.28,4.42,0,6.61,3.56,6.61,7.03l-.03,1.18h-9.3c.22,1.43,1.32,2.52,3.08,2.52,1.43,0,2.52-.53,3.36-1.6l2.63,2.46c-1.2,1.51-2.94,2.77-5.88,2.77-4.12,0-7.22-2.77-7.22-7.08ZM138.85,45.02c-.08-1.15-1.01-2.04-2.32-2.04-1.48,0-2.35.92-2.6,2.04h4.93Z"/>
  <path class="st0" d="M144.62,49.5c0-3.02,2.6-4.42,5.43-4.42,1.06,0,2.04.2,2.72.39v-.22c0-1.29-.84-2.24-2.27-2.24-1.06,0-2.21.5-2.94,1.6l-2.52-2.41c1.76-2.1,3.78-2.72,5.74-2.72,3.33,0,6.02,1.99,6.02,5.49v8.57h-3.98v-.9c-.7.62-1.88,1.2-3.44,1.2-2.97,0-4.76-1.88-4.76-4.34ZM150.33,50.48c.95,0,1.76-.34,2.44-.84v-1.57c-.48-.11-1.12-.25-1.82-.25-1.57,0-2.32.62-2.32,1.43,0,.73.7,1.23,1.71,1.23Z"/>
  <path class="st0" d="M160.19,33.94h3.98v19.6h-3.98v-19.6Z"/>
  <path class="st0" d="M174.75,46.67c0-4.12,3.14-7.2,7.25-7.2,2.6,0,4.28,1.12,5.74,2.74l-2.69,2.6c-.78-.95-1.65-1.6-2.91-1.6-1.88,0-3.33,1.43-3.33,3.44s1.46,3.44,3.33,3.44c1.37,0,2.32-.67,3.19-1.79l2.69,2.6c-1.4,1.85-3.36,2.91-6.02,2.91-4.12,0-7.25-3.05-7.25-7.17Z"/>
  <path class="st0" d="M190.57,33.94h3.95v6.66c.62-.56,1.82-1.12,3.22-1.12,3.36,0,5.6,2.18,5.6,6.08v7.98h-3.98v-7.67c0-1.46-.7-2.69-2.3-2.69-1.88,0-2.52,1.4-2.52,3.5v6.86h-3.98v-19.6Z"/>
  <path class="st0" d="M206.08,49.5c0-3.02,2.6-4.42,5.43-4.42,1.06,0,2.04.2,2.72.39v-.22c0-1.29-.84-2.24-2.27-2.24-1.06,0-2.21.5-2.94,1.6l-2.52-2.41c1.76-2.1,3.78-2.72,5.74-2.72,3.33,0,6.02,1.99,6.02,5.49v8.57h-3.98v-.9c-.7.62-1.88,1.2-3.44,1.2-2.97,0-4.76-1.88-4.76-4.34ZM211.79,50.48c.95,0,1.76-.34,2.44-.84v-1.57c-.48-.11-1.12-.25-1.82-.25-1.57,0-2.32.62-2.32,1.43,0,.73.7,1.23,1.71,1.23Z"/>
  <path class="st0" d="M221.65,39.82h3.92v.95c.76-.73,1.85-1.29,3.25-1.29,3.36,0,5.6,2.18,5.6,6.08v7.98h-3.98v-7.67c0-1.46-.7-2.69-2.3-2.69-1.88,0-2.52,1.4-2.52,3.5v6.86h-3.98v-13.72Z"/>
  <path class="st0" d="M237.44,56.5l2.77-2.66c.64.92,1.85,1.76,3.44,1.76,2.1,0,3.47-1.23,3.47-3.05v-.36c-.7.62-1.82,1.04-3.36,1.04-3.81,0-6.72-2.52-6.72-6.86s3.19-6.89,6.72-6.89c1.51,0,2.69.62,3.44,1.32v-.98h3.89v12.29c0,4.14-2.69,7.17-7.42,7.17-3.53,0-5.35-1.65-6.24-2.77ZM244.13,49.62c1.68,0,3.08-1.29,3.08-3.25s-1.4-3.28-3.08-3.28-3.02,1.29-3.02,3.28,1.37,3.25,3.02,3.25Z"/>
  <path class="st0" d="M253.85,46.76c0-4.14,2.77-7.28,6.75-7.28,4.42,0,6.61,3.56,6.61,7.03l-.03,1.18h-9.3c.22,1.43,1.32,2.52,3.08,2.52,1.43,0,2.52-.53,3.36-1.6l2.63,2.46c-1.2,1.51-2.94,2.77-5.88,2.77-4.12,0-7.22-2.77-7.22-7.08ZM263,45.02c-.08-1.15-1.01-2.04-2.32-2.04-1.48,0-2.35.92-2.6,2.04h4.93Z"/>
  <path class="st0" d="M269.41,51.44c0-1.34,1.04-2.41,2.38-2.41s2.44,1.06,2.44,2.41-1.09,2.41-2.44,2.41-2.38-1.06-2.38-2.41Z"/>
</svg>