<?xml version="1.0" encoding="UTF-8"?>
<svg id="Layer_1" xmlns="http://www.w3.org/2000/svg" version="1.1" viewBox="0 0 97.66 80">
  <!-- Generator: Adobe Illustrator 30.1.0, SVG Export Plug-In . SVG Version: 2.1.1 Build 136)  -->
  <defs>
    <style>
      .st0 {
        fill: #fff;
      }

      .st1 {
        fill: #0d393b;
      }
    </style>
  </defs>
  <rect class="st1" width="97.66" height="80"/>
  <g>
    <polygon class="st0" points="78.73 52.13 20.77 52.13 20.77 51.67 78.73 51.67 78.73 52.13 78.73 52.13"/>
    <path class="st0" d="M53.48,24.77h-6.01l-9.64,24.87h5.26l2.16-5.96h9.44l2.11,5.96h6.6l-9.92-24.87h0ZM46.51,40.06l3.26-9.14,3.56,9.14h-6.82Z"/>
    <path class="st0" d="M53.48,24.75h-6.01l-9.64,24.87h5.26l2.16-5.96h9.44l2.11,5.96h6.6l-9.92-24.87h0ZM46.51,40.04l3.26-9.14,3.56,9.14h-6.82Z"/>
    <path class="st0" d="M23.58,57.86c-.27.06-.55.11-.83.11-1.18,0-2-.59-2-1.82s.76-1.95,2-1.95c.24,0,.56.05.83.15l-.05.62c-.28-.16-.53-.19-.79-.19-.75,0-1.22.57-1.22,1.32s.46,1.3,1.24,1.3c.29,0,.63-.06.8-.15l.03.61h0Z"/>
    <path class="st0" d="M24.03,53.99h.7v1.59h.01c.18-.26.48-.43.85-.43.64,0,.91.45.91,1.05v1.7h-.7v-1.44c0-.33,0-.77-.45-.77-.51,0-.62.55-.62.89v1.32h-.7v-3.92h0Z"/>
    <path class="st0" d="M28.01,57.46c.21,0,.38-.09.49-.24.11-.15.15-.34.15-.55h-.3c-.31,0-.78.05-.78.47,0,.23.19.33.44.33h0ZM27.18,55.36c.27-.13.64-.2.94-.2.82,0,1.16.34,1.16,1.13v.34c0,.27,0,.48.01.67,0,.2.02.39.03.6h-.62c-.03-.14-.03-.32-.03-.4h-.01c-.16.3-.51.46-.83.46-.48,0-.94-.29-.94-.8,0-.4.19-.64.46-.77.27-.13.61-.16.9-.16h.39c0-.43-.19-.58-.61-.58-.3,0-.6.11-.83.29l-.02-.6h0Z"/>
    <path class="st0" d="M29.83,55.22h.62v.61h.01c.03-.25.32-.67.74-.67.07,0,.14,0,.21.02v.7c-.06-.04-.19-.06-.31-.06-.57,0-.57.71-.57,1.1v.99h-.7v-2.69h0Z"/>
    <path class="st0" d="M31.84,55.22h.7v2.69h-.7v-2.69h0ZM31.84,54.06h.7v.67h-.7v-.67h0Z"/>
    <path class="st0" d="M33.48,55.73h-.52v-.51h.52v-.54l.7-.22v.76h.62v.51h-.62v1.25c0,.23.06.44.33.44.13,0,.25-.03.32-.07l.02.55c-.15.04-.31.06-.52.06-.55,0-.85-.34-.85-.87v-1.37h0Z"/>
    <path class="st0" d="M35.28,55.22h.7v2.69h-.7v-2.69h0ZM35.28,54.06h.7v.67h-.7v-.67h0Z"/>
    <path class="st0" d="M38.38,56.3c-.02-.34-.18-.63-.57-.63s-.59.27-.62.63h1.19ZM38.85,57.76c-.26.14-.55.21-.92.21-.89,0-1.41-.51-1.41-1.39,0-.78.41-1.42,1.25-1.42,1,0,1.28.68,1.28,1.62h-1.86c.03.43.33.68.77.68.34,0,.63-.13.89-.27v.57h0Z"/>
    <path class="st0" d="M41.17,55.78c-.21-.07-.37-.11-.63-.11-.19,0-.41.07-.41.3,0,.43,1.22.16,1.22,1.13,0,.63-.56.88-1.13.88-.27,0-.54-.05-.79-.11l.04-.57c.22.11.45.18.69.18.18,0,.46-.07.46-.33,0-.53-1.22-.17-1.22-1.14,0-.58.51-.84,1.05-.84.33,0,.54.05.76.1l-.05.53h0Z"/>
    <path class="st0" d="M44.44,55h-.01l-.53,1.5h1.07l-.53-1.5h0ZM44.03,54.26h.83l1.43,3.65h-.81l-.31-.84h-1.48l-.32.84h-.76l1.42-3.65h0Z"/>
    <path class="st0" d="M46.69,55.22h.7v2.69h-.7v-2.69h0ZM46.69,54.06h.7v.67h-.7v-.67h0Z"/>
    <path class="st0" d="M49.26,57.43c.46,0,.62-.49.62-.87s-.18-.86-.63-.86-.58.5-.58.86.13.87.59.87h0ZM49.9,57.61h-.01c-.21.26-.5.37-.83.37-.83,0-1.13-.68-1.13-1.42s.3-1.4,1.13-1.4c.35,0,.6.12.8.38h.01v-1.54h.7v3.92h-.68v-.3h0Z"/>
    <polygon class="st0" points="52.27 54.26 54.29 54.26 54.29 54.84 53 54.84 53 55.74 54.23 55.74 54.23 56.31 53 56.31 53 57.91 52.27 57.91 52.27 54.26 52.27 54.26"/>
    <path class="st0" d="M55.9,57.43c.54,0,.68-.48.68-.93,0-.41-.22-.8-.68-.8s-.67.4-.67.8c0,.44.14.93.67.93h0ZM55.9,55.16c.8,0,1.41.54,1.41,1.43,0,.77-.52,1.39-1.41,1.39s-1.4-.62-1.4-1.39c0-.89.61-1.43,1.4-1.43h0Z"/>
    <path class="st0" d="M60.17,57.91h-.66v-.37h-.01c-.21.26-.52.43-.88.43-.64,0-.91-.45-.91-1.05v-1.7h.7v1.44c0,.33,0,.77.45.77.51,0,.62-.55.62-.89v-1.32h.7v2.69h0Z"/>
    <path class="st0" d="M60.73,55.22h.66v.37h.01c.22-.31.52-.43.88-.43.64,0,.91.45.91,1.05v1.7h-.7v-1.44c0-.33,0-.77-.45-.77-.51,0-.62.55-.62.89v1.32h-.7v-2.69h0Z"/>
    <path class="st0" d="M64.97,57.43c.46,0,.62-.49.62-.87s-.18-.86-.63-.86-.58.5-.58.86.13.87.59.87h0ZM65.61,57.61h-.01c-.21.26-.5.37-.83.37-.83,0-1.13-.68-1.13-1.42s.3-1.4,1.13-1.4c.35,0,.6.12.8.38h.01v-1.54h.7v3.92h-.68v-.3h0Z"/>
    <path class="st0" d="M67.87,57.46c.21,0,.38-.09.49-.24.11-.15.15-.34.15-.55h-.3c-.31,0-.78.05-.78.46,0,.23.19.33.44.33h0ZM67.05,55.36c.27-.13.64-.2.94-.2.82,0,1.16.34,1.16,1.13v.34c0,.27,0,.48.01.67,0,.2.02.39.03.6h-.62c-.03-.14-.03-.32-.03-.4h-.01c-.16.3-.51.46-.83.46-.48,0-.94-.29-.94-.8,0-.4.19-.64.46-.77.27-.13.61-.16.9-.16h.39c0-.43-.19-.58-.61-.58-.3,0-.6.11-.83.29l-.02-.6h0Z"/>
    <path class="st0" d="M70.04,55.73h-.52v-.51h.52v-.54l.7-.23v.76h.62v.51h-.62v1.25c0,.23.06.44.33.44.13,0,.25-.03.32-.07l.02.55c-.15.04-.31.06-.52.06-.55,0-.85-.34-.85-.87v-1.37h0Z"/>
    <path class="st0" d="M71.92,55.22h.7v2.69h-.7v-2.69h0ZM71.92,54.06h.7v.67h-.7v-.67h0Z"/>
    <path class="st0" d="M74.43,57.43c.54,0,.68-.48.68-.93,0-.41-.22-.8-.68-.8s-.67.4-.67.8c0,.44.14.93.67.93h0ZM74.43,55.16c.8,0,1.41.54,1.41,1.43,0,.77-.52,1.39-1.41,1.39-.89,0-1.4-.62-1.4-1.39,0-.89.61-1.43,1.4-1.43h0Z"/>
    <path class="st0" d="M76.28,55.22h.66v.37h.01c.22-.31.52-.43.88-.43.64,0,.91.45.91,1.05v1.7h-.7v-1.44c0-.33,0-.77-.45-.77-.51,0-.62.55-.62.89v1.32h-.7v-2.69h0Z"/>
    <path class="st0" d="M37.36,45.5c-.98.25-2.16.37-3.54.37-2.04,0-3.65-.69-4.83-2.07-1.18-1.38-1.77-3.51-1.77-6.38v-.35c0-2.69.63-4.79,1.9-6.32,1.26-1.52,3.03-2.29,5.27-2.29,1.21,0,2.27.1,3.17.28.9.18,1.61.39,2.14.63v-3.8c-.58-.26-1.38-.47-2.43-.62-1.04-.15-2.34-.23-3.9-.23-3.62,0-6.62,1.1-9.02,3.3-2.4,2.19-3.59,5.11-3.59,8.75v.97c0,3.89,1.18,6.84,3.54,8.86,2.33,1.98,5.32,2.99,8.99,3.02h0s4.07,0,4.07,0l1.79-4.63c-.49.16-1.08.33-1.78.51h0Z"/>
    <polygon class="st0" points="78.75 28.48 78.75 24.75 61.36 24.75 61.36 43.24 63.9 49.61 67.78 49.61 67.78 38.87 76.3 38.87 76.3 35.14 67.78 35.14 67.78 28.48 78.75 28.48 78.75 28.48"/>
  </g>
</svg>