<?xml version="1.0" encoding="UTF-8"?>
<svg id="Layer_1" xmlns="http://www.w3.org/2000/svg" version="1.1" viewBox="0 0 1811.03 427.76">
  <!-- Generator: Adobe Illustrator 30.1.0, SVG Export Plug-In . SVG Version: 2.1.1 Build 136)  -->
  <defs>
    <style>
      .st0 {
        fill: #fff;
      }
    </style>
  </defs>
  <g>
    <path class="st0" d="M1073.16,114.54h-14.56c-17.5-47.64-42.78-71.45-75.86-71.45-9.85,0-18.67,1.62-26.32,5-7.79,3.38-13.82,7.79-18.38,13.38-4.41,5.59-6.76,11.76-6.76,18.52,0,7.94,2.65,14.7,7.79,20.14,5.29,5.44,12.06,10,20.29,13.53,8.23,3.53,17.05,6.47,26.17,8.53,9.12,2.06,17.64,3.97,25.58,5.59,13.67,2.65,26.17,6.76,37.49,12.5,11.32,5.73,20.58,13.38,27.35,22.94,6.91,9.56,10.29,21.47,10.29,35.73,0,15.29-3.82,28.82-11.32,40.87-7.5,11.91-17.79,21.32-30.58,28.08-12.94,6.76-27.35,10.29-43.52,10.29-12.35,0-25.29-1.91-38.96-5.88s-25.88-10.59-36.61-20.14l-18.97,23.23h-12.2l-1.32-89.1h15.58c8.09,24.99,19.11,43.81,33.08,56.46s33.23,18.97,57.78,18.97c9.12,0,17.64-1.76,25.29-5.15s13.97-8.23,18.67-14.56c4.7-6.32,7.06-13.67,7.06-22.2,0-11.17-3.38-19.85-10-25.73-6.76-5.88-15.44-10.29-26.32-13.23s-22.49-5.44-34.7-7.65c-26.02-4.41-46.16-12.35-60.57-23.67-14.41-11.32-21.61-27.05-21.61-47.34,0-23.08,7.65-41.31,22.79-54.4,15.14-13.08,36.46-19.7,63.66-19.7,11.17,0,21.91,2.21,32.05,6.47s19.99,9.85,29.4,16.61l13.67-20.44h11.47l2.79,83.95h.29v-.15Z"/>
    <path class="st0" d="M1129.76,277.88c-10.88,0-19.55-2.21-26.02-6.76-6.47-4.56-11.17-10.59-13.97-17.94-2.79-7.5-4.12-15.58-4.12-24.26v-90.27h-26.91v-14.41c15.88-1.91,28.23-8.23,37.34-18.97,9.12-10.73,15-26.61,17.79-47.49h14.41v63.66h49.69v17.2h-49.69v93.36c0,8.67,2.06,14.7,6.17,18.23,4.12,3.53,8.53,5.29,13.38,5.29,7.2,0,12.94-4.12,17.05-12.35,4.12-8.23,6.17-18.52,6.17-30.73h14.56c0,12.06-1.76,22.94-5.44,32.93-3.68,10-9.41,17.79-17.64,23.67-8.23,5.88-19.11,8.82-32.79,8.82Z"/>
    <path class="st0" d="M1455.86,277.88c-14.11,0-26.46-3.38-37.34-10-10.88-6.62-19.26-16.03-25.43-27.93-6.17-11.91-9.12-25.73-9.12-41.46s3.38-30.29,10-42.93c6.62-12.64,15.73-22.79,27.2-30.14s24.41-11.17,38.81-11.17c10.59,0,19.7,2.65,27.49,7.94,7.79,5.29,14.7,12.06,20.73,20.14v-59.69c0-9.26-.59-16.03-1.62-20.44-1.03-4.26-3.09-7.06-6.03-8.23-2.94-1.18-7.5-1.76-13.67-1.76h-10.73v-14.26l74.69-4.85v202.6c0,8.53,1.18,13.67,3.53,15.73,2.35,1.91,7.65,2.94,16.17,2.94h8.82v15l-66.6,3.82c-.74-3.97-1.47-8.38-2.06-13.38-.59-5-1.18-9.85-1.62-14.41-6.62,9.41-14.41,17.2-23.08,23.38s-18.82,9.26-30.29,9.26h.15v-.15ZM1471.88,136.15c-11.47,0-20.58,5.15-27.2,15.44-6.76,10.29-10,25.73-10,46.02s3.23,33.82,9.7,42.93c6.47,9.12,15.44,13.67,26.91,13.67,5.73,0,11.61-2.35,17.5-6.91,5.88-4.56,10.73-11.17,14.56-19.99,3.82-8.67,5.88-19.26,5.88-31.61,0-18.38-3.38-32.79-10.29-43.67-6.76-10.73-15.73-16.17-26.91-16.17v.29h-.15Z"/>
    <path class="st0" d="M1555.54,273.03v-15c7.79,0,13.38-.29,17.05-1.03s6.03-1.76,6.91-3.23c1.32-1.91,1.91-4.85,1.91-8.53v-78.95c0-12.94-1.47-21.17-4.26-24.99s-8.53-5.59-17.05-5.59h-4.7v-14.26l68.66-2.5v124.82c0,3.97.59,6.91,1.76,8.97,1.18,2.06,3.53,3.38,7.2,4.12,3.68.74,9.26,1.18,16.76,1.18v15h-94.39s.15,0,.15,0ZM1597.73,87.63c-7.35,0-13.53-2.65-18.82-7.79-5.29-5.15-7.79-11.47-7.79-18.67s2.65-13.67,7.79-18.82c5.15-5.15,11.47-7.65,18.82-7.65s13.53,2.5,18.67,7.65c5.15,5.15,7.79,11.47,7.79,18.82s-2.65,13.53-7.79,18.67c-5.15,5.15-11.47,7.79-18.67,7.79Z"/>
    <path class="st0" d="M1712.56,114.1c16.76,0,31.76,3.38,44.84,10.14,13.08,6.76,23.52,16.32,31.02,28.67,7.65,12.35,11.32,27.05,11.32,43.96s-3.82,31.17-11.32,43.37c-7.65,12.06-17.94,21.47-31.02,27.93-13.08,6.47-28.08,9.7-44.84,9.7s-31.76-3.23-45.14-9.85c-13.23-6.47-23.67-15.88-31.32-28.08-7.65-12.2-11.32-26.61-11.32-43.37s3.82-31.46,11.32-43.81c7.5-12.35,17.94-21.91,31.32-28.52,13.23-6.76,28.23-10,45.14-10h0v-.15ZM1712.56,129.39c-12.2,0-21.47,5.29-27.64,15.73-6.17,10.44-9.26,27.49-9.26,51.16s3.09,40.58,9.26,50.87c6.17,10.29,15.29,15.58,27.64,15.58s21.47-5.15,27.64-15.44c6.17-10.29,9.26-27.2,9.26-50.72s-3.09-40.73-9.26-51.31c-6.17-10.59-15.44-15.88-27.64-15.88Z"/>
  </g>
  <path class="st0" d="M393.62,8.98v12.64c0,15.73-3.09,27.93-9.41,36.76-6.32,8.82-15,15.58-26.46,20.29-8.82,3.68-19.99,6.62-33.67,8.82s-26.76,3.23-39.25,3.23v266.4c24.26-8.53,44.55-19.99,60.72-34.7,11.76-11.03,23.96-26.76,36.9-46.9l3.82,1.62c-6.17,39.4-23.67,72.33-52.05,98.65-28.52,26.46-62.78,39.7-102.77,39.7-55.87,0-102.33-15.73-139.23-47.19-36.9-31.46-55.43-70.86-55.43-117.91,0-33.08,9.56-66.45,28.67-99.97,21.02-36.76,47.93-64.25,81.01-82.33-7.06-1.18-12.64-1.91-17.2-2.21s-11.03-.44-19.85-.44h-7.2c-11.76,0-27.2,5.44-46.31,16.32-19.11,10.88-33.23,23.23-42.49,37.2h-3.09c-2.21-10.59,1.62-25.14,11.61-43.52C46.8,29.56,87.23,6.92,143.54,6.92c15.88,0,50.58,5.29,104.09,15.88,53.52,10.59,83.36,15.88,89.24,15.88,13.23,0,23.38-1.91,30.29-5.59,8.53-4.7,15.58-13.53,21.61-26.46l4.85,2.21h0v.15ZM170.3,265.38V73.08l-8.23-2.21c-22.05,13.23-38.81,33.23-50.28,60.13-10,23.08-14.85,47.49-14.85,72.78,0,35.58,8.23,66.01,24.85,91.01,5.59,8.09,13.82,17.2,24.85,27.05,2.5-2.21,4.56-3.97,6.17-5.59,4.41-4.7,7.5-9.41,9.12-13.82,1.62-4.41,2.79-8.09,3.53-11.03,3.38-10.29,4.85-18.97,4.85-25.88h0v-.15ZM269.54,358.74V90.72l-37.49-8.23v117.91c0,19.85-1.91,36.61-5.59,50.43-3.68,13.82-10.29,25.73-19.85,36.17-7.65,8.53-16.91,17.2-27.64,25.88-7.65,6.17-15.29,12.5-22.64,18.67,8.09,5.59,16.61,10.29,25.43,14.41,8.82,4.12,18.23,7.2,28.23,9.41,3.68.74,8.97,1.47,15.73,2.21,6.76.74,14.26,1.03,22.35,1.03h21.61l-.15.15Z"/>
  <g>
    <path class="st0" d="M321.73,119.1h-9.56v-8.23l53.81-3.97v33.23c7.2-21.32,16.91-31.9,29.4-31.9h2.21c8.53,0,14.7,5.29,18.82,16.03,2.79,7.35,4.26,15.58,4.26,24.85,0,7.65-1.47,14.7-4.26,21.02-3.97,8.53-9.7,12.79-17.35,12.79-14.26-2.35-21.47-14.7-21.47-37.2l1.47-14.7s-.88-1.03-1.03-1.32l-.74-.74c-2.79,0-5.29,6.62-7.65,19.85-1.03,5.44-1.47,14.56-1.47,27.49v82.48h13.23v7.65h-69.1v-7.65h9.56V119.1h-.15Z"/>
    <path class="st0" d="M438.32,119.1h-9.56v-8.38c8.82,0,19.11-.59,30.87-1.62l24.99-2.21v151.73h10.29v7.65h-66.16v-7.65h9.56V119.24h0v-.15ZM436.41,59.99c0-19.85,8.53-29.7,25.43-29.7s24.26,10.73,24.26,32.2c0,8.23-1.62,15.14-4.7,21.02-4.12,7.79-10.44,11.61-18.82,11.61-17.64,0-26.46-10.73-26.46-32.05l.44-3.09h-.15Z"/>
    <path class="st0" d="M555.79,130.27c7.5-15.73,16.32-23.67,26.02-23.67,1.91,0,3.23,0,3.97.29,12.79,1.47,22.2,12.94,28.52,34.4,4.26,14.56,6.47,29.99,6.47,46.31,0,39.84-7.94,66.01-23.67,78.22-2.21,1.76-4.26,2.94-6.47,3.68-2.79,1.03-6.03,1.62-9.85,1.62-13.23,0-22.35-10-27.35-30.29v30.29c-8.23-1.18-20.73-2.65-37.64-4.41-4.56-.15-9.41-.29-14.41-.29v-7.65h10V46.32h-10v-7.35c11.47,0,29.55-1.76,54.4-5.44v96.74ZM573.14,150.71c0-16.03-2.35-23.96-7.06-23.96-6.91,0-10.29,10.73-10.29,32.05v58.37c0,22.94,3.38,34.4,10,34.4,3.68,0,6.03-5.44,6.76-16.17.44-4.85.59-11.17.59-18.97v-65.72Z"/>
    <path class="st0" d="M639.3,119.1h-9.41v-8.38c12.94,0,31.17-1.32,54.84-3.97v123.65c0,8.97.59,14.11,1.62,15.58.74,1.76,2.5,2.65,5.15,2.65,3.68,0,6.62-3.38,8.53-10.29,1.76-6.47,2.65-14.26,2.65-23.52v-95.86h-10.14v-8.38c6.17,0,15.29-.59,27.49-1.62,12.2-1.03,21.32-1.62,27.49-1.62v150.99h10.59v7.65c-10.14,0-19.7.59-28.52,1.62l-24.99,3.09v-30.87c-8.82,20.58-20.14,30.87-34.11,30.87-2.21,0-3.68,0-4.7-.29-9.56-.88-16.32-6.76-20.29-17.94-3.97-11.03-6.03-25.29-6.03-42.49v-91.15h0v.29h-.15Z"/>
    <path class="st0" d="M776.47,258.62V119.24h-9.41v-8.38c5.15,0,11.47-.29,18.82-1.03,16.91-1.47,28.82-2.21,36.17-2.21v30.43c7.79-20.73,18.52-31.02,32.34-31.02,2.79,0,5.15,0,6.62.29,1.91.59,3.97,1.32,6.62,2.65,11.47,5.73,17.35,24.26,17.35,55.57v93.21h10.14v7.65h-61.31v-7.65h6.47v-109.53c0-12.5-2.21-18.82-6.47-18.82h-.74c-3.38,0-6.03,2.94-7.65,8.82-2.21,7.35-3.09,14.11-3.09,20.58v98.8h7.06v7.65h-61.9v-7.65h9.41-.44Z"/>
  </g>
  <path class="st0" d="M1091.39,290.08h84.83c5.29,0,9.56,4.26,9.56,9.56h0c0,5.29-4.26,9.56-9.56,9.56h-84.83c-5.29,0-9.56-4.26-9.56-9.56h0c0-5.29,4.26-9.56,9.56-9.56Z"/>
  <path class="st0" d="M1671.24,80.72h84.83c5.29,0,9.56,4.26,9.56,9.56h0c0,5.29-4.26,9.56-9.56,9.56h-84.83c-5.29,0-9.56-4.26-9.56-9.56h0c0-5.29,4.26-9.56,9.56-9.56Z"/>
  <g>
    <path class="st0" d="M1200.33,102.63c26.46-.88,16.61.74,32.93,17.5l134.23-42.49-7.2-23.52c-1.03-3.53-5.29-6.32-9.56-5.15l-156.43,48.96c-4.56,1.47-7.94,5-6.32,10l4.41,13.38c2.35-4.41-2.21-18.23,7.79-18.67h.15ZM1334.86,58.38l25.14,17.2-18.82,5.88-24.99-17.2,18.67-5.88ZM1298.1,69.84l24.55,17.2c-6.32,2.5-11.76,4.26-18.08,6.17l-25.29-17.5s18.82-5.88,18.82-5.88ZM1261.2,81.31l25.29,17.35-18.08,6.32-25.58-17.64,18.38-5.88v-.15Z"/>
    <path class="st0" d="M1242.82,137.92l-24.85-32.2-17.05-.29c-1.91,0-4.7,2.06-4.7,4.26v37.49c0,2.65,2.21,4.85,4.85,4.85h37.34c6.32,0,4.85-10,4.41-13.97v-.15ZM1205.77,147.03c-2.5,0-4.56-2.06-4.56-4.56s2.06-4.56,4.56-4.56,4.56,2.06,4.56,4.56-2.06,4.56-4.56,4.56ZM1205.77,119.68c-2.5,0-4.56-2.06-4.56-4.56s2.06-4.56,4.56-4.56,4.56,2.06,4.56,4.56-2.06,4.56-4.56,4.56ZM1233.41,147.03c-2.5,0-4.56-2.06-4.56-4.56s2.06-4.56,4.56-4.56,4.56,2.06,4.56,4.56-2.06,4.56-4.56,4.56Z"/>
  </g>
  <path class="st0" d="M1372.64,127.48h-134.38c6.03,8.38,9.12,8.97,7.2,21.17-.59,3.38-4.12,6.03-7.2,6.03h-37.78c-2.06,0-5-2.65-6.32-3.97-1.47,3.82,0,7.5,3.97,8.82v97.18c0,9.26,7.5,16.91,16.91,16.91h138.35c9.26,0,16.91-7.5,16.91-16.91v-92.18c0-5.59,2.06-5.88,2.21-8.38.44-9.56.29-18.38.29-28.82l-.15.15ZM1268.84,131.59l19.7.29-18.23,23.38c-6.32,0-12.2,0-19.55-.15l18.08-23.38v-.15ZM1286.78,251.12c-20.88,0-37.64-16.91-37.64-37.64s16.91-37.64,37.64-37.64,37.64,16.91,37.64,37.64-16.91,37.64-37.64,37.64ZM1308.98,155.12h-19.7l18.23-23.67h19.55l-18.08,23.67ZM1347.5,155.12h-19.85l18.38-23.67h19.55l-18.08,23.67Z"/>
  <path class="st0" d="M1302.95,231.42c-2.21,1.76-4.85,2.94-7.65,3.53v-34.84h2.21c3.82,0,6.76-1.03,8.97-2.94s3.38-4.7,3.68-8.23h-.59c-.88,1.32-1.76,2.5-2.79,3.09s-2.21.88-3.68.88c-1.91,0-5-.44-9.12-1.47-2.21-.44-3.82-.88-5-1.03-2.5-.44-4.56-.88-6.17-1.03-1.62-.15-2.94-.29-4.12-.29-5.73,0-10.14,1.32-13.53,3.82-3.38,2.5-5.44,6.32-6.17,11.17h.74c1.62-2.5,3.53-4.41,5.59-5.59s4.41-1.76,7.2-1.76h1.91c.74,0,1.47.15,2.35.29-4.7,3.09-8.23,6.62-10.59,10.59-2.35,3.82-3.53,7.94-3.53,12.35,0,3.09.59,6.03,1.62,8.53,1.03,2.65,2.65,4.85,4.85,6.91,2.5,2.21,5.15,3.97,8.23,5.15,3.09,1.18,6.47,1.76,10.14,1.76,5.73,0,10.59-1.62,14.41-4.7,3.82-3.09,6.47-7.5,7.79-13.23l-.88-.29c-1.76,2.94-3.82,5.29-6.03,7.06l.15.29ZM1277.37,230.39c-2.21-1.91-3.82-3.97-4.85-6.47-1.03-2.35-1.62-5.15-1.62-8.09,0-3.68.59-6.91,1.91-9.7,1.32-2.94,3.38-5.73,6.03-8.38h1.03v26.32c0,1.62-.15,2.79-.59,3.68s-1.03,1.76-2.06,2.5l.15.15ZM1293.4,235.39h-2.06c-2.5,0-4.85-.29-6.91-1.03-2.06-.59-3.82-1.62-5.29-2.79,3.53-2.79,5.88-5.29,7.2-7.65s1.91-5.15,1.91-8.67v-16.17l5.15,1.03s0,35.29,0,35.29Z"/>
</svg>