<?xml version="1.0" encoding="UTF-8"?>
<svg id="Layer_1" xmlns="http://www.w3.org/2000/svg" version="1.1" viewBox="0 0 126.5 94.84">
  <!-- Generator: Adobe Illustrator 30.1.0, SVG Export Plug-In . SVG Version: 2.1.1 Build 136)  -->
  <defs>
    <style>
      .st0 {
        fill: #fff;
      }
    </style>
  </defs>
  <path class="st0" d="M34.44,0h3.5l2.38,9.86,2.49-9.86h3.5l2.49,9.86,2.38-9.86h3.5l-4.12,15.4h-3.34l-2.64-10.17-2.66,10.17h-3.34L34.44,0Z"/>
  <path class="st0" d="M56.48,0h3.1v5.24c.48-.44,1.43-.88,2.53-.88,2.64,0,4.4,1.72,4.4,4.78v6.27h-3.12v-6.03c0-1.14-.55-2.11-1.8-2.11-1.47,0-1.98,1.1-1.98,2.75v5.39h-3.12V0Z"/>
  <path class="st0" d="M68.56,10.08c0-3.26,2.18-5.72,5.3-5.72,3.48,0,5.19,2.79,5.19,5.52l-.02.92h-7.3c.18,1.12,1.03,1.98,2.42,1.98,1.12,0,1.98-.42,2.64-1.25l2.07,1.94c-.95,1.19-2.31,2.18-4.62,2.18-3.23,0-5.68-2.18-5.68-5.57ZM75.76,8.71c-.07-.9-.79-1.61-1.83-1.61-1.17,0-1.85.73-2.05,1.61h3.87Z"/>
  <path class="st0" d="M81.19,4.62h3.08v.75c.59-.57,1.45-1.01,2.55-1.01,2.64,0,4.4,1.72,4.4,4.78v6.27h-3.12v-6.03c0-1.14-.55-2.11-1.8-2.11-1.47,0-1.98,1.1-1.98,2.75v5.39h-3.12V4.62Z"/>
  <path class="st0" d="M10.35,44.13l2.18-2.09c.51.73,1.45,1.39,2.71,1.39,1.65,0,2.73-.97,2.73-2.4v-.29c-.55.48-1.43.81-2.64.81-2.99,0-5.28-1.98-5.28-5.39s2.51-5.41,5.28-5.41c1.19,0,2.11.48,2.71,1.03v-.77h3.06v9.66c0,3.26-2.11,5.63-5.83,5.63-2.77,0-4.2-1.3-4.91-2.18ZM15.61,38.72c1.32,0,2.42-1.01,2.42-2.55s-1.1-2.57-2.42-2.57-2.38,1.01-2.38,2.57,1.08,2.55,2.38,2.55Z"/>
  <path class="st0" d="M23.24,36.48c0-3.26,2.18-5.72,5.3-5.72,3.48,0,5.19,2.79,5.19,5.52l-.02.92h-7.3c.18,1.12,1.03,1.98,2.42,1.98,1.12,0,1.98-.42,2.64-1.25l2.07,1.94c-.95,1.19-2.31,2.18-4.62,2.18-3.23,0-5.68-2.18-5.68-5.57ZM30.44,35.11c-.07-.9-.79-1.61-1.83-1.61-1.17,0-1.85.73-2.05,1.61h3.87Z"/>
  <path class="st0" d="M35.87,31.02h3.08v.75c.59-.57,1.45-1.01,2.55-1.01,2.64,0,4.4,1.72,4.4,4.78v6.27h-3.12v-6.03c0-1.14-.55-2.11-1.8-2.11-1.47,0-1.98,1.1-1.98,2.75v5.39h-3.12v-10.78Z"/>
  <path class="st0" d="M47.95,36.48c0-3.26,2.18-5.72,5.3-5.72,3.48,0,5.19,2.79,5.19,5.52l-.02.92h-7.3c.18,1.12,1.03,1.98,2.42,1.98,1.12,0,1.98-.42,2.64-1.25l2.07,1.94c-.95,1.19-2.31,2.18-4.62,2.18-3.23,0-5.68-2.18-5.68-5.57ZM55.14,35.11c-.07-.9-.79-1.61-1.83-1.61-1.17,0-1.85.73-2.05,1.61h3.87Z"/>
  <path class="st0" d="M60.58,31.02h3.08v.97c.59-.7,1.58-1.12,2.68-1.12.37,0,.53,0,.84.02v3.01h-.48c-1.74,0-2.99,1.1-2.99,3.39v4.51h-3.12v-10.78Z"/>
  <path class="st0" d="M67.92,36.41c0-3.23,2.46-5.66,5.7-5.66s5.7,2.42,5.7,5.66-2.46,5.63-5.7,5.63-5.7-2.4-5.7-5.63ZM73.62,39.14c1.45,0,2.51-1.14,2.51-2.73s-1.06-2.73-2.51-2.73-2.51,1.14-2.51,2.73,1.06,2.73,2.51,2.73Z"/>
  <path class="st0" d="M80.68,39.95l1.91-1.96c1.08,1.06,2.11,1.43,3.08,1.43.64,0,1.21-.29,1.21-.7,0-.33-.29-.51-.97-.68l-1.43-.35c-2.4-.59-3.52-1.78-3.52-3.52,0-2.11,1.94-3.41,4.18-3.41,1.58,0,3.06.55,4.33,1.69l-1.92,2.02c-.66-.55-1.56-1.06-2.55-1.06-.62,0-1.01.29-1.01.64,0,.29.29.46.77.57l1.61.37c1.94.46,3.54,1.41,3.54,3.56,0,2.02-1.72,3.48-4.51,3.48-2.11,0-3.89-1.03-4.73-2.09Z"/>
  <path class="st0" d="M93.73,26.14c1.01,0,1.83.81,1.83,1.83s-.81,1.8-1.83,1.8-1.8-.81-1.8-1.8.79-1.83,1.8-1.83ZM92.17,31.02h3.12v10.78h-3.12v-10.78Z"/>
  <path class="st0" d="M98.59,38v-4.09h-1.41v-2.88h1.41v-3.01h3.12v3.01h2.38v2.88h-2.38v3.72c0,1.08.51,1.32,1.41,1.32h.92v2.86c-.35.02-1.08.04-1.69.04-2.55,0-3.76-1.36-3.76-3.85Z"/>
  <path class="st0" d="M109.57,41.8l-4.2-10.78h3.48l2.42,6.67,2.51-6.67h3.34l-6.01,15.05h-3.3l1.76-4.27Z"/>
  <path class="st0" d="M0,52.8h3.12v15.4H0v-15.4Z"/>
  <path class="st0" d="M5.39,65.03c0-2.38,2.05-3.48,4.27-3.48.84,0,1.61.15,2.13.31v-.18c0-1.01-.66-1.76-1.78-1.76-.84,0-1.74.4-2.31,1.25l-1.98-1.89c1.39-1.65,2.97-2.13,4.51-2.13,2.62,0,4.73,1.56,4.73,4.31v6.73h-3.12v-.7c-.55.48-1.47.95-2.71.95-2.33,0-3.74-1.47-3.74-3.41ZM9.88,65.8c.75,0,1.39-.26,1.91-.66v-1.23c-.37-.09-.88-.2-1.43-.2-1.23,0-1.83.48-1.83,1.12,0,.57.55.97,1.34.97Z"/>
  <path class="st0" d="M16.98,66.35l1.91-1.96c1.08,1.06,2.11,1.43,3.08,1.43.64,0,1.21-.29,1.21-.7,0-.33-.29-.51-.97-.68l-1.43-.35c-2.4-.59-3.52-1.78-3.52-3.52,0-2.11,1.94-3.41,4.18-3.41,1.58,0,3.06.55,4.33,1.69l-1.92,2.02c-.66-.55-1.56-1.06-2.55-1.06-.62,0-1.01.29-1.01.64,0,.29.29.46.77.57l1.61.37c1.94.46,3.54,1.41,3.54,3.56,0,2.02-1.72,3.48-4.51,3.48-2.11,0-3.89-1.03-4.73-2.09Z"/>
  <path class="st0" d="M28.62,64.4v-4.09h-1.41v-2.88h1.41v-3.01h3.12v3.01h2.38v2.88h-2.38v3.72c0,1.08.51,1.32,1.41,1.32h.92v2.86c-.35.02-1.08.04-1.69.04-2.55,0-3.76-1.36-3.76-3.85Z"/>
  <path class="st0" d="M35.86,66.35l1.91-1.96c1.08,1.06,2.11,1.43,3.08,1.43.64,0,1.21-.29,1.21-.7,0-.33-.29-.51-.97-.68l-1.43-.35c-2.4-.59-3.52-1.78-3.52-3.52,0-2.11,1.94-3.41,4.18-3.41,1.58,0,3.06.55,4.33,1.69l-1.92,2.02c-.66-.55-1.56-1.06-2.55-1.06-.62,0-1.01.29-1.01.64,0,.29.29.46.77.57l1.61.37c1.94.46,3.54,1.41,3.54,3.56,0,2.02-1.72,3.48-4.51,3.48-2.11,0-3.89-1.03-4.73-2.09Z"/>
  <path class="st0" d="M56.52,67.43v.77h-3.12v-15.4h3.17v5.3c.55-.48,1.5-.95,2.73-.95,2.97,0,5.39,2.25,5.39,5.66s-2.42,5.63-5.39,5.63c-1.21,0-2.2-.46-2.77-1.01ZM58.98,65.63c1.43,0,2.51-1.14,2.51-2.82s-1.08-2.82-2.51-2.82-2.46,1.14-2.46,2.82,1.03,2.82,2.46,2.82Z"/>
  <path class="st0" d="M66.22,62.88c0-3.26,2.18-5.72,5.3-5.72,3.48,0,5.19,2.79,5.19,5.52l-.02.92h-7.3c.18,1.12,1.03,1.98,2.42,1.98,1.12,0,1.98-.42,2.64-1.25l2.07,1.94c-.95,1.19-2.31,2.18-4.62,2.18-3.23,0-5.68-2.18-5.68-5.57ZM73.41,61.51c-.07-.9-.79-1.61-1.83-1.61-1.17,0-1.85.73-2.05,1.61h3.87Z"/>
  <path class="st0" d="M81.47,68.2l-4.2-10.78h3.48l2.42,6.67,2.51-6.67h3.34l-6.01,15.05h-3.3l1.76-4.27Z"/>
  <path class="st0" d="M89.58,62.81c0-3.23,2.46-5.66,5.7-5.66s5.7,2.42,5.7,5.66-2.46,5.63-5.7,5.63-5.7-2.4-5.7-5.63ZM95.28,65.54c1.45,0,2.51-1.14,2.51-2.73s-1.06-2.73-2.51-2.73-2.51,1.14-2.51,2.73,1.06,2.73,2.51,2.73Z"/>
  <path class="st0" d="M103.13,57.42h3.08v.75c.59-.57,1.45-1.01,2.55-1.01,2.64,0,4.4,1.72,4.4,4.78v6.27h-3.12v-6.03c0-1.14-.55-2.11-1.8-2.11-1.47,0-1.98,1.1-1.98,2.75v5.39h-3.12v-10.78Z"/>
  <path class="st0" d="M115.21,62.81c0-3.41,2.42-5.66,5.39-5.66,1.23,0,2.18.46,2.73.95v-5.3h3.17v15.4h-3.12v-.77c-.57.55-1.56,1.01-2.77,1.01-2.97,0-5.39-2.16-5.39-5.63ZM120.91,65.63c1.43,0,2.46-1.14,2.46-2.82s-1.03-2.82-2.46-2.82-2.51,1.14-2.51,2.82,1.08,2.82,2.51,2.82Z"/>
  <path class="st0" d="M13.72,91.43c0-2.38,2.05-3.48,4.27-3.48.84,0,1.61.15,2.13.31v-.18c0-1.01-.66-1.76-1.78-1.76-.84,0-1.74.4-2.31,1.25l-1.98-1.89c1.39-1.65,2.97-2.13,4.51-2.13,2.62,0,4.73,1.56,4.73,4.31v6.73h-3.12v-.7c-.55.48-1.47.95-2.71.95-2.33,0-3.74-1.47-3.74-3.41ZM18.21,92.2c.75,0,1.39-.26,1.91-.66v-1.23c-.37-.09-.88-.2-1.43-.2-1.23,0-1.83.48-1.83,1.12,0,.57.55.97,1.34.97Z"/>
  <path class="st0" d="M32.11,79.2h3.12v15.4h-3.12v-15.4Z"/>
  <path class="st0" d="M39.68,78.94c1.01,0,1.83.81,1.83,1.83s-.81,1.8-1.83,1.8-1.8-.81-1.8-1.8.79-1.83,1.8-1.83ZM38.11,83.82h3.12v10.78h-3.12v-10.78Z"/>
  <path class="st0" d="M44.67,86.7h-1.41v-2.88h1.41v-.53c0-2.99,1.96-4.36,4.75-4.36.37,0,.68.02.81.02v2.95h-.53c-1.41,0-1.91.48-1.91,1.56v.35h2.35v2.88h-2.35v7.9h-3.12v-7.9Z"/>
  <path class="st0" d="M51.07,89.28c0-3.26,2.18-5.72,5.3-5.72,3.48,0,5.19,2.79,5.19,5.52l-.02.92h-7.3c.18,1.12,1.03,1.98,2.42,1.98,1.12,0,1.98-.42,2.64-1.25l2.07,1.94c-.95,1.19-2.31,2.18-4.62,2.18-3.23,0-5.68-2.18-5.68-5.57ZM58.27,87.91c-.07-.9-.79-1.61-1.83-1.61-1.17,0-1.85.73-2.05,1.61h3.87Z"/>
  <path class="st0" d="M63.99,90.8v-4.09h-1.41v-2.88h1.41v-3.01h3.12v3.01h2.38v2.88h-2.38v3.72c0,1.08.51,1.32,1.41,1.32h.92v2.86c-.35.02-1.08.04-1.69.04-2.55,0-3.76-1.36-3.76-3.85Z"/>
  <path class="st0" d="M73.54,78.94c1.01,0,1.83.81,1.83,1.83s-.81,1.8-1.83,1.8-1.8-.81-1.8-1.8.79-1.83,1.8-1.83ZM71.97,83.82h3.12v10.78h-3.12v-10.78Z"/>
  <path class="st0" d="M78,83.82h3.08v.75c.59-.57,1.5-1.01,2.6-1.01,1.21,0,2.27.46,2.99,1.3.75-.75,1.91-1.3,3.23-1.3,2.88,0,4.51,1.72,4.51,4.78v6.27h-3.12v-6.14c0-1.17-.53-2-1.65-2-1.19,0-1.87.9-1.87,2.4v5.74h-3.12v-6.14c0-1.17-.53-2-1.65-2-1.23,0-1.87.97-1.87,2.62v5.52h-3.12v-10.78Z"/>
  <path class="st0" d="M96.46,89.28c0-3.26,2.18-5.72,5.3-5.72,3.48,0,5.19,2.79,5.19,5.52l-.02.92h-7.3c.18,1.12,1.03,1.98,2.42,1.98,1.12,0,1.98-.42,2.64-1.25l2.07,1.94c-.95,1.19-2.31,2.18-4.62,2.18-3.23,0-5.68-2.18-5.68-5.57ZM103.65,87.91c-.07-.9-.79-1.61-1.83-1.61-1.17,0-1.85.73-2.05,1.61h3.87Z"/>
  <path class="st0" d="M108.69,92.95c0-1.06.81-1.89,1.87-1.89s1.91.84,1.91,1.89-.86,1.89-1.91,1.89-1.87-.84-1.87-1.89Z"/>
</svg>