<?xml version="1.0" encoding="UTF-8"?>
<svg id="Layer_1" xmlns="http://www.w3.org/2000/svg" version="1.1" viewBox="0 0 124.7 110.47">
  <!-- Generator: Adobe Illustrator 30.1.0, SVG Export Plug-In . SVG Version: 2.1.1 Build 136)  -->
  <defs>
    <style>
      .st0 {
        fill: #fff;
      }
    </style>
  </defs>
  <path class="st0" d="M24.34.26h3.28v6.03h6.47V.26h3.26v15.4h-3.26v-6.38h-6.47v6.38h-3.28V.26Z"/>
  <path class="st0" d="M39.66,10.34c0-3.26,2.18-5.72,5.3-5.72,3.48,0,5.19,2.79,5.19,5.52l-.02.92h-7.31c.18,1.12,1.03,1.98,2.42,1.98,1.12,0,1.98-.42,2.64-1.25l2.07,1.94c-.95,1.19-2.31,2.18-4.62,2.18-3.23,0-5.68-2.18-5.68-5.57ZM46.85,8.98c-.07-.9-.79-1.61-1.83-1.61-1.17,0-1.85.73-2.05,1.61h3.87Z"/>
  <path class="st0" d="M52.28.26h3.12v15.4h-3.12V.26Z"/>
  <path class="st0" d="M58.18,4.88h3.08v.77c.57-.55,1.61-1.03,2.82-1.03,2.97,0,5.39,2.16,5.39,5.66s-2.42,5.63-5.39,5.63c-1.23,0-2.22-.44-2.77-.92v4.95h-3.12V4.88ZM63.77,13.09c1.43,0,2.51-1.14,2.51-2.82s-1.08-2.82-2.51-2.82-2.51,1.14-2.51,2.82,1.08,2.82,2.51,2.82Z"/>
  <path class="st0" d="M73.29,0c1.01,0,1.83.81,1.83,1.83s-.81,1.8-1.83,1.8-1.8-.81-1.8-1.8.79-1.83,1.8-1.83ZM71.73,4.88h3.12v10.78h-3.12V4.88Z"/>
  <path class="st0" d="M77.76,4.88h3.08v.75c.59-.57,1.45-1.01,2.55-1.01,2.64,0,4.4,1.72,4.4,4.78v6.27h-3.12v-6.03c0-1.14-.55-2.11-1.8-2.11-1.47,0-1.98,1.1-1.98,2.75v5.39h-3.12V4.88Z"/>
  <path class="st0" d="M90.17,18l2.18-2.09c.51.73,1.45,1.39,2.71,1.39,1.65,0,2.73-.97,2.73-2.4v-.29c-.55.48-1.43.81-2.64.81-2.99,0-5.28-1.98-5.28-5.39s2.51-5.41,5.28-5.41c1.19,0,2.11.48,2.71,1.03v-.77h3.06v9.66c0,3.26-2.11,5.63-5.83,5.63-2.77,0-4.2-1.3-4.91-2.18ZM95.42,12.59c1.32,0,2.42-1.01,2.42-2.55s-1.1-2.57-2.42-2.57-2.38,1.01-2.38,2.57,1.08,2.55,2.38,2.55Z"/>
  <path class="st0" d="M16.24,34.43v-4.09h-1.41v-2.88h1.41v-3.01h3.12v3.01h2.38v2.88h-2.38v3.72c0,1.08.51,1.32,1.41,1.32h.92v2.86c-.35.02-1.08.04-1.69.04-2.55,0-3.76-1.36-3.76-3.85Z"/>
  <path class="st0" d="M24.11,27.46h3.08v.97c.59-.7,1.58-1.12,2.68-1.12.37,0,.53,0,.84.02v3.01h-.48c-1.74,0-2.99,1.1-2.99,3.39v4.51h-3.12v-10.78Z"/>
  <path class="st0" d="M31.46,32.91c0-3.26,2.18-5.72,5.3-5.72,3.48,0,5.19,2.79,5.19,5.52l-.02.92h-7.3c.18,1.12,1.03,1.98,2.42,1.98,1.12,0,1.98-.42,2.64-1.25l2.07,1.94c-.95,1.19-2.31,2.18-4.62,2.18-3.23,0-5.68-2.18-5.68-5.57ZM38.66,31.55c-.07-.9-.79-1.61-1.83-1.61-1.17,0-1.85.73-2.05,1.61h3.87Z"/>
  <path class="st0" d="M43.19,35.07c0-2.38,2.05-3.48,4.27-3.48.84,0,1.61.15,2.13.31v-.18c0-1.01-.66-1.76-1.78-1.76-.84,0-1.74.4-2.31,1.25l-1.98-1.89c1.39-1.65,2.97-2.13,4.51-2.13,2.62,0,4.73,1.56,4.73,4.31v6.73h-3.12v-.7c-.55.48-1.47.95-2.71.95-2.33,0-3.74-1.47-3.74-3.41ZM47.67,35.84c.75,0,1.39-.26,1.91-.66v-1.23c-.37-.09-.88-.2-1.43-.2-1.23,0-1.83.48-1.83,1.12,0,.57.55.97,1.34.97Z"/>
  <path class="st0" d="M54.78,36.39l1.91-1.96c1.08,1.06,2.11,1.43,3.08,1.43.64,0,1.21-.29,1.21-.7,0-.33-.29-.51-.97-.68l-1.43-.35c-2.4-.59-3.52-1.78-3.52-3.52,0-2.11,1.94-3.41,4.18-3.41,1.58,0,3.06.55,4.33,1.69l-1.91,2.02c-.66-.55-1.56-1.06-2.55-1.06-.62,0-1.01.29-1.01.64,0,.29.29.46.77.57l1.61.37c1.94.46,3.54,1.41,3.54,3.56,0,2.02-1.72,3.48-4.51,3.48-2.11,0-3.89-1.03-4.73-2.09Z"/>
  <path class="st0" d="M66.04,33.73v-6.27h3.15v6.14c0,1.17.53,2,1.65,2,1.36,0,1.85-.97,1.85-2.62v-5.52h3.15v10.78h-3.08v-.75c-.66.68-1.65.99-2.68.99-2.51,0-4.03-1.69-4.03-4.75Z"/>
  <path class="st0" d="M78.61,27.46h3.08v.97c.59-.7,1.58-1.12,2.68-1.12.37,0,.53,0,.84.02v3.01h-.48c-1.74,0-2.99,1.1-2.99,3.39v4.51h-3.12v-10.78Z"/>
  <path class="st0" d="M85.95,32.91c0-3.26,2.18-5.72,5.3-5.72,3.48,0,5.19,2.79,5.19,5.52l-.02.92h-7.31c.18,1.12,1.03,1.98,2.42,1.98,1.12,0,1.98-.42,2.64-1.25l2.07,1.94c-.95,1.19-2.31,2.18-4.62,2.18-3.23,0-5.68-2.18-5.68-5.57ZM93.15,31.55c-.07-.9-.79-1.61-1.83-1.61-1.17,0-1.85.73-2.05,1.61h3.87Z"/>
  <path class="st0" d="M97.97,32.85c0-3.41,2.42-5.66,5.39-5.66,1.23,0,2.18.46,2.73.95v-5.3h3.17v15.4h-3.12v-.77c-.57.55-1.56,1.01-2.77,1.01-2.97,0-5.39-2.16-5.39-5.63ZM103.66,35.66c1.43,0,2.46-1.14,2.46-2.82s-1.03-2.82-2.46-2.82-2.51,1.14-2.51,2.82,1.08,2.82,2.51,2.82Z"/>
  <path class="st0" d="M31.42,50.03h3.08v.77c.57-.55,1.61-1.03,2.82-1.03,2.97,0,5.39,2.16,5.39,5.66s-2.42,5.63-5.39,5.63c-1.23,0-2.22-.44-2.77-.92v4.95h-3.12v-15.05ZM37,58.24c1.43,0,2.51-1.14,2.51-2.82s-1.08-2.82-2.51-2.82-2.51,1.14-2.51,2.82,1.08,2.82,2.51,2.82Z"/>
  <path class="st0" d="M44.86,45.41h3.12v15.4h-3.12v-15.4Z"/>
  <path class="st0" d="M50.25,57.64c0-2.38,2.05-3.48,4.27-3.48.84,0,1.61.15,2.13.31v-.18c0-1.01-.66-1.76-1.78-1.76-.84,0-1.74.4-2.31,1.25l-1.98-1.89c1.39-1.65,2.97-2.13,4.51-2.13,2.62,0,4.73,1.56,4.73,4.31v6.73h-3.12v-.7c-.55.48-1.47.95-2.71.95-2.33,0-3.74-1.47-3.74-3.41ZM54.74,58.41c.75,0,1.39-.26,1.91-.66v-1.23c-.37-.09-.88-.2-1.43-.2-1.23,0-1.83.48-1.83,1.12,0,.57.55.97,1.34.97Z"/>
  <path class="st0" d="M61.86,55.42c0-3.23,2.46-5.66,5.7-5.66,2.05,0,3.37.88,4.51,2.16l-2.11,2.05c-.62-.75-1.3-1.25-2.29-1.25-1.47,0-2.62,1.12-2.62,2.71s1.14,2.71,2.62,2.71c1.08,0,1.83-.53,2.51-1.41l2.11,2.05c-1.1,1.45-2.64,2.29-4.73,2.29-3.23,0-5.7-2.4-5.7-5.63Z"/>
  <path class="st0" d="M73.24,55.49c0-3.26,2.18-5.72,5.3-5.72,3.48,0,5.19,2.79,5.19,5.52l-.02.92h-7.3c.18,1.12,1.03,1.98,2.42,1.98,1.12,0,1.98-.42,2.64-1.25l2.07,1.94c-.95,1.19-2.31,2.18-4.62,2.18-3.23,0-5.68-2.18-5.68-5.57ZM80.43,54.12c-.07-.9-.79-1.61-1.83-1.61-1.17,0-1.85.73-2.05,1.61h3.87Z"/>
  <path class="st0" d="M85.07,58.96l1.92-1.96c1.08,1.06,2.11,1.43,3.08,1.43.64,0,1.21-.29,1.21-.7,0-.33-.29-.51-.97-.68l-1.43-.35c-2.4-.59-3.52-1.78-3.52-3.52,0-2.11,1.94-3.41,4.18-3.41,1.58,0,3.06.55,4.33,1.69l-1.91,2.02c-.66-.55-1.56-1.06-2.55-1.06-.62,0-1.01.29-1.01.64,0,.29.29.46.77.57l1.61.37c1.94.46,3.54,1.41,3.54,3.56,0,2.02-1.72,3.48-4.51,3.48-2.11,0-3.9-1.03-4.73-2.09Z"/>
  <path class="st0" d="M17.58,79.58v-4.09h-1.41v-2.88h1.41v-3.01h3.12v3.01h2.38v2.88h-2.38v3.72c0,1.08.51,1.32,1.41,1.32h.92v2.86c-.35.02-1.08.04-1.69.04-2.55,0-3.76-1.36-3.76-3.85Z"/>
  <path class="st0" d="M25.45,67.98h3.1v5.24c.48-.44,1.43-.88,2.53-.88,2.64,0,4.4,1.72,4.4,4.78v6.27h-3.12v-6.03c0-1.14-.55-2.11-1.8-2.11-1.47,0-1.98,1.1-1.98,2.75v5.39h-3.12v-15.4Z"/>
  <path class="st0" d="M38.15,72.6h3.08v.97c.59-.7,1.58-1.12,2.68-1.12.37,0,.53,0,.84.02v3.01h-.48c-1.74,0-2.99,1.1-2.99,3.39v4.51h-3.12v-10.78Z"/>
  <path class="st0" d="M48.29,67.72c1.01,0,1.83.81,1.83,1.83s-.81,1.8-1.83,1.8-1.8-.81-1.8-1.8.79-1.83,1.8-1.83ZM46.73,72.6h3.12v10.78h-3.12v-10.78Z"/>
  <path class="st0" d="M51.5,72.6h3.32l2.11,6.67,2.11-6.67h3.32l-3.83,10.78h-3.21l-3.83-10.78Z"/>
  <path class="st0" d="M62.94,78.06c0-3.26,2.18-5.72,5.3-5.72,3.48,0,5.19,2.79,5.19,5.52l-.02.92h-7.3c.18,1.12,1.03,1.98,2.42,1.98,1.12,0,1.98-.42,2.64-1.25l2.07,1.94c-.95,1.19-2.31,2.18-4.62,2.18-3.23,0-5.68-2.18-5.68-5.57ZM70.14,76.69c-.07-.9-.79-1.61-1.83-1.61-1.17,0-1.85.73-2.05,1.61h3.87Z"/>
  <path class="st0" d="M82.26,75.48h-1.41v-2.88h1.41v-.53c0-2.99,1.96-4.36,4.75-4.36.37,0,.68.02.81.02v2.95h-.53c-1.41,0-1.91.48-1.91,1.56v.35h2.35v2.88h-2.35v7.9h-3.12v-7.9Z"/>
  <path class="st0" d="M88.66,77.99c0-3.23,2.46-5.66,5.7-5.66s5.7,2.42,5.7,5.66-2.46,5.63-5.7,5.63-5.7-2.4-5.7-5.63ZM94.36,80.72c1.45,0,2.51-1.14,2.51-2.73s-1.06-2.73-2.51-2.73-2.51,1.14-2.51,2.73,1.06,2.73,2.51,2.73Z"/>
  <path class="st0" d="M102.21,72.6h3.08v.97c.59-.7,1.58-1.12,2.68-1.12.37,0,.53,0,.84.02v3.01h-.48c-1.74,0-2.99,1.1-2.99,3.39v4.51h-3.12v-10.78Z"/>
  <path class="st0" d="M.31,108.29l2.18-2.09c.51.73,1.45,1.39,2.71,1.39,1.65,0,2.73-.97,2.73-2.4v-.29c-.55.48-1.43.81-2.64.81-2.99,0-5.28-1.98-5.28-5.39s2.51-5.41,5.28-5.41c1.19,0,2.11.48,2.71,1.03v-.77h3.06v9.66c0,3.26-2.11,5.63-5.83,5.63-2.77,0-4.2-1.3-4.91-2.18ZM5.57,102.88c1.32,0,2.42-1.01,2.42-2.55s-1.1-2.57-2.42-2.57-2.38,1.01-2.38,2.57,1.08,2.55,2.38,2.55Z"/>
  <path class="st0" d="M13.2,100.63c0-3.26,2.18-5.72,5.3-5.72,3.48,0,5.19,2.79,5.19,5.52l-.02.92h-7.3c.18,1.12,1.03,1.98,2.42,1.98,1.12,0,1.98-.42,2.64-1.25l2.07,1.94c-.95,1.19-2.31,2.18-4.62,2.18-3.23,0-5.68-2.18-5.68-5.57ZM20.4,99.27c-.07-.9-.79-1.61-1.83-1.61-1.17,0-1.85.73-2.05,1.61h3.87Z"/>
  <path class="st0" d="M25.83,95.18h3.08v.75c.59-.57,1.45-1.01,2.55-1.01,2.64,0,4.4,1.72,4.4,4.78v6.27h-3.12v-6.03c0-1.14-.55-2.11-1.8-2.11-1.47,0-1.98,1.1-1.98,2.75v5.39h-3.12v-10.78Z"/>
  <path class="st0" d="M37.91,100.63c0-3.26,2.18-5.72,5.3-5.72,3.48,0,5.19,2.79,5.19,5.52l-.02.92h-7.31c.18,1.12,1.03,1.98,2.42,1.98,1.12,0,1.98-.42,2.64-1.25l2.07,1.94c-.95,1.19-2.31,2.18-4.62,2.18-3.23,0-5.68-2.18-5.68-5.57ZM45.1,99.27c-.07-.9-.79-1.61-1.83-1.61-1.17,0-1.85.73-2.05,1.61h3.87Z"/>
  <path class="st0" d="M50.53,95.18h3.08v.97c.59-.7,1.58-1.12,2.68-1.12.37,0,.53,0,.84.02v3.01h-.48c-1.74,0-2.99,1.1-2.99,3.39v4.51h-3.12v-10.78Z"/>
  <path class="st0" d="M58.1,102.79c0-2.38,2.05-3.48,4.27-3.48.84,0,1.61.15,2.13.31v-.18c0-1.01-.66-1.76-1.78-1.76-.84,0-1.74.4-2.31,1.25l-1.98-1.89c1.39-1.65,2.97-2.13,4.51-2.13,2.62,0,4.73,1.56,4.73,4.31v6.73h-3.12v-.7c-.55.48-1.47.95-2.71.95-2.33,0-3.74-1.47-3.74-3.41ZM62.59,103.56c.75,0,1.39-.26,1.91-.66v-1.23c-.37-.09-.88-.2-1.43-.2-1.23,0-1.83.48-1.83,1.12,0,.57.55.97,1.34.97Z"/>
  <path class="st0" d="M70.73,102.15v-4.09h-1.41v-2.88h1.41v-3.01h3.12v3.01h2.38v2.88h-2.38v3.72c0,1.08.51,1.32,1.41,1.32h.92v2.86c-.35.02-1.08.04-1.69.04-2.55,0-3.76-1.36-3.76-3.85Z"/>
  <path class="st0" d="M80.28,90.29c1.01,0,1.83.81,1.83,1.83s-.81,1.8-1.83,1.8-1.8-.81-1.8-1.8.79-1.83,1.8-1.83ZM78.72,95.18h3.12v10.78h-3.12v-10.78Z"/>
  <path class="st0" d="M84.13,100.57c0-3.23,2.46-5.66,5.7-5.66s5.7,2.42,5.7,5.66-2.46,5.63-5.7,5.63-5.7-2.4-5.7-5.63ZM89.83,103.29c1.45,0,2.51-1.14,2.51-2.73s-1.06-2.73-2.51-2.73-2.51,1.14-2.51,2.73,1.06,2.73,2.51,2.73Z"/>
  <path class="st0" d="M97.68,95.18h3.08v.75c.59-.57,1.45-1.01,2.55-1.01,2.64,0,4.4,1.72,4.4,4.78v6.27h-3.12v-6.03c0-1.14-.55-2.11-1.8-2.11-1.47,0-1.98,1.1-1.98,2.75v5.39h-3.12v-10.78Z"/>
  <path class="st0" d="M109.73,104.11l1.91-1.96c1.08,1.06,2.11,1.43,3.08,1.43.64,0,1.21-.29,1.21-.7,0-.33-.29-.51-.97-.68l-1.43-.35c-2.4-.59-3.52-1.78-3.52-3.52,0-2.11,1.94-3.41,4.18-3.41,1.58,0,3.06.55,4.33,1.69l-1.92,2.02c-.66-.55-1.56-1.06-2.55-1.06-.62,0-1.01.29-1.01.64,0,.29.29.46.77.57l1.61.37c1.94.46,3.54,1.41,3.54,3.56,0,2.02-1.72,3.48-4.51,3.48-2.11,0-3.89-1.03-4.73-2.09Z"/>
  <path class="st0" d="M120.91,104.31c0-1.06.81-1.89,1.87-1.89s1.91.84,1.91,1.89-.86,1.89-1.91,1.89-1.87-.84-1.87-1.89Z"/>
</svg>