<?xml version="1.0" encoding="UTF-8"?>
<svg id="Layer_1" xmlns="http://www.w3.org/2000/svg" version="1.1" viewBox="0 0 85.45 70">
  <!-- Generator: Adobe Illustrator 30.1.0, SVG Export Plug-In . SVG Version: 2.1.1 Build 136)  -->
  <defs>
    <style>
      .st0 {
        fill: #fff;
      }

      .st1 {
        fill: #0d393b;
      }
    </style>
  </defs>
  <rect class="st1" width="85.45" height="70"/>
  <g>
    <polygon class="st0" points="64.09 42.96 21.35 42.96 21.35 42.62 64.09 42.62 64.09 42.96 64.09 42.96"/>
    <path class="st0" d="M45.47,22.78h-4.43l-7.11,18.34h3.88l1.6-4.39h6.96l1.55,4.39h4.87l-7.31-18.34h0ZM40.33,34.05l2.4-6.74,2.62,6.74h-5.03Z"/>
    <path class="st0" d="M45.47,22.76h-4.43l-7.11,18.34h3.88l1.6-4.39h6.96l1.55,4.39h4.87l-7.31-18.34h0ZM40.33,34.04l2.4-6.74,2.62,6.74h-5.03Z"/>
    <path class="st0" d="M23.43,47.18c-.2.05-.41.08-.61.08-.87,0-1.47-.44-1.47-1.34s.56-1.44,1.47-1.44c.18,0,.41.03.61.11l-.04.45c-.2-.12-.39-.14-.58-.14-.55,0-.9.42-.9.97s.34.96.91.96c.21,0,.46-.05.59-.11l.02.45h0Z"/>
    <path class="st0" d="M23.76,44.33h.52v1.17h0c.13-.19.35-.32.62-.32.47,0,.67.33.67.78v1.25h-.52v-1.06c0-.24,0-.57-.34-.57-.37,0-.45.4-.45.66v.97h-.52v-2.89h0Z"/>
    <path class="st0" d="M26.69,46.88c.16,0,.28-.07.36-.18.08-.11.11-.25.11-.41h-.22c-.23,0-.57.04-.57.34,0,.17.14.24.33.24h0ZM26.08,45.34c.2-.09.47-.15.69-.15.6,0,.85.25.85.84v.25c0,.2,0,.35,0,.5,0,.15.01.29.02.44h-.45c-.02-.1-.02-.23-.02-.3h0c-.12.22-.38.34-.61.34-.35,0-.69-.21-.69-.59,0-.3.14-.47.34-.57.2-.1.45-.12.67-.12h.28c0-.32-.14-.43-.45-.43-.22,0-.44.08-.61.22l-.02-.44h0Z"/>
    <path class="st0" d="M28.04,45.23h.46v.45h0c.02-.18.23-.5.54-.5.05,0,.1,0,.16.02v.52s-.14-.04-.23-.04c-.42,0-.42.52-.42.81v.73h-.52v-1.98h0Z"/>
    <path class="st0" d="M29.52,45.23h.52v1.98h-.52v-1.98h0ZM29.52,44.38h.52v.49h-.52v-.49h0Z"/>
    <path class="st0" d="M30.73,45.61h-.38v-.38h.38v-.4l.52-.17v.56h.46v.38h-.46v.92c0,.17.05.33.24.33.09,0,.18-.02.24-.05l.02.41c-.11.03-.23.05-.38.05-.4,0-.63-.25-.63-.64v-1.01h0Z"/>
    <path class="st0" d="M32.05,45.23h.52v1.98h-.52v-1.98h0ZM32.05,44.38h.52v.49h-.52v-.49h0Z"/>
    <path class="st0" d="M34.34,46.03c-.02-.25-.13-.47-.42-.47s-.44.2-.46.47h.88ZM34.69,47.1c-.19.1-.4.16-.68.16-.65,0-1.04-.38-1.04-1.03,0-.57.3-1.05.92-1.05.74,0,.94.5.94,1.2h-1.37c.02.32.25.5.57.5.25,0,.47-.09.66-.2v.42h0Z"/>
    <path class="st0" d="M36.4,45.65c-.16-.05-.27-.08-.46-.08-.14,0-.3.05-.3.22,0,.32.9.12.9.83,0,.46-.41.65-.83.65-.2,0-.4-.03-.59-.08l.03-.42c.16.08.33.13.51.13.13,0,.34-.05.34-.24,0-.39-.9-.12-.9-.84,0-.43.37-.62.78-.62.24,0,.4.04.56.07l-.03.39h0Z"/>
    <path class="st0" d="M38.81,45.07h0l-.39,1.11h.79l-.39-1.11h0ZM38.51,44.53h.61l1.06,2.69h-.6l-.23-.62h-1.09l-.24.62h-.56l1.05-2.69h0Z"/>
    <path class="st0" d="M40.47,45.23h.52v1.98h-.52v-1.98h0ZM40.47,44.38h.52v.49h-.52v-.49h0Z"/>
    <path class="st0" d="M42.36,46.86c.34,0,.45-.36.45-.64s-.13-.63-.46-.63-.43.37-.43.63.1.64.44.64h0ZM42.83,46.99h0c-.15.19-.37.27-.61.27-.61,0-.83-.5-.83-1.04s.22-1.03.83-1.03c.26,0,.44.09.59.28h0v-1.14h.52v2.89h-.5v-.22h0Z"/>
    <polygon class="st0" points="44.58 44.53 46.07 44.53 46.07 44.95 45.12 44.95 45.12 45.61 46.03 45.61 46.03 46.04 45.12 46.04 45.12 47.22 44.58 47.22 44.58 44.53 44.58 44.53"/>
    <path class="st0" d="M47.26,46.86c.4,0,.5-.35.5-.69,0-.3-.16-.59-.5-.59s-.5.29-.5.59c0,.33.1.69.5.69h0ZM47.26,45.19c.59,0,1.04.4,1.04,1.05,0,.57-.38,1.02-1.04,1.02s-1.04-.45-1.04-1.02c0-.65.45-1.05,1.04-1.05h0Z"/>
    <path class="st0" d="M50.41,47.22h-.49v-.27h0c-.16.19-.38.32-.65.32-.47,0-.67-.33-.67-.78v-1.25h.52v1.06c0,.24,0,.57.33.57.37,0,.45-.4.45-.66v-.97h.52v1.98h0Z"/>
    <path class="st0" d="M50.82,45.23h.49v.27h0c.16-.23.38-.32.65-.32.47,0,.67.33.67.78v1.25h-.52v-1.06c0-.24,0-.57-.33-.57-.37,0-.45.4-.45.66v.97h-.52v-1.98h0Z"/>
    <path class="st0" d="M53.95,46.86c.34,0,.45-.36.45-.64s-.13-.63-.46-.63-.43.37-.43.63.1.64.44.64h0ZM54.42,46.99h0c-.15.19-.37.27-.61.27-.61,0-.83-.5-.83-1.04s.22-1.03.83-1.03c.26,0,.44.09.59.28h0v-1.14h.52v2.89h-.5v-.22h0Z"/>
    <path class="st0" d="M56.09,46.88c.16,0,.28-.07.36-.18.08-.11.11-.25.11-.41h-.22c-.23,0-.57.04-.57.34,0,.17.14.24.33.24h0ZM55.48,45.34c.2-.09.47-.15.69-.15.6,0,.85.25.85.84v.25c0,.2,0,.35,0,.5,0,.15.01.29.02.44h-.45c-.02-.1-.02-.24-.02-.3h0c-.12.22-.38.34-.61.34-.35,0-.69-.21-.69-.59,0-.3.14-.47.34-.57.2-.1.45-.12.67-.12h.29c0-.32-.14-.43-.45-.43-.22,0-.44.08-.61.22l-.02-.44h0Z"/>
    <path class="st0" d="M57.69,45.61h-.38v-.38h.38v-.4l.52-.17v.56h.46v.38h-.46v.92c0,.17.05.33.24.33.09,0,.18-.02.23-.05l.02.41c-.11.03-.23.05-.38.05-.4,0-.63-.25-.63-.64v-1.01h0Z"/>
    <path class="st0" d="M59.07,45.23h.52v1.98h-.52v-1.98h0ZM59.07,44.38h.52v.49h-.52v-.49h0Z"/>
    <path class="st0" d="M60.92,46.86c.4,0,.5-.35.5-.69,0-.3-.16-.59-.5-.59s-.5.29-.5.59c0,.33.1.69.5.69h0ZM60.92,45.19c.59,0,1.04.4,1.04,1.05,0,.57-.38,1.02-1.04,1.02-.65,0-1.04-.45-1.04-1.02,0-.65.45-1.05,1.04-1.05h0Z"/>
    <path class="st0" d="M62.29,45.23h.49v.27h0c.16-.23.38-.32.65-.32.47,0,.67.33.67.78v1.25h-.52v-1.06c0-.24,0-.57-.34-.57-.37,0-.45.4-.45.66v.97h-.52v-1.98h0Z"/>
    <path class="st0" d="M33.59,38.06c-.72.18-1.59.27-2.61.27-1.5,0-2.69-.51-3.56-1.53-.87-1.02-1.31-2.59-1.31-4.71v-.26c0-1.98.47-3.54,1.4-4.66.93-1.12,2.23-1.69,3.89-1.69.89,0,1.67.07,2.33.2.66.14,1.19.29,1.57.47v-2.8c-.43-.19-1.02-.34-1.79-.46-.77-.11-1.73-.17-2.87-.17-2.67,0-4.88.81-6.65,2.43-1.77,1.62-2.65,3.77-2.65,6.45v.72c0,2.87.87,5.05,2.61,6.53,1.72,1.46,3.93,2.2,6.63,2.22h0s3,0,3,0l1.32-3.41c-.36.12-.8.25-1.31.37h0Z"/>
    <polygon class="st0" points="64.11 25.52 64.11 22.76 51.29 22.76 51.29 36.4 53.16 41.1 56.02 41.1 56.02 33.18 62.3 33.18 62.3 30.42 56.02 30.42 56.02 25.52 64.11 25.52 64.11 25.52"/>
  </g>
</svg>