<?xml version="1.0" encoding="UTF-8"?>
<svg id="Layer_1" xmlns="http://www.w3.org/2000/svg" version="1.1" viewBox="0 0 228.65 92.88">
  <!-- Generator: Adobe Illustrator 30.1.0, SVG Export Plug-In . SVG Version: 2.1.1 Build 136)  -->
  <defs>
    <style>
      .st0 {
        fill: #fff;
      }
    </style>
  </defs>
  <path class="st0" d="M.95.34h4.17v7.67h8.23V.34h4.14v19.6h-4.14v-8.12H5.12v8.12H.95V.34Z"/>
  <path class="st0" d="M20.44,13.16c0-4.14,2.77-7.28,6.75-7.28,4.42,0,6.61,3.56,6.61,7.03l-.03,1.18h-9.3c.22,1.43,1.32,2.52,3.08,2.52,1.43,0,2.52-.53,3.36-1.6l2.63,2.46c-1.2,1.51-2.94,2.77-5.88,2.77-4.12,0-7.22-2.77-7.22-7.08ZM29.6,11.42c-.08-1.15-1.01-2.04-2.32-2.04-1.48,0-2.35.92-2.6,2.04h4.93Z"/>
  <path class="st0" d="M36.51.34h3.98v19.6h-3.98V.34Z"/>
  <path class="st0" d="M44.01,6.22h3.92v.98c.73-.7,2.04-1.32,3.58-1.32,3.78,0,6.86,2.74,6.86,7.2s-3.08,7.17-6.86,7.17c-1.57,0-2.83-.56-3.53-1.18v6.3h-3.98V6.22ZM51.13,16.66c1.82,0,3.19-1.46,3.19-3.58s-1.37-3.58-3.19-3.58-3.19,1.46-3.19,3.58,1.37,3.58,3.19,3.58Z"/>
  <path class="st0" d="M63.25,0c1.29,0,2.32,1.04,2.32,2.32s-1.04,2.3-2.32,2.3-2.3-1.04-2.3-2.3,1.01-2.32,2.3-2.32ZM61.26,6.22h3.98v13.72h-3.98V6.22Z"/>
  <path class="st0" d="M68.93,6.22h3.92v.95c.76-.73,1.85-1.29,3.25-1.29,3.36,0,5.6,2.18,5.6,6.08v7.98h-3.98v-7.67c0-1.46-.7-2.69-2.3-2.69-1.88,0-2.52,1.4-2.52,3.5v6.86h-3.98V6.22Z"/>
  <path class="st0" d="M84.73,22.9l2.77-2.66c.64.92,1.85,1.76,3.44,1.76,2.1,0,3.47-1.23,3.47-3.05v-.36c-.7.62-1.82,1.04-3.36,1.04-3.81,0-6.72-2.52-6.72-6.86s3.19-6.89,6.72-6.89c1.51,0,2.69.62,3.44,1.32v-.98h3.89v12.29c0,4.14-2.69,7.17-7.42,7.17-3.53,0-5.35-1.65-6.24-2.77ZM91.42,16.02c1.68,0,3.08-1.29,3.08-3.25s-1.4-3.28-3.08-3.28-3.02,1.29-3.02,3.28,1.37,3.25,3.02,3.25Z"/>
  <path class="st0" d="M110.26,15.09v-5.21h-1.79v-3.67h1.79v-3.84h3.98v3.84h3.02v3.67h-3.02v4.73c0,1.37.64,1.68,1.79,1.68h1.18v3.64c-.45.03-1.37.06-2.16.06-3.25,0-4.79-1.74-4.79-4.9Z"/>
  <path class="st0" d="M120.29,6.22h3.92v1.23c.76-.9,2.02-1.43,3.42-1.43.48,0,.67,0,1.06.03v3.84h-.62c-2.21,0-3.81,1.4-3.81,4.31v5.74h-3.98V6.22Z"/>
  <path class="st0" d="M129.64,13.16c0-4.14,2.77-7.28,6.75-7.28,4.42,0,6.61,3.56,6.61,7.03l-.03,1.18h-9.3c.22,1.43,1.32,2.52,3.08,2.52,1.43,0,2.52-.53,3.36-1.6l2.63,2.46c-1.2,1.51-2.94,2.77-5.88,2.77-4.12,0-7.22-2.77-7.22-7.08ZM138.79,11.42c-.08-1.15-1.01-2.04-2.32-2.04-1.48,0-2.35.92-2.6,2.04h4.93Z"/>
  <path class="st0" d="M144.56,15.9c0-3.02,2.6-4.42,5.43-4.42,1.06,0,2.04.2,2.72.39v-.22c0-1.29-.84-2.24-2.27-2.24-1.06,0-2.21.5-2.94,1.6l-2.52-2.41c1.76-2.1,3.78-2.72,5.74-2.72,3.33,0,6.02,1.99,6.02,5.49v8.57h-3.98v-.9c-.7.62-1.88,1.2-3.44,1.2-2.97,0-4.76-1.88-4.76-4.34ZM150.27,16.88c.95,0,1.76-.34,2.44-.84v-1.57c-.48-.11-1.12-.25-1.82-.25-1.57,0-2.32.62-2.32,1.43,0,.73.7,1.23,1.71,1.23Z"/>
  <path class="st0" d="M159.32,17.58l2.44-2.49c1.37,1.34,2.69,1.82,3.92,1.82.81,0,1.54-.36,1.54-.9,0-.42-.36-.64-1.23-.87l-1.82-.45c-3.05-.76-4.48-2.27-4.48-4.48,0-2.69,2.46-4.34,5.32-4.34,2.02,0,3.89.7,5.52,2.16l-2.44,2.58c-.84-.7-1.99-1.34-3.25-1.34-.78,0-1.29.36-1.29.81,0,.36.36.59.98.73l2.04.48c2.46.59,4.51,1.79,4.51,4.54,0,2.58-2.18,4.42-5.74,4.42-2.69,0-4.96-1.32-6.02-2.66Z"/>
  <path class="st0" d="M173.65,14.2v-7.98h4v7.81c0,1.48.67,2.55,2.1,2.55,1.74,0,2.35-1.23,2.35-3.33v-7.03h4v13.72h-3.92v-.95c-.84.87-2.1,1.26-3.42,1.26-3.19,0-5.12-2.16-5.12-6.05Z"/>
  <path class="st0" d="M189.64,6.22h3.92v1.23c.76-.9,2.02-1.43,3.42-1.43.48,0,.67,0,1.06.03v3.84h-.62c-2.21,0-3.81,1.4-3.81,4.31v5.74h-3.98V6.22Z"/>
  <path class="st0" d="M198.99,13.16c0-4.14,2.77-7.28,6.75-7.28,4.42,0,6.61,3.56,6.61,7.03l-.03,1.18h-9.3c.22,1.43,1.32,2.52,3.08,2.52,1.43,0,2.52-.53,3.36-1.6l2.63,2.46c-1.2,1.51-2.94,2.77-5.88,2.77-4.12,0-7.22-2.77-7.22-7.08ZM208.15,11.42c-.08-1.15-1.01-2.04-2.32-2.04-1.48,0-2.35.92-2.6,2.04h4.93Z"/>
  <path class="st0" d="M214.28,13.08c0-4.34,3.08-7.2,6.86-7.2,1.57,0,2.77.59,3.47,1.2V.34h4.03v19.6h-3.98v-.98c-.73.7-1.99,1.29-3.53,1.29-3.78,0-6.86-2.74-6.86-7.17ZM221.53,16.66c1.82,0,3.14-1.46,3.14-3.58s-1.32-3.58-3.14-3.58-3.19,1.46-3.19,3.58,1.37,3.58,3.19,3.58Z"/>
  <path class="st0" d="M.76,39.82h3.92v.98c.73-.7,2.04-1.32,3.58-1.32,3.78,0,6.86,2.74,6.86,7.2s-3.08,7.17-6.86,7.17c-1.57,0-2.83-.56-3.53-1.18v6.3H.76v-19.15ZM7.87,50.26c1.82,0,3.19-1.46,3.19-3.58s-1.37-3.58-3.19-3.58-3.19,1.46-3.19,3.58,1.37,3.58,3.19,3.58Z"/>
  <path class="st0" d="M17.86,33.94h3.98v19.6h-3.98v-19.6Z"/>
  <path class="st0" d="M24.72,49.5c0-3.02,2.6-4.42,5.43-4.42,1.06,0,2.04.2,2.72.39v-.22c0-1.29-.84-2.24-2.27-2.24-1.06,0-2.21.5-2.94,1.6l-2.52-2.41c1.76-2.1,3.78-2.72,5.74-2.72,3.33,0,6.02,1.99,6.02,5.49v8.57h-3.98v-.9c-.7.62-1.88,1.2-3.44,1.2-2.97,0-4.76-1.88-4.76-4.34ZM30.44,50.48c.95,0,1.76-.34,2.44-.84v-1.57c-.48-.11-1.12-.25-1.82-.25-1.57,0-2.32.62-2.32,1.43,0,.73.7,1.23,1.71,1.23Z"/>
  <path class="st0" d="M39.51,46.67c0-4.12,3.14-7.2,7.25-7.2,2.6,0,4.28,1.12,5.74,2.74l-2.69,2.6c-.78-.95-1.65-1.6-2.91-1.6-1.88,0-3.33,1.43-3.33,3.44s1.46,3.44,3.33,3.44c1.37,0,2.32-.67,3.19-1.79l2.69,2.6c-1.4,1.85-3.36,2.91-6.02,2.91-4.12,0-7.25-3.05-7.25-7.17Z"/>
  <path class="st0" d="M53.98,46.76c0-4.14,2.77-7.28,6.75-7.28,4.42,0,6.61,3.56,6.61,7.03l-.03,1.18h-9.3c.22,1.43,1.32,2.52,3.08,2.52,1.43,0,2.52-.53,3.36-1.6l2.63,2.46c-1.2,1.51-2.94,2.77-5.88,2.77-4.12,0-7.22-2.77-7.22-7.08ZM63.14,45.02c-.08-1.15-1.01-2.04-2.32-2.04-1.48,0-2.35.92-2.6,2.04h4.93Z"/>
  <path class="st0" d="M69.05,51.18l2.44-2.49c1.37,1.34,2.69,1.82,3.92,1.82.81,0,1.54-.36,1.54-.9,0-.42-.36-.64-1.23-.87l-1.82-.45c-3.05-.76-4.48-2.27-4.48-4.48,0-2.69,2.46-4.34,5.32-4.34,2.02,0,3.89.7,5.52,2.16l-2.44,2.58c-.84-.7-1.99-1.34-3.25-1.34-.78,0-1.29.36-1.29.81,0,.36.36.59.98.73l2.04.48c2.46.59,4.51,1.79,4.51,4.54,0,2.58-2.18,4.42-5.74,4.42-2.69,0-4.96-1.32-6.02-2.66Z"/>
  <path class="st0" d="M91.87,48.69v-5.21h-1.79v-3.67h1.79v-3.84h3.98v3.84h3.02v3.67h-3.02v4.73c0,1.37.64,1.68,1.79,1.68h1.18v3.64c-.45.03-1.37.06-2.16.06-3.25,0-4.79-1.74-4.79-4.9Z"/>
  <path class="st0" d="M101.89,33.94h3.95v6.66c.62-.56,1.82-1.12,3.22-1.12,3.36,0,5.6,2.18,5.6,6.08v7.98h-3.98v-7.67c0-1.46-.7-2.69-2.3-2.69-1.88,0-2.52,1.4-2.52,3.5v6.86h-3.98v-19.6Z"/>
  <path class="st0" d="M118.05,39.82h3.92v1.23c.76-.9,2.02-1.43,3.42-1.43.48,0,.67,0,1.06.03v3.84h-.62c-2.21,0-3.81,1.4-3.81,4.31v5.74h-3.98v-13.72Z"/>
  <path class="st0" d="M130.95,33.6c1.29,0,2.32,1.04,2.32,2.32s-1.04,2.3-2.32,2.3-2.3-1.04-2.3-2.3,1.01-2.32,2.3-2.32ZM128.97,39.82h3.98v13.72h-3.98v-13.72Z"/>
  <path class="st0" d="M135.04,39.82h4.23l2.69,8.48,2.69-8.48h4.23l-4.87,13.72h-4.09l-4.87-13.72Z"/>
  <path class="st0" d="M149.6,46.76c0-4.14,2.77-7.28,6.75-7.28,4.42,0,6.61,3.56,6.61,7.03l-.03,1.18h-9.3c.22,1.43,1.32,2.52,3.08,2.52,1.43,0,2.52-.53,3.36-1.6l2.63,2.46c-1.2,1.51-2.94,2.77-5.88,2.77-4.12,0-7.22-2.77-7.22-7.08ZM158.76,45.02c-.08-1.15-1.01-2.04-2.32-2.04-1.48,0-2.35.92-2.6,2.04h4.93Z"/>
  <path class="st0" d="M174.19,43.48h-1.79v-3.67h1.79v-.67c0-3.81,2.49-5.54,6.05-5.54.48,0,.87.03,1.04.03v3.75h-.67c-1.79,0-2.44.62-2.44,1.99v.45h3v3.67h-3v10.05h-3.98v-10.05Z"/>
  <path class="st0" d="M182.33,46.67c0-4.12,3.14-7.2,7.25-7.2s7.25,3.08,7.25,7.2-3.14,7.17-7.25,7.17-7.25-3.05-7.25-7.17ZM189.59,50.15c1.85,0,3.19-1.46,3.19-3.47s-1.34-3.47-3.19-3.47-3.19,1.46-3.19,3.47,1.34,3.47,3.19,3.47Z"/>
  <path class="st0" d="M199.58,39.82h3.92v1.23c.76-.9,2.02-1.43,3.42-1.43.48,0,.67,0,1.06.03v3.84h-.62c-2.21,0-3.81,1.4-3.81,4.31v5.74h-3.98v-13.72Z"/>
  <path class="st0" d="M.39,90.1l2.77-2.66c.64.92,1.85,1.76,3.44,1.76,2.1,0,3.47-1.23,3.47-3.05v-.36c-.7.62-1.82,1.04-3.36,1.04-3.81,0-6.72-2.52-6.72-6.86s3.19-6.89,6.72-6.89c1.51,0,2.69.62,3.44,1.32v-.98h3.89v12.29c0,4.14-2.69,7.17-7.42,7.17-3.53,0-5.35-1.65-6.24-2.77ZM7.08,83.22c1.68,0,3.08-1.29,3.08-3.25s-1.4-3.28-3.08-3.28-3.02,1.29-3.02,3.28,1.37,3.25,3.02,3.25Z"/>
  <path class="st0" d="M16.8,80.36c0-4.14,2.77-7.28,6.75-7.28,4.42,0,6.61,3.56,6.61,7.03l-.03,1.18h-9.3c.22,1.43,1.32,2.52,3.08,2.52,1.43,0,2.52-.53,3.36-1.6l2.63,2.46c-1.2,1.51-2.94,2.77-5.88,2.77-4.12,0-7.22-2.77-7.22-7.08ZM25.96,78.62c-.08-1.15-1.01-2.04-2.32-2.04-1.48,0-2.35.92-2.6,2.04h4.93Z"/>
  <path class="st0" d="M32.87,73.42h3.92v.95c.76-.73,1.85-1.29,3.25-1.29,3.36,0,5.6,2.18,5.6,6.08v7.98h-3.98v-7.67c0-1.46-.7-2.69-2.3-2.69-1.88,0-2.52,1.4-2.52,3.5v6.86h-3.98v-13.72Z"/>
  <path class="st0" d="M48.24,80.36c0-4.14,2.77-7.28,6.75-7.28,4.42,0,6.61,3.56,6.61,7.03l-.03,1.18h-9.3c.22,1.43,1.32,2.52,3.08,2.52,1.43,0,2.52-.53,3.36-1.6l2.63,2.46c-1.2,1.51-2.94,2.77-5.88,2.77-4.12,0-7.22-2.77-7.22-7.08ZM57.4,78.62c-.08-1.15-1.01-2.04-2.32-2.04-1.48,0-2.35.92-2.6,2.04h4.93Z"/>
  <path class="st0" d="M64.32,73.42h3.92v1.23c.76-.9,2.02-1.43,3.42-1.43.48,0,.67,0,1.06.03v3.84h-.62c-2.21,0-3.81,1.4-3.81,4.31v5.74h-3.98v-13.72Z"/>
  <path class="st0" d="M73.95,83.1c0-3.02,2.6-4.42,5.43-4.42,1.06,0,2.04.2,2.72.39v-.22c0-1.29-.84-2.24-2.27-2.24-1.06,0-2.21.5-2.94,1.6l-2.52-2.41c1.76-2.1,3.78-2.72,5.74-2.72,3.33,0,6.02,1.99,6.02,5.49v8.57h-3.98v-.9c-.7.62-1.88,1.2-3.44,1.2-2.97,0-4.76-1.88-4.76-4.34ZM79.66,84.08c.95,0,1.76-.34,2.44-.84v-1.57c-.48-.11-1.12-.25-1.82-.25-1.57,0-2.32.62-2.32,1.43,0,.73.7,1.23,1.71,1.23Z"/>
  <path class="st0" d="M90.02,82.29v-5.21h-1.79v-3.67h1.79v-3.84h3.98v3.84h3.02v3.67h-3.02v4.73c0,1.37.64,1.68,1.79,1.68h1.18v3.64c-.45.03-1.37.06-2.16.06-3.25,0-4.79-1.74-4.79-4.9Z"/>
  <path class="st0" d="M102.17,67.2c1.29,0,2.32,1.04,2.32,2.32s-1.04,2.3-2.32,2.3-2.3-1.04-2.3-2.3,1.01-2.32,2.3-2.32ZM100.18,73.42h3.98v13.72h-3.98v-13.72Z"/>
  <path class="st0" d="M107.07,80.28c0-4.12,3.14-7.2,7.25-7.2s7.25,3.08,7.25,7.2-3.14,7.17-7.25,7.17-7.25-3.05-7.25-7.17ZM114.32,83.75c1.85,0,3.19-1.46,3.19-3.47s-1.34-3.47-3.19-3.47-3.19,1.46-3.19,3.47,1.34,3.47,3.19,3.47Z"/>
  <path class="st0" d="M124.32,73.42h3.92v.95c.76-.73,1.85-1.29,3.25-1.29,3.36,0,5.6,2.18,5.6,6.08v7.98h-3.98v-7.67c0-1.46-.7-2.69-2.3-2.69-1.88,0-2.52,1.4-2.52,3.5v6.86h-3.98v-13.72Z"/>
  <path class="st0" d="M139.66,84.78l2.44-2.49c1.37,1.34,2.69,1.82,3.92,1.82.81,0,1.54-.36,1.54-.9,0-.42-.36-.64-1.23-.87l-1.82-.45c-3.05-.76-4.48-2.27-4.48-4.48,0-2.69,2.46-4.34,5.32-4.34,2.02,0,3.89.7,5.52,2.16l-2.44,2.58c-.84-.7-1.99-1.34-3.25-1.34-.78,0-1.29.36-1.29.81,0,.36.36.59.98.73l2.04.48c2.46.59,4.51,1.79,4.51,4.54,0,2.58-2.18,4.42-5.74,4.42-2.69,0-4.96-1.32-6.02-2.66Z"/>
  <path class="st0" d="M153.89,85.04c0-1.34,1.04-2.41,2.38-2.41s2.44,1.06,2.44,2.41-1.09,2.41-2.44,2.41-2.38-1.06-2.38-2.41Z"/>
</svg>