<?xml version="1.0" encoding="UTF-8"?>
<svg id="Layer_1" xmlns="http://www.w3.org/2000/svg" version="1.1" viewBox="0 0 286.18 58.97">
  <!-- Generator: Adobe Illustrator 30.1.0, SVG Export Plug-In . SVG Version: 2.1.1 Build 136)  -->
  <defs>
    <style>
      .st0 {
        fill: #fff;
      }
    </style>
  </defs>
  <path class="st0" d="M0,.34h4.45l3.02,12.54L10.64.34h4.45l3.16,12.54L21.28.34h4.45l-5.24,19.6h-4.26l-3.36-12.94-3.39,12.94h-4.26L0,.34Z"/>
  <path class="st0" d="M28.06.34h3.95v6.66c.62-.56,1.82-1.12,3.22-1.12,3.36,0,5.6,2.18,5.6,6.08v7.98h-3.98v-7.67c0-1.46-.7-2.69-2.3-2.69-1.88,0-2.52,1.4-2.52,3.5v6.86h-3.98V.34Z"/>
  <path class="st0" d="M43.43,13.16c0-4.14,2.77-7.28,6.75-7.28,4.42,0,6.61,3.56,6.61,7.03l-.03,1.18h-9.3c.22,1.43,1.32,2.52,3.08,2.52,1.43,0,2.52-.53,3.36-1.6l2.63,2.46c-1.2,1.51-2.94,2.77-5.88,2.77-4.12,0-7.22-2.77-7.22-7.08ZM52.58,11.42c-.08-1.15-1.01-2.04-2.32-2.04-1.48,0-2.35.92-2.6,2.04h4.93Z"/>
  <path class="st0" d="M59.5,6.22h3.92v.95c.76-.73,1.85-1.29,3.25-1.29,3.36,0,5.6,2.18,5.6,6.08v7.98h-3.98v-7.67c0-1.46-.7-2.69-2.3-2.69-1.88,0-2.52,1.4-2.52,3.5v6.86h-3.98V6.22Z"/>
  <path class="st0" d="M83.13,22.9l2.77-2.66c.64.92,1.85,1.76,3.44,1.76,2.1,0,3.47-1.23,3.47-3.05v-.36c-.7.62-1.82,1.04-3.36,1.04-3.81,0-6.72-2.52-6.72-6.86s3.19-6.89,6.72-6.89c1.51,0,2.69.62,3.44,1.32v-.98h3.89v12.29c0,4.14-2.69,7.17-7.42,7.17-3.53,0-5.35-1.65-6.24-2.77ZM89.82,16.02c1.68,0,3.08-1.29,3.08-3.25s-1.4-3.28-3.08-3.28-3.02,1.29-3.02,3.28,1.37,3.25,3.02,3.25Z"/>
  <path class="st0" d="M99.54,13.16c0-4.14,2.77-7.28,6.75-7.28,4.42,0,6.61,3.56,6.61,7.03l-.03,1.18h-9.3c.22,1.43,1.32,2.52,3.08,2.52,1.43,0,2.52-.53,3.36-1.6l2.63,2.46c-1.2,1.51-2.94,2.77-5.88,2.77-4.12,0-7.22-2.77-7.22-7.08ZM108.7,11.42c-.08-1.15-1.01-2.04-2.32-2.04-1.48,0-2.35.92-2.6,2.04h4.93Z"/>
  <path class="st0" d="M115.61,6.22h3.92v.95c.76-.73,1.85-1.29,3.25-1.29,3.36,0,5.6,2.18,5.6,6.08v7.98h-3.98v-7.67c0-1.46-.7-2.69-2.3-2.69-1.88,0-2.52,1.4-2.52,3.5v6.86h-3.98V6.22Z"/>
  <path class="st0" d="M130.98,13.16c0-4.14,2.77-7.28,6.75-7.28,4.42,0,6.61,3.56,6.61,7.03l-.03,1.18h-9.3c.22,1.43,1.32,2.52,3.08,2.52,1.43,0,2.52-.53,3.36-1.6l2.63,2.46c-1.2,1.51-2.94,2.77-5.88,2.77-4.12,0-7.22-2.77-7.22-7.08ZM140.14,11.42c-.08-1.15-1.01-2.04-2.32-2.04-1.48,0-2.35.92-2.6,2.04h4.93Z"/>
  <path class="st0" d="M147.06,6.22h3.92v1.23c.76-.9,2.02-1.43,3.42-1.43.48,0,.67,0,1.06.03v3.84h-.62c-2.21,0-3.81,1.4-3.81,4.31v5.74h-3.98V6.22Z"/>
  <path class="st0" d="M156.41,13.08c0-4.12,3.14-7.2,7.25-7.2s7.25,3.08,7.25,7.2-3.14,7.17-7.25,7.17-7.25-3.05-7.25-7.17ZM163.66,16.55c1.85,0,3.19-1.46,3.19-3.47s-1.34-3.47-3.19-3.47-3.19,1.46-3.19,3.47,1.34,3.47,3.19,3.47Z"/>
  <path class="st0" d="M172.65,17.58l2.44-2.49c1.37,1.34,2.69,1.82,3.92,1.82.81,0,1.54-.36,1.54-.9,0-.42-.36-.64-1.23-.87l-1.82-.45c-3.05-.76-4.48-2.27-4.48-4.48,0-2.69,2.46-4.34,5.32-4.34,2.02,0,3.89.7,5.52,2.16l-2.44,2.58c-.84-.7-1.99-1.34-3.25-1.34-.78,0-1.29.36-1.29.81,0,.36.36.59.98.73l2.04.48c2.46.59,4.51,1.79,4.51,4.54,0,2.58-2.18,4.42-5.74,4.42-2.69,0-4.96-1.32-6.02-2.66Z"/>
  <path class="st0" d="M189.25,0c1.29,0,2.32,1.04,2.32,2.32s-1.04,2.3-2.32,2.3-2.29-1.04-2.29-2.3,1.01-2.32,2.29-2.32ZM187.26,6.22h3.97v13.72h-3.97V6.22Z"/>
  <path class="st0" d="M195.44,15.09v-5.21h-1.79v-3.67h1.79v-3.84h3.98v3.84h3.02v3.67h-3.02v4.73c0,1.37.64,1.68,1.79,1.68h1.18v3.64c-.45.03-1.37.06-2.16.06-3.25,0-4.79-1.74-4.79-4.9Z"/>
  <path class="st0" d="M209.41,19.94l-5.35-13.72h4.42l3.08,8.48,3.19-8.48h4.26l-7.64,19.15h-4.2l2.24-5.43Z"/>
  <path class="st0" d="M228.79.34h3.98v19.6h-3.98V.34Z"/>
  <path class="st0" d="M235.65,15.9c0-3.02,2.6-4.42,5.43-4.42,1.06,0,2.04.2,2.72.39v-.22c0-1.29-.84-2.24-2.27-2.24-1.06,0-2.21.5-2.94,1.6l-2.52-2.41c1.76-2.1,3.78-2.72,5.74-2.72,3.33,0,6.02,1.99,6.02,5.49v8.57h-3.97v-.9c-.7.62-1.88,1.2-3.45,1.2-2.97,0-4.76-1.88-4.76-4.34ZM241.36,16.88c.95,0,1.76-.34,2.44-.84v-1.57c-.48-.11-1.12-.25-1.82-.25-1.57,0-2.32.62-2.32,1.43,0,.73.7,1.23,1.71,1.23Z"/>
  <path class="st0" d="M250.4,17.58l2.44-2.49c1.37,1.34,2.69,1.82,3.92,1.82.81,0,1.54-.36,1.54-.9,0-.42-.36-.64-1.23-.87l-1.82-.45c-3.05-.76-4.48-2.27-4.48-4.48,0-2.69,2.46-4.34,5.32-4.34,2.02,0,3.89.7,5.52,2.16l-2.44,2.58c-.84-.7-1.99-1.34-3.25-1.34-.78,0-1.29.36-1.29.81,0,.36.36.59.98.73l2.04.48c2.46.59,4.51,1.79,4.51,4.54,0,2.58-2.18,4.42-5.74,4.42-2.69,0-4.96-1.32-6.02-2.66Z"/>
  <path class="st0" d="M265.21,15.09v-5.21h-1.79v-3.67h1.79v-3.84h3.98v3.84h3.02v3.67h-3.02v4.73c0,1.37.64,1.68,1.79,1.68h1.18v3.64c-.45.03-1.37.06-2.16.06-3.25,0-4.79-1.74-4.79-4.9Z"/>
  <path class="st0" d="M274.42,17.58l2.44-2.49c1.37,1.34,2.69,1.82,3.92,1.82.81,0,1.54-.36,1.54-.9,0-.42-.36-.64-1.23-.87l-1.82-.45c-3.05-.76-4.48-2.27-4.48-4.48,0-2.69,2.46-4.34,5.32-4.34,2.02,0,3.89.7,5.52,2.16l-2.44,2.58c-.84-.7-1.99-1.34-3.25-1.34-.78,0-1.29.36-1.29.81,0,.36.36.59.98.73l2.04.48c2.46.59,4.51,1.79,4.51,4.54,0,2.58-2.18,4.42-5.74,4.42-2.69,0-4.96-1.32-6.02-2.66Z"/>
  <path class="st0" d="M5.18,52.55v.98H1.2v-19.6h4.03v6.75c.7-.62,1.9-1.2,3.47-1.2,3.78,0,6.86,2.86,6.86,7.2s-3.08,7.17-6.86,7.17c-1.54,0-2.8-.59-3.53-1.29ZM8.32,50.26c1.82,0,3.19-1.46,3.19-3.58s-1.37-3.58-3.19-3.58-3.14,1.46-3.14,3.58,1.32,3.58,3.14,3.58Z"/>
  <path class="st0" d="M17.53,46.76c0-4.14,2.77-7.28,6.75-7.28,4.42,0,6.61,3.56,6.61,7.03l-.03,1.18h-9.3c.22,1.43,1.32,2.52,3.08,2.52,1.43,0,2.52-.53,3.36-1.6l2.63,2.46c-1.2,1.51-2.94,2.77-5.88,2.77-4.12,0-7.22-2.77-7.22-7.08ZM26.68,45.02c-.08-1.15-1.01-2.04-2.32-2.04-1.48,0-2.35.92-2.6,2.04h4.93Z"/>
  <path class="st0" d="M36.93,53.54l-5.35-13.72h4.42l3.08,8.48,3.19-8.48h4.26l-7.64,19.15h-4.2l2.24-5.43Z"/>
  <path class="st0" d="M47.26,46.67c0-4.12,3.14-7.2,7.25-7.2s7.25,3.08,7.25,7.2-3.14,7.17-7.25,7.17-7.25-3.05-7.25-7.17ZM54.52,50.15c1.85,0,3.19-1.46,3.19-3.47s-1.34-3.47-3.19-3.47-3.19,1.46-3.19,3.47,1.34,3.47,3.19,3.47Z"/>
  <path class="st0" d="M64.51,39.82h3.92v.95c.76-.73,1.85-1.29,3.25-1.29,3.36,0,5.6,2.18,5.6,6.08v7.98h-3.98v-7.67c0-1.46-.7-2.69-2.3-2.69-1.88,0-2.52,1.4-2.52,3.5v6.86h-3.98v-13.72Z"/>
  <path class="st0" d="M79.88,46.67c0-4.34,3.08-7.2,6.86-7.2,1.57,0,2.77.59,3.47,1.2v-6.75h4.03v19.6h-3.98v-.98c-.73.7-1.99,1.29-3.53,1.29-3.78,0-6.86-2.74-6.86-7.17ZM87.14,50.26c1.82,0,3.14-1.46,3.14-3.58s-1.32-3.58-3.14-3.58-3.19,1.46-3.19,3.58,1.37,3.58,3.19,3.58Z"/>
  <path class="st0" d="M104.97,49.5c0-3.02,2.6-4.42,5.43-4.42,1.06,0,2.04.2,2.72.39v-.22c0-1.29-.84-2.24-2.27-2.24-1.06,0-2.21.5-2.94,1.6l-2.52-2.41c1.76-2.1,3.78-2.72,5.74-2.72,3.33,0,6.02,1.99,6.02,5.49v8.57h-3.98v-.9c-.7.62-1.88,1.2-3.44,1.2-2.97,0-4.76-1.88-4.76-4.34ZM110.68,50.48c.95,0,1.76-.34,2.44-.84v-1.57c-.48-.11-1.12-.25-1.82-.25-1.57,0-2.32.62-2.32,1.43,0,.73.7,1.23,1.71,1.23Z"/>
  <path class="st0" d="M128.38,33.94h3.98v19.6h-3.98v-19.6Z"/>
  <path class="st0" d="M138.01,33.6c1.29,0,2.32,1.04,2.32,2.32s-1.04,2.3-2.32,2.3-2.3-1.04-2.3-2.3,1.01-2.32,2.3-2.32ZM136.02,39.82h3.98v13.72h-3.98v-13.72Z"/>
  <path class="st0" d="M144.37,43.48h-1.79v-3.67h1.79v-.67c0-3.81,2.49-5.54,6.05-5.54.48,0,.87.03,1.04.03v3.75h-.67c-1.79,0-2.44.62-2.44,1.99v.45h3v3.67h-3v10.05h-3.98v-10.05Z"/>
  <path class="st0" d="M152.51,46.76c0-4.14,2.77-7.28,6.75-7.28,4.42,0,6.61,3.56,6.61,7.03l-.03,1.18h-9.3c.22,1.43,1.32,2.52,3.08,2.52,1.43,0,2.52-.53,3.36-1.6l2.63,2.46c-1.2,1.51-2.94,2.77-5.88,2.77-4.12,0-7.22-2.77-7.22-7.08ZM161.67,45.02c-.08-1.15-1.01-2.04-2.32-2.04-1.48,0-2.35.92-2.6,2.04h4.93Z"/>
  <path class="st0" d="M168.95,48.69v-5.21h-1.79v-3.67h1.79v-3.84h3.98v3.84h3.02v3.67h-3.02v4.73c0,1.37.64,1.68,1.79,1.68h1.18v3.64c-.45.03-1.37.06-2.16.06-3.25,0-4.79-1.74-4.79-4.9Z"/>
  <path class="st0" d="M181.1,33.6c1.29,0,2.32,1.04,2.32,2.32s-1.04,2.3-2.32,2.3-2.3-1.04-2.3-2.3,1.01-2.32,2.3-2.32ZM179.11,39.82h3.98v13.72h-3.98v-13.72Z"/>
  <path class="st0" d="M186.79,39.82h3.92v.95c.76-.73,1.9-1.29,3.3-1.29,1.54,0,2.88.59,3.81,1.65.95-.95,2.44-1.65,4.12-1.65,3.67,0,5.74,2.18,5.74,6.08v7.98h-3.98v-7.81c0-1.48-.67-2.55-2.1-2.55-1.51,0-2.38,1.15-2.38,3.05v7.31h-3.98v-7.81c0-1.48-.67-2.55-2.1-2.55-1.57,0-2.38,1.23-2.38,3.33v7.03h-3.98v-13.72Z"/>
  <path class="st0" d="M210.28,46.76c0-4.14,2.77-7.28,6.75-7.28,4.42,0,6.61,3.56,6.61,7.03l-.03,1.18h-9.3c.22,1.43,1.32,2.52,3.08,2.52,1.43,0,2.52-.53,3.36-1.6l2.63,2.46c-1.2,1.51-2.94,2.77-5.88,2.77-4.12,0-7.22-2.77-7.22-7.08ZM219.43,45.02c-.08-1.15-1.01-2.04-2.32-2.04-1.48,0-2.35.92-2.6,2.04h4.93Z"/>
  <path class="st0" d="M225.85,51.44c0-1.34,1.04-2.41,2.38-2.41s2.44,1.06,2.44,2.41-1.09,2.41-2.44,2.41-2.38-1.06-2.38-2.41Z"/>
</svg>