<?xml version="1.0" encoding="UTF-8"?>
<svg id="Layer_1" xmlns="http://www.w3.org/2000/svg" version="1.1" viewBox="0 0 105.15 49.56">
  <!-- Generator: Adobe Illustrator 30.1.0, SVG Export Plug-In . SVG Version: 2.1.1 Build 136)  -->
  <defs>
    <style>
      .st0 {
        fill: #fff;
      }
    </style>
  </defs>
  <path class="st0" d="M6.06.2h2.58l1.76,7.28L12.24.2h2.58l1.84,7.28L18.41.2h2.58l-3.04,11.38h-2.47l-1.95-7.51-1.97,7.51h-2.47L6.06.2Z"/>
  <path class="st0" d="M22.35.2h2.29v3.87c.36-.33,1.06-.65,1.87-.65,1.95,0,3.25,1.27,3.25,3.53v4.63h-2.31v-4.45c0-.84-.41-1.56-1.33-1.56-1.09,0-1.46.81-1.46,2.03v3.98h-2.31V.2Z"/>
  <path class="st0" d="M31.27,7.64c0-2.41,1.61-4.23,3.92-4.23,2.57,0,3.83,2.06,3.83,4.08l-.02.68h-5.4c.13.83.76,1.46,1.79,1.46.83,0,1.46-.31,1.95-.93l1.53,1.43c-.7.88-1.71,1.61-3.41,1.61-2.39,0-4.19-1.61-4.19-4.11ZM36.59,6.63c-.05-.67-.58-1.19-1.35-1.19-.86,0-1.36.54-1.51,1.19h2.86Z"/>
  <path class="st0" d="M40.6,3.61h2.27v.55c.44-.42,1.07-.75,1.89-.75,1.95,0,3.25,1.27,3.25,3.53v4.63h-2.31v-4.45c0-.84-.41-1.56-1.33-1.56-1.09,0-1.46.81-1.46,2.03v3.98h-2.31V3.61Z"/>
  <path class="st0" d="M54.32,13.29l1.61-1.54c.37.54,1.07,1.02,2,1.02,1.22,0,2.01-.71,2.01-1.77v-.21c-.41.36-1.06.6-1.95.6-2.21,0-3.9-1.46-3.9-3.98s1.85-4,3.9-4c.88,0,1.56.36,2,.76v-.57h2.26v7.13c0,2.41-1.56,4.16-4.31,4.16-2.05,0-3.1-.96-3.62-1.61ZM58.21,9.29c.98,0,1.79-.75,1.79-1.88s-.81-1.9-1.79-1.9-1.75.75-1.75,1.9.8,1.88,1.75,1.88Z"/>
  <path class="st0" d="M65.54,0c.75,0,1.35.6,1.35,1.35s-.6,1.33-1.35,1.33-1.33-.6-1.33-1.33.58-1.35,1.33-1.35ZM64.39,3.61h2.31v7.96h-2.31V3.61Z"/>
  <path class="st0" d="M67.91,3.61h2.45l1.56,4.92,1.56-4.92h2.45l-2.83,7.96h-2.37l-2.83-7.96Z"/>
  <path class="st0" d="M78.3,0c.75,0,1.35.6,1.35,1.35s-.6,1.33-1.35,1.33-1.33-.6-1.33-1.33.58-1.35,1.33-1.35ZM77.15,3.61h2.31v7.96h-2.31V3.61Z"/>
  <path class="st0" d="M81.6,3.61h2.27v.55c.44-.42,1.07-.75,1.89-.75,1.95,0,3.25,1.27,3.25,3.53v4.63h-2.31v-4.45c0-.84-.41-1.56-1.33-1.56-1.09,0-1.46.81-1.46,2.03v3.98h-2.31V3.61Z"/>
  <path class="st0" d="M90.77,13.29l1.61-1.54c.37.54,1.07,1.02,2,1.02,1.22,0,2.01-.71,2.01-1.77v-.21c-.41.36-1.06.6-1.95.6-2.21,0-3.9-1.46-3.9-3.98s1.85-4,3.9-4c.88,0,1.56.36,2,.76v-.57h2.26v7.13c0,2.41-1.56,4.16-4.31,4.16-2.05,0-3.1-.96-3.62-1.61ZM94.65,9.29c.98,0,1.79-.75,1.79-1.88s-.81-1.9-1.79-1.9-1.75.75-1.75,1.9.8,1.88,1.75,1.88Z"/>
  <path class="st0" d="M8.31,25.01c0-2.39,1.82-4.18,4.21-4.18,1.51,0,2.49.65,3.33,1.59l-1.56,1.51c-.46-.55-.96-.93-1.69-.93-1.09,0-1.93.83-1.93,2s.84,2,1.93,2c.8,0,1.35-.39,1.85-1.04l1.56,1.51c-.81,1.07-1.95,1.69-3.49,1.69-2.39,0-4.21-1.77-4.21-4.16Z"/>
  <path class="st0" d="M17.49,21.02h2.27v.71c.44-.52,1.17-.83,1.98-.83.28,0,.39,0,.62.02v2.23h-.36c-1.28,0-2.21.81-2.21,2.5v3.33h-2.31v-7.96Z"/>
  <path class="st0" d="M22.92,25.05c0-2.41,1.61-4.23,3.92-4.23,2.57,0,3.83,2.06,3.83,4.08l-.02.68h-5.4c.13.83.76,1.46,1.79,1.46.83,0,1.46-.31,1.95-.93l1.53,1.43c-.7.88-1.71,1.61-3.41,1.61-2.39,0-4.19-1.61-4.19-4.11ZM28.23,24.05c-.05-.67-.58-1.19-1.35-1.19-.86,0-1.36.54-1.51,1.19h2.86Z"/>
  <path class="st0" d="M31.58,26.65c0-1.75,1.51-2.57,3.15-2.57.62,0,1.19.11,1.58.23v-.13c0-.75-.49-1.3-1.32-1.3-.62,0-1.28.29-1.71.93l-1.46-1.4c1.02-1.22,2.19-1.58,3.33-1.58,1.93,0,3.49,1.15,3.49,3.19v4.97h-2.31v-.52c-.41.36-1.09.7-2,.7-1.72,0-2.76-1.09-2.76-2.52ZM34.9,27.22c.55,0,1.02-.2,1.41-.49v-.91c-.28-.06-.65-.15-1.06-.15-.91,0-1.35.36-1.35.83,0,.42.41.71.99.71Z"/>
  <path class="st0" d="M40.91,26.18v-3.02h-1.04v-2.13h1.04v-2.23h2.31v2.23h1.75v2.13h-1.75v2.75c0,.8.37.98,1.04.98h.68v2.11c-.26.02-.8.03-1.25.03-1.89,0-2.78-1.01-2.78-2.84Z"/>
  <path class="st0" d="M46.08,25.05c0-2.41,1.61-4.23,3.92-4.23,2.57,0,3.83,2.06,3.83,4.08l-.02.68h-5.4c.13.83.76,1.46,1.79,1.46.83,0,1.46-.31,1.95-.93l1.53,1.43c-.7.88-1.71,1.61-3.41,1.61-2.39,0-4.19-1.61-4.19-4.11ZM51.4,24.05c-.05-.67-.58-1.19-1.35-1.19-.86,0-1.36.54-1.51,1.19h2.86Z"/>
  <path class="st0" d="M54.83,27.62l1.41-1.45c.8.78,1.56,1.06,2.27,1.06.47,0,.89-.21.89-.52,0-.24-.21-.37-.72-.5l-1.06-.26c-1.77-.44-2.6-1.32-2.6-2.6,0-1.56,1.43-2.52,3.09-2.52,1.17,0,2.26.41,3.2,1.25l-1.41,1.5c-.49-.41-1.15-.78-1.89-.78-.46,0-.75.21-.75.47,0,.21.21.34.57.42l1.19.28c1.43.34,2.62,1.04,2.62,2.63,0,1.5-1.27,2.57-3.33,2.57-1.56,0-2.88-.76-3.49-1.54Z"/>
  <path class="st0" d="M67.78,21.02h2.27v.55c.44-.42,1.07-.75,1.89-.75,1.95,0,3.25,1.27,3.25,3.53v4.63h-2.31v-4.45c0-.84-.41-1.56-1.33-1.56-1.09,0-1.46.81-1.46,2.03v3.98h-2.31v-7.96Z"/>
  <path class="st0" d="M76.71,25.05c0-2.41,1.61-4.23,3.92-4.23,2.57,0,3.83,2.06,3.83,4.08l-.02.68h-5.4c.13.83.76,1.46,1.79,1.46.83,0,1.46-.31,1.95-.93l1.53,1.43c-.7.88-1.71,1.61-3.41,1.61-2.39,0-4.19-1.61-4.19-4.11ZM82.02,24.05c-.05-.67-.58-1.19-1.35-1.19-.86,0-1.36.54-1.51,1.19h2.86Z"/>
  <path class="st0" d="M85.09,21.02h2.47l1.14,4.76,1.3-4.76h2.57l1.32,4.76,1.12-4.76h2.47l-2.24,7.96h-2.52l-1.43-4.91-1.43,4.91h-2.52l-2.24-7.96Z"/>
  <path class="st0" d="M0,42.42c0-2.39,1.82-4.18,4.21-4.18s4.21,1.79,4.21,4.18-1.82,4.16-4.21,4.16-4.21-1.77-4.21-4.16ZM4.21,44.44c1.07,0,1.85-.84,1.85-2.01s-.78-2.01-1.85-2.01-1.85.84-1.85,2.01.78,2.01,1.85,2.01Z"/>
  <path class="st0" d="M10.01,38.44h2.27v.57c.42-.41,1.19-.76,2.08-.76,2.19,0,3.98,1.59,3.98,4.18s-1.79,4.16-3.98,4.16c-.91,0-1.64-.33-2.05-.68v3.66h-2.31v-11.12ZM14.14,44.5c1.06,0,1.85-.84,1.85-2.08s-.8-2.08-1.85-2.08-1.85.84-1.85,2.08.8,2.08,1.85,2.08Z"/>
  <path class="st0" d="M19.94,38.44h2.27v.57c.42-.41,1.19-.76,2.08-.76,2.19,0,3.98,1.59,3.98,4.18s-1.79,4.16-3.98,4.16c-.91,0-1.64-.33-2.05-.68v3.66h-2.31v-11.12ZM24.07,44.5c1.06,0,1.85-.84,1.85-2.08s-.8-2.08-1.85-2.08-1.85.84-1.85,2.08.8,2.08,1.85,2.08Z"/>
  <path class="st0" d="M29.42,42.42c0-2.39,1.82-4.18,4.21-4.18s4.21,1.79,4.21,4.18-1.82,4.16-4.21,4.16-4.21-1.77-4.21-4.16ZM33.63,44.44c1.07,0,1.85-.84,1.85-2.01s-.78-2.01-1.85-2.01-1.85.84-1.85,2.01.78,2.01,1.85,2.01Z"/>
  <path class="st0" d="M39.43,38.44h2.27v.71c.44-.52,1.17-.83,1.98-.83.28,0,.39,0,.62.02v2.23h-.36c-1.28,0-2.21.81-2.21,2.5v3.33h-2.31v-7.96Z"/>
  <path class="st0" d="M46.23,43.59v-3.02h-1.04v-2.13h1.04v-2.23h2.31v2.23h1.75v2.13h-1.75v2.75c0,.8.37.98,1.04.98h.68v2.11c-.26.02-.8.03-1.25.03-1.89,0-2.78-1.01-2.78-2.84Z"/>
  <path class="st0" d="M51.97,43.07v-4.63h2.32v4.53c0,.86.39,1.48,1.22,1.48,1.01,0,1.36-.71,1.36-1.93v-4.08h2.32v7.96h-2.27v-.55c-.49.5-1.22.73-1.98.73-1.85,0-2.97-1.25-2.97-3.51Z"/>
  <path class="st0" d="M61.25,38.44h2.27v.55c.44-.42,1.07-.75,1.89-.75,1.95,0,3.25,1.27,3.25,3.53v4.63h-2.31v-4.45c0-.84-.41-1.56-1.33-1.56-1.09,0-1.46.81-1.46,2.03v3.98h-2.31v-7.96Z"/>
  <path class="st0" d="M71.86,34.83c.75,0,1.35.6,1.35,1.35s-.6,1.33-1.35,1.33-1.33-.6-1.33-1.33.58-1.35,1.33-1.35ZM70.71,38.44h2.31v7.96h-2.31v-7.96Z"/>
  <path class="st0" d="M75.46,43.59v-3.02h-1.04v-2.13h1.04v-2.23h2.31v2.23h1.75v2.13h-1.75v2.75c0,.8.37.98,1.04.98h.68v2.11c-.26.02-.8.03-1.25.03-1.89,0-2.78-1.01-2.78-2.84Z"/>
  <path class="st0" d="M82.51,34.83c.75,0,1.35.6,1.35,1.35s-.6,1.33-1.35,1.33-1.33-.6-1.33-1.33.58-1.35,1.33-1.35ZM81.36,38.44h2.31v7.96h-2.31v-7.96Z"/>
  <path class="st0" d="M85.35,42.47c0-2.41,1.61-4.23,3.92-4.23,2.57,0,3.83,2.06,3.83,4.08l-.02.68h-5.4c.13.83.76,1.46,1.79,1.46.83,0,1.46-.31,1.95-.93l1.53,1.43c-.7.88-1.71,1.61-3.41,1.61-2.39,0-4.19-1.61-4.19-4.11ZM90.67,41.46c-.05-.67-.58-1.19-1.35-1.19-.86,0-1.36.54-1.51,1.19h2.86Z"/>
  <path class="st0" d="M94.1,45.04l1.41-1.45c.8.78,1.56,1.06,2.27,1.06.47,0,.89-.21.89-.52,0-.24-.21-.37-.72-.5l-1.06-.26c-1.77-.44-2.6-1.32-2.6-2.6,0-1.56,1.43-2.52,3.09-2.52,1.17,0,2.26.41,3.2,1.25l-1.41,1.5c-.49-.41-1.15-.78-1.89-.78-.46,0-.75.21-.75.47,0,.21.21.34.57.42l1.19.28c1.43.34,2.62,1.04,2.62,2.63,0,1.5-1.27,2.57-3.33,2.57-1.56,0-2.88-.76-3.49-1.54Z"/>
  <path class="st0" d="M102.36,45.19c0-.78.6-1.4,1.38-1.4s1.41.62,1.41,1.4-.63,1.4-1.41,1.4-1.38-.62-1.38-1.4Z"/>
</svg>