<?xml version="1.0" encoding="UTF-8"?>
<svg id="Layer_1" xmlns="http://www.w3.org/2000/svg" version="1.1" viewBox="0 0 120 40">
  <!-- Generator: Adobe Illustrator 30.1.0, SVG Export Plug-In . SVG Version: 2.1.1 Build 136)  -->
  <defs>
    <style>
      .st0 {
        fill: #fff;
      }

      .st1 {
        fill: #0d393b;
      }
    </style>
  </defs>
  <rect class="st1" width="120" height="40"/>
  <g>
    <g>
      <path class="st0" d="M14.69,15.81h5.79v1.64h-4.01v1.81h3.73v1.63h-3.73v3.31h-1.79v-8.4h.01Z"/>
      <path class="st0" d="M22.7,15.67c.55,0,1,.44,1,.99s-.44.98-1,.98-.98-.44-.98-.98.43-.99.98-.99ZM21.85,18.33h1.7v5.88h-1.7s0-5.88,0-5.88Z"/>
      <path class="st0" d="M25.13,18.33h1.68v.41c.32-.31.79-.55,1.39-.55,1.44,0,2.4.94,2.4,2.6v3.42h-1.7v-3.29c0-.62-.3-1.15-.98-1.15-.8,0-1.08.6-1.08,1.5v2.94h-1.7v-5.88h0Z"/>
      <path class="st0" d="M31.72,21.26c0-1.86,1.32-3.08,2.94-3.08.67,0,1.19.25,1.49.52v-2.89h1.73v8.4h-1.7v-.42c-.31.3-.85.55-1.51.55-1.62,0-2.94-1.17-2.94-3.07h-.01ZM34.83,22.8c.78,0,1.34-.62,1.34-1.54s-.56-1.54-1.34-1.54-1.37.62-1.37,1.54.59,1.54,1.37,1.54Z"/>
      <path class="st0" d="M42.41,21.26c0-1.76,1.34-3.08,3.11-3.08s3.11,1.32,3.11,3.08-1.34,3.07-3.11,3.07-3.11-1.31-3.11-3.07ZM45.52,22.75c.79,0,1.37-.62,1.37-1.49s-.58-1.49-1.37-1.49-1.37.62-1.37,1.49.58,1.49,1.37,1.49Z"/>
      <path class="st0" d="M49.75,21.75v-3.42h1.71v3.35c0,.64.29,1.09.9,1.09.74,0,1.01-.53,1.01-1.43v-3.01h1.72v5.88h-1.68v-.41c-.36.37-.9.54-1.46.54-1.37,0-2.19-.92-2.19-2.59h-.01Z"/>
      <path class="st0" d="M56.81,22.13v-2.23h-.77v-1.57h.77v-1.64h1.7v1.64h1.3v1.57h-1.3v2.03c0,.59.28.72.77.72h.5v1.56c-.19.01-.59.02-.92.02-1.39,0-2.05-.74-2.05-2.1Z"/>
      <path class="st0" d="M64.47,18.33h1.68v.41c.32-.31.82-.55,1.42-.55.66,0,1.24.25,1.63.71.41-.41,1.04-.71,1.76-.71,1.57,0,2.46.94,2.46,2.6v3.42h-1.7v-3.35c0-.64-.29-1.09-.9-1.09-.65,0-1.02.49-1.02,1.31v3.13h-1.7v-3.35c0-.64-.29-1.09-.9-1.09-.67,0-1.02.53-1.02,1.43v3.01h-1.7v-5.88h-.01Z"/>
      <path class="st0" d="M74.54,21.26c0-1.76,1.34-3.08,3.11-3.08s3.11,1.32,3.11,3.08-1.34,3.07-3.11,3.07-3.11-1.31-3.11-3.07ZM77.64,22.75c.79,0,1.37-.62,1.37-1.49s-.58-1.49-1.37-1.49-1.37.62-1.37,1.49.58,1.49,1.37,1.49Z"/>
      <path class="st0" d="M81.93,18.33h1.68v.53c.32-.38.86-.61,1.46-.61.2,0,.29,0,.46.01v1.64h-.26c-.95,0-1.63.6-1.63,1.85v2.46h-1.7v-5.88h-.01Z"/>
      <path class="st0" d="M85.94,21.3c0-1.78,1.19-3.12,2.89-3.12,1.9,0,2.83,1.52,2.83,3.01v.5h-3.99c.1.61.56,1.08,1.32,1.08.61,0,1.08-.23,1.44-.68l1.13,1.05c-.52.65-1.26,1.19-2.52,1.19-1.76,0-3.09-1.19-3.09-3.03h-.01ZM89.86,20.56c-.04-.49-.43-.88-1-.88-.64,0-1.01.39-1.12.88h2.12Z"/>
    </g>
    <polygon class="st0" points="105.31 20.3 104.37 19.36 104.37 19.37 101.92 16.91 100.99 17.84 103.44 20.3 100.99 22.75 101.92 23.68 104.37 21.23 104.37 21.23 105.31 20.3 105.3 20.3 105.31 20.3"/>
  </g>
</svg>