<?xml version="1.0" encoding="UTF-8"?>
<svg id="Layer_1" xmlns="http://www.w3.org/2000/svg" version="1.1" viewBox="0 0 67.14 55">
  <!-- Generator: Adobe Illustrator 30.1.0, SVG Export Plug-In . SVG Version: 2.1.1 Build 136)  -->
  <defs>
    <style>
      .st0 {
        fill: #fff;
      }

      .st1 {
        fill: #0d393b;
      }
    </style>
  </defs>
  <rect class="st1" width="67.14" height="55"/>
  <g>
    <polygon class="st0" points="50.36 33.75 16.78 33.75 16.78 33.48 50.36 33.48 50.36 33.75 50.36 33.75"/>
    <path class="st0" d="M35.73,17.9h-3.48l-5.58,14.41h3.05l1.25-3.45h5.47l1.22,3.45h3.82l-5.75-14.41h0ZM31.69,26.76l1.89-5.29,2.06,5.29h-3.95Z"/>
    <path class="st0" d="M35.73,17.89h-3.48l-5.58,14.41h3.05l1.25-3.45h5.47l1.22,3.45h3.82l-5.75-14.41h0ZM31.69,26.75l1.89-5.29,2.06,5.29h-3.95Z"/>
    <path class="st0" d="M18.41,37.07c-.15.04-.32.07-.48.07-.68,0-1.16-.34-1.16-1.06s.44-1.13,1.16-1.13c.14,0,.32.03.48.09l-.03.36c-.16-.09-.31-.11-.46-.11-.44,0-.71.33-.71.77s.27.75.72.75c.17,0,.36-.04.46-.09l.02.35h0Z"/>
    <path class="st0" d="M18.67,34.83h.41v.92h0c.1-.15.28-.25.49-.25.37,0,.53.26.53.61v.98h-.41v-.83c0-.19,0-.45-.26-.45-.29,0-.36.32-.36.52v.76h-.41v-2.27h0Z"/>
    <path class="st0" d="M20.97,36.84c.12,0,.22-.05.28-.14.07-.09.08-.2.08-.32h-.18c-.18,0-.45.03-.45.27,0,.13.11.19.26.19h0ZM20.5,35.62c.16-.07.37-.12.54-.12.47,0,.67.2.67.66v.2c0,.16,0,.28,0,.39,0,.12,0,.23.02.35h-.36c-.01-.08-.01-.18-.02-.23h0c-.09.17-.3.27-.48.27-.28,0-.54-.17-.54-.46,0-.23.11-.37.27-.44.15-.08.35-.09.52-.09h.22c0-.25-.11-.34-.35-.34-.17,0-.35.07-.48.17v-.35h-.01Z"/>
    <path class="st0" d="M22.03,35.54h.36v.35h0c.02-.15.18-.39.43-.39.04,0,.08,0,.12.01v.41s-.11-.03-.18-.03c-.33,0-.33.41-.33.64v.57h-.41v-1.56h0Z"/>
    <path class="st0" d="M23.19,35.54h.41v1.56h-.41v-1.56h0ZM23.19,34.87h.41v.39h-.41v-.39h0Z"/>
    <path class="st0" d="M24.14,35.84h-.3v-.3h.3v-.31l.41-.13v.44h.36v.3h-.36v.73c0,.13.04.26.19.26.07,0,.14-.02.18-.04v.32c-.07.02-.17.04-.29.04-.32,0-.49-.2-.49-.51v-.79h0Z"/>
    <path class="st0" d="M25.19,35.54h.41v1.56h-.41v-1.56h0ZM25.19,34.87h.41v.39h-.41v-.39h0Z"/>
    <path class="st0" d="M26.98,36.17c-.01-.2-.1-.37-.33-.37s-.34.16-.36.37h.69ZM27.25,37.01c-.15.08-.32.12-.54.12-.51,0-.81-.3-.81-.81,0-.45.24-.82.72-.82.58,0,.74.4.74.94h-1.08c.02.25.19.39.44.39.2,0,.37-.07.52-.16v.33h0Z"/>
    <path class="st0" d="M28.6,35.87c-.12-.04-.22-.07-.36-.07-.11,0-.24.04-.24.17,0,.25.71.09.71.65,0,.36-.32.51-.65.51-.15,0-.31-.03-.46-.07l.02-.33c.13.06.26.1.4.1.1,0,.27-.04.27-.19,0-.31-.7-.1-.7-.66,0-.34.29-.48.61-.48.19,0,.31.03.44.06l-.03.31h0Z"/>
    <path class="st0" d="M30.49,35.41h0l-.31.87h.62l-.31-.87h0ZM30.26,34.99h.48l.83,2.11h-.47l-.18-.48h-.86l-.18.48h-.44l.82-2.11h0Z"/>
    <path class="st0" d="M31.8,35.54h.41v1.56h-.41v-1.56h0ZM31.8,34.87h.41v.39h-.41v-.39h0Z"/>
    <path class="st0" d="M33.28,36.82c.27,0,.36-.28.36-.51s-.1-.5-.36-.5-.34.29-.34.5.08.51.34.51h0ZM33.66,36.92h0c-.12.15-.29.21-.48.21-.48,0-.65-.39-.65-.82s.18-.81.65-.81c.2,0,.34.07.47.22h0v-.89h.41v2.27h-.39v-.18h0Z"/>
    <polygon class="st0" points="35.03 34.99 36.2 34.99 36.2 35.32 35.45 35.32 35.45 35.84 36.16 35.84 36.16 36.17 35.45 36.17 35.45 37.1 35.03 37.1 35.03 34.99 35.03 34.99"/>
    <path class="st0" d="M37.13,36.82c.31,0,.39-.28.39-.54,0-.24-.13-.46-.39-.46s-.39.23-.39.46c0,.26.08.54.39.54h0ZM37.13,35.5c.46,0,.82.31.82.83,0,.45-.3.8-.82.8s-.81-.36-.81-.8c0-.51.35-.83.81-.83h0Z"/>
    <path class="st0" d="M39.6,37.1h-.38v-.21h0c-.12.15-.3.25-.51.25-.37,0-.53-.26-.53-.61v-.98h.41v.83c0,.19,0,.45.26.45.29,0,.36-.32.36-.52v-.76h.41v1.56h0Z"/>
    <path class="st0" d="M39.93,35.54h.38v.21h0c.13-.18.3-.25.51-.25.37,0,.53.26.53.61v.98h-.41v-.83c0-.19,0-.45-.26-.45-.29,0-.36.32-.36.52v.76h-.41v-1.56h0Z"/>
    <path class="st0" d="M42.39,36.82c.27,0,.36-.28.36-.51s-.1-.5-.36-.5-.34.29-.34.5.08.51.34.51h0ZM42.76,36.92h0c-.12.15-.29.21-.48.21-.48,0-.65-.39-.65-.82s.18-.81.65-.81c.2,0,.34.07.47.22h0v-.89h.41v2.27h-.39v-.18h0Z"/>
    <path class="st0" d="M44.07,36.84c.12,0,.22-.05.28-.14.07-.09.08-.2.08-.32h-.18c-.18,0-.45.03-.45.27,0,.13.11.19.26.19h0ZM43.59,35.62c.16-.07.37-.12.54-.12.47,0,.67.2.67.66v.2c0,.16,0,.28,0,.39,0,.12,0,.23.02.35h-.36c-.02-.08-.02-.18-.02-.23h0c-.09.17-.3.27-.48.27-.28,0-.54-.17-.54-.46,0-.23.11-.37.27-.44.15-.08.35-.09.52-.09h.22c0-.25-.11-.34-.35-.34-.17,0-.34.07-.48.17v-.35h-.01Z"/>
    <path class="st0" d="M45.32,35.84h-.3v-.3h.3v-.31l.41-.13v.44h.36v.3h-.36v.73c0,.13.04.26.19.26.07,0,.14-.02.18-.04v.32c-.07.02-.17.04-.29.04-.32,0-.49-.2-.49-.51v-.79h0Z"/>
    <path class="st0" d="M46.42,35.54h.41v1.56h-.41v-1.56h0ZM46.42,34.87h.41v.39h-.41v-.39h0Z"/>
    <path class="st0" d="M47.87,36.82c.31,0,.39-.28.39-.54,0-.24-.13-.46-.39-.46s-.39.23-.39.46c0,.26.08.54.39.54h0ZM47.87,35.5c.46,0,.82.31.82.83,0,.45-.3.8-.82.8-.51,0-.81-.36-.81-.8,0-.51.35-.83.81-.83h0Z"/>
    <path class="st0" d="M48.94,35.54h.38v.21h0c.13-.18.3-.25.51-.25.37,0,.53.26.53.61v.98h-.41v-.83c0-.19,0-.45-.26-.45-.29,0-.36.32-.36.52v.76h-.41v-1.56h0Z"/>
    <path class="st0" d="M26.39,29.91c-.57.14-1.25.21-2.05.21-1.18,0-2.12-.4-2.8-1.2-.68-.8-1.03-2.03-1.03-3.7v-.2c0-1.56.37-2.78,1.1-3.66.73-.88,1.75-1.32,3.06-1.32.7,0,1.31.06,1.83.16.52.11.93.23,1.24.37v-2.2c-.33-.15-.8-.27-1.41-.36-.6-.09-1.36-.13-2.26-.13-2.1,0-3.84.64-5.23,1.91-1.39,1.27-2.08,2.96-2.08,5.07v.56c0,2.25.68,3.97,2.05,5.13,1.35,1.15,3.08,1.73,5.21,1.75h0s2.36,0,2.36,0l1.04-2.68c-.28.1-.63.19-1.03.29h0Z"/>
    <polygon class="st0" points="50.37 20.05 50.37 17.89 40.3 17.89 40.3 28.6 41.77 32.29 44.01 32.29 44.01 26.07 48.95 26.07 48.95 23.9 44.01 23.9 44.01 20.05 50.37 20.05 50.37 20.05"/>
  </g>
</svg>