<?xml version="1.0" encoding="UTF-8"?>
<svg id="Layer_1" xmlns="http://www.w3.org/2000/svg" version="1.1" viewBox="0 0 168.6 82.92">
  <!-- Generator: Adobe Illustrator 30.1.0, SVG Export Plug-In . SVG Version: 2.1.1 Build 136)  -->
  <defs>
    <style>
      .st0 {
        fill: #fff;
      }
    </style>
  </defs>
  <path class="st0" d="M45.8,3.72h-5.02V.3h13.75v3.42h-5.02v14.07h-3.7V3.72Z"/>
  <path class="st0" d="M55.17,12.67v-7.12h3.57v6.97c0,1.32.6,2.27,1.88,2.27,1.55,0,2.1-1.1,2.1-2.97v-6.27h3.57v12.25h-3.5v-.85c-.75.77-1.88,1.12-3.05,1.12-2.85,0-4.57-1.92-4.57-5.4Z"/>
  <path class="st0" d="M69.45,5.55h3.5v1.1c.67-.8,1.8-1.27,3.05-1.27.42,0,.6,0,.95.02v3.42h-.55c-1.97,0-3.4,1.25-3.4,3.85v5.12h-3.55V5.55Z"/>
  <path class="st0" d="M79.07,5.55h3.5v.85c.67-.65,1.65-1.15,2.9-1.15,3,0,5,1.95,5,5.42v7.12h-3.55v-6.85c0-1.3-.62-2.4-2.05-2.4-1.67,0-2.25,1.25-2.25,3.12v6.12h-3.55V5.55Z"/>
  <path class="st0" d="M95.4,0c1.15,0,2.07.92,2.07,2.08s-.92,2.05-2.07,2.05-2.05-.92-2.05-2.05.9-2.08,2.05-2.08ZM93.62,5.55h3.55v12.25h-3.55V5.55Z"/>
  <path class="st0" d="M100.47,5.55h3.5v.85c.67-.65,1.65-1.15,2.9-1.15,3,0,5,1.95,5,5.42v7.12h-3.55v-6.85c0-1.3-.62-2.4-2.05-2.4-1.67,0-2.25,1.25-2.25,3.12v6.12h-3.55V5.55Z"/>
  <path class="st0" d="M114.57,20.45l2.47-2.37c.58.82,1.65,1.57,3.08,1.57,1.87,0,3.1-1.1,3.1-2.72v-.33c-.62.55-1.62.92-3,.92-3.4,0-6-2.25-6-6.12s2.85-6.15,6-6.15c1.35,0,2.4.55,3.07,1.17v-.88h3.47v10.97c0,3.7-2.4,6.4-6.62,6.4-3.15,0-4.77-1.47-5.57-2.47ZM120.55,14.3c1.5,0,2.75-1.15,2.75-2.9s-1.25-2.92-2.75-2.92-2.7,1.15-2.7,2.92,1.23,2.9,2.7,2.9Z"/>
  <path class="st0" d="M7.71,44.2c0-2.7,2.32-3.95,4.85-3.95.95,0,1.82.17,2.42.35v-.2c0-1.15-.75-2-2.03-2-.95,0-1.97.45-2.62,1.42l-2.25-2.15c1.57-1.88,3.37-2.42,5.12-2.42,2.97,0,5.37,1.77,5.37,4.9v7.65h-3.55v-.8c-.62.55-1.67,1.08-3.07,1.08-2.65,0-4.25-1.67-4.25-3.87ZM12.81,45.07c.85,0,1.57-.3,2.17-.75v-1.4c-.43-.1-1-.22-1.62-.22-1.4,0-2.07.55-2.07,1.27,0,.65.62,1.1,1.52,1.1Z"/>
  <path class="st0" d="M21.61,35.55h3.5v.85c.67-.65,1.7-1.15,2.95-1.15,1.37,0,2.57.52,3.4,1.47.85-.85,2.17-1.47,3.67-1.47,3.27,0,5.12,1.95,5.12,5.42v7.12h-3.55v-6.97c0-1.32-.6-2.27-1.87-2.27-1.35,0-2.12,1.03-2.12,2.72v6.52h-3.55v-6.97c0-1.32-.6-2.27-1.88-2.27-1.4,0-2.12,1.1-2.12,2.97v6.27h-3.55v-12.25Z"/>
  <path class="st0" d="M46.84,46.92v.88h-3.55v-17.5h3.6v6.02c.62-.55,1.7-1.07,3.1-1.07,3.37,0,6.12,2.55,6.12,6.42s-2.75,6.4-6.12,6.4c-1.38,0-2.5-.53-3.15-1.15ZM49.64,44.87c1.62,0,2.85-1.3,2.85-3.2s-1.22-3.2-2.85-3.2-2.8,1.3-2.8,3.2,1.17,3.2,2.8,3.2Z"/>
  <path class="st0" d="M60.46,30c1.15,0,2.07.92,2.07,2.08s-.92,2.05-2.07,2.05-2.05-.92-2.05-2.05.9-2.08,2.05-2.08ZM58.69,35.55h3.55v12.25h-3.55v-12.25Z"/>
  <path class="st0" d="M65.99,43.47v-4.65h-1.6v-3.27h1.6v-3.42h3.55v3.42h2.7v3.27h-2.7v4.22c0,1.22.58,1.5,1.6,1.5h1.05v3.25c-.4.03-1.22.05-1.92.05-2.9,0-4.27-1.55-4.27-4.37Z"/>
  <path class="st0" d="M76.84,30c1.15,0,2.07.92,2.07,2.08s-.92,2.05-2.07,2.05-2.05-.92-2.05-2.05.9-2.08,2.05-2.08ZM75.06,35.55h3.55v12.25h-3.55v-12.25Z"/>
  <path class="st0" d="M81.21,41.67c0-3.67,2.8-6.42,6.47-6.42s6.47,2.75,6.47,6.42-2.8,6.4-6.47,6.4-6.47-2.72-6.47-6.4ZM87.69,44.77c1.65,0,2.85-1.3,2.85-3.1s-1.2-3.1-2.85-3.1-2.85,1.3-2.85,3.1,1.2,3.1,2.85,3.1Z"/>
  <path class="st0" d="M96.61,35.55h3.5v.85c.67-.65,1.65-1.15,2.9-1.15,3,0,5,1.95,5,5.42v7.12h-3.55v-6.85c0-1.3-.62-2.4-2.05-2.4-1.67,0-2.25,1.25-2.25,3.12v6.12h-3.55v-12.25Z"/>
  <path class="st0" d="M119.94,30c1.15,0,2.07.92,2.07,2.08s-.92,2.05-2.07,2.05-2.05-.92-2.05-2.05.9-2.08,2.05-2.08ZM118.16,35.55h3.55v12.25h-3.55v-12.25Z"/>
  <path class="st0" d="M125.01,35.55h3.5v.85c.67-.65,1.65-1.15,2.9-1.15,3,0,5,1.95,5,5.42v7.12h-3.55v-6.85c0-1.3-.62-2.4-2.05-2.4-1.67,0-2.25,1.25-2.25,3.12v6.12h-3.55v-12.25Z"/>
  <path class="st0" d="M139.89,43.47v-4.65h-1.6v-3.27h1.6v-3.42h3.55v3.42h2.7v3.27h-2.7v4.22c0,1.22.58,1.5,1.6,1.5h1.05v3.25c-.4.03-1.22.05-1.92.05-2.9,0-4.27-1.55-4.27-4.37Z"/>
  <path class="st0" d="M147.84,41.67c0-3.67,2.8-6.42,6.47-6.42s6.47,2.75,6.47,6.42-2.8,6.4-6.47,6.4-6.47-2.72-6.47-6.4ZM154.31,44.77c1.65,0,2.85-1.3,2.85-3.1s-1.2-3.1-2.85-3.1-2.85,1.3-2.85,3.1,1.2,3.1,2.85,3.1Z"/>
  <path class="st0" d="M0,60.3h3.55v17.5H0v-17.5Z"/>
  <path class="st0" d="M6.13,74.2c0-2.7,2.32-3.95,4.85-3.95.95,0,1.82.17,2.42.35v-.2c0-1.15-.75-2-2.03-2-.95,0-1.97.45-2.62,1.42l-2.25-2.15c1.57-1.88,3.37-2.42,5.12-2.42,2.97,0,5.37,1.77,5.37,4.9v7.65h-3.55v-.8c-.62.55-1.67,1.08-3.07,1.08-2.65,0-4.25-1.67-4.25-3.87ZM11.22,75.07c.85,0,1.57-.3,2.17-.75v-1.4c-.43-.1-1-.22-1.62-.22-1.4,0-2.07.55-2.07,1.27,0,.65.62,1.1,1.52,1.1Z"/>
  <path class="st0" d="M19.3,75.7l2.17-2.22c1.22,1.2,2.4,1.62,3.5,1.62.72,0,1.38-.33,1.38-.8,0-.38-.33-.58-1.1-.78l-1.62-.4c-2.72-.67-4-2.02-4-4,0-2.4,2.2-3.87,4.75-3.87,1.8,0,3.47.62,4.92,1.92l-2.17,2.3c-.75-.62-1.77-1.2-2.9-1.2-.7,0-1.15.32-1.15.72,0,.33.33.52.88.65l1.82.43c2.2.52,4.02,1.6,4.02,4.05,0,2.3-1.95,3.95-5.12,3.95-2.4,0-4.42-1.17-5.37-2.38Z"/>
  <path class="st0" d="M32.52,73.47v-4.65h-1.6v-3.27h1.6v-3.42h3.55v3.42h2.7v3.27h-2.7v4.22c0,1.22.58,1.5,1.6,1.5h1.05v3.25c-.4.03-1.22.05-1.92.05-2.9,0-4.27-1.55-4.27-4.37Z"/>
  <path class="st0" d="M43.38,60c1.15,0,2.07.92,2.07,2.08s-.92,2.05-2.07,2.05-2.05-.92-2.05-2.05.9-2.08,2.05-2.08ZM41.6,65.55h3.55v12.25h-3.55v-12.25Z"/>
  <path class="st0" d="M48.45,65.55h3.5v.85c.67-.65,1.65-1.15,2.9-1.15,3,0,5,1.95,5,5.42v7.12h-3.55v-6.85c0-1.3-.62-2.4-2.05-2.4-1.67,0-2.25,1.25-2.25,3.12v6.12h-3.55v-12.25Z"/>
  <path class="st0" d="M62.55,80.45l2.47-2.37c.58.82,1.65,1.57,3.07,1.57,1.88,0,3.1-1.1,3.1-2.72v-.33c-.62.55-1.62.92-3,.92-3.4,0-6-2.25-6-6.12s2.85-6.15,6-6.15c1.35,0,2.4.55,3.07,1.17v-.88h3.47v10.97c0,3.7-2.4,6.4-6.62,6.4-3.15,0-4.77-1.47-5.57-2.47ZM68.52,74.3c1.5,0,2.75-1.15,2.75-2.9s-1.25-2.92-2.75-2.92-2.7,1.15-2.7,2.92,1.23,2.9,2.7,2.9Z"/>
  <path class="st0" d="M86.8,60c1.15,0,2.07.92,2.07,2.08s-.92,2.05-2.07,2.05-2.05-.92-2.05-2.05.9-2.08,2.05-2.08ZM85.02,65.55h3.55v12.25h-3.55v-12.25Z"/>
  <path class="st0" d="M91.87,65.55h3.5v.85c.67-.65,1.7-1.15,2.95-1.15,1.37,0,2.57.52,3.4,1.47.85-.85,2.17-1.47,3.67-1.47,3.27,0,5.12,1.95,5.12,5.42v7.12h-3.55v-6.97c0-1.32-.6-2.27-1.88-2.27-1.35,0-2.12,1.03-2.12,2.72v6.52h-3.55v-6.97c0-1.32-.6-2.27-1.88-2.27-1.4,0-2.12,1.1-2.12,2.97v6.27h-3.55v-12.25Z"/>
  <path class="st0" d="M113.55,65.55h3.5v.88c.65-.62,1.82-1.17,3.2-1.17,3.37,0,6.12,2.45,6.12,6.42s-2.75,6.4-6.12,6.4c-1.4,0-2.52-.5-3.15-1.05v5.62h-3.55v-17.1ZM119.9,74.87c1.62,0,2.85-1.3,2.85-3.2s-1.22-3.2-2.85-3.2-2.85,1.3-2.85,3.2,1.22,3.2,2.85,3.2Z"/>
  <path class="st0" d="M127.8,74.2c0-2.7,2.32-3.95,4.85-3.95.95,0,1.82.17,2.42.35v-.2c0-1.15-.75-2-2.03-2-.95,0-1.97.45-2.62,1.42l-2.25-2.15c1.57-1.88,3.37-2.42,5.12-2.42,2.97,0,5.37,1.77,5.37,4.9v7.65h-3.55v-.8c-.62.55-1.67,1.08-3.07,1.08-2.65,0-4.25-1.67-4.25-3.87ZM132.9,75.07c.85,0,1.57-.3,2.17-.75v-1.4c-.43-.1-1-.22-1.62-.22-1.4,0-2.07.55-2.07,1.27,0,.65.62,1.1,1.52,1.1Z"/>
  <path class="st0" d="M141,71.67c0-3.67,2.8-6.42,6.47-6.42,2.32,0,3.82,1,5.12,2.45l-2.4,2.32c-.7-.85-1.47-1.42-2.6-1.42-1.67,0-2.97,1.28-2.97,3.08s1.3,3.07,2.97,3.07c1.22,0,2.07-.6,2.85-1.6l2.4,2.32c-1.25,1.65-3,2.6-5.37,2.6-3.67,0-6.47-2.72-6.47-6.4Z"/>
  <path class="st0" d="M155.57,73.47v-4.65h-1.6v-3.27h1.6v-3.42h3.55v3.42h2.7v3.27h-2.7v4.22c0,1.22.58,1.5,1.6,1.5h1.05v3.25c-.4.03-1.22.05-1.92.05-2.9,0-4.27-1.55-4.27-4.37Z"/>
  <path class="st0" d="M164.3,75.92c0-1.2.92-2.15,2.12-2.15s2.17.95,2.17,2.15-.97,2.15-2.17,2.15-2.12-.95-2.12-2.15Z"/>
</svg>