<?xml version="1.0" encoding="UTF-8"?>
<svg id="Layer_1" xmlns="http://www.w3.org/2000/svg" version="1.1" viewBox="0 0 184.6 82.62">
  <!-- Generator: Adobe Illustrator 30.1.0, SVG Export Plug-In . SVG Version: 2.1.1 Build 136)  -->
  <defs>
    <style>
      .st0 {
        fill: #fff;
      }
    </style>
  </defs>
  <path class="st0" d="M0,0h3.97l2.7,11.2L9.5,0h3.97l2.82,11.2L19,0h3.97l-4.67,17.5h-3.8l-3-11.55-3.02,11.55h-3.8L0,0Z"/>
  <path class="st0" d="M25.05,0h3.52v5.95c.55-.5,1.62-1,2.87-1,3,0,5,1.95,5,5.42v7.12h-3.55v-6.85c0-1.3-.62-2.4-2.05-2.4-1.67,0-2.25,1.25-2.25,3.12v6.12h-3.55V0Z"/>
  <path class="st0" d="M38.77,11.45c0-3.7,2.47-6.5,6.02-6.5,3.95,0,5.9,3.17,5.9,6.27l-.03,1.05h-8.3c.2,1.27,1.17,2.25,2.75,2.25,1.27,0,2.25-.47,3-1.42l2.35,2.2c-1.08,1.35-2.62,2.47-5.25,2.47-3.67,0-6.45-2.47-6.45-6.32ZM46.95,9.9c-.08-1.02-.9-1.82-2.07-1.82-1.33,0-2.1.83-2.33,1.82h4.4Z"/>
  <path class="st0" d="M53.12,5.25h3.5v.85c.67-.65,1.65-1.15,2.9-1.15,3,0,5,1.95,5,5.42v7.12h-3.55v-6.85c0-1.3-.62-2.4-2.05-2.4-1.67,0-2.25,1.25-2.25,3.12v6.12h-3.55V5.25Z"/>
  <path class="st0" d="M73.85,11.37c0-3.67,2.8-6.42,6.47-6.42,2.32,0,3.82,1,5.12,2.45l-2.4,2.32c-.7-.85-1.47-1.42-2.6-1.42-1.67,0-2.97,1.28-2.97,3.08s1.3,3.07,2.97,3.07c1.22,0,2.07-.6,2.85-1.6l2.4,2.32c-1.25,1.65-3,2.6-5.37,2.6-3.67,0-6.47-2.72-6.47-6.4Z"/>
  <path class="st0" d="M86.77,11.37c0-3.67,2.8-6.42,6.47-6.42s6.47,2.75,6.47,6.42-2.8,6.4-6.47,6.4-6.47-2.72-6.47-6.4ZM93.25,14.47c1.65,0,2.85-1.3,2.85-3.1s-1.2-3.1-2.85-3.1-2.85,1.3-2.85,3.1,1.2,3.1,2.85,3.1Z"/>
  <path class="st0" d="M102.17,5.25h3.5v1.1c.67-.8,1.8-1.27,3.05-1.27.42,0,.6,0,.95.02v3.42h-.55c-1.97,0-3.4,1.25-3.4,3.85v5.12h-3.55V5.25Z"/>
  <path class="st0" d="M111.8,5.25h3.5v.88c.65-.62,1.82-1.17,3.2-1.17,3.37,0,6.12,2.45,6.12,6.42s-2.75,6.4-6.12,6.4c-1.4,0-2.52-.5-3.15-1.05v5.62h-3.55V5.25ZM118.15,14.57c1.62,0,2.85-1.3,2.85-3.2s-1.22-3.2-2.85-3.2-2.85,1.3-2.85,3.2,1.22,3.2,2.85,3.2Z"/>
  <path class="st0" d="M126.37,11.37c0-3.67,2.8-6.42,6.47-6.42s6.47,2.75,6.47,6.42-2.8,6.4-6.47,6.4-6.47-2.72-6.47-6.4ZM132.85,14.47c1.65,0,2.85-1.3,2.85-3.1s-1.2-3.1-2.85-3.1-2.85,1.3-2.85,3.1,1.2,3.1,2.85,3.1Z"/>
  <path class="st0" d="M141.77,5.25h3.5v1.1c.67-.8,1.8-1.27,3.05-1.27.42,0,.6,0,.95.02v3.42h-.55c-1.97,0-3.4,1.25-3.4,3.85v5.12h-3.55V5.25Z"/>
  <path class="st0" d="M150.37,13.9c0-2.7,2.32-3.95,4.85-3.95.95,0,1.82.17,2.42.35v-.2c0-1.15-.75-2-2.03-2-.95,0-1.97.45-2.62,1.42l-2.25-2.15c1.57-1.88,3.37-2.42,5.12-2.42,2.97,0,5.37,1.77,5.37,4.9v7.65h-3.55v-.8c-.62.55-1.67,1.08-3.07,1.08-2.65,0-4.25-1.67-4.25-3.87ZM155.47,14.77c.85,0,1.57-.3,2.17-.75v-1.4c-.43-.1-1-.22-1.62-.22-1.4,0-2.07.55-2.07,1.27,0,.65.62,1.1,1.52,1.1Z"/>
  <path class="st0" d="M164.72,13.17v-4.65h-1.6v-3.27h1.6V1.83h3.55v3.42h2.7v3.27h-2.7v4.22c0,1.22.58,1.5,1.6,1.5h1.05v3.25c-.4.03-1.22.05-1.92.05-2.9,0-4.27-1.55-4.27-4.37Z"/>
  <path class="st0" d="M172.67,11.45c0-3.7,2.47-6.5,6.02-6.5,3.95,0,5.9,3.17,5.9,6.27l-.03,1.05h-8.3c.2,1.27,1.17,2.25,2.75,2.25,1.27,0,2.25-.47,3-1.42l2.35,2.2c-1.08,1.35-2.62,2.47-5.25,2.47-3.67,0-6.45-2.47-6.45-6.32ZM180.85,9.9c-.08-1.02-.9-1.82-2.07-1.82-1.33,0-2.1.83-2.33,1.82h4.4Z"/>
  <path class="st0" d="M5,50.15l2.47-2.37c.58.82,1.65,1.57,3.07,1.57,1.88,0,3.1-1.1,3.1-2.72v-.33c-.62.55-1.62.92-3,.92-3.4,0-6-2.25-6-6.12s2.85-6.15,6-6.15c1.35,0,2.4.55,3.07,1.17v-.88h3.47v10.97c0,3.7-2.4,6.4-6.62,6.4-3.15,0-4.77-1.47-5.57-2.47ZM10.97,44c1.5,0,2.75-1.15,2.75-2.9s-1.25-2.92-2.75-2.92-2.7,1.15-2.7,2.92,1.23,2.9,2.7,2.9Z"/>
  <path class="st0" d="M22.25,29.7c1.15,0,2.07.92,2.07,2.08s-.92,2.05-2.07,2.05-2.05-.92-2.05-2.05.9-2.08,2.05-2.08ZM20.48,35.25h3.55v12.25h-3.55v-12.25Z"/>
  <path class="st0" d="M25.9,35.25h3.77l2.4,7.57,2.4-7.57h3.77l-4.35,12.25h-3.65l-4.35-12.25Z"/>
  <path class="st0" d="M41.88,29.7c1.15,0,2.07.92,2.07,2.08s-.92,2.05-2.07,2.05-2.05-.92-2.05-2.05.9-2.08,2.05-2.08ZM40.1,35.25h3.55v12.25h-3.55v-12.25Z"/>
  <path class="st0" d="M46.95,35.25h3.5v.85c.67-.65,1.65-1.15,2.9-1.15,3,0,5,1.95,5,5.42v7.12h-3.55v-6.85c0-1.3-.62-2.4-2.05-2.4-1.67,0-2.25,1.25-2.25,3.12v6.12h-3.55v-12.25Z"/>
  <path class="st0" d="M61.05,50.15l2.47-2.37c.58.82,1.65,1.57,3.08,1.57,1.87,0,3.1-1.1,3.1-2.72v-.33c-.62.55-1.62.92-3,.92-3.4,0-6-2.25-6-6.12s2.85-6.15,6-6.15c1.35,0,2.4.55,3.07,1.17v-.88h3.47v10.97c0,3.7-2.4,6.4-6.62,6.4-3.15,0-4.77-1.47-5.57-2.47ZM67.02,44c1.5,0,2.75-1.15,2.75-2.9s-1.25-2.92-2.75-2.92-2.7,1.15-2.7,2.92,1.23,2.9,2.7,2.9Z"/>
  <path class="st0" d="M82.83,43.9c0-2.7,2.32-3.95,4.85-3.95.95,0,1.82.17,2.42.35v-.2c0-1.15-.75-2-2.03-2-.95,0-1.97.45-2.62,1.42l-2.25-2.15c1.57-1.88,3.37-2.42,5.12-2.42,2.97,0,5.37,1.77,5.37,4.9v7.65h-3.55v-.8c-.62.55-1.67,1.08-3.07,1.08-2.65,0-4.25-1.67-4.25-3.87ZM87.92,44.77c.85,0,1.57-.3,2.17-.75v-1.4c-.43-.1-1-.22-1.62-.22-1.4,0-2.07.55-2.07,1.27,0,.65.62,1.1,1.52,1.1Z"/>
  <path class="st0" d="M96.03,41.37c0-3.67,2.8-6.42,6.47-6.42,2.32,0,3.82,1,5.12,2.45l-2.4,2.32c-.7-.85-1.47-1.42-2.6-1.42-1.67,0-2.97,1.28-2.97,3.08s1.3,3.07,2.97,3.07c1.22,0,2.07-.6,2.85-1.6l2.4,2.32c-1.25,1.65-3,2.6-5.37,2.6-3.67,0-6.47-2.72-6.47-6.4Z"/>
  <path class="st0" d="M110.15,30h3.52v5.95c.55-.5,1.62-1,2.87-1,3,0,5,1.95,5,5.42v7.12h-3.55v-6.85c0-1.3-.62-2.4-2.05-2.4-1.67,0-2.25,1.25-2.25,3.12v6.12h-3.55v-17.5Z"/>
  <path class="st0" d="M126.47,29.7c1.15,0,2.07.92,2.07,2.08s-.92,2.05-2.07,2.05-2.05-.92-2.05-2.05.9-2.08,2.05-2.08ZM124.7,35.25h3.55v12.25h-3.55v-12.25Z"/>
  <path class="st0" d="M130.85,41.45c0-3.7,2.47-6.5,6.02-6.5,3.95,0,5.9,3.17,5.9,6.27l-.03,1.05h-8.3c.2,1.27,1.17,2.25,2.75,2.25,1.27,0,2.25-.47,3-1.42l2.35,2.2c-1.08,1.35-2.62,2.47-5.25,2.47-3.67,0-6.45-2.47-6.45-6.32ZM139.02,39.9c-.08-1.02-.9-1.82-2.07-1.82-1.33,0-2.1.83-2.33,1.82h4.4Z"/>
  <path class="st0" d="M143.4,35.25h3.77l2.4,7.57,2.4-7.57h3.77l-4.35,12.25h-3.65l-4.35-12.25Z"/>
  <path class="st0" d="M156.4,41.45c0-3.7,2.47-6.5,6.02-6.5,3.95,0,5.9,3.17,5.9,6.27l-.03,1.05h-8.3c.2,1.27,1.17,2.25,2.75,2.25,1.27,0,2.25-.47,3-1.42l2.35,2.2c-1.08,1.35-2.62,2.47-5.25,2.47-3.67,0-6.45-2.47-6.45-6.32ZM164.57,39.9c-.08-1.02-.9-1.82-2.07-1.82-1.33,0-2.1.83-2.33,1.82h4.4Z"/>
  <path class="st0" d="M169.85,45.4l2.17-2.22c1.22,1.2,2.4,1.62,3.5,1.62.72,0,1.38-.33,1.38-.8,0-.38-.33-.58-1.1-.78l-1.62-.4c-2.72-.67-4-2.02-4-4,0-2.4,2.2-3.87,4.75-3.87,1.8,0,3.47.62,4.92,1.92l-2.17,2.3c-.75-.62-1.77-1.2-2.9-1.2-.7,0-1.15.32-1.15.72,0,.33.33.52.88.65l1.82.43c2.2.52,4.02,1.6,4.02,4.05,0,2.3-1.95,3.95-5.12,3.95-2.4,0-4.42-1.17-5.37-2.38Z"/>
  <path class="st0" d="M23.89,65.25h3.5v1.1c.67-.8,1.8-1.27,3.05-1.27.42,0,.6,0,.95.02v3.42h-.55c-1.97,0-3.4,1.25-3.4,3.85v5.12h-3.55v-12.25Z"/>
  <path class="st0" d="M32.24,71.45c0-3.7,2.47-6.5,6.02-6.5,3.95,0,5.9,3.17,5.9,6.27l-.03,1.05h-8.3c.2,1.27,1.17,2.25,2.75,2.25,1.27,0,2.25-.47,3-1.42l2.35,2.2c-1.08,1.35-2.62,2.47-5.25,2.47-3.67,0-6.45-2.47-6.45-6.32ZM40.41,69.9c-.08-1.02-.9-1.82-2.07-1.82-1.33,0-2.1.83-2.33,1.82h4.4Z"/>
  <path class="st0" d="M45.56,73.9c0-2.7,2.32-3.95,4.85-3.95.95,0,1.82.17,2.42.35v-.2c0-1.15-.75-2-2.03-2-.95,0-1.97.45-2.62,1.42l-2.25-2.15c1.57-1.88,3.37-2.42,5.12-2.42,2.97,0,5.37,1.77,5.37,4.9v7.65h-3.55v-.8c-.62.55-1.67,1.08-3.07,1.08-2.65,0-4.25-1.67-4.25-3.87ZM50.66,74.77c.85,0,1.57-.3,2.17-.75v-1.4c-.43-.1-1-.22-1.62-.22-1.4,0-2.07.55-2.07,1.27,0,.65.62,1.1,1.52,1.1Z"/>
  <path class="st0" d="M59.46,60h3.55v17.5h-3.55v-17.5Z"/>
  <path class="st0" d="M72.46,71.37c0-3.67,2.8-6.42,6.47-6.42,2.32,0,3.82,1,5.12,2.45l-2.4,2.32c-.7-.85-1.47-1.42-2.6-1.42-1.67,0-2.97,1.28-2.97,3.08s1.3,3.07,2.97,3.07c1.22,0,2.07-.6,2.85-1.6l2.4,2.32c-1.25,1.65-3,2.6-5.37,2.6-3.67,0-6.47-2.72-6.47-6.4Z"/>
  <path class="st0" d="M86.59,60h3.52v5.95c.55-.5,1.62-1,2.87-1,3,0,5,1.95,5,5.42v7.12h-3.55v-6.85c0-1.3-.62-2.4-2.05-2.4-1.67,0-2.25,1.25-2.25,3.12v6.12h-3.55v-17.5Z"/>
  <path class="st0" d="M100.44,73.9c0-2.7,2.32-3.95,4.85-3.95.95,0,1.82.17,2.42.35v-.2c0-1.15-.75-2-2.03-2-.95,0-1.97.45-2.62,1.42l-2.25-2.15c1.57-1.88,3.37-2.42,5.12-2.42,2.97,0,5.37,1.77,5.37,4.9v7.65h-3.55v-.8c-.62.55-1.67,1.08-3.07,1.08-2.65,0-4.25-1.67-4.25-3.87ZM105.54,74.77c.85,0,1.57-.3,2.17-.75v-1.4c-.43-.1-1-.22-1.62-.22-1.4,0-2.07.55-2.07,1.27,0,.65.62,1.1,1.52,1.1Z"/>
  <path class="st0" d="M114.34,65.25h3.5v.85c.67-.65,1.65-1.15,2.9-1.15,3,0,5,1.95,5,5.42v7.12h-3.55v-6.85c0-1.3-.62-2.4-2.05-2.4-1.67,0-2.25,1.25-2.25,3.12v6.12h-3.55v-12.25Z"/>
  <path class="st0" d="M128.44,80.15l2.47-2.37c.58.82,1.65,1.57,3.07,1.57,1.88,0,3.1-1.1,3.1-2.72v-.33c-.62.55-1.62.92-3,.92-3.4,0-6-2.25-6-6.12s2.85-6.15,6-6.15c1.35,0,2.4.55,3.07,1.17v-.88h3.47v10.97c0,3.7-2.4,6.4-6.62,6.4-3.15,0-4.77-1.47-5.57-2.47ZM134.41,74c1.5,0,2.75-1.15,2.75-2.9s-1.25-2.92-2.75-2.92-2.7,1.15-2.7,2.92,1.23,2.9,2.7,2.9Z"/>
  <path class="st0" d="M143.09,71.45c0-3.7,2.47-6.5,6.02-6.5,3.95,0,5.9,3.17,5.9,6.27l-.03,1.05h-8.3c.2,1.27,1.17,2.25,2.75,2.25,1.27,0,2.25-.47,3-1.42l2.35,2.2c-1.08,1.35-2.62,2.47-5.25,2.47-3.67,0-6.45-2.47-6.45-6.32ZM151.26,69.9c-.08-1.02-.9-1.82-2.07-1.82-1.33,0-2.1.83-2.33,1.82h4.4Z"/>
  <path class="st0" d="M156.99,75.62c0-1.2.92-2.15,2.12-2.15s2.17.95,2.17,2.15-.97,2.15-2.17,2.15-2.12-.95-2.12-2.15Z"/>
</svg>