<?xml version="1.0" encoding="UTF-8"?>
<svg id="Layer_1" xmlns="http://www.w3.org/2000/svg" version="1.1" viewBox="0 0 97.66 80">
  <!-- Generator: Adobe Illustrator 30.1.0, SVG Export Plug-In . SVG Version: 2.1.1 Build 136)  -->
  <defs>
    <style>
      .st0 {
        fill: #fff;
      }

      .st1 {
        fill: #0d393b;
      }
    </style>
  </defs>
  <rect class="st1" width="97.66" height="80"/>
  <g>
    <polygon class="st0" points="73.25 49.09 24.4 49.09 24.4 48.7 73.25 48.7 73.25 49.09 73.25 49.09"/>
    <path class="st0" d="M51.97,26.03h-5.07l-8.12,20.95h4.43l1.82-5.02h7.95l1.78,5.02h5.56l-8.36-20.95h0ZM46.1,38.92l2.75-7.7,3,7.7h-5.74Z"/>
    <path class="st0" d="M51.97,26.02h-5.07l-8.12,20.95h4.43l1.82-5.02h7.95l1.78,5.02h5.56l-8.36-20.95h0ZM46.1,38.9l2.75-7.7,3,7.7h-5.74Z"/>
    <path class="st0" d="M26.77,53.92c-.22.05-.47.1-.7.1-.99,0-1.69-.5-1.69-1.54s.64-1.64,1.69-1.64c.2,0,.47.04.7.13l-.04.52c-.23-.13-.44-.16-.66-.16-.63,0-1.03.48-1.03,1.11s.39,1.1,1.04,1.1c.24,0,.53-.05.67-.13l.03.51h0Z"/>
    <path class="st0" d="M27.15,50.66h.59v1.34h0c.15-.22.4-.36.71-.36.54,0,.77.38.77.89v1.43h-.59v-1.21c0-.28,0-.65-.38-.65-.43,0-.52.46-.52.75v1.11h-.59v-3.3h0Z"/>
    <path class="st0" d="M30.5,53.58c.18,0,.32-.08.41-.2.1-.13.12-.29.12-.47h-.26c-.26,0-.66.04-.66.39,0,.19.16.28.37.28h0ZM29.81,51.81c.23-.11.54-.17.79-.17.69,0,.98.29.98.96v.29c0,.23,0,.4,0,.57,0,.17.01.33.03.51h-.52c-.02-.12-.02-.27-.03-.34h0c-.14.25-.43.39-.7.39-.4,0-.79-.24-.79-.67,0-.34.16-.54.39-.65.22-.11.52-.13.76-.13h.33c0-.37-.16-.49-.51-.49-.25,0-.5.1-.7.25l-.02-.51h0Z"/>
    <path class="st0" d="M32.04,51.69h.52v.51h0c.03-.21.27-.57.62-.57.06,0,.12,0,.18.02v.59c-.05-.03-.16-.05-.26-.05-.48,0-.48.6-.48.92v.83h-.59v-2.27h0Z"/>
    <path class="st0" d="M33.74,51.69h.59v2.27h-.59v-2.27h0ZM33.74,50.72h.59v.56h-.59v-.56h0Z"/>
    <path class="st0" d="M35.12,52.13h-.44v-.43h.44v-.45l.59-.19v.64h.52v.43h-.52v1.06c0,.19.05.37.28.37.11,0,.21-.02.27-.06l.02.47c-.12.03-.26.05-.44.05-.46,0-.72-.29-.72-.73v-1.15h0Z"/>
    <path class="st0" d="M36.63,51.69h.59v2.27h-.59v-2.27h0ZM36.63,50.72h.59v.56h-.59v-.56h0Z"/>
    <path class="st0" d="M39.24,52.61c-.02-.29-.15-.53-.48-.53s-.5.23-.52.53h1ZM39.64,53.83c-.22.12-.46.18-.78.18-.75,0-1.18-.43-1.18-1.17,0-.66.35-1.2,1.05-1.2.84,0,1.08.58,1.08,1.37h-1.57c.03.37.28.57.65.57.29,0,.53-.11.75-.23v.48h0Z"/>
    <path class="st0" d="M41.59,52.17c-.18-.06-.31-.1-.53-.1-.16,0-.35.06-.35.25,0,.36,1.03.13,1.03.95,0,.53-.47.74-.95.74-.22,0-.45-.04-.67-.1l.04-.48c.18.09.38.15.58.15.15,0,.39-.06.39-.28,0-.44-1.03-.14-1.03-.96,0-.49.43-.7.89-.7.28,0,.46.04.64.08l-.04.44h0Z"/>
    <path class="st0" d="M44.35,51.51h0l-.44,1.27h.9l-.44-1.27h0ZM44.01,50.89h.7l1.21,3.07h-.68l-.26-.7h-1.25l-.27.7h-.64l1.2-3.07h0Z"/>
    <path class="st0" d="M46.25,51.69h.59v2.27h-.59v-2.27h0ZM46.25,50.72h.59v.56h-.59v-.56h0Z"/>
    <path class="st0" d="M48.41,53.56c.39,0,.52-.41.52-.74s-.15-.72-.53-.72-.49.42-.49.72.11.74.5.74h0ZM48.95,53.71h0c-.18.22-.42.31-.7.31-.7,0-.95-.57-.95-1.19s.25-1.18.95-1.18c.29,0,.5.1.68.32h0v-1.3h.59v3.3h-.57v-.26h0Z"/>
    <polygon class="st0" points="50.95 50.89 52.66 50.89 52.66 51.37 51.56 51.37 51.56 52.13 52.6 52.13 52.6 52.61 51.56 52.61 51.56 53.96 50.95 53.96 50.95 50.89 50.95 50.89"/>
    <path class="st0" d="M54.01,53.56c.45,0,.57-.41.57-.78,0-.35-.19-.67-.57-.67s-.57.33-.57.67c0,.37.12.78.57.78h0ZM54.01,51.64c.67,0,1.19.45,1.19,1.2,0,.65-.44,1.17-1.19,1.17s-1.18-.52-1.18-1.17c0-.75.51-1.2,1.18-1.2h0Z"/>
    <path class="st0" d="M57.61,53.96h-.56v-.31h0c-.18.22-.44.36-.74.36-.54,0-.77-.38-.77-.89v-1.43h.59v1.21c0,.28,0,.65.38.65.43,0,.52-.46.52-.75v-1.11h.59v2.27h0Z"/>
    <path class="st0" d="M58.08,51.69h.56v.31h0c.19-.26.44-.36.74-.36.54,0,.77.38.77.89v1.43h-.59v-1.21c0-.28,0-.65-.38-.65-.43,0-.52.46-.52.75v1.11h-.59v-2.27h0Z"/>
    <path class="st0" d="M61.65,53.56c.39,0,.52-.41.52-.74s-.15-.72-.53-.72-.49.42-.49.72.11.74.5.74h0ZM62.19,53.71h0c-.18.22-.42.31-.7.31-.7,0-.95-.57-.95-1.19s.26-1.18.95-1.18c.29,0,.5.1.68.32h0v-1.3h.59v3.3h-.57v-.26h0Z"/>
    <path class="st0" d="M64.1,53.58c.18,0,.32-.08.41-.2.1-.13.12-.29.12-.47h-.26c-.26,0-.66.04-.66.39,0,.19.16.28.37.28h0ZM63.41,51.81c.23-.11.54-.17.79-.17.69,0,.98.29.98.95v.29c0,.23,0,.4,0,.57,0,.17.01.33.03.51h-.52c-.02-.12-.02-.27-.03-.34h0c-.14.25-.43.39-.7.39-.4,0-.79-.24-.79-.67,0-.34.16-.54.39-.65.22-.11.51-.13.76-.13h.33c0-.37-.16-.49-.51-.49-.25,0-.5.1-.7.25l-.02-.51h0Z"/>
    <path class="st0" d="M65.93,52.13h-.44v-.43h.44v-.45l.59-.19v.64h.52v.43h-.52v1.06c0,.19.05.37.28.37.11,0,.21-.02.27-.06l.02.47c-.12.04-.26.05-.44.05-.46,0-.72-.29-.72-.74v-1.15h0Z"/>
    <path class="st0" d="M67.51,51.69h.59v2.27h-.59v-2.27h0ZM67.51,50.72h.59v.56h-.59v-.56h0Z"/>
    <path class="st0" d="M69.63,53.56c.45,0,.57-.4.57-.78,0-.35-.18-.67-.57-.67s-.57.33-.57.67c0,.37.12.78.57.78h0ZM69.63,51.64c.67,0,1.19.45,1.19,1.2,0,.65-.44,1.17-1.19,1.17-.75,0-1.18-.52-1.18-1.17,0-.75.51-1.2,1.18-1.2h0Z"/>
    <path class="st0" d="M71.18,51.69h.56v.31h0c.18-.26.44-.36.74-.36.54,0,.77.38.77.89v1.43h-.59v-1.21c0-.28,0-.65-.38-.65-.43,0-.52.46-.52.75v1.11h-.59v-2.27h0Z"/>
    <path class="st0" d="M38.38,43.5c-.82.21-1.82.31-2.98.31-1.72,0-3.08-.58-4.07-1.75-1-1.16-1.49-2.96-1.49-5.38v-.3c0-2.26.54-4.04,1.6-5.32,1.06-1.28,2.55-1.93,4.44-1.93,1.02,0,1.91.08,2.67.23.75.15,1.35.33,1.8.53v-3.2c-.49-.22-1.17-.39-2.05-.52-.87-.13-1.97-.2-3.28-.2-3.05,0-5.58.93-7.6,2.78-2.02,1.85-3.03,4.31-3.03,7.37v.82c0,3.28.99,5.77,2.98,7.47,1.96,1.67,4.49,2.52,7.58,2.54h0s3.43,0,3.43,0l1.51-3.9c-.41.14-.91.28-1.5.43h0Z"/>
    <polygon class="st0" points="73.27 29.16 73.27 26.02 58.61 26.02 58.61 41.6 60.75 46.97 64.02 46.97 64.02 37.92 71.2 37.92 71.2 34.77 64.02 34.77 64.02 29.16 73.27 29.16 73.27 29.16"/>
  </g>
</svg>