<?xml version="1.0" encoding="UTF-8"?>
<svg id="Layer_1" xmlns="http://www.w3.org/2000/svg" version="1.1" viewBox="0 0 101.96 76.44">
  <!-- Generator: Adobe Illustrator 30.1.0, SVG Export Plug-In . SVG Version: 2.1.1 Build 136)  -->
  <defs>
    <style>
      .st0 {
        fill: #fff;
      }
    </style>
  </defs>
  <path class="st0" d="M27.76,0h2.82l1.92,7.94,2-7.94h2.82l2,7.94,1.92-7.94h2.82l-3.32,12.41h-2.69l-2.13-8.19-2.15,8.19h-2.7L27.76,0Z"/>
  <path class="st0" d="M45.53,0h2.5v4.22c.39-.35,1.15-.71,2.04-.71,2.13,0,3.55,1.38,3.55,3.85v5.05h-2.52v-4.86c0-.92-.44-1.7-1.45-1.7-1.19,0-1.6.89-1.6,2.22v4.34h-2.52V0Z"/>
  <path class="st0" d="M55.26,8.12c0-2.62,1.76-4.61,4.27-4.61,2.8,0,4.18,2.25,4.18,4.45l-.02.74h-5.89c.14.9.83,1.6,1.95,1.6.9,0,1.6-.34,2.13-1.01l1.67,1.56c-.76.96-1.86,1.76-3.72,1.76-2.61,0-4.58-1.76-4.58-4.49ZM61.06,7.02c-.05-.73-.64-1.29-1.47-1.29-.94,0-1.49.58-1.65,1.29h3.12Z"/>
  <path class="st0" d="M65.44,3.72h2.48v.6c.48-.46,1.17-.82,2.06-.82,2.13,0,3.55,1.38,3.55,3.85v5.05h-2.52v-4.86c0-.92-.44-1.7-1.45-1.7-1.19,0-1.6.89-1.6,2.22v4.34h-2.52V3.72Z"/>
  <path class="st0" d="M8.34,35.57l1.75-1.68c.41.58,1.17,1.12,2.18,1.12,1.33,0,2.2-.78,2.2-1.93v-.23c-.44.39-1.15.66-2.13.66-2.41,0-4.25-1.6-4.25-4.34s2.02-4.36,4.25-4.36c.96,0,1.7.39,2.18.83v-.62h2.46v7.78c0,2.62-1.7,4.54-4.7,4.54-2.23,0-3.39-1.05-3.95-1.75ZM12.58,31.21c1.06,0,1.95-.82,1.95-2.06s-.89-2.07-1.95-2.07-1.92.82-1.92,2.07.87,2.06,1.92,2.06Z"/>
  <path class="st0" d="M18.73,29.4c0-2.62,1.76-4.61,4.27-4.61,2.8,0,4.18,2.25,4.18,4.45l-.02.74h-5.89c.14.9.83,1.6,1.95,1.6.9,0,1.6-.34,2.13-1.01l1.67,1.56c-.76.96-1.86,1.76-3.72,1.76-2.61,0-4.58-1.76-4.58-4.49ZM24.53,28.3c-.05-.73-.64-1.29-1.47-1.29-.94,0-1.49.58-1.65,1.29h3.12Z"/>
  <path class="st0" d="M28.91,25h2.48v.6c.48-.46,1.17-.82,2.06-.82,2.13,0,3.55,1.38,3.55,3.85v5.05h-2.52v-4.86c0-.92-.44-1.7-1.45-1.7-1.19,0-1.6.89-1.6,2.22v4.34h-2.52v-8.69Z"/>
  <path class="st0" d="M38.65,29.4c0-2.62,1.76-4.61,4.27-4.61,2.8,0,4.18,2.25,4.18,4.45l-.02.74h-5.89c.14.9.83,1.6,1.95,1.6.9,0,1.6-.34,2.13-1.01l1.67,1.56c-.76.96-1.86,1.76-3.72,1.76-2.61,0-4.58-1.76-4.58-4.49ZM44.45,28.3c-.05-.73-.64-1.29-1.47-1.29-.94,0-1.49.58-1.65,1.29h3.12Z"/>
  <path class="st0" d="M48.83,25h2.48v.78c.48-.57,1.28-.9,2.16-.9.3,0,.43,0,.67.02v2.43h-.39c-1.4,0-2.41.89-2.41,2.73v3.63h-2.52v-8.69Z"/>
  <path class="st0" d="M54.75,29.35c0-2.61,1.99-4.56,4.59-4.56s4.59,1.95,4.59,4.56-1.99,4.54-4.59,4.54-4.59-1.93-4.59-4.54ZM59.34,31.54c1.17,0,2.02-.92,2.02-2.2s-.85-2.2-2.02-2.2-2.02.92-2.02,2.2.85,2.2,2.02,2.2Z"/>
  <path class="st0" d="M65.03,32.2l1.54-1.58c.87.85,1.7,1.15,2.48,1.15.51,0,.97-.23.97-.57,0-.27-.23-.41-.78-.55l-1.15-.28c-1.93-.48-2.84-1.44-2.84-2.84,0-1.7,1.56-2.75,3.37-2.75,1.28,0,2.46.44,3.49,1.37l-1.54,1.63c-.53-.44-1.26-.85-2.06-.85-.5,0-.82.23-.82.51,0,.23.23.37.62.46l1.29.3c1.56.37,2.85,1.13,2.85,2.87,0,1.63-1.38,2.8-3.63,2.8-1.7,0-3.14-.83-3.81-1.68Z"/>
  <path class="st0" d="M75.55,21.07c.82,0,1.47.66,1.47,1.47s-.66,1.45-1.47,1.45-1.45-.66-1.45-1.45.64-1.47,1.45-1.47ZM74.29,25h2.52v8.69h-2.52v-8.69Z"/>
  <path class="st0" d="M79.47,30.62v-3.3h-1.13v-2.32h1.13v-2.43h2.52v2.43h1.92v2.32h-1.92v3c0,.87.41,1.06,1.13,1.06h.74v2.3c-.28.02-.87.04-1.37.04-2.06,0-3.03-1.1-3.03-3.1Z"/>
  <path class="st0" d="M88.31,33.69l-3.39-8.69h2.8l1.95,5.37,2.02-5.37h2.69l-4.84,12.13h-2.66l1.42-3.44Z"/>
  <path class="st0" d="M0,42.56h2.52v12.41H0v-12.41Z"/>
  <path class="st0" d="M4.34,52.42c0-1.92,1.65-2.8,3.44-2.8.67,0,1.29.12,1.72.25v-.14c0-.82-.53-1.42-1.44-1.42-.67,0-1.4.32-1.86,1.01l-1.6-1.52c1.12-1.33,2.39-1.72,3.63-1.72,2.11,0,3.81,1.26,3.81,3.47v5.43h-2.52v-.57c-.44.39-1.19.76-2.18.76-1.88,0-3.01-1.19-3.01-2.75ZM7.96,53.04c.6,0,1.12-.21,1.54-.53v-.99c-.3-.07-.71-.16-1.15-.16-.99,0-1.47.39-1.47.9,0,.46.44.78,1.08.78Z"/>
  <path class="st0" d="M13.69,53.48l1.54-1.58c.87.85,1.7,1.15,2.48,1.15.51,0,.97-.23.97-.57,0-.27-.23-.41-.78-.55l-1.15-.28c-1.93-.48-2.84-1.44-2.84-2.84,0-1.7,1.56-2.75,3.37-2.75,1.28,0,2.46.44,3.49,1.37l-1.54,1.63c-.53-.44-1.26-.85-2.06-.85-.5,0-.82.23-.82.51,0,.23.23.37.62.46l1.29.3c1.56.37,2.85,1.13,2.85,2.87,0,1.63-1.38,2.8-3.63,2.8-1.7,0-3.14-.83-3.81-1.68Z"/>
  <path class="st0" d="M23.07,51.9v-3.3h-1.13v-2.32h1.13v-2.43h2.52v2.43h1.92v2.32h-1.92v3c0,.87.41,1.06,1.13,1.06h.74v2.3c-.28.02-.87.04-1.37.04-2.06,0-3.03-1.1-3.03-3.1Z"/>
  <path class="st0" d="M28.9,53.48l1.54-1.58c.87.85,1.7,1.15,2.48,1.15.51,0,.97-.23.97-.57,0-.27-.23-.41-.78-.55l-1.15-.28c-1.93-.48-2.84-1.44-2.84-2.84,0-1.7,1.56-2.75,3.37-2.75,1.28,0,2.46.44,3.49,1.37l-1.54,1.63c-.53-.44-1.26-.85-2.06-.85-.5,0-.82.23-.82.51,0,.23.23.37.62.46l1.29.3c1.56.37,2.85,1.13,2.85,2.87,0,1.63-1.38,2.8-3.63,2.8-1.7,0-3.14-.83-3.81-1.68Z"/>
  <path class="st0" d="M45.55,54.35v.62h-2.52v-12.41h2.55v4.27c.44-.39,1.21-.76,2.2-.76,2.39,0,4.34,1.81,4.34,4.56s-1.95,4.54-4.34,4.54c-.98,0-1.77-.37-2.23-.82ZM47.54,52.89c1.15,0,2.02-.92,2.02-2.27s-.87-2.27-2.02-2.27-1.99.92-1.99,2.27.83,2.27,1.99,2.27Z"/>
  <path class="st0" d="M53.37,50.68c0-2.62,1.76-4.61,4.27-4.61,2.8,0,4.18,2.25,4.18,4.45l-.02.74h-5.89c.14.9.83,1.6,1.95,1.6.9,0,1.6-.34,2.13-1.01l1.67,1.56c-.76.96-1.86,1.76-3.72,1.76-2.61,0-4.58-1.76-4.58-4.49ZM59.17,49.58c-.05-.73-.64-1.29-1.47-1.29-.94,0-1.49.58-1.65,1.29h3.12Z"/>
  <path class="st0" d="M65.66,54.97l-3.39-8.69h2.8l1.95,5.37,2.02-5.37h2.69l-4.84,12.13h-2.66l1.42-3.44Z"/>
  <path class="st0" d="M72.2,50.62c0-2.61,1.99-4.56,4.59-4.56s4.59,1.95,4.59,4.56-1.99,4.54-4.59,4.54-4.59-1.93-4.59-4.54ZM76.8,52.82c1.17,0,2.02-.92,2.02-2.2s-.85-2.2-2.02-2.2-2.02.92-2.02,2.2.85,2.2,2.02,2.2Z"/>
  <path class="st0" d="M83.13,46.28h2.48v.6c.48-.46,1.17-.82,2.06-.82,2.13,0,3.55,1.38,3.55,3.85v5.05h-2.52v-4.86c0-.92-.44-1.7-1.45-1.7-1.19,0-1.6.89-1.6,2.22v4.34h-2.52v-8.69Z"/>
  <path class="st0" d="M92.86,50.62c0-2.75,1.95-4.56,4.34-4.56.99,0,1.75.37,2.2.76v-4.27h2.55v12.41h-2.52v-.62c-.46.44-1.26.82-2.23.82-2.39,0-4.34-1.74-4.34-4.54ZM97.45,52.89c1.15,0,1.99-.92,1.99-2.27s-.83-2.27-1.99-2.27-2.02.92-2.02,2.27.87,2.27,2.02,2.27Z"/>
  <path class="st0" d="M11.06,73.69c0-1.91,1.65-2.8,3.44-2.8.67,0,1.29.12,1.72.25v-.14c0-.82-.53-1.42-1.44-1.42-.67,0-1.4.32-1.86,1.01l-1.6-1.52c1.12-1.33,2.39-1.72,3.63-1.72,2.11,0,3.81,1.26,3.81,3.47v5.43h-2.52v-.57c-.44.39-1.19.76-2.18.76-1.88,0-3.01-1.19-3.01-2.75ZM14.67,74.31c.6,0,1.12-.21,1.54-.53v-.99c-.3-.07-.71-.16-1.15-.16-.99,0-1.47.39-1.47.9,0,.46.44.78,1.08.78Z"/>
  <path class="st0" d="M25.88,63.84h2.52v12.41h-2.52v-12.41Z"/>
  <path class="st0" d="M31.98,63.62c.82,0,1.47.66,1.47,1.47s-.66,1.45-1.47,1.45-1.45-.66-1.45-1.45.64-1.47,1.45-1.47ZM30.72,67.56h2.52v8.69h-2.52v-8.69Z"/>
  <path class="st0" d="M36,69.88h-1.13v-2.32h1.13v-.42c0-2.41,1.58-3.51,3.83-3.51.3,0,.55.02.66.02v2.38h-.43c-1.13,0-1.54.39-1.54,1.26v.28h1.9v2.32h-1.9v6.37h-2.52v-6.37Z"/>
  <path class="st0" d="M41.16,71.96c0-2.62,1.76-4.61,4.27-4.61,2.8,0,4.18,2.25,4.18,4.45l-.02.74h-5.89c.14.9.83,1.6,1.95,1.6.9,0,1.6-.34,2.13-1.01l1.67,1.56c-.76.96-1.86,1.76-3.72,1.76-2.61,0-4.58-1.76-4.58-4.49ZM46.96,70.86c-.05-.73-.64-1.29-1.47-1.29-.94,0-1.49.58-1.65,1.29h3.12Z"/>
  <path class="st0" d="M51.57,73.18v-3.3h-1.13v-2.32h1.13v-2.43h2.52v2.43h1.92v2.32h-1.92v3c0,.87.41,1.06,1.13,1.06h.74v2.3c-.28.02-.87.04-1.37.04-2.06,0-3.03-1.1-3.03-3.1Z"/>
  <path class="st0" d="M59.27,63.62c.82,0,1.47.66,1.47,1.47s-.66,1.45-1.47,1.45-1.45-.66-1.45-1.45.64-1.47,1.45-1.47ZM58.01,67.56h2.52v8.69h-2.52v-8.69Z"/>
  <path class="st0" d="M62.87,67.56h2.48v.6c.48-.46,1.21-.82,2.09-.82.98,0,1.83.37,2.41,1.05.6-.6,1.54-1.05,2.61-1.05,2.32,0,3.63,1.38,3.63,3.85v5.05h-2.52v-4.95c0-.94-.43-1.61-1.33-1.61-.96,0-1.51.73-1.51,1.93v4.63h-2.52v-4.95c0-.94-.43-1.61-1.33-1.61-.99,0-1.51.78-1.51,2.11v4.45h-2.52v-8.69Z"/>
  <path class="st0" d="M77.75,71.96c0-2.62,1.76-4.61,4.27-4.61,2.8,0,4.18,2.25,4.18,4.45l-.02.74h-5.89c.14.9.83,1.6,1.95,1.6.9,0,1.6-.34,2.13-1.01l1.67,1.56c-.76.96-1.86,1.76-3.72,1.76-2.61,0-4.58-1.76-4.58-4.49ZM83.54,70.86c-.05-.73-.64-1.29-1.47-1.29-.94,0-1.49.58-1.65,1.29h3.12Z"/>
  <path class="st0" d="M87.6,74.92c0-.85.66-1.52,1.51-1.52s1.54.67,1.54,1.52-.69,1.53-1.54,1.53-1.51-.67-1.51-1.53Z"/>
</svg>