<?xml version="1.0" encoding="UTF-8"?>
<svg id="Layer_1" xmlns="http://www.w3.org/2000/svg" version="1.1" viewBox="0 0 266.39 268.7">
  <!-- Generator: Adobe Illustrator 30.1.0, SVG Export Plug-In . SVG Version: 2.1.1 Build 136)  -->
  <defs>
    <style>
      .st0 {
        fill: #fff;
      }
    </style>
  </defs>
  <path class="st0" d="M52,.56h7v12.88h13.82V.56h6.96v32.9h-6.96v-13.63h-13.82v13.63h-7V.56Z"/>
  <path class="st0" d="M84.72,22.09c0-6.96,4.65-12.22,11.33-12.22,7.43,0,11.09,5.97,11.09,11.8l-.05,1.97h-15.6c.38,2.4,2.21,4.23,5.17,4.23,2.4,0,4.23-.89,5.64-2.68l4.42,4.14c-2.02,2.54-4.94,4.65-9.87,4.65-6.91,0-12.12-4.65-12.12-11.89ZM100.08,19.17c-.14-1.93-1.69-3.43-3.9-3.43-2.49,0-3.95,1.55-4.37,3.43h8.27Z"/>
  <path class="st0" d="M111.69.56h6.67v32.9h-6.67V.56Z"/>
  <path class="st0" d="M124.29,10.43h6.58v1.64c1.22-1.17,3.43-2.21,6.02-2.21,6.34,0,11.51,4.61,11.51,12.08s-5.17,12.03-11.51,12.03c-2.63,0-4.75-.94-5.92-1.97v10.57h-6.67V10.43ZM136.23,27.96c3.05,0,5.36-2.44,5.36-6.02s-2.3-6.02-5.36-6.02-5.36,2.44-5.36,6.02,2.3,6.02,5.36,6.02Z"/>
  <path class="st0" d="M156.58,0c2.16,0,3.9,1.74,3.9,3.9s-1.74,3.85-3.9,3.85-3.85-1.74-3.85-3.85,1.69-3.9,3.85-3.9ZM153.24,10.43h6.67v23.03h-6.67V10.43Z"/>
  <path class="st0" d="M166.12,10.43h6.58v1.6c1.27-1.22,3.1-2.16,5.45-2.16,5.64,0,9.4,3.67,9.4,10.2v13.39h-6.67v-12.88c0-2.44-1.17-4.51-3.85-4.51-3.15,0-4.23,2.35-4.23,5.87v11.51h-6.67V10.43Z"/>
  <path class="st0" d="M192.63,38.44l4.65-4.46c1.08,1.55,3.1,2.96,5.78,2.96,3.52,0,5.83-2.07,5.83-5.12v-.61c-1.17,1.03-3.05,1.74-5.64,1.74-6.39,0-11.28-4.23-11.28-11.51s5.36-11.56,11.28-11.56c2.54,0,4.51,1.03,5.78,2.21v-1.64h6.53v20.63c0,6.96-4.51,12.03-12.45,12.03-5.92,0-8.98-2.77-10.48-4.65ZM203.86,26.88c2.82,0,5.17-2.16,5.17-5.45s-2.35-5.5-5.17-5.5-5.08,2.16-5.08,5.5,2.3,5.45,5.08,5.45Z"/>
  <path class="st0" d="M34.69,81.73v-8.74h-3.01v-6.16h3.01v-6.44h6.67v6.44h5.08v6.16h-5.08v7.94c0,2.3,1.08,2.82,3.01,2.82h1.97v6.11c-.75.05-2.3.09-3.62.09-5.45,0-8.04-2.91-8.04-8.22Z"/>
  <path class="st0" d="M51.51,66.83h6.58v2.07c1.27-1.5,3.38-2.4,5.73-2.4.8,0,1.13,0,1.79.05v6.44h-1.03c-3.71,0-6.39,2.35-6.39,7.24v9.63h-6.67v-23.03Z"/>
  <path class="st0" d="M67.21,78.49c0-6.96,4.65-12.22,11.33-12.22,7.43,0,11.09,5.97,11.09,11.8l-.05,1.97h-15.6c.38,2.4,2.21,4.23,5.17,4.23,2.4,0,4.23-.89,5.64-2.68l4.42,4.14c-2.02,2.54-4.93,4.65-9.87,4.65-6.91,0-12.12-4.65-12.12-11.89ZM82.58,75.58c-.14-1.93-1.69-3.43-3.9-3.43-2.49,0-3.95,1.55-4.37,3.43h8.27Z"/>
  <path class="st0" d="M92.26,83.09c0-5.08,4.37-7.43,9.12-7.43,1.79,0,3.43.33,4.56.66v-.38c0-2.16-1.41-3.76-3.81-3.76-1.79,0-3.71.85-4.94,2.68l-4.23-4.04c2.96-3.52,6.34-4.56,9.63-4.56,5.59,0,10.1,3.34,10.1,9.21v14.38h-6.67v-1.5c-1.17,1.03-3.15,2.02-5.78,2.02-4.98,0-7.99-3.15-7.99-7.28ZM101.85,84.74c1.6,0,2.96-.56,4.09-1.41v-2.63c-.8-.19-1.88-.42-3.05-.42-2.63,0-3.9,1.03-3.9,2.4,0,1.22,1.17,2.07,2.87,2.07Z"/>
  <path class="st0" d="M117.03,85.91l4.09-4.18c2.3,2.26,4.51,3.06,6.58,3.06,1.36,0,2.58-.61,2.58-1.5,0-.71-.61-1.08-2.07-1.46l-3.05-.75c-5.12-1.27-7.52-3.81-7.52-7.52,0-4.51,4.14-7.29,8.93-7.29,3.38,0,6.53,1.17,9.26,3.62l-4.09,4.32c-1.41-1.17-3.34-2.26-5.45-2.26-1.32,0-2.16.61-2.16,1.36,0,.61.61.99,1.65,1.22l3.43.8c4.14.99,7.57,3.01,7.57,7.61,0,4.32-3.67,7.42-9.63,7.42-4.51,0-8.32-2.21-10.1-4.46Z"/>
  <path class="st0" d="M141.09,80.23v-13.39h6.72v13.11c0,2.49,1.13,4.28,3.52,4.28,2.91,0,3.95-2.07,3.95-5.59v-11.8h6.72v23.03h-6.58v-1.6c-1.41,1.46-3.52,2.11-5.73,2.11-5.36,0-8.6-3.62-8.6-10.15Z"/>
  <path class="st0" d="M167.93,66.83h6.58v2.07c1.27-1.5,3.38-2.4,5.73-2.4.8,0,1.13,0,1.79.05v6.44h-1.03c-3.71,0-6.39,2.35-6.39,7.24v9.63h-6.67v-23.03Z"/>
  <path class="st0" d="M183.63,78.49c0-6.96,4.65-12.22,11.33-12.22,7.42,0,11.09,5.97,11.09,11.8l-.05,1.97h-15.6c.38,2.4,2.21,4.23,5.17,4.23,2.4,0,4.23-.89,5.64-2.68l4.42,4.14c-2.02,2.54-4.93,4.65-9.87,4.65-6.91,0-12.13-4.65-12.13-11.89ZM199,75.58c-.14-1.93-1.69-3.43-3.9-3.43-2.49,0-3.95,1.55-4.37,3.43h8.27Z"/>
  <path class="st0" d="M209.29,78.35c0-7.28,5.17-12.08,11.51-12.08,2.63,0,4.65.99,5.83,2.02v-11.33h6.77v32.9h-6.67v-1.64c-1.22,1.17-3.34,2.16-5.92,2.16-6.34,0-11.51-4.61-11.51-12.03ZM221.46,84.36c3.05,0,5.26-2.44,5.26-6.02s-2.21-6.02-5.26-6.02-5.36,2.44-5.36,6.02,2.3,6.02,5.36,6.02Z"/>
  <path class="st0" d="M67.12,123.23h6.58v1.64c1.22-1.17,3.43-2.21,6.02-2.21,6.34,0,11.51,4.61,11.51,12.08s-5.17,12.03-11.51,12.03c-2.63,0-4.75-.94-5.92-1.97v10.57h-6.67v-32.15ZM79.05,140.76c3.06,0,5.36-2.44,5.36-6.02s-2.3-6.02-5.36-6.02-5.36,2.44-5.36,6.02,2.3,6.02,5.36,6.02Z"/>
  <path class="st0" d="M95.83,113.36h6.67v32.9h-6.67v-32.9Z"/>
  <path class="st0" d="M107.35,139.49c0-5.08,4.37-7.43,9.12-7.43,1.79,0,3.43.33,4.56.66v-.38c0-2.16-1.41-3.76-3.81-3.76-1.79,0-3.71.85-4.94,2.68l-4.23-4.04c2.96-3.52,6.34-4.56,9.63-4.56,5.59,0,10.1,3.34,10.1,9.21v14.38h-6.67v-1.5c-1.17,1.03-3.15,2.02-5.78,2.02-4.98,0-7.99-3.15-7.99-7.28ZM116.93,141.14c1.6,0,2.96-.56,4.09-1.41v-2.63c-.8-.19-1.88-.42-3.05-.42-2.63,0-3.9,1.03-3.9,2.4,0,1.22,1.17,2.07,2.87,2.07Z"/>
  <path class="st0" d="M132.16,134.75c0-6.91,5.26-12.08,12.17-12.08,4.37,0,7.19,1.88,9.63,4.61l-4.51,4.37c-1.32-1.6-2.77-2.68-4.89-2.68-3.15,0-5.59,2.4-5.59,5.78s2.44,5.78,5.59,5.78c2.3,0,3.9-1.13,5.36-3.01l4.51,4.37c-2.35,3.1-5.64,4.89-10.1,4.89-6.91,0-12.17-5.12-12.17-12.03Z"/>
  <path class="st0" d="M156.46,134.89c0-6.96,4.65-12.22,11.33-12.22,7.43,0,11.09,5.97,11.09,11.8l-.05,1.97h-15.6c.38,2.4,2.21,4.23,5.17,4.23,2.4,0,4.23-.89,5.64-2.68l4.42,4.14c-2.02,2.54-4.93,4.65-9.87,4.65-6.91,0-12.12-4.65-12.12-11.89ZM171.83,131.97c-.14-1.93-1.69-3.43-3.9-3.43-2.49,0-3.95,1.55-4.37,3.43h8.27Z"/>
  <path class="st0" d="M181.75,142.31l4.09-4.18c2.3,2.26,4.51,3.05,6.58,3.05,1.36,0,2.58-.61,2.58-1.5,0-.7-.61-1.08-2.07-1.46l-3.05-.75c-5.12-1.27-7.52-3.81-7.52-7.52,0-4.51,4.14-7.29,8.93-7.29,3.38,0,6.53,1.17,9.26,3.62l-4.09,4.32c-1.41-1.17-3.34-2.26-5.45-2.26-1.32,0-2.16.61-2.16,1.36,0,.61.61.99,1.65,1.22l3.43.8c4.14.99,7.57,3.01,7.57,7.61,0,4.32-3.67,7.42-9.63,7.42-4.51,0-8.32-2.21-10.1-4.46Z"/>
  <path class="st0" d="M37.55,194.53v-8.74h-3.01v-6.16h3.01v-6.44h6.67v6.44h5.08v6.16h-5.08v7.94c0,2.3,1.08,2.82,3.01,2.82h1.97v6.11c-.75.05-2.3.09-3.62.09-5.45,0-8.04-2.91-8.04-8.22Z"/>
  <path class="st0" d="M54.38,169.76h6.63v11.19c1.03-.94,3.05-1.88,5.4-1.88,5.64,0,9.4,3.67,9.4,10.2v13.39h-6.67v-12.88c0-2.44-1.17-4.51-3.85-4.51-3.15,0-4.23,2.35-4.23,5.87v11.51h-6.67v-32.9Z"/>
  <path class="st0" d="M81.5,179.63h6.58v2.07c1.27-1.5,3.38-2.4,5.73-2.4.8,0,1.13,0,1.79.05v6.44h-1.03c-3.71,0-6.39,2.35-6.39,7.24v9.63h-6.67v-23.03Z"/>
  <path class="st0" d="M103.16,169.2c2.16,0,3.9,1.74,3.9,3.9s-1.74,3.85-3.9,3.85-3.85-1.74-3.85-3.85,1.69-3.9,3.85-3.9ZM99.83,179.63h6.67v23.03h-6.67v-23.03Z"/>
  <path class="st0" d="M110.03,179.63h7.1l4.51,14.24,4.51-14.24h7.1l-8.18,23.03h-6.86l-8.18-23.03Z"/>
  <path class="st0" d="M134.47,191.29c0-6.96,4.65-12.22,11.33-12.22,7.43,0,11.09,5.97,11.09,11.8l-.05,1.97h-15.6c.38,2.4,2.21,4.23,5.17,4.23,2.4,0,4.23-.89,5.64-2.68l4.42,4.14c-2.02,2.54-4.93,4.65-9.87,4.65-6.91,0-12.12-4.65-12.12-11.89ZM149.83,188.38c-.14-1.93-1.69-3.43-3.9-3.43-2.49,0-3.95,1.55-4.37,3.43h8.27Z"/>
  <path class="st0" d="M175.73,185.79h-3.01v-6.16h3.01v-1.13c0-6.39,4.18-9.31,10.15-9.31.8,0,1.46.05,1.74.05v6.3h-1.13c-3.01,0-4.09,1.03-4.09,3.34v.75h5.03v6.16h-5.03v16.87h-6.67v-16.87Z"/>
  <path class="st0" d="M189.41,191.15c0-6.91,5.26-12.08,12.17-12.08s12.17,5.17,12.17,12.08-5.26,12.03-12.17,12.03-12.17-5.12-12.17-12.03ZM201.58,196.98c3.1,0,5.36-2.44,5.36-5.83s-2.26-5.83-5.36-5.83-5.36,2.44-5.36,5.83,2.26,5.83,5.36,5.83Z"/>
  <path class="st0" d="M218.36,179.63h6.58v2.07c1.27-1.5,3.38-2.4,5.73-2.4.8,0,1.13,0,1.79.05v6.44h-1.03c-3.71,0-6.39,2.35-6.39,7.24v9.63h-6.67v-23.03Z"/>
  <path class="st0" d="M.66,264.04l4.65-4.46c1.08,1.55,3.1,2.96,5.78,2.96,3.52,0,5.83-2.07,5.83-5.12v-.61c-1.17,1.03-3.05,1.74-5.64,1.74-6.39,0-11.28-4.23-11.28-11.51s5.36-11.56,11.28-11.56c2.54,0,4.51,1.03,5.78,2.21v-1.64h6.53v20.63c0,6.96-4.51,12.03-12.45,12.03-5.92,0-8.98-2.77-10.48-4.65ZM11.89,252.48c2.82,0,5.17-2.16,5.17-5.45s-2.35-5.5-5.17-5.5-5.08,2.16-5.08,5.5,2.3,5.45,5.08,5.45Z"/>
  <path class="st0" d="M28.2,247.69c0-6.96,4.65-12.22,11.33-12.22,7.43,0,11.09,5.97,11.09,11.8l-.05,1.97h-15.6c.38,2.4,2.21,4.23,5.17,4.23,2.4,0,4.23-.89,5.64-2.68l4.42,4.14c-2.02,2.54-4.94,4.65-9.87,4.65-6.91,0-12.12-4.65-12.12-11.89ZM43.57,244.77c-.14-1.93-1.69-3.43-3.9-3.43-2.49,0-3.95,1.55-4.37,3.43h8.27Z"/>
  <path class="st0" d="M55.18,236.03h6.58v1.6c1.27-1.22,3.1-2.16,5.45-2.16,5.64,0,9.4,3.67,9.4,10.2v13.39h-6.67v-12.88c0-2.44-1.17-4.51-3.85-4.51-3.15,0-4.23,2.35-4.23,5.87v11.51h-6.67v-23.03Z"/>
  <path class="st0" d="M80.98,247.69c0-6.96,4.65-12.22,11.33-12.22,7.43,0,11.09,5.97,11.09,11.8l-.05,1.97h-15.6c.38,2.4,2.21,4.23,5.17,4.23,2.4,0,4.23-.89,5.64-2.68l4.42,4.14c-2.02,2.54-4.94,4.65-9.87,4.65-6.91,0-12.12-4.65-12.12-11.89ZM96.35,244.77c-.14-1.93-1.69-3.43-3.9-3.43-2.49,0-3.95,1.55-4.37,3.43h8.27Z"/>
  <path class="st0" d="M107.96,236.03h6.58v2.07c1.27-1.5,3.38-2.4,5.73-2.4.8,0,1.13,0,1.79.05v6.44h-1.03c-3.71,0-6.39,2.35-6.39,7.24v9.63h-6.67v-23.03Z"/>
  <path class="st0" d="M124.13,252.29c0-5.08,4.37-7.43,9.12-7.43,1.79,0,3.43.33,4.56.66v-.38c0-2.16-1.41-3.76-3.81-3.76-1.79,0-3.71.85-4.93,2.68l-4.23-4.04c2.96-3.52,6.34-4.56,9.63-4.56,5.59,0,10.1,3.34,10.1,9.21v14.38h-6.67v-1.5c-1.17,1.03-3.15,2.02-5.78,2.02-4.98,0-7.99-3.15-7.99-7.28ZM133.71,253.94c1.6,0,2.96-.56,4.09-1.41v-2.63c-.8-.19-1.88-.42-3.06-.42-2.63,0-3.9,1.03-3.9,2.4,0,1.22,1.17,2.07,2.87,2.07Z"/>
  <path class="st0" d="M151.1,250.93v-8.74h-3.01v-6.16h3.01v-6.44h6.67v6.44h5.08v6.16h-5.08v7.94c0,2.3,1.08,2.82,3.01,2.82h1.97v6.11c-.75.05-2.3.09-3.62.09-5.45,0-8.04-2.91-8.04-8.22Z"/>
  <path class="st0" d="M171.5,225.6c2.16,0,3.9,1.74,3.9,3.9s-1.74,3.85-3.9,3.85-3.85-1.74-3.85-3.85,1.69-3.9,3.85-3.9ZM168.16,236.03h6.67v23.03h-6.67v-23.03Z"/>
  <path class="st0" d="M179.73,247.55c0-6.91,5.26-12.08,12.17-12.08s12.17,5.17,12.17,12.08-5.26,12.03-12.17,12.03-12.17-5.12-12.17-12.03ZM191.9,253.38c3.1,0,5.36-2.44,5.36-5.83s-2.26-5.83-5.36-5.83-5.36,2.44-5.36,5.83,2.26,5.83,5.36,5.83Z"/>
  <path class="st0" d="M208.68,236.03h6.58v1.6c1.27-1.22,3.1-2.16,5.45-2.16,5.64,0,9.4,3.67,9.4,10.2v13.39h-6.67v-12.88c0-2.44-1.17-4.51-3.85-4.51-3.15,0-4.23,2.35-4.23,5.87v11.51h-6.67v-23.03Z"/>
  <path class="st0" d="M234.43,255.11l4.09-4.18c2.3,2.26,4.51,3.06,6.58,3.06,1.36,0,2.58-.61,2.58-1.5,0-.71-.61-1.08-2.07-1.46l-3.05-.75c-5.12-1.27-7.52-3.81-7.52-7.52,0-4.51,4.14-7.29,8.93-7.29,3.38,0,6.53,1.17,9.26,3.62l-4.09,4.32c-1.41-1.17-3.34-2.26-5.45-2.26-1.32,0-2.16.61-2.16,1.36,0,.61.61.99,1.64,1.22l3.43.8c4.14.99,7.57,3.01,7.57,7.61,0,4.32-3.67,7.42-9.63,7.42-4.51,0-8.32-2.21-10.1-4.46Z"/>
  <path class="st0" d="M258.31,255.54c0-2.26,1.74-4.04,3.99-4.04s4.09,1.79,4.09,4.04-1.83,4.04-4.09,4.04-3.99-1.79-3.99-4.04Z"/>
</svg>