<?xml version="1.0" encoding="UTF-8"?>
<svg id="Layer_1" xmlns="http://www.w3.org/2000/svg" version="1.1" viewBox="0 0 158.69 130">
  <!-- Generator: Adobe Illustrator 30.1.0, SVG Export Plug-In . SVG Version: 2.1.1 Build 136)  -->
  <defs>
    <style>
      .st0 {
        fill: #fff;
      }

      .st1 {
        fill: #0d393b;
      }
    </style>
  </defs>
  <rect class="st1" width="158.69" height="130"/>
  <g>
    <polygon class="st0" points="127.94 84.72 33.75 84.72 33.75 83.96 127.94 83.96 127.94 84.72 127.94 84.72"/>
    <path class="st0" d="M86.9,40.25h-9.77l-15.66,40.41h8.55l3.52-9.68h15.33l3.42,9.68h10.72l-16.11-40.41h0ZM75.58,65.1l5.3-14.85,5.78,14.85h-11.08Z"/>
    <path class="st0" d="M86.9,40.22h-9.77l-15.66,40.41h8.55l3.52-9.68h15.33l3.42,9.68h10.72l-16.11-40.41h0ZM75.58,65.07l5.3-14.85,5.78,14.85h-11.08Z"/>
    <path class="st0" d="M38.32,94.02c-.43.1-.9.19-1.35.19-1.92,0-3.25-.96-3.25-2.96s1.24-3.17,3.25-3.17c.39,0,.91.08,1.34.25l-.09,1c-.45-.25-.86-.31-1.28-.31-1.22,0-1.99.93-1.99,2.15s.75,2.11,2.01,2.11c.47,0,1.02-.1,1.3-.25l.05.99h0Z"/>
    <path class="st0" d="M39.05,87.74h1.14v2.59h.02c.29-.42.78-.7,1.37-.7,1.04,0,1.49.73,1.49,1.71v2.76h-1.14v-2.33c0-.53,0-1.26-.74-1.26-.82,0-1,.89-1,1.45v2.14h-1.14v-6.37h0Z"/>
    <path class="st0" d="M45.51,93.37c.35,0,.62-.15.8-.39.19-.25.24-.56.24-.9h-.49c-.51,0-1.26.09-1.26.76,0,.37.31.53.72.53h0ZM44.18,89.96c.44-.2,1.04-.33,1.52-.33,1.33,0,1.88.55,1.88,1.84v.56c0,.44,0,.77.02,1.09,0,.33.03.64.05.98h-1c-.04-.23-.04-.52-.05-.65h-.02c-.26.48-.83.75-1.35.75-.77,0-1.53-.47-1.53-1.3,0-.65.31-1.04.75-1.25.43-.21.99-.25,1.47-.25h.63c0-.7-.31-.94-.98-.94-.48,0-.97.19-1.35.48l-.03-.98h0Z"/>
    <path class="st0" d="M48.48,89.73h1.01v.99h.02c.05-.41.52-1.09,1.2-1.09.11,0,.23,0,.35.03v1.15c-.1-.06-.31-.09-.51-.09-.92,0-.92,1.15-.92,1.78v1.6h-1.14v-4.37h0Z"/>
    <path class="st0" d="M51.75,89.73h1.14v4.37h-1.14v-4.37h0ZM51.75,87.85h1.14v1.09h-1.14v-1.09h0Z"/>
    <path class="st0" d="M54.41,90.56h-.84v-.83h.84v-.87l1.14-.36v1.24h1.01v.83h-1.01v2.04c0,.37.1.72.53.72.2,0,.4-.04.52-.12l.03.9c-.24.07-.5.1-.84.1-.89,0-1.38-.55-1.38-1.42v-2.22h0Z"/>
    <path class="st0" d="M57.33,89.73h1.14v4.37h-1.14v-4.37h0ZM57.33,87.85h1.14v1.09h-1.14v-1.09h0Z"/>
    <path class="st0" d="M62.36,91.49c-.03-.55-.29-1.03-.92-1.03s-.96.44-1.01,1.03h1.93ZM63.13,93.86c-.42.23-.89.35-1.5.35-1.44,0-2.28-.83-2.28-2.27,0-1.26.67-2.31,2.03-2.31,1.62,0,2.08,1.11,2.08,2.64h-3.02c.05.7.54,1.1,1.25,1.1.55,0,1.03-.2,1.45-.44v.92h0Z"/>
    <path class="st0" d="M66.9,90.65c-.35-.12-.6-.19-1.02-.19-.31,0-.67.11-.67.48,0,.7,1.98.25,1.98,1.83,0,1.02-.91,1.43-1.83,1.43-.43,0-.87-.08-1.29-.19l.07-.93c.36.18.73.29,1.12.29.29,0,.75-.11.75-.53,0-.86-1.98-.27-1.98-1.85,0-.94.82-1.36,1.71-1.36.53,0,.88.08,1.24.16l-.08.86h0Z"/>
    <path class="st0" d="M72.21,89.37h-.02l-.86,2.44h1.73l-.86-2.44h0ZM71.56,88.18h1.34l2.33,5.92h-1.31l-.51-1.36h-2.4l-.52,1.36h-1.23l2.31-5.92h0Z"/>
    <path class="st0" d="M75.88,89.73h1.14v4.37h-1.14v-4.37h0ZM75.88,87.85h1.14v1.09h-1.14v-1.09h0Z"/>
    <path class="st0" d="M80.04,93.32c.75,0,1-.8,1-1.42s-.29-1.39-1.02-1.39-.94.81-.94,1.39.21,1.42.96,1.42h0ZM81.09,93.61h-.02c-.34.42-.81.59-1.34.59-1.34,0-1.83-1.1-1.83-2.3s.49-2.27,1.83-2.27c.57,0,.97.2,1.31.61h.02v-2.5h1.14v6.37h-1.1v-.49h0Z"/>
    <polygon class="st0" points="84.93 88.18 88.23 88.18 88.23 89.11 86.12 89.11 86.12 90.57 88.12 90.57 88.12 91.51 86.12 91.51 86.12 94.1 84.93 94.1 84.93 88.18 84.93 88.18"/>
    <path class="st0" d="M90.83,93.32c.87,0,1.1-.78,1.1-1.51,0-.67-.36-1.3-1.1-1.3s-1.09.65-1.09,1.3c0,.72.23,1.51,1.09,1.51h0ZM90.83,89.63c1.3,0,2.29.87,2.29,2.32,0,1.26-.84,2.26-2.29,2.26s-2.28-1-2.28-2.26c0-1.44.99-2.32,2.28-2.32h0Z"/>
    <path class="st0" d="M97.77,94.1h-1.08v-.59h-.02c-.35.42-.84.7-1.43.7-1.04,0-1.49-.73-1.49-1.71v-2.76h1.14v2.33c0,.53,0,1.26.74,1.26.82,0,1-.89,1-1.45v-2.14h1.14v4.37h0Z"/>
    <path class="st0" d="M98.69,89.73h1.08v.59h.02c.36-.5.84-.69,1.43-.69,1.04,0,1.49.73,1.49,1.71v2.76h-1.14v-2.33c0-.53,0-1.26-.74-1.26-.82,0-1,.89-1,1.45v2.14h-1.14v-4.37h0Z"/>
    <path class="st0" d="M105.57,93.32c.76,0,1-.8,1-1.42s-.29-1.39-1.02-1.39-.94.81-.94,1.39.21,1.42.96,1.42h0ZM106.62,93.61h-.02c-.34.43-.81.59-1.34.59-1.34,0-1.83-1.1-1.83-2.3s.49-2.27,1.83-2.27c.57,0,.97.19,1.31.61h.02v-2.5h1.14v6.36h-1.1v-.49h0Z"/>
    <path class="st0" d="M110.29,93.37c.35,0,.62-.15.8-.39.19-.25.24-.56.24-.9h-.49c-.51,0-1.26.08-1.26.75,0,.37.31.53.72.53h0ZM108.96,89.96c.44-.2,1.04-.33,1.52-.33,1.33,0,1.88.55,1.88,1.84v.56c0,.44,0,.77.02,1.1,0,.33.03.64.05.98h-1c-.04-.23-.04-.52-.05-.65h-.02c-.26.48-.83.76-1.35.76-.77,0-1.53-.47-1.53-1.3,0-.65.31-1.03.75-1.25.43-.21.99-.25,1.47-.25h.63c0-.7-.31-.94-.98-.94-.48,0-.97.19-1.35.48l-.03-.98h0Z"/>
    <path class="st0" d="M113.82,90.56h-.84v-.83h.84v-.87l1.14-.37v1.24h1.01v.83h-1.01v2.04c0,.37.1.72.53.72.2,0,.4-.04.52-.12l.03.9c-.24.07-.5.1-.84.1-.89,0-1.38-.55-1.38-1.42v-2.22h0Z"/>
    <path class="st0" d="M116.87,89.73h1.14v4.37h-1.14v-4.37h0ZM116.87,87.85h1.14v1.09h-1.14v-1.09h0Z"/>
    <path class="st0" d="M120.95,93.32c.87,0,1.1-.78,1.1-1.51,0-.67-.36-1.3-1.1-1.3s-1.09.65-1.09,1.3c0,.72.23,1.51,1.09,1.51h0ZM120.95,89.63c1.3,0,2.29.87,2.29,2.32,0,1.26-.84,2.26-2.29,2.26-1.44,0-2.28-1-2.28-2.26,0-1.44.99-2.32,2.28-2.32h0Z"/>
    <path class="st0" d="M123.96,89.73h1.08v.59h.02c.36-.5.84-.7,1.43-.7,1.03,0,1.49.73,1.49,1.71v2.76h-1.14v-2.33c0-.53,0-1.26-.74-1.26-.82,0-1,.89-1,1.45v2.14h-1.14v-4.37h0Z"/>
    <path class="st0" d="M60.71,73.93c-1.59.41-3.51.6-5.75.6-3.32,0-5.93-1.12-7.85-3.37-1.92-2.25-2.88-5.7-2.88-10.37v-.57c0-4.37,1.03-7.79,3.09-10.26,2.05-2.48,4.92-3.71,8.57-3.71,1.96,0,3.68.16,5.14.45,1.46.3,2.61.64,3.47,1.03v-6.17c-.94-.42-2.25-.76-3.95-1.01-1.69-.25-3.81-.38-6.33-.38-5.88,0-10.76,1.79-14.66,5.36-3.89,3.57-5.84,8.31-5.84,14.21v1.58c0,6.32,1.92,11.12,5.75,14.4,3.78,3.22,8.65,4.85,14.61,4.9h0s6.61.01,6.61.01l2.91-7.52c-.8.27-1.76.54-2.89.83h0Z"/>
    <polygon class="st0" points="127.97 46.28 127.97 40.22 99.71 40.22 99.71 70.26 103.84 80.62 110.14 80.62 110.14 63.17 123.99 63.17 123.99 57.1 110.14 57.1 110.14 46.28 127.97 46.28 127.97 46.28"/>
  </g>
</svg>