<?xml version="1.0" encoding="UTF-8"?>
<svg id="Layer_1" xmlns="http://www.w3.org/2000/svg" version="1.1" viewBox="0 0 250.58 59.71">
  <!-- Generator: Adobe Illustrator 30.1.0, SVG Export Plug-In . SVG Version: 2.1.1 Build 136)  -->
  <defs>
    <style>
      .st0 {
        fill: #fff;
      }
    </style>
  </defs>
  <path class="st0" d="M0,.22h2.86l1.95,8.07L6.84.22h2.86l2.03,8.07L13.68.22h2.86l-3.37,12.6h-2.74l-2.16-8.32-2.18,8.32h-2.74L0,.22Z"/>
  <path class="st0" d="M18.04.22h2.54v4.29c.4-.36,1.17-.72,2.07-.72,2.16,0,3.6,1.41,3.6,3.91v5.13h-2.56v-4.93c0-.94-.45-1.73-1.48-1.73-1.21,0-1.62.9-1.62,2.25v4.41h-2.56V.22Z"/>
  <path class="st0" d="M27.92,8.46c0-2.67,1.78-4.68,4.34-4.68,2.84,0,4.25,2.29,4.25,4.52l-.02.76h-5.98c.14.92.85,1.62,1.98,1.62.92,0,1.62-.34,2.16-1.03l1.69,1.58c-.77.97-1.89,1.78-3.78,1.78-2.65,0-4.65-1.78-4.65-4.56ZM33.8,7.35c-.05-.74-.65-1.31-1.49-1.31-.95,0-1.51.59-1.67,1.31h3.17Z"/>
  <path class="st0" d="M38.25,4h2.52v.61c.49-.47,1.19-.83,2.09-.83,2.16,0,3.6,1.41,3.6,3.91v5.13h-2.56v-4.93c0-.94-.45-1.73-1.48-1.73-1.21,0-1.62.9-1.62,2.25v4.41h-2.56V4Z"/>
  <path class="st0" d="M53.44,14.73l1.78-1.71c.41.59,1.19,1.13,2.21,1.13,1.35,0,2.23-.79,2.23-1.96v-.23c-.45.4-1.17.67-2.16.67-2.45,0-4.32-1.62-4.32-4.41s2.05-4.43,4.32-4.43c.97,0,1.73.4,2.21.85v-.63h2.5v7.9c0,2.66-1.73,4.61-4.77,4.61-2.27,0-3.44-1.06-4.01-1.78ZM57.74,10.3c1.08,0,1.98-.83,1.98-2.09s-.9-2.11-1.98-2.11-1.94.83-1.94,2.11.88,2.09,1.94,2.09Z"/>
  <path class="st0" d="M63.99,8.46c0-2.67,1.78-4.68,4.34-4.68,2.84,0,4.25,2.29,4.25,4.52l-.02.76h-5.98c.14.92.85,1.62,1.98,1.62.92,0,1.62-.34,2.16-1.03l1.69,1.58c-.77.97-1.89,1.78-3.78,1.78-2.65,0-4.65-1.78-4.65-4.56ZM69.88,7.35c-.05-.74-.65-1.31-1.49-1.31-.95,0-1.51.59-1.67,1.31h3.17Z"/>
  <path class="st0" d="M74.32,4h2.52v.61c.49-.47,1.19-.83,2.09-.83,2.16,0,3.6,1.41,3.6,3.91v5.13h-2.56v-4.93c0-.94-.45-1.73-1.48-1.73-1.21,0-1.62.9-1.62,2.25v4.41h-2.56V4Z"/>
  <path class="st0" d="M84.2,8.46c0-2.67,1.78-4.68,4.34-4.68,2.84,0,4.25,2.29,4.25,4.52l-.02.76h-5.98c.14.92.85,1.62,1.98,1.62.92,0,1.62-.34,2.16-1.03l1.69,1.58c-.77.97-1.89,1.78-3.78,1.78-2.65,0-4.65-1.78-4.65-4.56ZM90.09,7.35c-.05-.74-.65-1.31-1.49-1.31-.95,0-1.51.59-1.67,1.31h3.17Z"/>
  <path class="st0" d="M94.54,4h2.52v.79c.49-.58,1.3-.92,2.2-.92.31,0,.43,0,.68.02v2.47h-.4c-1.42,0-2.45.9-2.45,2.77v3.69h-2.56V4Z"/>
  <path class="st0" d="M100.55,8.41c0-2.65,2.02-4.63,4.66-4.63s4.66,1.98,4.66,4.63-2.02,4.61-4.66,4.61-4.66-1.96-4.66-4.61ZM105.21,10.64c1.19,0,2.05-.94,2.05-2.23s-.86-2.23-2.05-2.23-2.05.94-2.05,2.23.86,2.23,2.05,2.23Z"/>
  <path class="st0" d="M110.99,11.31l1.57-1.6c.88.86,1.73,1.17,2.52,1.17.52,0,.99-.23.99-.58,0-.27-.23-.41-.79-.56l-1.17-.29c-1.96-.49-2.88-1.46-2.88-2.88,0-1.73,1.58-2.79,3.42-2.79,1.3,0,2.5.45,3.55,1.39l-1.57,1.66c-.54-.45-1.28-.86-2.09-.86-.5,0-.83.23-.83.52,0,.23.23.38.63.47l1.31.31c1.58.38,2.9,1.15,2.9,2.92,0,1.66-1.4,2.84-3.69,2.84-1.73,0-3.19-.85-3.87-1.71Z"/>
  <path class="st0" d="M121.66,0c.83,0,1.49.67,1.49,1.49s-.67,1.48-1.49,1.48-1.48-.67-1.48-1.48.65-1.49,1.48-1.49ZM120.38,4h2.56v8.82h-2.56V4Z"/>
  <path class="st0" d="M125.64,9.7v-3.35h-1.15v-2.36h1.15V1.53h2.56v2.47h1.94v2.36h-1.94v3.04c0,.88.41,1.08,1.15,1.08h.76v2.34c-.29.02-.88.04-1.39.04-2.09,0-3.08-1.12-3.08-3.15Z"/>
  <path class="st0" d="M134.62,12.82l-3.44-8.82h2.84l1.98,5.46,2.05-5.46h2.74l-4.92,12.32h-2.7l1.44-3.49Z"/>
  <path class="st0" d="M147.08.22h2.56v12.6h-2.56V.22Z"/>
  <path class="st0" d="M151.49,10.23c0-1.94,1.67-2.84,3.49-2.84.68,0,1.31.13,1.75.25v-.14c0-.83-.54-1.44-1.46-1.44-.68,0-1.42.32-1.89,1.03l-1.62-1.55c1.13-1.35,2.43-1.75,3.69-1.75,2.14,0,3.87,1.28,3.87,3.53v5.51h-2.56v-.58c-.45.4-1.21.77-2.21.77-1.91,0-3.06-1.21-3.06-2.79ZM155.16,10.86c.61,0,1.13-.22,1.57-.54v-1.01c-.31-.07-.72-.16-1.17-.16-1.01,0-1.49.4-1.49.92,0,.47.45.79,1.1.79Z"/>
  <path class="st0" d="M160.97,11.31l1.57-1.6c.88.86,1.73,1.17,2.52,1.17.52,0,.99-.23.99-.58,0-.27-.23-.41-.79-.56l-1.17-.29c-1.96-.49-2.88-1.46-2.88-2.88,0-1.73,1.58-2.79,3.42-2.79,1.3,0,2.5.45,3.55,1.39l-1.57,1.66c-.54-.45-1.28-.86-2.09-.86-.5,0-.83.23-.83.52,0,.23.23.38.63.47l1.31.31c1.58.38,2.9,1.15,2.9,2.92,0,1.66-1.4,2.84-3.69,2.84-1.73,0-3.19-.85-3.87-1.71Z"/>
  <path class="st0" d="M170.49,9.7v-3.35h-1.15v-2.36h1.15V1.53h2.56v2.47h1.94v2.36h-1.94v3.04c0,.88.41,1.08,1.15,1.08h.76v2.34c-.29.02-.88.04-1.39.04-2.09,0-3.08-1.12-3.08-3.15Z"/>
  <path class="st0" d="M176.42,11.31l1.57-1.6c.88.86,1.73,1.17,2.52,1.17.52,0,.99-.23.99-.58,0-.27-.23-.41-.79-.56l-1.17-.29c-1.96-.49-2.88-1.46-2.88-2.88,0-1.73,1.58-2.79,3.42-2.79,1.3,0,2.5.45,3.55,1.39l-1.57,1.66c-.54-.45-1.28-.86-2.09-.86-.5,0-.83.23-.83.52,0,.23.23.38.63.47l1.31.31c1.58.38,2.9,1.15,2.9,2.92,0,1.66-1.41,2.84-3.69,2.84-1.73,0-3.19-.85-3.87-1.71Z"/>
  <path class="st0" d="M193.32,12.19v.63h-2.56V.22h2.59v4.34c.45-.4,1.22-.77,2.23-.77,2.43,0,4.41,1.84,4.41,4.63s-1.98,4.61-4.41,4.61c-.99,0-1.8-.38-2.27-.83ZM195.33,10.71c1.17,0,2.05-.94,2.05-2.3s-.88-2.3-2.05-2.3-2.02.94-2.02,2.3.85,2.3,2.02,2.3Z"/>
  <path class="st0" d="M201.25,8.46c0-2.67,1.78-4.68,4.34-4.68,2.84,0,4.25,2.29,4.25,4.52l-.02.76h-5.98c.14.92.85,1.62,1.98,1.62.92,0,1.62-.34,2.16-1.03l1.69,1.58c-.77.97-1.89,1.78-3.78,1.78-2.65,0-4.65-1.78-4.65-4.56ZM207.14,7.35c-.05-.74-.65-1.31-1.49-1.31-.95,0-1.51.59-1.67,1.31h3.17Z"/>
  <path class="st0" d="M213.73,12.82l-3.44-8.82h2.84l1.98,5.46,2.05-5.46h2.74l-4.92,12.32h-2.7l1.44-3.49Z"/>
  <path class="st0" d="M220.37,8.41c0-2.65,2.02-4.63,4.66-4.63s4.66,1.98,4.66,4.63-2.02,4.61-4.66,4.61-4.66-1.96-4.66-4.61ZM225.04,10.64c1.19,0,2.05-.94,2.05-2.23s-.86-2.23-2.05-2.23-2.05.94-2.05,2.23.86,2.23,2.05,2.23Z"/>
  <path class="st0" d="M231.46,4h2.52v.61c.49-.47,1.19-.83,2.09-.83,2.16,0,3.6,1.41,3.6,3.91v5.13h-2.56v-4.93c0-.94-.45-1.73-1.48-1.73-1.21,0-1.62.9-1.62,2.25v4.41h-2.56V4Z"/>
  <path class="st0" d="M241.34,8.41c0-2.79,1.98-4.63,4.41-4.63,1.01,0,1.78.38,2.23.77V.22h2.59v12.6h-2.56v-.63c-.47.45-1.28.83-2.27.83-2.43,0-4.41-1.76-4.41-4.61ZM246,10.71c1.17,0,2.02-.94,2.02-2.3s-.85-2.3-2.02-2.3-2.05.94-2.05,2.3.88,2.3,2.05,2.3Z"/>
  <path class="st0" d="M.36,31.83c0-1.94,1.67-2.84,3.49-2.84.68,0,1.31.13,1.75.25v-.14c0-.83-.54-1.44-1.46-1.44-.68,0-1.42.32-1.89,1.03l-1.62-1.55c1.13-1.35,2.43-1.75,3.69-1.75,2.14,0,3.87,1.28,3.87,3.53v5.51h-2.56v-.58c-.45.4-1.21.77-2.21.77-1.91,0-3.06-1.21-3.06-2.79ZM4.03,32.46c.61,0,1.13-.22,1.57-.54v-1.01c-.31-.07-.72-.16-1.17-.16-1.01,0-1.49.4-1.49.92,0,.47.45.79,1.1.79Z"/>
  <path class="st0" d="M15.41,21.82h2.56v12.6h-2.56v-12.6Z"/>
  <path class="st0" d="M21.6,21.6c.83,0,1.49.67,1.49,1.49s-.67,1.48-1.49,1.48-1.48-.67-1.48-1.48.65-1.49,1.48-1.49ZM20.32,25.6h2.56v8.82h-2.56v-8.82Z"/>
  <path class="st0" d="M25.69,27.96h-1.15v-2.36h1.15v-.43c0-2.45,1.6-3.56,3.89-3.56.31,0,.56.02.67.02v2.41h-.43c-1.15,0-1.57.4-1.57,1.28v.29h1.93v2.36h-1.93v6.46h-2.56v-6.46Z"/>
  <path class="st0" d="M30.92,30.06c0-2.67,1.78-4.68,4.34-4.68,2.84,0,4.25,2.29,4.25,4.52l-.02.76h-5.98c.14.92.85,1.62,1.98,1.62.92,0,1.62-.34,2.16-1.03l1.69,1.58c-.77.97-1.89,1.78-3.78,1.78-2.65,0-4.65-1.78-4.65-4.56ZM36.81,28.95c-.05-.74-.65-1.31-1.49-1.31-.95,0-1.51.59-1.67,1.31h3.17Z"/>
  <path class="st0" d="M41.49,31.3v-3.35h-1.15v-2.36h1.15v-2.47h2.56v2.47h1.94v2.36h-1.94v3.04c0,.88.41,1.08,1.15,1.08h.76v2.34c-.29.02-.88.04-1.39.04-2.09,0-3.08-1.12-3.08-3.15Z"/>
  <path class="st0" d="M49.3,21.6c.83,0,1.49.67,1.49,1.49s-.67,1.48-1.49,1.48-1.48-.67-1.48-1.48.65-1.49,1.48-1.49ZM48.02,25.6h2.56v8.82h-2.56v-8.82Z"/>
  <path class="st0" d="M52.96,25.6h2.52v.61c.49-.47,1.22-.83,2.12-.83.99,0,1.86.38,2.45,1.06.61-.61,1.57-1.06,2.65-1.06,2.36,0,3.69,1.41,3.69,3.91v5.13h-2.56v-5.02c0-.95-.43-1.64-1.35-1.64-.97,0-1.53.74-1.53,1.96v4.7h-2.56v-5.02c0-.95-.43-1.64-1.35-1.64-1.01,0-1.53.79-1.53,2.14v4.52h-2.56v-8.82Z"/>
  <path class="st0" d="M68.06,30.06c0-2.67,1.78-4.68,4.34-4.68,2.84,0,4.25,2.29,4.25,4.52l-.02.76h-5.98c.14.92.85,1.62,1.98,1.62.92,0,1.62-.34,2.16-1.03l1.69,1.58c-.77.97-1.89,1.78-3.78,1.78-2.65,0-4.65-1.78-4.65-4.56ZM73.94,28.95c-.05-.74-.65-1.31-1.49-1.31-.95,0-1.51.59-1.67,1.31h3.17Z"/>
  <path class="st0" d="M78.07,33.07c0-.86.67-1.55,1.53-1.55s1.57.68,1.57,1.55-.7,1.55-1.57,1.55-1.53-.68-1.53-1.55Z"/>
  <path class="st0" d="M88.43,21.82h2.68v4.93h5.29v-4.93h2.67v12.6h-2.67v-5.22h-5.29v5.22h-2.68v-12.6Z"/>
  <path class="st0" d="M100.96,30.06c0-2.67,1.78-4.68,4.34-4.68,2.84,0,4.25,2.29,4.25,4.52l-.02.76h-5.98c.14.92.85,1.62,1.98,1.62.92,0,1.62-.34,2.16-1.03l1.69,1.58c-.77.97-1.89,1.78-3.78,1.78-2.65,0-4.65-1.78-4.65-4.56ZM106.85,28.95c-.05-.74-.65-1.31-1.49-1.31-.95,0-1.51.59-1.67,1.31h3.17Z"/>
  <path class="st0" d="M111.29,21.82h2.56v12.6h-2.56v-12.6Z"/>
  <path class="st0" d="M116.12,25.6h2.52v.63c.47-.45,1.31-.85,2.3-.85,2.43,0,4.41,1.76,4.41,4.63s-1.98,4.61-4.41,4.61c-1.01,0-1.82-.36-2.27-.76v4.05h-2.56v-12.32ZM120.69,32.31c1.17,0,2.05-.94,2.05-2.3s-.88-2.3-2.05-2.3-2.05.94-2.05,2.3.88,2.3,2.05,2.3Z"/>
  <path class="st0" d="M128.48,21.6c.83,0,1.49.67,1.49,1.49s-.67,1.48-1.49,1.48-1.48-.67-1.48-1.48.65-1.49,1.48-1.49ZM127.2,25.6h2.56v8.82h-2.56v-8.82Z"/>
  <path class="st0" d="M132.14,25.6h2.52v.61c.49-.47,1.19-.83,2.09-.83,2.16,0,3.6,1.41,3.6,3.91v5.13h-2.56v-4.93c0-.94-.45-1.73-1.48-1.73-1.21,0-1.62.9-1.62,2.25v4.41h-2.56v-8.82Z"/>
  <path class="st0" d="M142.29,36.33l1.78-1.71c.41.59,1.19,1.13,2.21,1.13,1.35,0,2.23-.79,2.23-1.96v-.23c-.45.4-1.17.67-2.16.67-2.45,0-4.32-1.62-4.32-4.41s2.05-4.43,4.32-4.43c.97,0,1.73.4,2.21.85v-.63h2.5v7.9c0,2.66-1.73,4.61-4.77,4.61-2.27,0-3.44-1.06-4.01-1.78ZM146.59,31.9c1.08,0,1.98-.83,1.98-2.09s-.9-2.11-1.98-2.11-1.94.83-1.94,2.11.88,2.09,1.94,2.09Z"/>
  <path class="st0" d="M158.7,31.3v-3.35h-1.15v-2.36h1.15v-2.47h2.56v2.47h1.94v2.36h-1.94v3.04c0,.88.41,1.08,1.15,1.08h.76v2.34c-.29.02-.88.04-1.39.04-2.09,0-3.08-1.12-3.08-3.15Z"/>
  <path class="st0" d="M165.15,25.6h2.52v.79c.49-.58,1.3-.92,2.2-.92.31,0,.43,0,.68.02v2.47h-.4c-1.42,0-2.45.9-2.45,2.77v3.69h-2.56v-8.82Z"/>
  <path class="st0" d="M171.16,30.06c0-2.67,1.78-4.68,4.34-4.68,2.84,0,4.25,2.29,4.25,4.52l-.02.76h-5.98c.14.92.85,1.62,1.98,1.62.92,0,1.62-.34,2.16-1.03l1.69,1.58c-.77.97-1.89,1.78-3.78,1.78-2.65,0-4.65-1.78-4.65-4.56ZM177.05,28.95c-.05-.74-.65-1.31-1.49-1.31-.95,0-1.51.59-1.67,1.31h3.17Z"/>
  <path class="st0" d="M180.75,31.83c0-1.94,1.67-2.84,3.49-2.84.68,0,1.31.13,1.75.25v-.14c0-.83-.54-1.44-1.46-1.44-.68,0-1.42.32-1.89,1.03l-1.62-1.55c1.13-1.35,2.43-1.75,3.69-1.75,2.14,0,3.87,1.28,3.87,3.53v5.51h-2.56v-.58c-.45.4-1.21.77-2.21.77-1.91,0-3.06-1.21-3.06-2.79ZM184.43,32.46c.61,0,1.13-.22,1.57-.54v-1.01c-.31-.07-.72-.16-1.17-.16-1.01,0-1.49.4-1.49.92,0,.47.45.79,1.1.79Z"/>
  <path class="st0" d="M190.24,32.91l1.57-1.6c.88.86,1.73,1.17,2.52,1.17.52,0,.99-.23.99-.58,0-.27-.23-.41-.79-.56l-1.17-.29c-1.96-.49-2.88-1.46-2.88-2.88,0-1.73,1.58-2.79,3.42-2.79,1.3,0,2.5.45,3.55,1.39l-1.57,1.66c-.54-.45-1.28-.86-2.09-.86-.5,0-.83.23-.83.52,0,.23.23.38.63.47l1.31.31c1.58.38,2.9,1.15,2.9,2.92,0,1.66-1.4,2.84-3.69,2.84-1.73,0-3.19-.85-3.87-1.71Z"/>
  <path class="st0" d="M199.46,30.73v-5.13h2.58v5.02c0,.95.43,1.64,1.35,1.64,1.12,0,1.51-.79,1.51-2.14v-4.52h2.57v8.82h-2.52v-.61c-.54.56-1.35.81-2.2.81-2.05,0-3.29-1.39-3.29-3.89Z"/>
  <path class="st0" d="M209.73,25.6h2.52v.79c.49-.58,1.3-.92,2.2-.92.31,0,.43,0,.68.02v2.47h-.4c-1.42,0-2.45.9-2.45,2.77v3.69h-2.56v-8.82Z"/>
  <path class="st0" d="M215.75,30.06c0-2.67,1.78-4.68,4.34-4.68,2.84,0,4.25,2.29,4.25,4.52l-.02.76h-5.98c.14.92.85,1.62,1.98,1.62.92,0,1.62-.34,2.16-1.03l1.69,1.58c-.77.97-1.89,1.78-3.78,1.78-2.65,0-4.65-1.78-4.65-4.56ZM221.63,28.95c-.05-.74-.65-1.31-1.49-1.31-.95,0-1.51.59-1.67,1.31h3.17Z"/>
  <path class="st0" d="M225.57,30.01c0-2.79,1.98-4.63,4.41-4.63,1.01,0,1.78.38,2.23.77v-4.34h2.59v12.6h-2.56v-.63c-.47.45-1.28.83-2.27.83-2.43,0-4.41-1.76-4.41-4.61ZM230.24,32.31c1.17,0,2.02-.94,2.02-2.3s-.85-2.3-2.02-2.3-2.05.94-2.05,2.3.88,2.3,2.05,2.3Z"/>
  <path class="st0" d="M.77,47.2h2.52v.63c.47-.45,1.31-.85,2.3-.85,2.43,0,4.41,1.76,4.41,4.63s-1.98,4.61-4.41,4.61c-1.01,0-1.82-.36-2.27-.76v4.05H.77v-12.32ZM5.35,53.91c1.17,0,2.05-.94,2.05-2.3s-.88-2.3-2.05-2.3-2.05.94-2.05,2.3.88,2.3,2.05,2.3Z"/>
  <path class="st0" d="M11.77,43.42h2.56v12.6h-2.56v-12.6Z"/>
  <path class="st0" d="M16.18,53.43c0-1.94,1.67-2.84,3.49-2.84.68,0,1.31.13,1.75.25v-.14c0-.83-.54-1.44-1.46-1.44-.68,0-1.42.32-1.89,1.03l-1.62-1.55c1.13-1.35,2.43-1.75,3.69-1.75,2.14,0,3.87,1.28,3.87,3.53v5.51h-2.56v-.58c-.45.4-1.21.77-2.21.77-1.91,0-3.06-1.21-3.06-2.79ZM19.85,54.06c.61,0,1.13-.22,1.57-.54v-1.01c-.31-.07-.72-.16-1.17-.16-1.01,0-1.49.4-1.49.92,0,.47.45.79,1.1.79Z"/>
  <path class="st0" d="M25.68,51.61c0-2.65,2.02-4.63,4.66-4.63,1.67,0,2.75.72,3.69,1.76l-1.73,1.67c-.5-.61-1.06-1.03-1.87-1.03-1.21,0-2.14.92-2.14,2.21s.94,2.21,2.14,2.21c.88,0,1.49-.43,2.05-1.15l1.73,1.67c-.9,1.19-2.16,1.87-3.87,1.87-2.65,0-4.66-1.96-4.66-4.61Z"/>
  <path class="st0" d="M34.99,51.66c0-2.67,1.78-4.68,4.34-4.68,2.84,0,4.25,2.29,4.25,4.52l-.02.76h-5.98c.14.92.85,1.62,1.98,1.62.92,0,1.62-.34,2.16-1.03l1.69,1.58c-.77.97-1.89,1.78-3.78,1.78-2.65,0-4.65-1.78-4.65-4.56ZM40.88,50.55c-.05-.74-.65-1.31-1.49-1.31-.95,0-1.51.59-1.67,1.31h3.17Z"/>
  <path class="st0" d="M44.68,54.51l1.57-1.6c.88.86,1.73,1.17,2.52,1.17.52,0,.99-.23.99-.58,0-.27-.23-.41-.79-.56l-1.17-.29c-1.96-.49-2.88-1.46-2.88-2.88,0-1.73,1.58-2.79,3.42-2.79,1.3,0,2.5.45,3.55,1.39l-1.57,1.66c-.54-.45-1.28-.86-2.09-.86-.5,0-.83.23-.83.52,0,.23.23.38.63.47l1.31.31c1.58.38,2.9,1.15,2.9,2.92,0,1.66-1.41,2.84-3.69,2.84-1.73,0-3.19-.85-3.87-1.71Z"/>
  <path class="st0" d="M59.34,52.9v-3.35h-1.15v-2.36h1.15v-2.47h2.56v2.47h1.94v2.36h-1.94v3.04c0,.88.41,1.08,1.15,1.08h.76v2.34c-.29.02-.88.04-1.39.04-2.09,0-3.08-1.12-3.08-3.15Z"/>
  <path class="st0" d="M65.79,43.42h2.54v4.29c.4-.36,1.17-.72,2.07-.72,2.16,0,3.6,1.4,3.6,3.91v5.13h-2.56v-4.93c0-.94-.45-1.73-1.48-1.73-1.21,0-1.62.9-1.62,2.25v4.41h-2.56v-12.6Z"/>
  <path class="st0" d="M76.18,47.2h2.52v.79c.49-.58,1.3-.92,2.2-.92.31,0,.43,0,.68.02v2.47h-.4c-1.42,0-2.45.9-2.45,2.77v3.69h-2.56v-8.82Z"/>
  <path class="st0" d="M84.47,43.2c.83,0,1.49.67,1.49,1.5s-.67,1.48-1.49,1.48-1.48-.67-1.48-1.48.65-1.5,1.48-1.5ZM83.2,47.2h2.56v8.82h-2.56v-8.82Z"/>
  <path class="st0" d="M87.1,47.2h2.72l1.73,5.46,1.73-5.46h2.72l-3.13,8.82h-2.63l-3.13-8.82Z"/>
  <path class="st0" d="M96.46,51.66c0-2.67,1.78-4.68,4.34-4.68,2.84,0,4.25,2.29,4.25,4.52l-.02.76h-5.98c.14.92.85,1.62,1.98,1.62.92,0,1.62-.34,2.16-1.03l1.69,1.58c-.77.97-1.89,1.78-3.78,1.78-2.65,0-4.65-1.78-4.65-4.56ZM102.35,50.55c-.05-.74-.65-1.31-1.49-1.31-.95,0-1.51.59-1.67,1.31h3.17Z"/>
  <path class="st0" d="M112.26,49.56h-1.15v-2.36h1.15v-.43c0-2.45,1.6-3.57,3.89-3.57.31,0,.56.02.67.02v2.41h-.43c-1.15,0-1.57.4-1.57,1.28v.29h1.93v2.36h-1.93v6.46h-2.56v-6.46Z"/>
  <path class="st0" d="M117.5,51.61c0-2.65,2.02-4.63,4.66-4.63s4.66,1.98,4.66,4.63-2.02,4.61-4.66,4.61-4.66-1.96-4.66-4.61ZM122.17,53.84c1.19,0,2.05-.94,2.05-2.23s-.86-2.23-2.05-2.23-2.05.94-2.05,2.23.86,2.23,2.05,2.23Z"/>
  <path class="st0" d="M128.59,47.2h2.52v.79c.49-.58,1.3-.92,2.2-.92.31,0,.43,0,.68.02v2.47h-.4c-1.42,0-2.45.9-2.45,2.77v3.69h-2.56v-8.82Z"/>
  <path class="st0" d="M140.33,57.93l1.78-1.71c.41.59,1.19,1.13,2.21,1.13,1.35,0,2.23-.79,2.23-1.96v-.23c-.45.4-1.17.67-2.16.67-2.45,0-4.32-1.62-4.32-4.41s2.05-4.43,4.32-4.43c.97,0,1.73.4,2.21.85v-.63h2.5v7.9c0,2.66-1.73,4.61-4.77,4.61-2.27,0-3.44-1.06-4.01-1.78ZM144.63,53.5c1.08,0,1.98-.83,1.98-2.09s-.9-2.11-1.98-2.11-1.94.83-1.94,2.11.88,2.09,1.94,2.09Z"/>
  <path class="st0" d="M150.87,51.66c0-2.67,1.78-4.68,4.34-4.68,2.84,0,4.25,2.29,4.25,4.52l-.02.76h-5.98c.14.92.85,1.62,1.98,1.62.92,0,1.62-.34,2.16-1.03l1.69,1.58c-.77.97-1.89,1.78-3.78,1.78-2.65,0-4.65-1.78-4.65-4.56ZM156.76,50.55c-.05-.74-.65-1.31-1.49-1.31-.95,0-1.51.59-1.67,1.31h3.17Z"/>
  <path class="st0" d="M161.21,47.2h2.52v.61c.49-.47,1.19-.83,2.09-.83,2.16,0,3.6,1.4,3.6,3.91v5.13h-2.56v-4.93c0-.94-.45-1.73-1.48-1.73-1.21,0-1.62.9-1.62,2.25v4.41h-2.56v-8.82Z"/>
  <path class="st0" d="M171.09,51.66c0-2.67,1.78-4.68,4.34-4.68,2.84,0,4.25,2.29,4.25,4.52l-.02.76h-5.98c.14.92.85,1.62,1.98,1.62.92,0,1.62-.34,2.16-1.03l1.69,1.58c-.77.97-1.89,1.78-3.78,1.78-2.65,0-4.65-1.78-4.65-4.56ZM176.98,50.55c-.05-.74-.65-1.31-1.49-1.31-.95,0-1.51.59-1.67,1.31h3.17Z"/>
  <path class="st0" d="M181.42,47.2h2.52v.79c.49-.58,1.3-.92,2.2-.92.31,0,.43,0,.68.02v2.47h-.4c-1.42,0-2.45.9-2.45,2.77v3.69h-2.56v-8.82Z"/>
  <path class="st0" d="M187.61,53.43c0-1.94,1.67-2.84,3.49-2.84.68,0,1.31.13,1.75.25v-.14c0-.83-.54-1.44-1.46-1.44-.68,0-1.42.32-1.89,1.03l-1.62-1.55c1.13-1.35,2.43-1.75,3.69-1.75,2.14,0,3.87,1.28,3.87,3.53v5.51h-2.56v-.58c-.45.4-1.21.77-2.21.77-1.91,0-3.06-1.21-3.06-2.79ZM191.29,54.06c.61,0,1.13-.22,1.57-.54v-1.01c-.31-.07-.72-.16-1.17-.16-1.01,0-1.49.4-1.49.92,0,.47.45.79,1.1.79Z"/>
  <path class="st0" d="M197.94,52.9v-3.35h-1.15v-2.36h1.15v-2.47h2.56v2.47h1.94v2.36h-1.94v3.04c0,.88.41,1.08,1.15,1.08h.76v2.34c-.29.02-.88.04-1.39.04-2.09,0-3.08-1.12-3.08-3.15Z"/>
  <path class="st0" d="M205.76,43.2c.83,0,1.49.67,1.49,1.5s-.67,1.48-1.49,1.48-1.48-.67-1.48-1.48.65-1.5,1.48-1.5ZM204.48,47.2h2.56v8.82h-2.56v-8.82Z"/>
  <path class="st0" d="M208.91,51.61c0-2.65,2.02-4.63,4.66-4.63s4.66,1.98,4.66,4.63-2.02,4.61-4.66,4.61-4.66-1.96-4.66-4.61ZM213.57,53.84c1.19,0,2.05-.94,2.05-2.23s-.87-2.23-2.05-2.23-2.05.94-2.05,2.23.86,2.23,2.05,2.23Z"/>
  <path class="st0" d="M219.99,47.2h2.52v.61c.49-.47,1.19-.83,2.09-.83,2.16,0,3.6,1.4,3.6,3.91v5.13h-2.56v-4.93c0-.94-.45-1.73-1.48-1.73-1.21,0-1.62.9-1.62,2.25v4.41h-2.56v-8.82Z"/>
  <path class="st0" d="M229.86,54.51l1.57-1.6c.88.86,1.73,1.17,2.52,1.17.52,0,.99-.23.99-.58,0-.27-.23-.41-.79-.56l-1.17-.29c-1.96-.49-2.88-1.46-2.88-2.88,0-1.73,1.58-2.79,3.42-2.79,1.3,0,2.5.45,3.55,1.39l-1.57,1.66c-.54-.45-1.28-.86-2.09-.86-.5,0-.83.23-.83.52,0,.23.23.38.63.47l1.31.31c1.58.38,2.9,1.15,2.9,2.92,0,1.66-1.41,2.84-3.69,2.84-1.73,0-3.19-.85-3.87-1.71Z"/>
  <path class="st0" d="M239,54.67c0-.86.67-1.55,1.53-1.55s1.57.68,1.57,1.55-.7,1.55-1.57,1.55-1.53-.68-1.53-1.55Z"/>
</svg>