<?xml version="1.0" encoding="UTF-8"?>
<svg id="Layer_1" xmlns="http://www.w3.org/2000/svg" version="1.1" viewBox="0 0 90 90">
  <!-- Generator: Adobe Illustrator 30.1.0, SVG Export Plug-In . SVG Version: 2.1.1 Build 136)  -->
  <defs>
    <style>
      .st0 {
        fill: #fff;
      }

      .st1 {
        fill: #0d393b;
      }
    </style>
  </defs>
  <rect class="st1" width="90" height="90"/>
  <g>
    <path class="st0" d="M17.67,33.49h7.02v1.99h-4.85v2.2h4.52v1.98h-4.52v4.01h-2.17v-10.17h0Z"/>
    <path class="st0" d="M27.36,33.31c.67,0,1.21.54,1.21,1.2s-.54,1.19-1.21,1.19-1.19-.54-1.19-1.19.52-1.2,1.19-1.2ZM26.33,36.54h2.06v7.12h-2.06v-7.12Z"/>
    <path class="st0" d="M30.31,36.54h2.03v.49c.39-.38.96-.67,1.69-.67,1.74,0,2.91,1.13,2.91,3.15v4.14h-2.06v-3.98c0-.75-.36-1.39-1.19-1.39-.97,0-1.31.73-1.31,1.82v3.56h-2.06v-7.12h0Z"/>
    <path class="st0" d="M38.3,40.1c0-2.25,1.6-3.73,3.56-3.73.81,0,1.44.31,1.8.62v-3.5h2.09v10.17h-2.06v-.51c-.38.36-1.03.67-1.83.67-1.96,0-3.56-1.42-3.56-3.72ZM42.06,41.96c.94,0,1.63-.75,1.63-1.86s-.68-1.86-1.63-1.86-1.66.76-1.66,1.86.71,1.86,1.66,1.86Z"/>
    <path class="st0" d="M51.25,40.1c0-2.13,1.63-3.73,3.76-3.73s3.76,1.6,3.76,3.73-1.63,3.72-3.76,3.72-3.76-1.58-3.76-3.72ZM55.02,41.9c.96,0,1.66-.76,1.66-1.8s-.7-1.8-1.66-1.8-1.66.75-1.66,1.8.7,1.8,1.66,1.8Z"/>
    <path class="st0" d="M60.14,40.68v-4.14h2.08v4.05c0,.77.35,1.32,1.09,1.32.9,0,1.22-.64,1.22-1.73v-3.65h2.08v7.12h-2.03v-.49c-.44.45-1.09.65-1.77.65-1.66,0-2.66-1.12-2.66-3.14h-.01Z"/>
    <path class="st0" d="M68.7,41.15v-2.7h-.93v-1.9h.93v-1.99h2.06v1.99h1.57v1.9h-1.57v2.46c0,.71.33.87.93.87h.61v1.89c-.23,0-.71.03-1.12.03-1.69,0-2.48-.9-2.48-2.54h0Z"/>
    <path class="st0" d="M24.68,49.11h2.03v.49c.39-.38.99-.67,1.72-.67.8,0,1.5.31,1.98.86.49-.49,1.26-.86,2.14-.86,1.9,0,2.98,1.13,2.98,3.15v4.14h-2.06v-4.06c0-.77-.35-1.32-1.09-1.32-.78,0-1.24.6-1.24,1.58v3.79h-2.06v-4.06c0-.77-.35-1.32-1.09-1.32-.81,0-1.24.64-1.24,1.73v3.65h-2.06v-7.12.02Z"/>
    <path class="st0" d="M36.88,52.67c0-2.13,1.63-3.73,3.76-3.73s3.76,1.6,3.76,3.73-1.63,3.72-3.76,3.72-3.76-1.58-3.76-3.72ZM40.65,54.48c.96,0,1.66-.76,1.66-1.8s-.7-1.8-1.66-1.8-1.66.75-1.66,1.8.7,1.8,1.66,1.8Z"/>
    <path class="st0" d="M45.84,49.11h2.03v.64c.39-.47,1.05-.74,1.77-.74.25,0,.35,0,.55,0v1.99h-.32c-1.15,0-1.98.73-1.98,2.24v2.98h-2.06v-7.12h.01Z"/>
    <path class="st0" d="M50.7,52.72c0-2.15,1.44-3.78,3.5-3.78,2.3,0,3.43,1.85,3.43,3.65v.61h-4.84c.12.74.68,1.31,1.6,1.31.74,0,1.31-.28,1.74-.83l1.37,1.28c-.62.79-1.53,1.44-3.05,1.44-2.14,0-3.75-1.44-3.75-3.68ZM55.45,51.82c-.04-.6-.52-1.06-1.21-1.06-.77,0-1.22.48-1.35,1.06,0,0,2.56,0,2.56,0Z"/>
    <polygon class="st0" points="67.77 52.58 66.64 51.46 66.64 51.46 63.67 48.48 62.54 49.61 65.51 52.59 62.54 55.56 63.67 56.69 66.64 53.71 66.64 53.72 67.77 52.59 67.77 52.59 67.77 52.58"/>
  </g>
</svg>