<?xml version="1.0" encoding="UTF-8"?>
<svg id="Layer_1" xmlns="http://www.w3.org/2000/svg" version="1.1" viewBox="0 0 119.35 24.08">
  <!-- Generator: Adobe Illustrator 30.1.0, SVG Export Plug-In . SVG Version: 2.1.1 Build 136)  -->
  <defs>
    <style>
      .st0 {
        fill: #fff;
      }
    </style>
  </defs>
  <path class="st0" d="M2.41,1.79H0V.14h6.6v1.64h-2.41v6.75h-1.77V1.79Z"/>
  <path class="st0" d="M6.91,6.08v-3.42h1.71v3.35c0,.64.29,1.09.9,1.09.74,0,1.01-.53,1.01-1.43v-3.01h1.71v5.88h-1.68v-.41c-.36.37-.9.54-1.46.54-1.37,0-2.19-.92-2.19-2.59Z"/>
  <path class="st0" d="M13.76,2.66h1.68v.53c.32-.38.86-.61,1.46-.61.2,0,.29,0,.46.01v1.64h-.26c-.95,0-1.63.6-1.63,1.85v2.46h-1.7V2.66Z"/>
  <path class="st0" d="M18.38,2.66h1.68v.41c.32-.31.79-.55,1.39-.55,1.44,0,2.4.94,2.4,2.6v3.42h-1.7v-3.29c0-.62-.3-1.15-.98-1.15-.8,0-1.08.6-1.08,1.5v2.94h-1.7V2.66Z"/>
  <path class="st0" d="M26.22,0c.55,0,1,.44,1,1s-.44.98-1,.98-.98-.44-.98-.98.43-1,.98-1ZM25.37,2.66h1.7v5.88h-1.7V2.66Z"/>
  <path class="st0" d="M28.66,2.66h1.68v.41c.32-.31.79-.55,1.39-.55,1.44,0,2.4.94,2.4,2.6v3.42h-1.7v-3.29c0-.62-.3-1.15-.98-1.15-.8,0-1.08.6-1.08,1.5v2.94h-1.7V2.66Z"/>
  <path class="st0" d="M35.42,9.81l1.19-1.14c.28.4.79.76,1.48.76.9,0,1.49-.53,1.49-1.31v-.16c-.3.26-.78.44-1.44.44-1.63,0-2.88-1.08-2.88-2.94s1.37-2.95,2.88-2.95c.65,0,1.15.26,1.47.56v-.42h1.67v5.27c0,1.78-1.15,3.07-3.18,3.07-1.51,0-2.29-.71-2.67-1.19ZM38.29,6.86c.72,0,1.32-.55,1.32-1.39s-.6-1.4-1.32-1.4-1.29.55-1.29,1.4.59,1.39,1.29,1.39Z"/>
  <path class="st0" d="M45.88,6.81c0-1.3,1.12-1.9,2.33-1.9.46,0,.88.08,1.16.17v-.1c0-.55-.36-.96-.97-.96-.46,0-.95.22-1.26.68l-1.08-1.03c.76-.9,1.62-1.16,2.46-1.16,1.43,0,2.58.85,2.58,2.35v3.67h-1.7v-.38c-.3.26-.8.52-1.48.52-1.27,0-2.04-.8-2.04-1.86ZM48.32,7.23c.41,0,.75-.14,1.04-.36v-.67c-.2-.05-.48-.11-.78-.11-.67,0-1,.26-1,.61,0,.31.3.53.73.53Z"/>
  <path class="st0" d="M52.55,2.66h1.68v.41c.32-.31.82-.55,1.42-.55.66,0,1.24.25,1.63.71.41-.41,1.04-.71,1.76-.71,1.57,0,2.46.94,2.46,2.6v3.42h-1.7v-3.35c0-.64-.29-1.09-.9-1.09-.65,0-1.02.49-1.02,1.31v3.13h-1.7v-3.35c0-.64-.29-1.09-.9-1.09-.67,0-1.02.53-1.02,1.43v3.01h-1.7V2.66Z"/>
  <path class="st0" d="M64.65,8.12v.42h-1.7V.14h1.73v2.89c.3-.26.82-.52,1.49-.52,1.62,0,2.94,1.22,2.94,3.08s-1.32,3.07-2.94,3.07c-.66,0-1.2-.25-1.51-.55ZM66,7.14c.78,0,1.37-.62,1.37-1.54s-.59-1.54-1.37-1.54-1.34.62-1.34,1.54.56,1.54,1.34,1.54Z"/>
  <path class="st0" d="M71.19,0c.55,0,1,.44,1,1s-.44.98-1,.98-.98-.44-.98-.98.43-1,.98-1ZM70.34,2.66h1.7v5.88h-1.7V2.66Z"/>
  <path class="st0" d="M73.85,6.46v-2.23h-.77v-1.57h.77v-1.64h1.7v1.64h1.29v1.57h-1.29v2.03c0,.59.28.72.77.72h.5v1.56c-.19.01-.59.02-.92.02-1.39,0-2.05-.74-2.05-2.1Z"/>
  <path class="st0" d="M79.05,0c.55,0,1,.44,1,1s-.44.98-1,.98-.98-.44-.98-.98.43-1,.98-1ZM78.2,2.66h1.7v5.88h-1.7V2.66Z"/>
  <path class="st0" d="M81.15,5.6c0-1.76,1.34-3.08,3.11-3.08s3.11,1.32,3.11,3.08-1.34,3.07-3.11,3.07-3.11-1.31-3.11-3.07ZM84.26,7.09c.79,0,1.37-.62,1.37-1.49s-.58-1.49-1.37-1.49-1.37.62-1.37,1.49.58,1.49,1.37,1.49Z"/>
  <path class="st0" d="M88.55,2.66h1.68v.41c.32-.31.79-.55,1.39-.55,1.44,0,2.4.94,2.4,2.6v3.42h-1.7v-3.29c0-.62-.3-1.15-.98-1.15-.8,0-1.08.6-1.08,1.5v2.94h-1.7V2.66Z"/>
  <path class="st0" d="M99.74,0c.55,0,1,.44,1,1s-.44.98-1,.98-.98-.44-.98-.98.43-1,.98-1ZM98.89,2.66h1.7v5.88h-1.7V2.66Z"/>
  <path class="st0" d="M102.18,2.66h1.68v.41c.32-.31.79-.55,1.39-.55,1.44,0,2.4.94,2.4,2.6v3.42h-1.7v-3.29c0-.62-.3-1.15-.98-1.15-.8,0-1.08.6-1.08,1.5v2.94h-1.7V2.66Z"/>
  <path class="st0" d="M109.32,6.46v-2.23h-.77v-1.57h.77v-1.64h1.7v1.64h1.29v1.57h-1.29v2.03c0,.59.28.72.77.72h.5v1.56c-.19.01-.59.02-.92.02-1.39,0-2.05-.74-2.05-2.1Z"/>
  <path class="st0" d="M113.13,5.6c0-1.76,1.34-3.08,3.11-3.08s3.11,1.32,3.11,3.08-1.34,3.07-3.11,3.07-3.11-1.31-3.11-3.07ZM116.24,7.09c.79,0,1.37-.62,1.37-1.49s-.58-1.49-1.37-1.49-1.37.62-1.37,1.49.58,1.49,1.37,1.49Z"/>
  <path class="st0" d="M19.3,13.22h1.7v8.4h-1.7v-8.4Z"/>
  <path class="st0" d="M22.24,19.89c0-1.3,1.12-1.9,2.33-1.9.46,0,.88.08,1.16.17v-.1c0-.55-.36-.96-.97-.96-.46,0-.95.22-1.26.68l-1.08-1.03c.76-.9,1.62-1.16,2.46-1.16,1.43,0,2.58.85,2.58,2.35v3.67h-1.7v-.38c-.3.26-.8.52-1.48.52-1.27,0-2.04-.8-2.04-1.86ZM24.68,20.31c.41,0,.76-.14,1.04-.36v-.67c-.2-.05-.48-.11-.78-.11-.67,0-1,.26-1,.61,0,.31.3.53.73.53Z"/>
  <path class="st0" d="M28.56,20.61l1.04-1.07c.59.58,1.15.78,1.68.78.35,0,.66-.16.66-.38,0-.18-.16-.28-.53-.37l-.78-.19c-1.31-.32-1.92-.97-1.92-1.92,0-1.15,1.06-1.86,2.28-1.86.86,0,1.67.3,2.36.92l-1.04,1.1c-.36-.3-.85-.58-1.39-.58-.34,0-.55.16-.55.35,0,.16.16.25.42.31l.88.2c1.06.25,1.93.77,1.93,1.94,0,1.1-.94,1.9-2.46,1.9-1.15,0-2.12-.56-2.58-1.14Z"/>
  <path class="st0" d="M34.91,19.54v-2.23h-.77v-1.57h.77v-1.64h1.7v1.64h1.29v1.57h-1.29v2.03c0,.59.28.72.77.72h.5v1.56c-.19.01-.59.02-.92.02-1.39,0-2.05-.74-2.05-2.1Z"/>
  <path class="st0" d="M40.11,13.08c.55,0,1,.44,1,1s-.44.98-1,.98-.98-.44-.98-.98.43-1,.98-1ZM39.26,15.74h1.7v5.88h-1.7v-5.88Z"/>
  <path class="st0" d="M42.55,15.74h1.68v.41c.32-.31.79-.55,1.39-.55,1.44,0,2.4.94,2.4,2.6v3.42h-1.7v-3.29c0-.62-.3-1.15-.98-1.15-.8,0-1.08.6-1.08,1.5v2.94h-1.7v-5.88Z"/>
  <path class="st0" d="M49.32,22.89l1.19-1.14c.28.4.79.76,1.47.76.9,0,1.49-.53,1.49-1.31v-.16c-.3.26-.78.44-1.44.44-1.63,0-2.88-1.08-2.88-2.94s1.37-2.95,2.88-2.95c.65,0,1.15.26,1.47.56v-.42h1.67v5.27c0,1.78-1.15,3.07-3.18,3.07-1.51,0-2.29-.71-2.67-1.19ZM52.19,19.94c.72,0,1.32-.55,1.32-1.39s-.6-1.4-1.32-1.4-1.29.55-1.29,1.4.59,1.39,1.29,1.39Z"/>
  <path class="st0" d="M60.96,13.08c.55,0,1,.44,1,1s-.44.98-1,.98-.98-.44-.98-.98.43-1,.98-1ZM60.11,15.74h1.7v5.88h-1.7v-5.88Z"/>
  <path class="st0" d="M63.4,15.74h1.68v.41c.32-.31.82-.55,1.42-.55.66,0,1.24.25,1.63.71.41-.41,1.04-.71,1.76-.71,1.57,0,2.46.94,2.46,2.6v3.42h-1.7v-3.35c0-.64-.29-1.09-.9-1.09-.65,0-1.02.49-1.02,1.31v3.13h-1.7v-3.35c0-.64-.29-1.09-.9-1.09-.67,0-1.02.53-1.02,1.43v3.01h-1.7v-5.88Z"/>
  <path class="st0" d="M73.8,15.74h1.68v.42c.31-.3.88-.56,1.54-.56,1.62,0,2.94,1.18,2.94,3.08s-1.32,3.07-2.94,3.07c-.67,0-1.21-.24-1.51-.5v2.7h-1.7v-8.2ZM76.85,20.21c.78,0,1.37-.62,1.37-1.54s-.59-1.54-1.37-1.54-1.37.62-1.37,1.54.59,1.54,1.37,1.54Z"/>
  <path class="st0" d="M80.64,19.89c0-1.3,1.12-1.9,2.33-1.9.46,0,.88.08,1.16.17v-.1c0-.55-.36-.96-.97-.96-.46,0-.95.22-1.26.68l-1.08-1.03c.76-.9,1.62-1.16,2.46-1.16,1.43,0,2.58.85,2.58,2.35v3.67h-1.7v-.38c-.3.26-.8.52-1.48.52-1.27,0-2.04-.8-2.04-1.86ZM83.09,20.31c.41,0,.75-.14,1.04-.36v-.67c-.2-.05-.48-.11-.78-.11-.67,0-1,.26-1,.61,0,.31.3.53.73.53Z"/>
  <path class="st0" d="M86.98,18.68c0-1.76,1.34-3.08,3.11-3.08,1.12,0,1.83.48,2.46,1.18l-1.15,1.12c-.34-.41-.71-.68-1.25-.68-.8,0-1.43.61-1.43,1.48s.62,1.48,1.43,1.48c.59,0,1-.29,1.37-.77l1.15,1.12c-.6.79-1.44,1.25-2.58,1.25-1.76,0-3.11-1.31-3.11-3.07Z"/>
  <path class="st0" d="M93.97,19.54v-2.23h-.77v-1.57h.77v-1.64h1.7v1.64h1.29v1.57h-1.29v2.03c0,.59.28.72.77.72h.5v1.56c-.19.01-.59.02-.92.02-1.39,0-2.05-.74-2.05-2.1Z"/>
  <path class="st0" d="M98.16,20.72c0-.58.44-1.03,1.02-1.03s1.04.46,1.04,1.03-.47,1.03-1.04,1.03-1.02-.46-1.02-1.03Z"/>
</svg>