<?xml version="1.0" encoding="UTF-8"?>
<svg id="Layer_1" xmlns="http://www.w3.org/2000/svg" version="1.1" viewBox="0 0 125.73 24.08">
  <!-- Generator: Adobe Illustrator 30.1.0, SVG Export Plug-In . SVG Version: 2.1.1 Build 136)  -->
  <defs>
    <style>
      .st0 {
        fill: #fff;
      }
    </style>
  </defs>
  <path class="st0" d="M0,.14h1.91l1.29,5.37L4.56.14h1.91l1.36,5.37L9.12.14h1.91l-2.24,8.4h-1.82l-1.44-5.54-1.45,5.54h-1.82L0,.14Z"/>
  <path class="st0" d="M12.02.14h1.69v2.85c.26-.24.78-.48,1.38-.48,1.44,0,2.4.94,2.4,2.6v3.42h-1.7v-3.29c0-.62-.3-1.15-.98-1.15-.8,0-1.08.6-1.08,1.5v2.94h-1.7V.14Z"/>
  <path class="st0" d="M18.61,5.64c0-1.77,1.19-3.12,2.89-3.12,1.9,0,2.83,1.52,2.83,3.01v.5h-3.99c.1.61.56,1.08,1.32,1.08.61,0,1.08-.23,1.44-.68l1.13,1.06c-.52.65-1.26,1.19-2.52,1.19-1.76,0-3.09-1.19-3.09-3.03ZM22.53,4.89c-.04-.49-.43-.88-1-.88-.64,0-1.01.4-1.12.88h2.11Z"/>
  <path class="st0" d="M25.5,2.66h1.68v.41c.32-.31.79-.55,1.39-.55,1.44,0,2.4.94,2.4,2.6v3.42h-1.7v-3.29c0-.62-.3-1.15-.98-1.15-.8,0-1.08.6-1.08,1.5v2.94h-1.7V2.66Z"/>
  <path class="st0" d="M35.45,5.6c0-1.76,1.34-3.08,3.11-3.08,1.12,0,1.83.48,2.46,1.18l-1.15,1.12c-.34-.41-.71-.68-1.25-.68-.8,0-1.43.61-1.43,1.48s.62,1.48,1.43,1.48c.59,0,1-.29,1.37-.77l1.15,1.12c-.6.79-1.44,1.25-2.58,1.25-1.76,0-3.11-1.31-3.11-3.07Z"/>
  <path class="st0" d="M41.65,5.6c0-1.76,1.34-3.08,3.11-3.08s3.11,1.32,3.11,3.08-1.34,3.07-3.11,3.07-3.11-1.31-3.11-3.07ZM44.76,7.09c.79,0,1.37-.62,1.37-1.49s-.58-1.49-1.37-1.49-1.37.62-1.37,1.49.58,1.49,1.37,1.49Z"/>
  <path class="st0" d="M49.04,2.66h1.68v.53c.32-.38.86-.61,1.46-.61.2,0,.29,0,.46.01v1.64h-.26c-.95,0-1.63.6-1.63,1.85v2.46h-1.7V2.66Z"/>
  <path class="st0" d="M53.66,2.66h1.68v.42c.31-.3.88-.56,1.54-.56,1.62,0,2.94,1.18,2.94,3.08s-1.32,3.07-2.94,3.07c-.67,0-1.21-.24-1.51-.5v2.7h-1.7V2.66ZM56.71,7.14c.78,0,1.37-.62,1.37-1.54s-.59-1.54-1.37-1.54-1.37.62-1.37,1.54.59,1.54,1.37,1.54Z"/>
  <path class="st0" d="M60.66,5.6c0-1.76,1.34-3.08,3.11-3.08s3.11,1.32,3.11,3.08-1.34,3.07-3.11,3.07-3.11-1.31-3.11-3.07ZM63.77,7.09c.79,0,1.37-.62,1.37-1.49s-.58-1.49-1.37-1.49-1.37.62-1.37,1.49.58,1.49,1.37,1.49Z"/>
  <path class="st0" d="M68.05,2.66h1.68v.53c.32-.38.86-.61,1.46-.61.2,0,.29,0,.46.01v1.64h-.26c-.95,0-1.63.6-1.63,1.85v2.46h-1.7V2.66Z"/>
  <path class="st0" d="M72.18,6.81c0-1.3,1.12-1.9,2.33-1.9.46,0,.88.08,1.16.17v-.1c0-.55-.36-.96-.97-.96-.46,0-.95.22-1.26.68l-1.08-1.03c.76-.9,1.62-1.16,2.46-1.16,1.43,0,2.58.85,2.58,2.35v3.67h-1.7v-.38c-.3.26-.8.52-1.48.52-1.27,0-2.04-.8-2.04-1.86ZM74.63,7.23c.41,0,.75-.14,1.04-.36v-.67c-.2-.05-.48-.11-.78-.11-.67,0-1,.26-1,.61,0,.31.3.53.73.53Z"/>
  <path class="st0" d="M79.07,6.46v-2.23h-.77v-1.57h.77v-1.64h1.7v1.64h1.29v1.57h-1.29v2.03c0,.59.28.72.77.72h.5v1.56c-.19.01-.59.02-.92.02-1.39,0-2.05-.74-2.05-2.1Z"/>
  <path class="st0" d="M82.88,5.64c0-1.77,1.19-3.12,2.89-3.12,1.89,0,2.83,1.52,2.83,3.01v.5h-3.99c.1.61.56,1.08,1.32,1.08.61,0,1.08-.23,1.44-.68l1.13,1.06c-.52.65-1.26,1.19-2.52,1.19-1.76,0-3.09-1.19-3.09-3.03ZM86.81,4.89c-.04-.49-.43-.88-1-.88-.63,0-1.01.4-1.12.88h2.11Z"/>
  <path class="st0" d="M92.98,9.81l1.19-1.14c.28.4.79.76,1.47.76.9,0,1.49-.53,1.49-1.31v-.16c-.3.26-.78.44-1.44.44-1.63,0-2.88-1.08-2.88-2.94s1.37-2.95,2.88-2.95c.65,0,1.15.26,1.47.56v-.42h1.67v5.27c0,1.78-1.15,3.07-3.18,3.07-1.51,0-2.29-.71-2.67-1.19ZM95.84,6.86c.72,0,1.32-.55,1.32-1.39s-.6-1.4-1.32-1.4-1.29.55-1.29,1.4.59,1.39,1.29,1.39Z"/>
  <path class="st0" d="M101.25,0c.55,0,1,.44,1,1s-.44.98-1,.98-.98-.44-.98-.98.43-1,.98-1ZM100.4,2.66h1.7v5.88h-1.7V2.66Z"/>
  <path class="st0" d="M103.01,2.66h1.81l1.15,3.63,1.15-3.63h1.81l-2.09,5.88h-1.75l-2.09-5.88Z"/>
  <path class="st0" d="M110.67,0c.55,0,1,.44,1,1s-.44.98-1,.98-.98-.44-.98-.98.43-1,.98-1ZM109.82,2.66h1.7v5.88h-1.7V2.66Z"/>
  <path class="st0" d="M113.11,2.66h1.68v.41c.32-.31.79-.55,1.39-.55,1.44,0,2.4.94,2.4,2.6v3.42h-1.7v-3.29c0-.62-.3-1.15-.98-1.15-.8,0-1.08.6-1.08,1.5v2.94h-1.7V2.66Z"/>
  <path class="st0" d="M119.88,9.81l1.19-1.14c.28.4.79.76,1.48.76.9,0,1.49-.53,1.49-1.31v-.16c-.3.26-.78.44-1.44.44-1.63,0-2.88-1.08-2.88-2.94s1.37-2.95,2.88-2.95c.65,0,1.15.26,1.47.56v-.42h1.67v5.27c0,1.78-1.15,3.07-3.18,3.07-1.51,0-2.29-.71-2.67-1.19ZM122.74,6.86c.72,0,1.32-.55,1.32-1.39s-.6-1.4-1.32-1.4-1.29.55-1.29,1.4.59,1.39,1.29,1.39Z"/>
  <path class="st0" d="M4.4,19.89c0-1.3,1.12-1.9,2.33-1.9.46,0,.88.08,1.16.17v-.1c0-.55-.36-.96-.97-.96-.46,0-.95.22-1.26.68l-1.08-1.03c.76-.9,1.62-1.16,2.46-1.16,1.43,0,2.58.85,2.58,2.35v3.67h-1.7v-.38c-.3.26-.8.52-1.48.52-1.27,0-2.04-.8-2.04-1.86ZM6.84,20.31c.41,0,.76-.14,1.04-.36v-.67c-.2-.05-.48-.11-.78-.11-.67,0-1,.26-1,.61,0,.31.3.53.73.53Z"/>
  <path class="st0" d="M10.73,18.68c0-1.76,1.34-3.08,3.11-3.08,1.12,0,1.83.48,2.46,1.18l-1.15,1.12c-.34-.41-.71-.68-1.25-.68-.8,0-1.43.61-1.43,1.48s.62,1.48,1.43,1.48c.59,0,1-.29,1.37-.77l1.15,1.12c-.6.79-1.44,1.25-2.58,1.25-1.76,0-3.11-1.31-3.11-3.07Z"/>
  <path class="st0" d="M17.51,13.22h1.69v2.85c.26-.24.78-.48,1.38-.48,1.44,0,2.4.94,2.4,2.6v3.42h-1.7v-3.29c0-.62-.3-1.15-.98-1.15-.8,0-1.08.6-1.08,1.5v2.94h-1.7v-8.4Z"/>
  <path class="st0" d="M25.35,13.08c.55,0,1,.44,1,1s-.44.98-1,.98-.98-.44-.98-.98.43-1,.98-1ZM24.5,15.74h1.7v5.88h-1.7v-5.88Z"/>
  <path class="st0" d="M27.45,18.71c0-1.77,1.19-3.12,2.89-3.12,1.89,0,2.83,1.52,2.83,3.01v.5h-3.99c.1.61.56,1.08,1.32,1.08.61,0,1.08-.23,1.44-.68l1.13,1.06c-.52.65-1.26,1.19-2.52,1.19-1.76,0-3.09-1.19-3.09-3.03ZM31.37,17.97c-.04-.49-.43-.88-1-.88-.64,0-1.01.4-1.11.88h2.11Z"/>
  <path class="st0" d="M33.47,15.74h1.81l1.15,3.63,1.15-3.63h1.81l-2.09,5.88h-1.75l-2.09-5.88Z"/>
  <path class="st0" d="M39.71,18.71c0-1.77,1.19-3.12,2.89-3.12,1.89,0,2.83,1.52,2.83,3.01v.5h-3.99c.1.61.56,1.08,1.32,1.08.61,0,1.08-.23,1.44-.68l1.13,1.06c-.52.65-1.26,1.19-2.52,1.19-1.76,0-3.09-1.19-3.09-3.03ZM43.64,17.97c-.04-.49-.43-.88-1-.88-.63,0-1.01.4-1.12.88h2.11Z"/>
  <path class="st0" d="M46.17,20.61l1.04-1.07c.59.58,1.15.78,1.68.78.35,0,.66-.16.66-.38,0-.18-.16-.28-.53-.37l-.78-.19c-1.31-.32-1.92-.97-1.92-1.92,0-1.15,1.06-1.86,2.28-1.86.86,0,1.67.3,2.36.92l-1.04,1.1c-.36-.3-.85-.58-1.39-.58-.34,0-.55.16-.55.35,0,.16.16.25.42.31l.88.2c1.06.25,1.93.77,1.93,1.94,0,1.1-.94,1.9-2.46,1.9-1.15,0-2.12-.56-2.58-1.14Z"/>
  <path class="st0" d="M55.73,15.74h1.68v.53c.32-.38.86-.61,1.46-.61.2,0,.29,0,.46.01v1.64h-.26c-.95,0-1.63.6-1.63,1.85v2.46h-1.7v-5.88Z"/>
  <path class="st0" d="M59.74,18.71c0-1.77,1.19-3.12,2.89-3.12,1.89,0,2.83,1.52,2.83,3.01v.5h-3.99c.1.61.56,1.08,1.32,1.08.61,0,1.08-.23,1.44-.68l1.13,1.06c-.52.65-1.26,1.19-2.52,1.19-1.76,0-3.09-1.19-3.09-3.03ZM63.66,17.97c-.04-.49-.43-.88-1-.88-.63,0-1.01.4-1.12.88h2.11Z"/>
  <path class="st0" d="M66.14,19.89c0-1.3,1.12-1.9,2.33-1.9.46,0,.88.08,1.16.17v-.1c0-.55-.36-.96-.97-.96-.46,0-.95.22-1.26.68l-1.08-1.03c.76-.9,1.62-1.16,2.46-1.16,1.43,0,2.58.85,2.58,2.35v3.67h-1.7v-.38c-.3.26-.8.52-1.48.52-1.27,0-2.04-.8-2.04-1.86ZM68.58,20.31c.41,0,.75-.14,1.04-.36v-.67c-.2-.05-.48-.11-.78-.11-.67,0-1,.26-1,.61,0,.31.3.53.73.53Z"/>
  <path class="st0" d="M72.81,13.22h1.7v8.4h-1.7v-8.4Z"/>
  <path class="st0" d="M79.05,18.68c0-1.76,1.34-3.08,3.11-3.08,1.12,0,1.83.48,2.46,1.18l-1.15,1.12c-.34-.41-.71-.68-1.25-.68-.8,0-1.43.61-1.43,1.48s.62,1.48,1.43,1.48c.59,0,1-.29,1.37-.77l1.15,1.12c-.6.79-1.44,1.25-2.58,1.25-1.76,0-3.11-1.31-3.11-3.07Z"/>
  <path class="st0" d="M85.83,13.22h1.69v2.85c.26-.24.78-.48,1.38-.48,1.44,0,2.4.94,2.4,2.6v3.42h-1.7v-3.29c0-.62-.3-1.15-.98-1.15-.8,0-1.08.6-1.08,1.5v2.94h-1.7v-8.4Z"/>
  <path class="st0" d="M92.48,19.89c0-1.3,1.12-1.9,2.33-1.9.46,0,.88.08,1.16.17v-.1c0-.55-.36-.96-.97-.96-.46,0-.95.22-1.26.68l-1.08-1.03c.76-.9,1.62-1.16,2.46-1.16,1.43,0,2.58.85,2.58,2.35v3.67h-1.7v-.38c-.3.26-.8.52-1.48.52-1.27,0-2.04-.8-2.04-1.86ZM94.92,20.31c.41,0,.75-.14,1.04-.36v-.67c-.2-.05-.48-.11-.78-.11-.67,0-1,.26-1,.61,0,.31.3.53.73.53Z"/>
  <path class="st0" d="M99.15,15.74h1.68v.41c.32-.31.79-.55,1.39-.55,1.44,0,2.4.94,2.4,2.6v3.42h-1.7v-3.29c0-.62-.3-1.15-.98-1.15-.8,0-1.08.6-1.08,1.5v2.94h-1.7v-5.88Z"/>
  <path class="st0" d="M105.92,22.89l1.19-1.14c.28.4.79.76,1.47.76.9,0,1.49-.53,1.49-1.31v-.16c-.3.26-.78.44-1.44.44-1.63,0-2.88-1.08-2.88-2.94s1.37-2.95,2.88-2.95c.65,0,1.15.26,1.47.56v-.42h1.67v5.27c0,1.78-1.15,3.07-3.18,3.07-1.51,0-2.29-.71-2.67-1.19ZM108.78,19.94c.72,0,1.32-.55,1.32-1.39s-.6-1.4-1.32-1.4-1.29.55-1.29,1.4.59,1.39,1.29,1.39Z"/>
  <path class="st0" d="M112.95,18.71c0-1.77,1.19-3.12,2.89-3.12,1.89,0,2.83,1.52,2.83,3.01v.5h-3.99c.1.61.56,1.08,1.32,1.08.61,0,1.08-.23,1.44-.68l1.13,1.06c-.52.65-1.26,1.19-2.52,1.19-1.76,0-3.09-1.19-3.09-3.03ZM116.87,17.97c-.04-.49-.43-.88-1-.88-.63,0-1.01.4-1.12.88h2.11Z"/>
  <path class="st0" d="M119.62,20.72c0-.58.44-1.03,1.02-1.03s1.04.46,1.04,1.03-.47,1.03-1.04,1.03-1.02-.46-1.02-1.03Z"/>
</svg>