<?xml version="1.0" encoding="UTF-8"?>
<svg id="Layer_1" xmlns="http://www.w3.org/2000/svg" version="1.1" viewBox="0 0 50 50">
  <!-- Generator: Adobe Illustrator 30.1.0, SVG Export Plug-In . SVG Version: 2.1.1 Build 136)  -->
  <defs>
    <style>
      .st0 {
        fill: #fff;
      }

      .st1 {
        fill: #0d393b;
      }
    </style>
  </defs>
  <rect class="st1" width="50" height="50"/>
  <g>
    <path class="st0" d="M9.81,18.6h3.9v1.11h-2.7v1.22h2.51v1.1h-2.51v2.23h-1.2v-5.65Z"/>
    <path class="st0" d="M15.2,18.51c.37,0,.67.3.67.67s-.3.66-.67.66-.66-.3-.66-.66.29-.67.66-.67ZM14.63,20.3h1.15v3.96h-1.15v-3.96Z"/>
    <path class="st0" d="M16.84,20.3h1.13v.27c.22-.21.53-.37.94-.37.97,0,1.61.63,1.61,1.75v2.3h-1.15v-2.21c0-.42-.2-.77-.66-.77-.54,0-.73.4-.73,1.01v1.98h-1.15v-3.96Z"/>
    <path class="st0" d="M21.28,22.28c0-1.25.89-2.07,1.98-2.07.45,0,.8.17,1,.35v-1.95h1.16v5.65h-1.15v-.28c-.21.2-.57.37-1.02.37-1.09,0-1.98-.79-1.98-2.07ZM23.37,23.31c.52,0,.9-.42.9-1.03s-.38-1.03-.9-1.03-.92.42-.92,1.03.4,1.03.92,1.03Z"/>
    <path class="st0" d="M28.47,22.28c0-1.19.9-2.07,2.09-2.07s2.09.89,2.09,2.07-.9,2.07-2.09,2.07-2.09-.88-2.09-2.07ZM30.56,23.28c.53,0,.92-.42.92-1s-.39-1-.92-1-.92.42-.92,1,.39,1,.92,1Z"/>
    <path class="st0" d="M33.41,22.6v-2.3h1.15v2.25c0,.43.19.73.61.73.5,0,.68-.35.68-.96v-2.03h1.15v3.96h-1.13v-.27c-.24.25-.61.36-.98.36-.92,0-1.48-.62-1.48-1.74Z"/>
    <path class="st0" d="M38.17,22.86v-1.5h-.52v-1.06h.52v-1.11h1.15v1.11h.87v1.06h-.87v1.36c0,.4.19.48.52.48h.34v1.05c-.13,0-.4.02-.62.02-.94,0-1.38-.5-1.38-1.41Z"/>
    <path class="st0" d="M13.71,27.28h1.13v.27c.22-.21.55-.37.95-.37.44,0,.83.17,1.1.48.27-.27.7-.48,1.19-.48,1.06,0,1.65.63,1.65,1.75v2.3h-1.15v-2.25c0-.43-.19-.73-.61-.73-.44,0-.69.33-.69.88v2.11h-1.15v-2.25c0-.43-.19-.73-.61-.73-.45,0-.69.35-.69.96v2.03h-1.15v-3.96Z"/>
    <path class="st0" d="M20.49,29.26c0-1.19.9-2.07,2.09-2.07s2.09.89,2.09,2.07-.9,2.07-2.09,2.07-2.09-.88-2.09-2.07ZM22.58,30.26c.53,0,.92-.42.92-1s-.39-1-.92-1-.92.42-.92,1,.39,1,.92,1Z"/>
    <path class="st0" d="M25.47,27.28h1.13v.35c.22-.26.58-.41.99-.41.14,0,.19,0,.31,0v1.11h-.18c-.64,0-1.1.4-1.1,1.24v1.66h-1.15v-3.96Z"/>
    <path class="st0" d="M28.17,29.29c0-1.2.8-2.1,1.95-2.1,1.28,0,1.91,1.03,1.91,2.03v.34h-2.69c.06.41.38.73.89.73.41,0,.73-.15.97-.46l.76.71c-.35.44-.85.8-1.7.8-1.19,0-2.08-.8-2.08-2.04ZM30.81,28.79c-.02-.33-.29-.59-.67-.59-.43,0-.68.27-.75.59h1.42Z"/>
    <polygon class="st0" points="37.65 29.21 37.02 28.59 37.02 28.59 35.37 26.94 34.74 27.56 36.4 29.21 34.74 30.87 35.37 31.49 37.02 29.84 37.02 29.84 37.65 29.21 37.65 29.21 37.65 29.21"/>
  </g>
</svg>