<?xml version="1.0" encoding="UTF-8"?>
<svg id="Layer_1" xmlns="http://www.w3.org/2000/svg" version="1.1" viewBox="0 0 93.43 69.79">
  <!-- Generator: Adobe Illustrator 30.1.0, SVG Export Plug-In . SVG Version: 2.1.1 Build 136)  -->
  <defs>
    <style>
      .st0 {
        fill: #fff;
      }
    </style>
  </defs>
  <path class="st0" d="M23.26,2.24h-3.01V.18h8.25v2.06h-3.01v8.44h-2.22V2.24Z"/>
  <path class="st0" d="M28.88,7.6V3.33h2.14v4.18c0,.79.36,1.37,1.12,1.37.93,0,1.26-.66,1.26-1.79v-3.76h2.15v7.35h-2.1v-.51c-.45.46-1.12.67-1.83.67-1.71,0-2.75-1.16-2.75-3.24Z"/>
  <path class="st0" d="M37.45,3.33h2.1v.66c.41-.48,1.08-.77,1.83-.77.25,0,.36,0,.57.02v2.05h-.33c-1.19,0-2.04.75-2.04,2.31v3.08h-2.13V3.33Z"/>
  <path class="st0" d="M43.22,3.33h2.1v.51c.41-.39.99-.69,1.74-.69,1.8,0,3,1.17,3,3.25v4.27h-2.13v-4.11c0-.78-.37-1.44-1.23-1.44-1,0-1.35.75-1.35,1.88v3.67h-2.13V3.33Z"/>
  <path class="st0" d="M53.02,0c.69,0,1.25.55,1.25,1.25s-.56,1.23-1.25,1.23-1.23-.55-1.23-1.23.54-1.25,1.23-1.25ZM51.95,3.33h2.13v7.35h-2.13V3.33Z"/>
  <path class="st0" d="M56.06,3.33h2.1v.51c.41-.39.99-.69,1.74-.69,1.8,0,3,1.17,3,3.25v4.27h-2.13v-4.11c0-.78-.37-1.44-1.23-1.44-1,0-1.35.75-1.35,1.88v3.67h-2.13V3.33Z"/>
  <path class="st0" d="M64.52,12.27l1.49-1.42c.34.5.99.95,1.84.95,1.12,0,1.86-.66,1.86-1.64v-.19c-.38.33-.97.55-1.8.55-2.04,0-3.6-1.35-3.6-3.67s1.71-3.69,3.6-3.69c.81,0,1.44.33,1.84.7v-.52h2.08v6.58c0,2.22-1.44,3.84-3.97,3.84-1.89,0-2.87-.89-3.34-1.49ZM68.11,8.58c.9,0,1.65-.69,1.65-1.74s-.75-1.75-1.65-1.75-1.62.69-1.62,1.75.74,1.74,1.62,1.74Z"/>
  <path class="st0" d="M0,22.98h2.1v.66c.41-.48,1.08-.77,1.83-.77.25,0,.36,0,.57.02v2.05h-.33c-1.19,0-2.04.75-2.04,2.31v3.08H0v-7.35Z"/>
  <path class="st0" d="M5.01,26.7c0-2.22,1.48-3.9,3.61-3.9,2.37,0,3.54,1.9,3.54,3.76v.63h-5c.12.76.71,1.35,1.65,1.35.76,0,1.35-.29,1.8-.85l1.41,1.32c-.65.81-1.58,1.49-3.15,1.49-2.21,0-3.87-1.49-3.87-3.79ZM9.91,25.77c-.04-.62-.54-1.09-1.25-1.09-.79,0-1.26.49-1.39,1.09h2.64Z"/>
  <path class="st0" d="M13.08,29.07l1.3-1.33c.74.72,1.44.97,2.1.97.43,0,.83-.19.83-.48,0-.23-.2-.35-.66-.46l-.98-.24c-1.63-.41-2.4-1.21-2.4-2.4,0-1.44,1.32-2.32,2.85-2.32,1.08,0,2.08.38,2.96,1.15l-1.3,1.38c-.45-.38-1.07-.72-1.74-.72-.42,0-.69.2-.69.43,0,.2.2.32.53.39l1.09.25c1.32.32,2.42.96,2.42,2.43,0,1.38-1.17,2.37-3.08,2.37-1.44,0-2.65-.71-3.22-1.42Z"/>
  <path class="st0" d="M20.83,22.98h2.1v.52c.39-.38,1.09-.7,1.92-.7,2.02,0,3.67,1.47,3.67,3.85s-1.65,3.84-3.67,3.84c-.84,0-1.51-.3-1.89-.63v3.38h-2.13v-10.26ZM24.64,28.57c.97,0,1.71-.78,1.71-1.92s-.74-1.92-1.71-1.92-1.71.78-1.71,1.92.74,1.92,1.71,1.92Z"/>
  <path class="st0" d="M29.58,26.65c0-2.21,1.68-3.85,3.88-3.85s3.88,1.65,3.88,3.85-1.68,3.84-3.88,3.84-3.88-1.63-3.88-3.84ZM33.46,28.51c.99,0,1.71-.78,1.71-1.86s-.72-1.86-1.71-1.86-1.71.78-1.71,1.86.72,1.86,1.71,1.86Z"/>
  <path class="st0" d="M38.82,22.98h2.1v.51c.41-.39.99-.69,1.74-.69,1.8,0,3,1.17,3,3.25v4.27h-2.13v-4.11c0-.78-.37-1.44-1.23-1.44-1,0-1.35.75-1.35,1.88v3.67h-2.13v-7.35Z"/>
  <path class="st0" d="M47.04,29.07l1.3-1.33c.74.72,1.44.97,2.1.97.43,0,.83-.19.83-.48,0-.23-.2-.35-.66-.46l-.98-.24c-1.63-.41-2.4-1.21-2.4-2.4,0-1.44,1.32-2.32,2.85-2.32,1.08,0,2.08.38,2.96,1.15l-1.3,1.38c-.45-.38-1.07-.72-1.74-.72-.42,0-.69.2-.69.43,0,.2.2.32.53.39l1.09.25c1.32.32,2.42.96,2.42,2.43,0,1.38-1.17,2.37-3.08,2.37-1.44,0-2.65-.71-3.22-1.42Z"/>
  <path class="st0" d="M55.93,19.65c.69,0,1.25.55,1.25,1.25s-.56,1.23-1.25,1.23-1.23-.55-1.23-1.23.54-1.25,1.23-1.25ZM54.87,22.98h2.13v7.35h-2.13v-7.35Z"/>
  <path class="st0" d="M61.11,29.8v.53h-2.13v-10.5h2.16v3.62c.38-.33,1.02-.64,1.86-.64,2.02,0,3.67,1.53,3.67,3.85s-1.65,3.84-3.67,3.84c-.83,0-1.5-.32-1.89-.69ZM62.79,28.57c.97,0,1.71-.78,1.71-1.92s-.74-1.92-1.71-1.92-1.68.78-1.68,1.92.71,1.92,1.68,1.92Z"/>
  <path class="st0" d="M69.28,19.65c.69,0,1.25.55,1.25,1.25s-.56,1.23-1.25,1.23-1.23-.55-1.23-1.23.54-1.25,1.23-1.25ZM68.22,22.98h2.13v7.35h-2.13v-7.35Z"/>
  <path class="st0" d="M72.33,19.83h2.13v10.5h-2.13v-10.5Z"/>
  <path class="st0" d="M77.49,19.65c.69,0,1.25.55,1.25,1.25s-.56,1.23-1.25,1.23-1.23-.55-1.23-1.23.54-1.25,1.23-1.25ZM76.42,22.98h2.13v7.35h-2.13v-7.35Z"/>
  <path class="st0" d="M80.8,27.73v-2.79h-.96v-1.96h.96v-2.05h2.13v2.05h1.62v1.96h-1.62v2.54c0,.73.34.9.96.9h.63v1.95c-.24.01-.73.03-1.15.03-1.74,0-2.57-.93-2.57-2.62Z"/>
  <path class="st0" d="M88.29,30.33l-2.87-7.35h2.37l1.65,4.54,1.71-4.54h2.28l-4.09,10.26h-2.25l1.2-2.91Z"/>
  <path class="st0" d="M11.04,39.29c.69,0,1.25.55,1.25,1.25s-.56,1.23-1.25,1.23-1.23-.55-1.23-1.23.54-1.25,1.23-1.25ZM9.97,42.62h2.13v7.35h-2.13v-7.35Z"/>
  <path class="st0" d="M14.08,42.62h2.1v.51c.41-.39.99-.69,1.74-.69,1.8,0,3,1.17,3,3.25v4.27h-2.13v-4.11c0-.78-.38-1.44-1.23-1.44-1,0-1.35.75-1.35,1.88v3.67h-2.13v-7.35Z"/>
  <path class="st0" d="M23.01,47.38v-2.79h-.96v-1.96h.96v-2.05h2.13v2.05h1.62v1.96h-1.62v2.54c0,.73.34.9.96.9h.63v1.95c-.24.01-.73.03-1.15.03-1.74,0-2.57-.93-2.57-2.62Z"/>
  <path class="st0" d="M27.78,46.3c0-2.21,1.68-3.85,3.88-3.85s3.88,1.65,3.88,3.85-1.68,3.84-3.88,3.84-3.88-1.63-3.88-3.84ZM31.66,48.16c.99,0,1.71-.78,1.71-1.86s-.72-1.86-1.71-1.86-1.71.78-1.71,1.86.72,1.86,1.71,1.86Z"/>
  <path class="st0" d="M40.87,47.81c0-1.62,1.4-2.37,2.91-2.37.57,0,1.09.11,1.46.21v-.12c0-.69-.45-1.2-1.21-1.2-.57,0-1.19.27-1.58.85l-1.35-1.29c.94-1.12,2.02-1.45,3.07-1.45,1.79,0,3.23,1.06,3.23,2.94v4.59h-2.13v-.48c-.38.33-1,.64-1.85.64-1.59,0-2.55-1-2.55-2.33ZM43.93,48.34c.51,0,.94-.18,1.3-.45v-.84c-.25-.06-.6-.13-.97-.13-.84,0-1.25.33-1.25.76,0,.39.38.66.92.66Z"/>
  <path class="st0" d="M48.79,46.3c0-2.21,1.68-3.85,3.88-3.85,1.39,0,2.29.6,3.07,1.47l-1.44,1.39c-.42-.51-.88-.85-1.56-.85-1,0-1.78.76-1.78,1.84s.78,1.84,1.78,1.84c.74,0,1.25-.36,1.71-.96l1.44,1.4c-.75.99-1.8,1.56-3.22,1.56-2.21,0-3.88-1.63-3.88-3.84Z"/>
  <path class="st0" d="M57.54,47.38v-2.79h-.96v-1.96h.96v-2.05h2.13v2.05h1.62v1.96h-1.62v2.54c0,.73.34.9.96.9h.63v1.95c-.24.01-.73.03-1.15.03-1.74,0-2.57-.93-2.57-2.62Z"/>
  <path class="st0" d="M64.05,39.29c.69,0,1.25.55,1.25,1.25s-.56,1.23-1.25,1.23-1.23-.55-1.23-1.23.54-1.25,1.23-1.25ZM62.98,42.62h2.13v7.35h-2.13v-7.35Z"/>
  <path class="st0" d="M66.67,46.3c0-2.21,1.68-3.85,3.88-3.85s3.88,1.65,3.88,3.85-1.68,3.84-3.88,3.84-3.88-1.63-3.88-3.84ZM70.56,48.16c.99,0,1.71-.78,1.71-1.86s-.72-1.86-1.71-1.86-1.71.78-1.71,1.86.72,1.86,1.71,1.86Z"/>
  <path class="st0" d="M75.91,42.62h2.1v.51c.41-.39.99-.69,1.74-.69,1.8,0,3,1.17,3,3.25v4.27h-2.13v-4.11c0-.78-.37-1.44-1.23-1.44-1,0-1.35.75-1.35,1.88v3.67h-2.13v-7.35Z"/>
  <path class="st0" d="M13.24,67.03v-2.79h-.96v-1.96h.96v-2.05h2.13v2.05h1.62v1.96h-1.62v2.54c0,.73.34.9.96.9h.63v1.95c-.24.01-.73.03-1.15.03-1.74,0-2.57-.93-2.57-2.62Z"/>
  <path class="st0" d="M18.61,59.12h2.11v3.57c.33-.3.98-.6,1.73-.6,1.8,0,3,1.17,3,3.25v4.27h-2.13v-4.11c0-.78-.38-1.44-1.23-1.44-1,0-1.35.75-1.35,1.88v3.67h-2.13v-10.5Z"/>
  <path class="st0" d="M26.92,67.46c0-1.62,1.4-2.37,2.91-2.37.57,0,1.09.11,1.46.21v-.12c0-.69-.45-1.2-1.21-1.2-.57,0-1.19.27-1.58.85l-1.35-1.29c.94-1.12,2.02-1.45,3.07-1.45,1.79,0,3.23,1.06,3.23,2.94v4.59h-2.13v-.48c-.38.33-1,.65-1.85.65-1.59,0-2.55-1-2.55-2.33ZM29.98,67.99c.51,0,.94-.18,1.3-.45v-.84c-.25-.06-.6-.13-.97-.13-.84,0-1.25.33-1.25.76,0,.39.38.66.92.66Z"/>
  <path class="st0" d="M35.53,67.03v-2.79h-.96v-1.96h.96v-2.05h2.13v2.05h1.62v1.96h-1.62v2.54c0,.73.34.9.96.9h.63v1.95c-.24.01-.73.03-1.15.03-1.74,0-2.57-.93-2.57-2.62Z"/>
  <path class="st0" d="M45.1,59.12h2.13v10.5h-2.13v-10.5Z"/>
  <path class="st0" d="M48.77,67.46c0-1.62,1.4-2.37,2.91-2.37.57,0,1.09.11,1.46.21v-.12c0-.69-.45-1.2-1.21-1.2-.57,0-1.19.27-1.58.85l-1.35-1.29c.94-1.12,2.02-1.45,3.07-1.45,1.79,0,3.23,1.06,3.23,2.94v4.59h-2.13v-.48c-.38.33-1,.65-1.85.65-1.59,0-2.55-1-2.55-2.33ZM51.83,67.99c.51,0,.94-.18,1.3-.45v-.84c-.25-.06-.6-.13-.97-.13-.84,0-1.25.33-1.25.76,0,.39.38.66.92.66Z"/>
  <path class="st0" d="M56.68,68.36l1.3-1.33c.74.72,1.44.97,2.1.97.43,0,.83-.19.83-.48,0-.23-.2-.35-.66-.46l-.98-.24c-1.63-.41-2.4-1.21-2.4-2.4,0-1.44,1.32-2.32,2.85-2.32,1.08,0,2.08.38,2.96,1.15l-1.3,1.38c-.45-.38-1.07-.72-1.74-.72-.42,0-.69.2-.69.44,0,.19.2.31.53.39l1.09.25c1.32.31,2.42.96,2.42,2.43,0,1.38-1.17,2.37-3.08,2.37-1.44,0-2.65-.71-3.22-1.42Z"/>
  <path class="st0" d="M64.61,67.03v-2.79h-.96v-1.96h.96v-2.05h2.13v2.05h1.62v1.96h-1.62v2.54c0,.73.34.9.96.9h.63v1.95c-.24.01-.73.03-1.15.03-1.74,0-2.57-.93-2.57-2.62Z"/>
  <path class="st0" d="M69.55,68.36l1.3-1.33c.74.72,1.44.97,2.1.97.43,0,.83-.19.83-.48,0-.23-.2-.35-.66-.46l-.98-.24c-1.63-.41-2.4-1.21-2.4-2.4,0-1.44,1.32-2.32,2.85-2.32,1.08,0,2.08.38,2.96,1.15l-1.3,1.38c-.45-.38-1.07-.72-1.74-.72-.42,0-.69.2-.69.44,0,.19.2.31.53.39l1.09.25c1.32.31,2.42.96,2.42,2.43,0,1.38-1.17,2.37-3.08,2.37-1.44,0-2.65-.71-3.22-1.42Z"/>
  <path class="st0" d="M77.17,68.5c0-.72.56-1.29,1.28-1.29s1.3.57,1.3,1.29-.58,1.29-1.3,1.29-1.28-.57-1.28-1.29Z"/>
</svg>