<?xml version="1.0" encoding="UTF-8"?>
<svg id="Layer_1" xmlns="http://www.w3.org/2000/svg" version="1.1" viewBox="0 0 91.83 69.61">
  <!-- Generator: Adobe Illustrator 30.1.0, SVG Export Plug-In . SVG Version: 2.1.1 Build 136)  -->
  <defs>
    <style>
      .st0 {
        fill: #fff;
      }
    </style>
  </defs>
  <path class="st0" d="M26.2,0h2.38l1.62,6.72,1.7-6.72h2.38l1.69,6.72,1.62-6.72h2.38l-2.8,10.5h-2.28l-1.8-6.93-1.82,6.93h-2.28L26.2,0Z"/>
  <path class="st0" d="M41.23,0h2.11v3.57c.33-.3.98-.6,1.73-.6,1.8,0,3,1.17,3,3.25v4.27h-2.13v-4.11c0-.78-.37-1.44-1.23-1.44-1,0-1.35.75-1.35,1.88v3.67h-2.13V0Z"/>
  <path class="st0" d="M49.47,6.87c0-2.22,1.48-3.9,3.61-3.9,2.37,0,3.54,1.9,3.54,3.76v.63h-5c.12.76.71,1.35,1.65,1.35.76,0,1.35-.29,1.8-.85l1.41,1.32c-.65.81-1.58,1.49-3.15,1.49-2.21,0-3.87-1.49-3.87-3.79ZM54.37,5.94c-.04-.62-.54-1.09-1.25-1.09-.79,0-1.26.49-1.39,1.09h2.64Z"/>
  <path class="st0" d="M58.08,3.15h2.1v.51c.41-.39.99-.69,1.74-.69,1.8,0,3,1.17,3,3.25v4.27h-2.13v-4.11c0-.78-.38-1.44-1.23-1.44-1,0-1.35.75-1.35,1.88v3.67h-2.13V3.15Z"/>
  <path class="st0" d="M12.63,26.47c0-2.21,1.68-3.85,3.88-3.85,1.39,0,2.29.6,3.07,1.47l-1.44,1.39c-.42-.51-.88-.85-1.56-.85-1,0-1.78.76-1.78,1.84s.78,1.84,1.78,1.84c.74,0,1.25-.36,1.71-.96l1.44,1.4c-.75.99-1.8,1.56-3.22,1.56-2.21,0-3.88-1.63-3.88-3.84Z"/>
  <path class="st0" d="M20.38,26.47c0-2.21,1.68-3.85,3.88-3.85s3.88,1.65,3.88,3.85-1.68,3.84-3.88,3.84-3.88-1.63-3.88-3.84ZM24.27,28.33c.99,0,1.71-.78,1.71-1.86s-.72-1.86-1.71-1.86-1.71.78-1.71,1.86.72,1.86,1.71,1.86Z"/>
  <path class="st0" d="M29.62,22.8h2.1v.66c.41-.48,1.08-.77,1.83-.77.25,0,.36,0,.57.02v2.05h-.33c-1.19,0-2.04.75-2.04,2.31v3.08h-2.13v-7.35Z"/>
  <path class="st0" d="M35.4,22.8h2.1v.52c.39-.38,1.09-.7,1.92-.7,2.02,0,3.67,1.47,3.67,3.85s-1.65,3.84-3.67,3.84c-.84,0-1.51-.3-1.89-.63v3.38h-2.13v-10.26ZM39.21,28.39c.97,0,1.71-.78,1.71-1.92s-.74-1.92-1.71-1.92-1.71.78-1.71,1.92.74,1.92,1.71,1.92Z"/>
  <path class="st0" d="M44.14,26.47c0-2.21,1.68-3.85,3.88-3.85s3.88,1.65,3.88,3.85-1.68,3.84-3.88,3.84-3.88-1.63-3.88-3.84ZM48.03,28.33c.99,0,1.71-.78,1.71-1.86s-.72-1.86-1.71-1.86-1.71.78-1.71,1.86.72,1.86,1.71,1.86Z"/>
  <path class="st0" d="M53.38,22.8h2.1v.66c.41-.48,1.08-.77,1.83-.77.25,0,.36,0,.57.02v2.05h-.33c-1.19,0-2.04.75-2.04,2.31v3.08h-2.13v-7.35Z"/>
  <path class="st0" d="M58.54,27.99c0-1.62,1.4-2.37,2.91-2.37.57,0,1.09.11,1.46.21v-.12c0-.69-.45-1.2-1.21-1.2-.57,0-1.19.27-1.58.85l-1.35-1.29c.94-1.12,2.02-1.45,3.07-1.45,1.79,0,3.23,1.06,3.23,2.94v4.59h-2.13v-.48c-.38.33-1,.64-1.85.64-1.59,0-2.55-1-2.55-2.33ZM61.6,28.51c.51,0,.94-.18,1.3-.45v-.84c-.25-.06-.6-.13-.97-.13-.84,0-1.25.33-1.25.76,0,.39.38.66.92.66Z"/>
  <path class="st0" d="M67.15,27.55v-2.79h-.96v-1.96h.96v-2.05h2.13v2.05h1.62v1.96h-1.62v2.54c0,.73.34.9.96.9h.63v1.95c-.24.01-.73.03-1.15.03-1.74,0-2.57-.93-2.57-2.62Z"/>
  <path class="st0" d="M71.92,26.52c0-2.22,1.48-3.9,3.61-3.9,2.37,0,3.54,1.9,3.54,3.76v.63h-5c.12.76.71,1.35,1.65,1.35.76,0,1.35-.29,1.8-.85l1.41,1.32c-.65.81-1.58,1.49-3.15,1.49-2.21,0-3.87-1.49-3.87-3.79ZM76.83,25.59c-.04-.62-.54-1.09-1.25-1.09-.79,0-1.26.49-1.39,1.09h2.64Z"/>
  <path class="st0" d="M.99,51.38l1.49-1.42c.34.5.99.95,1.84.95,1.12,0,1.86-.66,1.86-1.64v-.19c-.38.33-.97.55-1.8.55-2.04,0-3.6-1.35-3.6-3.67s1.71-3.69,3.6-3.69c.81,0,1.44.33,1.84.7v-.52h2.08v6.58c0,2.22-1.44,3.84-3.97,3.84-1.89,0-2.87-.89-3.34-1.49ZM4.57,47.69c.9,0,1.65-.69,1.65-1.74s-.75-1.75-1.65-1.75-1.62.69-1.62,1.75.74,1.74,1.62,1.74Z"/>
  <path class="st0" d="M11.34,39.11c.69,0,1.25.55,1.25,1.25s-.56,1.23-1.25,1.23-1.23-.55-1.23-1.23.54-1.25,1.23-1.25ZM10.27,42.44h2.13v7.35h-2.13v-7.35Z"/>
  <path class="st0" d="M13.53,42.44h2.26l1.44,4.54,1.44-4.54h2.27l-2.61,7.35h-2.19l-2.61-7.35Z"/>
  <path class="st0" d="M23.11,39.11c.69,0,1.25.55,1.25,1.25s-.56,1.23-1.25,1.23-1.23-.55-1.23-1.23.54-1.25,1.23-1.25ZM22.05,42.44h2.13v7.35h-2.13v-7.35Z"/>
  <path class="st0" d="M26.16,42.44h2.1v.51c.41-.39.99-.69,1.74-.69,1.8,0,3,1.17,3,3.25v4.27h-2.13v-4.11c0-.78-.38-1.44-1.23-1.44-1,0-1.35.75-1.35,1.88v3.67h-2.13v-7.35Z"/>
  <path class="st0" d="M34.62,51.38l1.49-1.42c.34.5.99.95,1.84.95,1.12,0,1.86-.66,1.86-1.64v-.19c-.38.33-.97.55-1.8.55-2.04,0-3.6-1.35-3.6-3.67s1.71-3.69,3.6-3.69c.81,0,1.44.33,1.84.7v-.52h2.08v6.58c0,2.22-1.44,3.84-3.97,3.84-1.89,0-2.87-.89-3.34-1.49ZM38.2,47.69c.9,0,1.65-.69,1.65-1.74s-.75-1.75-1.65-1.75-1.62.69-1.62,1.75.74,1.74,1.62,1.74Z"/>
  <path class="st0" d="M48.03,42.44h2.1v.51c.41-.39,1.02-.69,1.77-.69.83,0,1.54.31,2.04.88.51-.51,1.3-.88,2.21-.88,1.96,0,3.08,1.17,3.08,3.25v4.27h-2.13v-4.18c0-.79-.36-1.37-1.12-1.37-.81,0-1.28.62-1.28,1.63v3.92h-2.13v-4.18c0-.79-.36-1.37-1.12-1.37-.84,0-1.27.66-1.27,1.79v3.76h-2.13v-7.35Z"/>
  <path class="st0" d="M60.61,46.12c0-2.21,1.68-3.85,3.88-3.85s3.88,1.65,3.88,3.85-1.68,3.84-3.88,3.84-3.88-1.63-3.88-3.84ZM64.5,47.98c.99,0,1.71-.78,1.71-1.86s-.72-1.86-1.71-1.86-1.71.78-1.71,1.86.72,1.86,1.71,1.86Z"/>
  <path class="st0" d="M68.77,42.44h2.26l1.44,4.54,1.44-4.54h2.27l-2.61,7.35h-2.19l-2.61-7.35Z"/>
  <path class="st0" d="M76.57,46.16c0-2.22,1.48-3.9,3.61-3.9,2.37,0,3.54,1.9,3.54,3.76v.63h-5c.12.76.71,1.35,1.65,1.35.76,0,1.35-.29,1.8-.85l1.41,1.32c-.65.81-1.58,1.49-3.15,1.49-2.21,0-3.87-1.49-3.87-3.79ZM81.48,45.23c-.04-.62-.54-1.09-1.25-1.09-.79,0-1.26.49-1.39,1.09h2.64Z"/>
  <path class="st0" d="M84.64,48.53l1.3-1.33c.74.72,1.44.97,2.1.97.43,0,.83-.19.83-.48,0-.23-.2-.35-.66-.46l-.98-.24c-1.63-.41-2.4-1.21-2.4-2.4,0-1.44,1.32-2.32,2.85-2.32,1.08,0,2.08.38,2.96,1.15l-1.3,1.38c-.45-.38-1.07-.72-1.74-.72-.42,0-.69.2-.69.43,0,.2.2.32.53.39l1.09.25c1.32.32,2.42.96,2.42,2.43,0,1.38-1.17,2.37-3.08,2.37-1.44,0-2.65-.71-3.22-1.42Z"/>
  <path class="st0" d="M0,58.94h2.13v10.5H0v-10.5Z"/>
  <path class="st0" d="M5.16,58.76c.69,0,1.25.55,1.25,1.25s-.56,1.23-1.25,1.23-1.23-.55-1.23-1.23.54-1.25,1.23-1.25ZM4.09,62.09h2.13v7.35h-2.13v-7.35Z"/>
  <path class="st0" d="M7.35,62.09h2.26l1.44,4.54,1.44-4.54h2.27l-2.61,7.35h-2.19l-2.61-7.35Z"/>
  <path class="st0" d="M15.15,65.81c0-2.22,1.48-3.9,3.61-3.9,2.37,0,3.54,1.9,3.54,3.76v.63h-5c.12.76.71,1.35,1.65,1.35.76,0,1.35-.29,1.8-.85l1.41,1.32c-.65.81-1.58,1.49-3.15,1.49-2.21,0-3.87-1.49-3.87-3.79ZM20.05,64.88c-.04-.62-.54-1.09-1.25-1.09-.79,0-1.26.49-1.39,1.09h2.64Z"/>
  <path class="st0" d="M23.22,68.18l1.3-1.33c.74.72,1.44.97,2.1.97.43,0,.83-.19.83-.48,0-.23-.2-.35-.66-.46l-.98-.24c-1.63-.41-2.4-1.21-2.4-2.4,0-1.44,1.32-2.32,2.85-2.32,1.08,0,2.08.38,2.96,1.15l-1.3,1.38c-.45-.38-1.07-.72-1.74-.72-.42,0-.69.2-.69.44,0,.19.2.31.53.39l1.09.25c1.32.31,2.42.96,2.42,2.43,0,1.38-1.17,2.37-3.08,2.37-1.44,0-2.65-.71-3.22-1.42Z"/>
  <path class="st0" d="M35.53,64.06h-.96v-1.96h.96v-.36c0-2.04,1.33-2.97,3.24-2.97.25,0,.46.01.55.01v2.01h-.36c-.96,0-1.31.33-1.31,1.06v.24h1.61v1.96h-1.61v5.38h-2.13v-5.38Z"/>
  <path class="st0" d="M39.9,65.77c0-2.21,1.68-3.85,3.88-3.85s3.88,1.65,3.88,3.85-1.68,3.84-3.88,3.84-3.88-1.63-3.88-3.84ZM43.78,67.63c.99,0,1.71-.78,1.71-1.86s-.72-1.86-1.71-1.86-1.71.78-1.71,1.86.72,1.86,1.71,1.86Z"/>
  <path class="st0" d="M49.14,62.09h2.1v.66c.41-.48,1.08-.77,1.83-.77.25,0,.36,0,.57.02v2.05h-.33c-1.19,0-2.04.75-2.04,2.31v3.08h-2.13v-7.35Z"/>
  <path class="st0" d="M54.34,62.09h2.28l1.05,4.39,1.2-4.39h2.37l1.21,4.39,1.04-4.39h2.28l-2.07,7.35h-2.33l-1.32-4.53-1.32,4.53h-2.33l-2.07-7.35Z"/>
  <path class="st0" d="M66.45,67.28c0-1.62,1.4-2.37,2.91-2.37.57,0,1.09.11,1.46.21v-.12c0-.69-.45-1.2-1.21-1.2-.57,0-1.19.27-1.58.85l-1.35-1.29c.94-1.12,2.02-1.45,3.07-1.45,1.79,0,3.23,1.06,3.23,2.94v4.59h-2.13v-.48c-.38.33-1,.65-1.85.65-1.59,0-2.55-1-2.55-2.33ZM69.51,67.81c.51,0,.94-.18,1.3-.45v-.84c-.25-.06-.6-.13-.97-.13-.84,0-1.25.33-1.25.76,0,.39.38.66.92.66Z"/>
  <path class="st0" d="M74.79,62.09h2.1v.66c.41-.48,1.08-.77,1.83-.77.25,0,.36,0,.57.02v2.05h-.33c-1.19,0-2.04.75-2.04,2.31v3.08h-2.13v-7.35Z"/>
  <path class="st0" d="M79.8,65.77c0-2.33,1.65-3.85,3.67-3.85.84,0,1.48.31,1.86.64v-3.62h2.16v10.5h-2.13v-.53c-.39.38-1.07.69-1.89.69-2.03,0-3.67-1.47-3.67-3.84ZM83.68,67.69c.97,0,1.68-.78,1.68-1.92s-.71-1.92-1.68-1.92-1.71.78-1.71,1.92.73,1.92,1.71,1.92Z"/>
  <path class="st0" d="M89.25,68.32c0-.72.56-1.29,1.28-1.29s1.3.57,1.3,1.29-.58,1.29-1.3,1.29-1.28-.57-1.28-1.29Z"/>
</svg>