<?xml version="1.0" encoding="UTF-8"?>
<svg id="Layer_1" xmlns="http://www.w3.org/2000/svg" version="1.1" viewBox="0 0 500 500">
  <!-- Generator: Adobe Illustrator 30.1.0, SVG Export Plug-In . SVG Version: 2.1.1 Build 136)  -->
  <defs>
    <style>
      .st0 {
        fill: #fff;
      }
    </style>
  </defs>
  <g>
    <path class="st0" d="M75.84,122.37c57.71-1.92,36.23,1.6,71.82,38.16l292.74-92.66-15.71-51.3c-2.24-7.7-11.54-13.79-20.84-11.22L62.69,112.11c-9.94,3.21-17.31,10.9-13.79,21.8l9.62,29.18c5.13-9.62-4.81-39.76,16.99-40.72h.32ZM369.22,25.86l54.83,37.51-41.04,12.83-54.51-37.51,40.72-12.83ZM289.06,50.87l53.55,37.51c-13.79,5.45-25.65,9.3-39.44,13.47l-55.15-38.16s41.04-12.83,41.04-12.83ZM208.58,75.87l55.15,37.83-39.44,13.79-55.79-38.48,40.08-12.83v-.32Z"/>
    <path class="st0" d="M168.5,199.32l-54.19-70.22-37.19-.64c-4.17,0-10.26,4.49-10.26,9.3v81.76c0,5.77,4.81,10.58,10.58,10.58h81.44c13.79,0,10.58-21.8,9.62-30.46v-.32ZM87.7,219.2c-5.45,0-9.94-4.49-9.94-9.94s4.49-9.94,9.94-9.94,9.94,4.49,9.94,9.94-4.49,9.94-9.94,9.94ZM87.7,159.56c-5.45,0-9.94-4.49-9.94-9.94s4.49-9.94,9.94-9.94,9.94,4.49,9.94,9.94-4.49,9.94-9.94,9.94ZM147.98,219.2c-5.45,0-9.94-4.49-9.94-9.94s4.49-9.94,9.94-9.94,9.94,4.49,9.94,9.94-4.49,9.94-9.94,9.94Z"/>
  </g>
  <path class="st0" d="M451.62,176.55H158.56c13.15,18.28,19.88,19.56,15.71,46.17-1.28,7.37-8.98,13.15-15.71,13.15h-82.4c-4.49,0-10.9-5.77-13.79-8.66-3.21,8.34,0,16.35,8.66,19.24v211.94c0,20.2,16.35,36.87,36.87,36.87h301.71c20.2,0,36.87-16.35,36.87-36.87v-201.04c0-12.18,4.49-12.83,4.81-18.28.96-20.84.64-40.08.64-62.84l-.32.32ZM225.25,185.53l42.96.64-39.76,50.98c-13.79,0-26.61,0-42.64-.32l39.44-50.98v-.32ZM264.37,446.2c-45.53,0-82.08-36.87-82.08-82.08s36.87-82.08,82.08-82.08,82.08,36.87,82.08,82.08-36.87,82.08-82.08,82.08ZM312.78,236.83h-42.96l39.76-51.62h42.64l-39.44,51.62ZM396.79,236.83h-43.29l40.08-51.62h42.64l-39.44,51.62Z"/>
  <path class="st0" d="M299.64,403.24c-4.81,3.85-10.58,6.41-16.67,7.7v-75.99h4.81c8.34,0,14.75-2.24,19.56-6.41s7.37-10.26,8.02-17.96h-1.28c-1.92,2.89-3.85,5.45-6.09,6.73-2.24,1.28-4.81,1.92-8.02,1.92-4.17,0-10.9-.96-19.88-3.21-4.81-.96-8.34-1.92-10.9-2.24-5.45-.96-9.94-1.92-13.47-2.24-3.53-.32-6.41-.64-8.98-.64-12.5,0-22.12,2.89-29.5,8.34-7.37,5.45-11.86,13.79-13.47,24.37h1.6c3.53-5.45,7.7-9.62,12.18-12.18,4.49-2.57,9.62-3.85,15.71-3.85h4.17c1.6,0,3.21.32,5.13.64-10.26,6.73-17.96,14.43-23.09,23.09-5.13,8.34-7.7,17.31-7.7,26.93,0,6.73,1.28,13.15,3.53,18.6,2.24,5.77,5.77,10.58,10.58,15.07,5.45,4.81,11.22,8.66,17.96,11.22,6.73,2.57,14.11,3.85,22.12,3.85,12.5,0,23.09-3.53,31.42-10.26,8.34-6.73,14.11-16.35,16.99-28.86l-1.92-.64c-3.85,6.41-8.34,11.54-13.15,15.39l.32.64ZM243.85,400.99c-4.81-4.17-8.34-8.66-10.58-14.11-2.24-5.13-3.53-11.22-3.53-17.63,0-8.02,1.28-15.07,4.17-21.16,2.89-6.41,7.37-12.5,13.15-18.28h2.24v57.39c0,3.53-.32,6.09-1.28,8.02s-2.24,3.85-4.49,5.45l.32.32ZM278.8,411.9h-4.49c-5.45,0-10.58-.64-15.07-2.24-4.49-1.28-8.34-3.53-11.54-6.09,7.7-6.09,12.83-11.54,15.71-16.67,2.89-5.13,4.17-11.22,4.17-18.92v-35.27l11.22,2.24s0,76.95,0,76.95Z"/>
</svg>