<?xml version="1.0" encoding="UTF-8"?>
<svg id="Layer_1" xmlns="http://www.w3.org/2000/svg" version="1.1" viewBox="0 0 125.37 30.22">
  <!-- Generator: Adobe Illustrator 30.1.0, SVG Export Plug-In . SVG Version: 2.1.1 Build 136)  -->
  <defs>
    <style>
      .st0 {
        fill: #024cb7;
      }

      .st1 {
        fill: #016fba;
      }
    </style>
  </defs>
  <path class="st1" d="M27.82.43v.9c0,1.13-.23,2.01-.67,2.64s-1.08,1.12-1.9,1.46c-.64.26-1.43.47-2.42.63s-1.92.23-2.81.23v19.12c1.74-.61,3.19-1.43,4.35-2.49.84-.79,1.72-1.92,2.65-3.36l.28.12c-.45,2.83-1.7,5.19-3.74,7.08-2.04,1.9-4.51,2.85-7.38,2.85-4.01,0-7.34-1.13-9.99-3.39s-3.98-5.08-3.98-8.47c0-2.37.69-4.77,2.06-7.17,1.51-2.64,3.44-4.61,5.82-5.91-.5-.08-.91-.14-1.23-.16s-.79-.04-1.43-.04h-.52c-.84,0-1.95.39-3.32,1.17-1.37.78-2.39,1.67-3.05,2.67h-.23c-.16-.76.12-1.81.83-3.12C2.92,1.9,5.82.27,9.86.27c1.14,0,3.63.38,7.47,1.14,3.84.76,5.98,1.14,6.4,1.14.95,0,1.67-.13,2.18-.4.61-.34,1.12-.98,1.55-1.9l.35.16h0ZM11.79,18.83V5.02l-.59-.16c-1.58.95-2.78,2.39-3.6,4.31-.71,1.66-1.07,3.41-1.07,5.22,0,2.56.59,4.74,1.78,6.53.4.58.99,1.23,1.78,1.94.18-.16.33-.29.44-.4.32-.34.54-.67.65-.99.12-.32.2-.58.25-.79.24-.74.35-1.36.35-1.86h0ZM18.91,25.52V6.29l-2.69-.59v8.47c0,1.43-.13,2.63-.4,3.62-.26.99-.74,1.85-1.43,2.59-.55.61-1.22,1.23-1.98,1.86-.55.45-1.1.9-1.63,1.34.58.4,1.19.74,1.82,1.03s1.31.52,2.02.67c.26.06.64.11,1.13.16.49.06,1.02.08,1.6.08h1.55,0Z"/>
  <g>
    <path class="st1" d="M22.65,8.32h-.69v-.59l3.86-.28v2.38c.52-1.53,1.22-2.29,2.11-2.29h.16c.61,0,1.06.38,1.35,1.15.2.52.31,1.12.31,1.78,0,.54-.11,1.05-.31,1.51-.29.61-.7.92-1.24.92-1.02-.17-1.54-1.06-1.54-2.67l.11-1.05s-.06-.08-.08-.09l-.06-.05c-.2,0-.38.47-.55,1.42-.07.39-.11,1.05-.11,1.97v5.92h.95v.55h-4.96v-.55h.69v-10.02h0Z"/>
    <path class="st1" d="M31.02,8.33h-.69v-.6c.63,0,1.37-.04,2.21-.12l1.8-.16v10.89h.74v.55h-4.75v-.55h.69s0-10.01,0-10.01ZM30.88,4.08c0-1.42.61-2.13,1.82-2.13s1.74.77,1.74,2.31c0,.59-.11,1.09-.34,1.51-.3.56-.75.83-1.35.83-1.27,0-1.9-.77-1.9-2.3l.03-.23h0Z"/>
    <path class="st1" d="M39.46,9.13c.54-1.13,1.17-1.7,1.87-1.7.13,0,.23,0,.28.02.92.11,1.6.93,2.05,2.47.3,1.05.46,2.16.46,3.32,0,2.86-.57,4.74-1.7,5.61-.16.13-.31.21-.46.27-.2.08-.43.12-.71.12-.95,0-1.6-.72-1.96-2.17v2.17c-.59-.08-1.49-.19-2.7-.32-.33-.01-.67-.02-1.04-.02v-.55h.71V3.1h-.71v-.53c.82,0,2.12-.13,3.9-.39,0,0,0,6.95,0,6.95ZM40.69,10.6c0-1.15-.17-1.72-.5-1.72-.49,0-.74.77-.74,2.3v4.19c0,1.65.24,2.47.71,2.47.27,0,.43-.39.49-1.16.03-.35.04-.8.04-1.36v-4.71Z"/>
    <path class="st1" d="M45.45,8.33h-.68v-.6c.93,0,2.24-.09,3.94-.28v8.87c0,.64.04,1.02.12,1.12.06.13.18.19.37.19.27,0,.47-.25.61-.74.13-.46.19-1.02.19-1.69v-6.88h-.73v-.6c.45,0,1.1-.04,1.97-.12s1.53-.12,1.97-.12v10.84h.76v.55c-.73,0-1.41.04-2.05.12l-1.8.23v-2.22c-.63,1.48-1.45,2.22-2.45,2.22-.16,0-.27,0-.34-.02-.69-.06-1.17-.49-1.46-1.29-.29-.79-.43-1.82-.43-3.05v-6.54h0Z"/>
    <path class="st1" d="M55.29,18.34v-10.01h-.68v-.6c.37,0,.83-.02,1.35-.07,1.21-.11,2.07-.16,2.59-.16v2.18c.56-1.48,1.33-2.23,2.32-2.23.2,0,.37,0,.47.02.13.04.29.1.47.19.83.41,1.24,1.74,1.24,3.99v6.69h.73v.55h-4.4v-.55h.46v-7.86c0-.9-.16-1.35-.46-1.35h-.06c-.24,0-.43.21-.55.64-.16.52-.23,1.02-.23,1.48v7.1h.5v.55h-4.44v-.55h.68-.01Z"/>
  </g>
  <g>
    <path class="st0" d="M77.19,7.81h-1.01c-1.21-3.31-2.97-4.96-5.26-4.96-.68,0-1.29.12-1.83.35-.54.23-.96.54-1.27.92-.31.39-.47.81-.47,1.28,0,.55.18,1.02.54,1.4.36.38.83.69,1.41.94.57.25,1.18.44,1.82.6.64.15,1.23.28,1.77.39.95.18,1.81.47,2.6.87s1.42.93,1.9,1.59c.48.67.71,1.49.71,2.47,0,1.06-.26,2-.78,2.83s-1.23,1.48-2.12,1.95-1.9.71-3.02.71c-.85,0-1.76-.14-2.71-.41s-1.79-.74-2.54-1.4l-1.32,1.61h-.85l-.09-6.18h1.08c.56,1.73,1.33,3.04,2.3,3.92s2.31,1.32,4.01,1.32c.64,0,1.22-.12,1.76-.36s.97-.57,1.29-1.01.49-.95.49-1.54c0-.78-.23-1.37-.7-1.78-.47-.41-1.07-.71-1.83-.91-.75-.2-1.56-.38-2.41-.53-1.8-.31-3.2-.86-4.2-1.64-1-.78-1.5-1.88-1.5-3.29,0-1.6.53-2.86,1.58-3.77,1.06-.91,2.53-1.37,4.42-1.37.78,0,1.52.15,2.22.45s1.38.68,2.04,1.15l.95-1.42h.79l.19,5.82Z"/>
    <path class="st0" d="M81.11,19.14c-.76,0-1.36-.16-1.81-.47-.45-.31-.77-.73-.96-1.25s-.29-1.08-.29-1.69v-6.26h-1.86v-1c1.1-.13,1.96-.57,2.59-1.32.63-.75,1.04-1.85,1.23-3.29h1v4.41h3.45v1.19h-3.45v6.48c0,.6.14,1.02.43,1.27.28.25.59.37.92.37.5,0,.89-.29,1.18-.86s.43-1.28.43-2.13h1.01c0,.83-.12,1.59-.37,2.28-.25.69-.66,1.24-1.22,1.65-.56.41-1.32.61-2.27.61Z"/>
    <path class="st0" d="M88.04,19.06c-.88,0-1.57-.2-2.08-.59s-.87-.93-1.08-1.62c-.21-.69-.32-1.48-.32-2.36v-3.03c0-.6-.02-1.06-.06-1.38-.04-.31-.14-.53-.31-.64-.17-.11-.46-.17-.86-.17h-.44v-.99l4.63-.17v6.51c0,.85.19,1.49.56,1.91s.85.63,1.42.63c.44,0,.87-.14,1.3-.42s.74-.61.93-.99c.15-.29.25-.62.31-.96s.08-.8.08-1.36v-1.97c0-.59-.02-1.04-.06-1.36-.04-.31-.14-.53-.3-.65-.16-.12-.42-.18-.79-.18h-.69v-.99l4.79-.17v7.89c0,.58.09.97.27,1.18.18.21.52.32,1.01.32h.64v1.04l-4.29.26c-.08-.33-.16-.7-.22-1.12-.06-.42-.12-.82-.15-1.2-.67.83-1.35,1.47-2.04,1.91s-1.44.66-2.26.66Z"/>
    <path class="st0" d="M100.44,19.14c-.98,0-1.84-.23-2.59-.7-.75-.47-1.34-1.11-1.76-1.94-.42-.83-.64-1.79-.64-2.88s.23-2.1.69-2.98c.46-.88,1.09-1.58,1.89-2.09.8-.51,1.7-.77,2.69-.77.73,0,1.37.18,1.91.55.54.37,1.02.83,1.44,1.4v-4.14c0-.64-.04-1.11-.11-1.41-.07-.3-.21-.49-.42-.57-.21-.08-.52-.12-.95-.12h-.75v-.99l5.19-.34v14.05c0,.59.08.95.24,1.09s.54.2,1.12.2h.61v1.04l-4.62.26c-.05-.27-.1-.58-.15-.92s-.08-.68-.11-1c-.46.65-1,1.19-1.6,1.62-.61.43-1.3.65-2.1.65ZM101.56,9.31c-.79,0-1.42.36-1.89,1.07s-.7,1.78-.7,3.19.23,2.35.68,2.98c.45.63,1.07.95,1.87.95.4,0,.8-.16,1.21-.48.4-.32.74-.78,1.01-1.38.27-.61.4-1.33.4-2.19,0-1.27-.24-2.28-.71-3.02s-1.1-1.12-1.87-1.12Z"/>
    <path class="st0" d="M107.36,18.8v-1.04c.54,0,.93-.02,1.19-.07s.41-.12.48-.22c.09-.14.14-.33.14-.59v-5.48c0-.89-.1-1.47-.29-1.73-.2-.26-.59-.39-1.18-.39h-.33v-.99l4.77-.17v8.66c0,.27.04.48.12.62.08.14.25.24.5.29.25.05.64.08,1.16.08v1.04h-6.55ZM110.29,5.94c-.51,0-.94-.18-1.3-.54-.36-.36-.54-.79-.54-1.3s.18-.95.54-1.3c.36-.36.8-.53,1.3-.53s.94.18,1.3.53c.36.36.54.79.54,1.3s-.18.94-.54,1.3-.79.54-1.3.54Z"/>
    <path class="st0" d="M118.25,7.78c1.17,0,2.2.23,3.11.7.91.47,1.63,1.13,2.16,1.99.53.86.79,1.87.79,3.05s-.26,2.17-.79,3.01c-.53.84-1.24,1.48-2.16,1.93-.91.45-1.95.68-3.11.68s-2.21-.23-3.13-.68c-.92-.45-1.64-1.1-2.17-1.95-.53-.84-.79-1.85-.79-3.01s.26-2.19.79-3.04c.53-.85,1.25-1.51,2.17-1.98s1.96-.7,3.13-.7ZM118.25,8.84c-.85,0-1.48.36-1.91,1.09-.43.73-.64,1.91-.64,3.55s.21,2.81.64,3.53c.43.72,1.06,1.08,1.91,1.08s1.49-.36,1.92-1.07.65-1.88.65-3.52-.22-2.83-.65-3.56-1.07-1.1-1.92-1.1Z"/>
  </g>
</svg>