<?xml version="1.0" encoding="UTF-8"?>
<svg id="Layer_1" xmlns="http://www.w3.org/2000/svg" version="1.1" viewBox="0 0 122.37 29.04">
  <!-- Generator: Adobe Illustrator 30.1.0, SVG Export Plug-In . SVG Version: 2.1.1 Build 136)  -->
  <defs>
    <style>
      .st0 {
        fill: #282828;
      }
    </style>
  </defs>
  <g>
    <path class="st0" d="M72.59,7.55h-.99c-1.19-3.24-2.91-4.86-5.16-4.86-.67,0-1.27.11-1.79.34-.53.23-.94.53-1.25.91-.3.38-.46.8-.46,1.26,0,.54.18,1,.53,1.37.36.37.82.68,1.38.92.56.24,1.16.44,1.78.58s1.2.27,1.74.38c.93.18,1.78.46,2.55.85.77.39,1.4.91,1.86,1.56.47.65.7,1.46.7,2.43,0,1.04-.26,1.96-.77,2.78-.51.81-1.21,1.45-2.08,1.91-.88.46-1.86.7-2.96.7-.84,0-1.72-.13-2.65-.4-.93-.27-1.76-.72-2.49-1.37l-1.29,1.58h-.83l-.09-6.06h1.06c.55,1.7,1.3,2.98,2.25,3.84.95.86,2.26,1.29,3.93,1.29.62,0,1.2-.12,1.72-.35s.95-.56,1.27-.99c.32-.43.48-.93.48-1.51,0-.76-.23-1.35-.68-1.75-.46-.4-1.05-.7-1.79-.9-.74-.2-1.53-.37-2.36-.52-1.77-.3-3.14-.84-4.12-1.61-.98-.77-1.47-1.84-1.47-3.22,0-1.57.52-2.81,1.55-3.7,1.03-.89,2.48-1.34,4.33-1.34.76,0,1.49.15,2.18.44s1.36.67,2,1.13l.93-1.39h.78l.19,5.71Z"/>
    <path class="st0" d="M76.44,18.66c-.74,0-1.33-.15-1.77-.46-.44-.31-.76-.72-.95-1.22-.19-.51-.28-1.06-.28-1.65v-6.14h-1.83v-.98c1.08-.13,1.92-.56,2.54-1.29.62-.73,1.02-1.81,1.21-3.23h.98v4.33h3.38v1.17h-3.38v6.35c0,.59.14,1,.42,1.24.28.24.58.36.91.36.49,0,.88-.28,1.16-.84.28-.56.42-1.26.42-2.09h.99c0,.82-.12,1.56-.37,2.24s-.64,1.21-1.2,1.61-1.3.6-2.23.6Z"/>
    <path class="st0" d="M98.62,18.66c-.96,0-1.8-.23-2.54-.68s-1.31-1.09-1.73-1.9c-.42-.81-.62-1.75-.62-2.82s.23-2.06.68-2.92c.45-.86,1.07-1.55,1.85-2.05.78-.5,1.66-.76,2.64-.76.72,0,1.34.18,1.87.54.53.36,1,.82,1.41,1.37v-4.06c0-.63-.04-1.09-.11-1.39-.07-.29-.21-.48-.41-.56s-.51-.12-.93-.12h-.73v-.97l5.08-.33v13.78c0,.58.08.93.24,1.07.16.13.52.2,1.1.2h.6v1.02l-4.53.26c-.05-.27-.1-.57-.14-.91s-.08-.67-.11-.98c-.45.64-.98,1.17-1.57,1.59-.59.42-1.28.63-2.06.63ZM99.71,9.02c-.78,0-1.4.35-1.85,1.05-.46.7-.68,1.75-.68,3.13s.22,2.3.66,2.92c.44.62,1.05.93,1.83.93.39,0,.79-.16,1.19-.47s.73-.76.99-1.36c.26-.59.4-1.31.4-2.15,0-1.25-.23-2.23-.7-2.97-.46-.73-1.07-1.1-1.83-1.1Z"/>
    <path class="st0" d="M105.4,18.33v-1.02c.53,0,.91-.02,1.16-.07.25-.05.41-.12.47-.22.09-.13.13-.33.13-.58v-5.37c0-.88-.1-1.44-.29-1.7-.19-.26-.58-.38-1.16-.38h-.32v-.97l4.67-.17v8.49c0,.27.04.47.12.61.08.14.24.23.49.28s.63.08,1.14.08v1.02h-6.42ZM108.27,5.72c-.5,0-.92-.18-1.28-.53-.36-.35-.53-.78-.53-1.27s.18-.93.53-1.28.78-.52,1.28-.52.92.17,1.27.52c.35.35.53.78.53,1.28s-.18.92-.53,1.27-.78.53-1.27.53Z"/>
    <path class="st0" d="M116.08,7.52c1.14,0,2.16.23,3.05.69s1.6,1.11,2.11,1.95c.52.84.77,1.84.77,2.99s-.26,2.12-.77,2.95c-.52.82-1.22,1.46-2.11,1.9-.89.44-1.91.66-3.05.66s-2.16-.22-3.07-.67c-.9-.44-1.61-1.08-2.13-1.91s-.77-1.81-.77-2.95.26-2.14.77-2.98,1.22-1.49,2.13-1.94c.9-.46,1.92-.68,3.07-.68ZM116.08,8.56c-.83,0-1.46.36-1.88,1.07s-.63,1.87-.63,3.48.21,2.76.63,3.46c.42.7,1.04,1.06,1.88,1.06s1.46-.35,1.88-1.05c.42-.7.63-1.85.63-3.45s-.21-2.77-.63-3.49c-.42-.72-1.05-1.08-1.88-1.08Z"/>
  </g>
  <path class="st0" d="M26.37.37v.86c0,1.07-.21,1.9-.64,2.5s-1.02,1.06-1.8,1.38c-.6.25-1.36.45-2.29.6s-1.82.22-2.67.22v18.12c1.65-.58,3.03-1.36,4.13-2.36.8-.75,1.63-1.82,2.51-3.19l.26.11c-.42,2.68-1.61,4.92-3.54,6.71-1.94,1.8-4.27,2.7-6.99,2.7-3.8,0-6.96-1.07-9.47-3.21s-3.77-4.82-3.77-8.02c0-2.25.65-4.52,1.95-6.8,1.43-2.5,3.26-4.37,5.51-5.6-.48-.08-.86-.13-1.17-.15s-.75-.03-1.35-.03h-.49c-.8,0-1.85.37-3.15,1.11-1.3.74-2.26,1.58-2.89,2.53h-.21c-.15-.72.11-1.71.79-2.96C2.78,1.77,5.53.23,9.36.23c1.08,0,3.44.36,7.08,1.08,3.64.72,5.67,1.08,6.07,1.08.9,0,1.59-.13,2.06-.38.58-.32,1.06-.92,1.47-1.8l.33.15h0ZM11.18,17.81V4.73l-.56-.15c-1.5.9-2.64,2.26-3.42,4.09-.68,1.57-1.01,3.23-1.01,4.95,0,2.42.56,4.49,1.69,6.19.38.55.94,1.17,1.69,1.84.17-.15.31-.27.42-.38.3-.32.51-.64.62-.94.11-.3.19-.55.24-.75.23-.7.33-1.29.33-1.76h0ZM17.93,24.16V5.93l-2.55-.56v8.02c0,1.35-.13,2.49-.38,3.43-.25.94-.7,1.75-1.35,2.46-.52.58-1.15,1.17-1.88,1.76-.52.42-1.04.85-1.54,1.27.55.38,1.13.7,1.73.98s1.24.49,1.92.64c.25.05.61.1,1.07.15.46.05.97.07,1.52.07h1.47,0Z"/>
  <g>
    <path class="st0" d="M21.48,7.86h-.65v-.56l3.66-.27v2.26c.49-1.45,1.15-2.17,2-2.17h.15c.58,0,1,.36,1.28,1.09.19.5.29,1.06.29,1.69,0,.52-.1,1-.29,1.43-.27.58-.66.87-1.18.87-.97-.16-1.46-1-1.46-2.53l.1-1s-.06-.07-.07-.09l-.05-.05c-.19,0-.36.45-.52,1.35-.07.37-.1.99-.1,1.87v5.61h.9v.52h-4.7v-.52h.65V7.86h0Z"/>
    <path class="st0" d="M29.41,7.86h-.65v-.57c.6,0,1.3-.04,2.1-.11l1.7-.15v10.32h.7v.52h-4.5v-.52h.65s0-9.48,0-9.48ZM29.28,3.84c0-1.35.58-2.02,1.73-2.02s1.65.73,1.65,2.19c0,.56-.11,1.03-.32,1.43-.28.53-.71.79-1.28.79-1.2,0-1.8-.73-1.8-2.18l.03-.21h0Z"/>
    <path class="st0" d="M37.4,8.62c.51-1.07,1.11-1.61,1.77-1.61.13,0,.22,0,.27.02.87.1,1.51.88,1.94,2.34.29.99.44,2.04.44,3.15,0,2.71-.54,4.49-1.61,5.32-.15.12-.29.2-.44.25-.19.07-.41.11-.67.11-.9,0-1.52-.68-1.86-2.06v2.06c-.56-.08-1.41-.18-2.56-.3-.31-.01-.64-.02-.98-.02v-.52h.68V2.91h-.68v-.5c.78,0,2.01-.12,3.7-.37,0,0,0,6.58,0,6.58ZM38.58,10.01c0-1.09-.16-1.63-.48-1.63-.47,0-.7.73-.7,2.18v3.97c0,1.56.23,2.34.68,2.34.25,0,.41-.37.46-1.1.03-.33.04-.76.04-1.29v-4.47Z"/>
    <path class="st0" d="M43.08,7.86h-.64v-.57c.88,0,2.12-.09,3.73-.27v8.41c0,.61.04.96.11,1.06.05.12.17.18.35.18.25,0,.45-.23.58-.7.12-.44.18-.97.18-1.6v-6.52h-.69v-.57c.42,0,1.04-.04,1.87-.11s1.45-.11,1.87-.11v10.27h.72v.52c-.69,0-1.34.04-1.94.11l-1.7.21v-2.1c-.6,1.4-1.37,2.1-2.32,2.1-.15,0-.25,0-.32-.02-.65-.06-1.11-.46-1.38-1.22-.27-.75-.41-1.72-.41-2.89v-6.2h0Z"/>
    <path class="st0" d="M52.41,17.35V7.87h-.64v-.57c.35,0,.78-.02,1.28-.07,1.15-.1,1.96-.15,2.46-.15v2.07c.53-1.41,1.26-2.11,2.2-2.11.19,0,.35,0,.45.02.13.04.27.09.45.18.78.39,1.18,1.65,1.18,3.78v6.34h.69v.52h-4.17v-.52h.44v-7.45c0-.85-.15-1.28-.44-1.28h-.05c-.23,0-.41.2-.52.6-.15.5-.21.96-.21,1.4v6.72h.48v.52h-4.21v-.52h.64-.01Z"/>
  </g>
  <g>
    <path class="st0" d="M81.15,6.58c1.87-.07,1.17.06,2.33,1.24l9.49-3-.51-1.67c-.08-.25-.37-.45-.67-.36l-11.06,3.46c-.32.1-.56.36-.45.7l.32.94c.17-.31-.15-1.29.55-1.32ZM90.66,3.45l1.77,1.22-1.33.42-1.76-1.22,1.32-.42ZM88.07,4.26l1.74,1.22c-.44.18-.83.3-1.28.44l-1.79-1.24,1.33-.42ZM85.46,5.07l1.79,1.23-1.28.44-1.81-1.25,1.3-.42Z"/>
    <path class="st0" d="M84.16,9.08l-1.76-2.28-1.2-.02c-.14,0-.33.15-.33.3v2.65c0,.19.15.34.34.34h2.64c.45,0,.34-.7.31-.98ZM81.55,9.72c-.18,0-.32-.15-.32-.32s.15-.32.32-.32.32.15.32.32-.15.32-.32.32ZM81.55,7.79c-.18,0-.32-.15-.32-.32s.15-.32.32-.32.32.15.32.32-.15.32-.32.32ZM83.49,9.72c-.18,0-.32-.15-.32-.32s.15-.32.32-.32.32.15.32.32-.15.32-.32.32Z"/>
  </g>
  <path class="st0" d="M93.34,8.33h-9.49c.43.59.65.63.51,1.5-.04.24-.29.43-.51.43h-2.67c-.15,0-.36-.19-.45-.28-.1.27.01.53.28.63v.35s0,5.66,0,5.66c0,1.13.92,2.05,2.05,2.05h8.05c1.13,0,2.05-.92,2.05-2.05v-5.66c0-.4.15-.42.15-.59.03-.67.02-1.29.02-2.04ZM88.73,8.62h1.38s-1.28,1.67-1.28,1.67h-1.39s1.29-1.67,1.29-1.67ZM86,8.62l1.39.02-1.28,1.65c-.45,0-.86,0-1.38-.01l1.28-1.65ZM88.73,17.29h-3.45c-1.52,0-2.76-1.24-2.76-2.76h8.97c0,1.52-1.24,2.76-2.76,2.76ZM91.56,10.29h-1.4s1.29-1.67,1.29-1.67h1.38s-1.28,1.67-1.28,1.67Z"/>
  <rect class="st0" x="73.18" y="19.49" width="7.07" height="1.3" rx=".65" ry=".65"/>
  <rect class="st0" x="112.62" y="5.25" width="7.07" height="1.3" rx=".65" ry=".65"/>
</svg>