<?xml version="1.0" encoding="UTF-8"?>
<svg id="Layer_1" xmlns="http://www.w3.org/2000/svg" version="1.1" viewBox="0 0 130.9 60.57">
  <!-- Generator: Adobe Illustrator 30.1.0, SVG Export Plug-In . SVG Version: 2.1.1 Build 136)  -->
  <defs>
    <style>
      .st0 {
        fill: #fff;
      }
    </style>
  </defs>
  <g>
    <path class="st0" d="M57.01.74v1.84c0,2.3-.46,4.08-1.37,5.36s-2.2,2.27-3.87,2.96c-1.29.53-2.92.96-4.91,1.28s-3.89.47-5.72.47v38.87c3.53-1.24,6.49-2.92,8.85-5.07,1.71-1.61,3.51-3.89,5.39-6.84l.56.24c-.91,5.75-3.45,10.55-7.6,14.4-4.15,3.87-9.17,5.79-15,5.79-8.15,0-14.93-2.3-20.32-6.88-5.39-4.58-8.09-10.33-8.09-17.21,0-4.83,1.39-9.7,4.18-14.58,3.06-5.37,7-9.37,11.83-12.01-1.02-.17-1.85-.29-2.5-.33s-1.61-.07-2.9-.07h-1.05c-1.71,0-3.97.79-6.75,2.37-2.79,1.58-4.86,3.39-6.19,5.43h-.46c-.33-1.55.24-3.68,1.7-6.35C6.39,3.74,12.3.42,20.52.42c2.31,0,7.37.78,15.19,2.33,7.82,1.55,12.16,2.33,13.02,2.33,1.94,0,3.41-.27,4.43-.8,1.24-.69,2.28-1.98,3.15-3.87l.72.32h0ZM24.43,38.15V10.08l-1.21-.32c-3.22,1.93-5.66,4.86-7.33,8.76-1.45,3.38-2.17,6.93-2.17,10.62,0,5.2,1.21,9.63,3.62,13.28.8,1.18,2.01,2.5,3.62,3.94.37-.32.68-.59.89-.8.65-.69,1.09-1.37,1.32-2.01.24-.65.42-1.18.52-1.61.49-1.49.72-2.76.72-3.78h.01ZM38.91,51.76V12.65l-5.47-1.21v17.21c0,2.9-.27,5.35-.8,7.36-.53,2.01-1.51,3.76-2.9,5.27-1.12,1.24-2.47,2.5-4.02,3.78-1.12.91-2.23,1.82-3.3,2.73,1.18.8,2.41,1.49,3.71,2.1s2.66,1.05,4.11,1.37c.53.11,1.31.22,2.3.32.99.11,2.08.16,3.26.16h3.15v.03Z"/>
    <g>
      <path class="st0" d="M46.51,16.79h-1.39v-1.19l7.85-.57v4.84c1.05-3.1,2.47-4.66,4.28-4.66h.33c1.25,0,2.16.78,2.74,2.34.42,1.06.63,2.27.63,3.62,0,1.11-.22,2.14-.63,3.07-.59,1.24-1.42,1.87-2.53,1.87-2.08-.34-3.13-2.16-3.13-5.43l.22-2.14c-.07-.1-.13-.16-.16-.19l-.11-.1c-.4,0-.78.96-1.12,2.89-.14.79-.22,2.13-.22,4.01v12.03h1.94v1.12h-10.09v-1.12h1.39v-20.37h0Z"/>
      <path class="st0" d="M63.52,16.8h-1.39v-1.22c1.28,0,2.79-.09,4.5-.24l3.65-.33v22.14h1.51v1.12h-9.66v-1.12h1.39s0-20.35,0-20.35ZM63.25,8.16c0-2.89,1.24-4.34,3.71-4.34s3.53,1.57,3.53,4.7c0,1.19-.23,2.21-.69,3.07-.6,1.14-1.52,1.7-2.74,1.7-2.57,0-3.87-1.57-3.87-4.68l.06-.46h0Z"/>
      <path class="st0" d="M80.68,18.42c1.09-2.3,2.37-3.46,3.81-3.46.27,0,.47.01.57.04,1.87.22,3.25,1.9,4.17,5.01.62,2.13.93,4.38.93,6.75,0,5.82-1.15,9.63-3.45,11.41-.32.26-.63.43-.93.55-.4.16-.88.24-1.44.24-1.93,0-3.26-1.47-3.99-4.41v4.41c-1.21-.17-3.03-.39-5.49-.65-.66-.03-1.37-.04-2.11-.04v-1.12h1.45V6.17h-1.45v-1.08c1.67,0,4.31-.26,7.93-.79,0,0,0,14.12,0,14.12ZM83.19,21.41c0-2.34-.34-3.51-1.02-3.51-1.01,0-1.51,1.57-1.51,4.67v8.52c0,3.35.49,5.03,1.45,5.03.55,0,.88-.79.99-2.36.06-.7.09-1.62.09-2.77v-9.58Z"/>
      <path class="st0" d="M92.86,16.8h-1.38v-1.22c1.88,0,4.55-.19,8-.57v18.03c0,1.31.09,2.07.24,2.28.11.26.36.39.76.39.55,0,.96-.5,1.24-1.49.26-.93.39-2.08.39-3.43v-13.98h-1.48v-1.22c.91,0,2.24-.09,4.01-.24s3.1-.24,4.01-.24v22.04h1.54v1.12c-1.48,0-2.87.09-4.17.24l-3.65.46v-4.51c-1.28,3-2.95,4.51-4.99,4.51-.32,0-.55-.01-.69-.04-1.39-.13-2.37-.99-2.96-2.62-.59-1.61-.88-3.69-.88-6.21v-13.29h0Z"/>
      <path class="st0" d="M112.86,37.16v-20.35h-1.38v-1.22c.76,0,1.68-.04,2.74-.14,2.46-.22,4.21-.33,5.27-.33v4.44c1.14-3.02,2.7-4.53,4.71-4.53.42,0,.75.01.96.04.27.09.59.2.96.39,1.68.83,2.53,3.53,2.53,8.12v13.59h1.48v1.12h-8.94v-1.12h.93v-15.98c0-1.82-.32-2.74-.93-2.74h-.11c-.49,0-.88.43-1.12,1.29-.32,1.06-.46,2.07-.46,3v14.43h1.02v1.12h-9.02v-1.12h1.38-.03Z"/>
    </g>
  </g>
  <polygon class="st0" points="57.7 50.83 56.14 50.83 60.72 40.65 62.27 40.65 57.7 50.83"/>
  <g>
    <path class="st0" d="M68.57,47.62c0-.13-.02-.25-.06-.36-.04-.11-.11-.2-.21-.29s-.25-.18-.44-.27c-.19-.09-.44-.19-.75-.28-.35-.11-.68-.24-1-.39-.32-.14-.6-.31-.84-.51s-.44-.42-.58-.68c-.14-.26-.21-.56-.21-.9s.07-.63.22-.9.35-.5.62-.69c.26-.19.58-.34.93-.44.36-.1.75-.15,1.18-.15.57,0,1.07.1,1.51.3.43.2.77.48,1.02.85.24.36.36.78.36,1.26h-1.74c0-.21-.04-.4-.13-.56s-.22-.29-.4-.38c-.18-.09-.4-.14-.66-.14s-.47.04-.65.12c-.17.08-.3.18-.39.31-.09.13-.13.28-.13.43,0,.12.03.24.1.34.07.1.16.2.29.28.13.09.28.17.47.25s.4.15.64.23c.42.13.79.28,1.11.44.32.16.6.34.82.55.22.2.39.43.5.69.11.26.17.55.17.87,0,.35-.07.65-.2.92-.13.27-.33.5-.58.68-.25.19-.55.33-.9.43-.35.1-.74.15-1.17.15-.39,0-.78-.05-1.16-.15-.38-.1-.73-.26-1.04-.47s-.56-.48-.74-.81-.28-.72-.28-1.17h1.75c0,.24.03.44.1.6s.17.29.29.39c.13.1.28.17.46.21s.39.06.61.06c.26,0,.47-.04.64-.11.16-.07.28-.17.36-.3.08-.13.12-.27.12-.43Z"/>
    <path class="st0" d="M80.64,41.87v1.36h-6.44v-1.36h6.44ZM78.26,41.87v7.81h-1.74v-7.81h1.74Z"/>
    <path class="st0" d="M89.06,41.87h1.75v5.12c0,.61-.13,1.12-.38,1.53s-.61.73-1.06.94c-.45.21-.98.32-1.58.32s-1.13-.11-1.58-.32-.81-.52-1.07-.94c-.26-.41-.39-.93-.39-1.53v-5.12h1.75v5.12c0,.34.05.61.15.82.1.21.25.37.44.47s.43.15.7.15.5-.05.69-.15c.19-.1.34-.25.43-.47.1-.21.15-.49.15-.82v-5.12Z"/>
    <path class="st0" d="M97.1,41.87v7.81h-1.75v-7.81h1.75ZM97.82,49.68h-1.72v-1.35h1.72c.39,0,.72-.09.99-.27.27-.18.47-.45.61-.8.14-.36.21-.79.21-1.3v-.36c0-.39-.04-.73-.12-1.02s-.19-.54-.35-.74-.34-.35-.57-.45c-.23-.1-.49-.15-.78-.15h-1.74v-1.36h1.74c.53,0,1.01.09,1.45.27.44.18.82.43,1.14.77.32.33.57.73.74,1.18.18.45.26.96.26,1.52v.35c0,.55-.09,1.06-.26,1.51-.18.46-.42.85-.74,1.18-.32.33-.7.58-1.13.76-.44.18-.92.27-1.44.27Z"/>
    <path class="st0" d="M107.62,41.87v7.81h-1.74v-7.81h1.74Z"/>
  </g>
  <path class="st0" d="M112.93,45.74c0-1.96,1.38-3.6,3.21-4.01-.29-.07-.59-.11-.9-.11-2.27,0-4.12,1.84-4.12,4.12s1.84,4.12,4.12,4.12c.31,0,.61-.04.9-.11-1.84-.41-3.21-2.05-3.21-4.01Z"/>
  <polygon class="st0" points="116.1 43.91 116.1 47.57 119.05 45.82 116.1 43.91"/>
</svg>