<?xml version="1.0" encoding="UTF-8"?>
<svg id="Layer_1" xmlns="http://www.w3.org/2000/svg" version="1.1" viewBox="0 0 127.53 59.47">
  <!-- Generator: Adobe Illustrator 30.1.0, SVG Export Plug-In . SVG Version: 2.1.1 Build 136)  -->
  <defs>
    <style>
      .st0 {
        fill: #db1f26;
      }

      .st1 {
        fill: #024cb7;
      }

      .st2 {
        fill: #fff;
      }

      .st3 {
        fill: #016fba;
      }
    </style>
  </defs>
  <path class="st3" d="M55.42,1v1.79c0,2.24-.45,3.98-1.33,5.22s-2.14,2.21-3.77,2.88c-1.26.52-2.84.94-4.79,1.25s-3.8.46-5.57.46v37.88c3.44-1.2,6.33-2.84,8.63-4.94,1.67-1.57,3.42-3.8,5.25-6.67l.55.24c-.88,5.6-3.36,10.28-7.41,14.03-4.05,3.77-8.93,5.64-14.62,5.64-7.94,0-14.55-2.24-19.8-6.71s-7.88-10.07-7.88-16.78c0-4.71,1.36-9.45,4.08-14.21,2.98-5.24,6.82-9.13,11.53-11.71-.99-.17-1.81-.28-2.44-.32s-1.57-.07-2.83-.07h-1.02c-1.67,0-3.87.77-6.58,2.31-2.72,1.54-4.73,3.3-6.04,5.29h-.45c-.32-1.51.24-3.58,1.65-6.19C6.09,3.93,11.84.69,19.85.69c2.25,0,7.18.76,14.8,2.27,7.62,1.51,11.85,2.27,12.69,2.27,1.89,0,3.32-.27,4.31-.78,1.2-.67,2.23-1.93,3.07-3.77l.7.31h0ZM23.66,37.47V10.1l-1.18-.31c-3.14,1.88-5.52,4.73-7.14,8.54-1.41,3.29-2.11,6.75-2.11,10.35,0,5.07,1.18,9.38,3.53,12.94.78,1.15,1.96,2.44,3.53,3.84.36-.31.66-.57.87-.78.63-.67,1.06-1.33,1.29-1.96.24-.63.41-1.15.5-1.57.48-1.46.7-2.69.7-3.68h.01ZM37.78,50.73V12.61l-5.34-1.18v16.78c0,2.83-.27,5.21-.78,7.17-.52,1.96-1.47,3.67-2.83,5.14-1.09,1.2-2.41,2.44-3.92,3.68-1.09.88-2.17,1.78-3.22,2.66,1.15.78,2.35,1.46,3.61,2.04s2.59,1.02,4.01,1.33c.52.11,1.27.21,2.24.31.97.11,2.03.15,3.18.15h3.07v.03Z"/>
  <g>
    <path class="st3" d="M45.18,16.64h-1.36v-1.16l7.65-.56v4.72c1.02-3.02,2.41-4.54,4.17-4.54h.32c1.22,0,2.1.76,2.67,2.28.41,1.04.62,2.21.62,3.53,0,1.08-.21,2.09-.62,3-.57,1.2-1.39,1.82-2.46,1.82-2.03-.34-3.05-2.1-3.05-5.29l.21-2.09c-.07-.1-.13-.15-.15-.18l-.11-.1c-.39,0-.76.94-1.09,2.81-.14.77-.21,2.07-.21,3.91v11.72h1.89v1.09h-9.83v-1.09h1.36v-19.86h0Z"/>
    <path class="st3" d="M61.76,16.66h-1.36v-1.19c1.25,0,2.72-.08,4.38-.24l3.56-.32v21.58h1.47v1.09h-9.41v-1.09h1.36s0-19.83,0-19.83ZM61.5,8.24c0-2.81,1.2-4.23,3.61-4.23s3.44,1.53,3.44,4.58c0,1.16-.22,2.16-.67,3-.59,1.11-1.48,1.65-2.67,1.65-2.51,0-3.77-1.53-3.77-4.57l.06-.45h0Z"/>
    <path class="st3" d="M78.48,18.24c1.06-2.24,2.31-3.37,3.71-3.37.27,0,.46.01.56.04,1.82.21,3.16,1.85,4.06,4.89.6,2.07.91,4.27.91,6.58,0,5.67-1.12,9.38-3.36,11.12-.31.25-.62.42-.91.53-.39.15-.85.24-1.4.24-1.88,0-3.18-1.43-3.89-4.3v4.3c-1.18-.17-2.95-.38-5.35-.63-.64-.03-1.33-.04-2.06-.04v-1.09h1.41V6.29h-1.41v-1.05c1.62,0,4.2-.25,7.73-.77,0,0,0,13.77,0,13.77ZM80.94,21.15c0-2.28-.34-3.42-.99-3.42-.98,0-1.47,1.53-1.47,4.55v8.3c0,3.26.48,4.9,1.41,4.9.53,0,.85-.77.97-2.3.06-.69.08-1.58.08-2.7v-9.34Z"/>
    <path class="st3" d="M90.36,16.66h-1.34v-1.19c1.83,0,4.44-.18,7.8-.56v17.57c0,1.27.08,2.02.24,2.23.11.25.35.38.74.38.53,0,.94-.49,1.2-1.46.25-.91.38-2.03.38-3.35v-13.63h-1.44v-1.19c.88,0,2.18-.08,3.91-.24s3.02-.24,3.91-.24v21.48h1.5v1.09c-1.44,0-2.8.08-4.06.24l-3.56.45v-4.4c-1.25,2.93-2.87,4.4-4.86,4.4-.31,0-.53-.01-.67-.04-1.36-.13-2.31-.97-2.88-2.55-.57-1.57-.85-3.6-.85-6.05v-12.95h0Z"/>
    <path class="st3" d="M109.85,36.5v-19.83h-1.34v-1.19c.74,0,1.64-.04,2.67-.14,2.39-.21,4.1-.32,5.14-.32v4.33c1.11-2.94,2.63-4.41,4.59-4.41.41,0,.73.01.94.04.27.08.57.2.94.38,1.64.81,2.46,3.44,2.46,7.91v13.25h1.44v1.09h-8.71v-1.09h.91v-15.57c0-1.78-.31-2.67-.91-2.67h-.11c-.48,0-.85.42-1.09,1.26-.31,1.04-.45,2.02-.45,2.93v14.06h.99v1.09h-8.79v-1.09h1.34-.03Z"/>
  </g>
  <polygon class="st1" points="121.42 52.02 57.44 52.02 62.73 40.27 126.7 40.27 121.42 52.02"/>
  <polygon class="st0" points="55.33 52.02 52.89 52.02 58.18 40.27 60.61 40.27 55.33 52.02"/>
  <g>
    <path class="st2" d="M66.23,50.18c-.43,0-.83-.06-1.19-.17-.36-.11-.69-.27-.98-.49-.29-.22-.55-.49-.78-.8l.9-1.02c.35.48.69.81,1.02,1s.71.28,1.13.28c.24,0,.46-.04.66-.11.2-.07.35-.18.47-.31s.17-.28.17-.45c0-.12-.02-.23-.07-.33s-.12-.19-.21-.28c-.09-.08-.21-.16-.34-.23-.13-.07-.29-.13-.46-.18-.17-.05-.36-.1-.56-.14-.39-.08-.73-.18-1.02-.31-.29-.13-.54-.29-.73-.49-.2-.19-.34-.41-.44-.66-.09-.24-.14-.52-.14-.83s.07-.6.21-.86c.14-.26.33-.49.57-.68.24-.19.52-.34.84-.45.32-.11.66-.16,1.03-.16.42,0,.79.05,1.12.15s.62.25.87.44.46.43.62.71l-.91.9c-.14-.22-.3-.4-.48-.55-.18-.15-.37-.25-.57-.33-.21-.07-.42-.11-.65-.11-.25,0-.48.04-.66.11s-.33.17-.44.3c-.11.13-.16.29-.16.47,0,.14.03.27.1.38.06.11.15.21.27.29.12.08.27.16.45.22.18.06.39.12.63.17.39.08.74.18,1.05.31.31.13.58.29.8.47.22.18.39.39.5.62.11.23.17.49.17.77,0,.49-.12.91-.35,1.26-.23.35-.55.62-.97.81s-.91.28-1.47.28Z"/>
    <path class="st2" d="M75.21,50.08v-6.16h-2.12v-1.27h5.69v1.27h-2.19v6.16h-1.38Z"/>
    <path class="st2" d="M86.3,50.14c-.59,0-1.11-.13-1.57-.38-.46-.25-.82-.6-1.09-1.04-.27-.44-.4-.94-.4-1.5v-4.59h1.39v4.49c0,.33.08.63.23.89.15.26.36.47.61.62.25.16.53.23.83.23.33,0,.62-.08.88-.23.26-.16.47-.36.62-.62.15-.26.23-.55.23-.89v-4.49h1.34v4.59c0,.56-.13,1.06-.4,1.5-.27.44-.63.79-1.09,1.04-.46.25-.99.38-1.58.38Z"/>
    <path class="st2" d="M94.47,50.08v-7.44h2.98c.54,0,1.03.09,1.46.27.44.18.81.43,1.13.76.31.33.56.73.72,1.18.17.45.25.96.25,1.51s-.08,1.06-.25,1.51c-.17.46-.41.85-.72,1.18-.31.33-.69.58-1.13.76-.44.18-.93.27-1.47.27h-2.98ZM95.85,49.01l-.11-.2h1.66c.35,0,.66-.06.93-.17s.5-.28.7-.49c.19-.21.34-.47.44-.77.1-.3.15-.64.15-1.01s-.05-.71-.15-1.01c-.1-.3-.25-.56-.44-.77s-.43-.38-.7-.49-.58-.17-.92-.17h-1.69l.14-.18v5.27Z"/>
    <path class="st2" d="M105.31,50.08v-1.22h1.22v-4.99h-1.22v-1.22h3.82v1.22h-1.22v4.99h1.22v1.22h-3.82Z"/>
    <path class="st2" d="M117.14,50.18c-.53,0-1.02-.1-1.48-.29-.45-.19-.85-.46-1.18-.8-.34-.34-.6-.75-.78-1.22-.18-.47-.28-.98-.28-1.53s.09-1.06.28-1.53.44-.87.78-1.22c.34-.34.73-.61,1.18-.8.45-.19.95-.29,1.48-.29s1.03.1,1.49.29c.45.19.85.46,1.18.81.33.35.59.75.78,1.22s.28.97.28,1.52-.09,1.05-.28,1.52-.44.87-.78,1.22c-.33.35-.73.62-1.18.81-.45.19-.95.29-1.49.29ZM117.14,48.87c.34,0,.65-.06.93-.19.28-.12.52-.3.73-.53.21-.23.37-.5.48-.8s.18-.64.18-1-.06-.69-.18-1-.28-.57-.48-.8c-.21-.23-.45-.41-.73-.53-.28-.12-.59-.19-.93-.19s-.64.06-.92.19c-.28.12-.53.3-.73.53-.21.23-.36.49-.48.8-.11.3-.17.64-.17,1.01s.06.7.17,1,.27.58.48.8c.21.23.45.4.73.53.28.12.59.19.92.19Z"/>
  </g>
</svg>