<?xml version="1.0" encoding="UTF-8"?>
<svg id="Layer_1" xmlns="http://www.w3.org/2000/svg" version="1.1" viewBox="0 0 126.73 50.96">
  <!-- Generator: Adobe Illustrator 30.1.0, SVG Export Plug-In . SVG Version: 2.1.1 Build 136)  -->
  <defs>
    <style>
      .st0 {
        fill: #282828;
      }
    </style>
  </defs>
  <g>
    <path class="st0" d="M62.49,44.26c0,1.25-.21,2.29-.63,3.13-.42.84-1,1.26-1.74,1.26-.49,0-.94-.18-1.36-.54-.42-.36-.63-.98-.63-1.86v-9.54h5.08v-1.75h-5.08v-6.5h-1.47c-.28,2.13-.88,3.74-1.81,4.84s-2.2,1.75-3.82,1.94v1.47h2.74v5.02c-.14-.95-.46-1.79-.97-2.5-.7-.98-1.63-1.76-2.8-2.35-1.16-.58-2.44-1.01-3.83-1.28-.8-.16-1.67-.35-2.61-.57-.94-.22-1.83-.51-2.67-.88-.85-.36-1.54-.82-2.07-1.38s-.8-1.24-.8-2.05c0-.69.23-1.32.69-1.89s1.08-1.02,1.87-1.36c.79-.34,1.69-.51,2.69-.51,3.39,0,5.97,2.43,7.75,7.3h1.49l-.28-8.57h-1.17l-1.4,2.09c-.97-.69-1.97-1.26-3.01-1.7s-2.13-.66-3.27-.66c-2.78,0-4.95.67-6.51,2.01-1.55,1.34-2.33,3.19-2.33,5.55,0,2.07.73,3.68,2.21,4.84s3.53,1.96,6.18,2.41c1.26.22,2.44.48,3.55.78s2,.74,2.69,1.34,1.03,1.48,1.03,2.62c0,.87-.24,1.62-.72,2.26s-1.11,1.14-1.9,1.49c-.79.35-1.65.53-2.59.53-2.51,0-4.48-.65-5.91-1.94-1.43-1.29-2.56-3.21-3.38-5.76h-1.59l.13,9.1h1.25l1.94-2.37c1.09.97,2.34,1.65,3.73,2.05,1.4.4,2.73.6,3.98.6,1.65,0,3.13-.35,4.44-1.04,1.31-.7,2.36-1.65,3.12-2.87.56-.89.92-1.88,1.07-2.96v1.85c0,.89.14,1.72.43,2.48.28.76.76,1.38,1.42,1.84s1.55.69,2.66.69c1.4,0,2.52-.3,3.35-.9.83-.6,1.43-1.41,1.8-2.42s.55-2.13.55-3.36h-1.49v.02Z"/>
    <g>
      <path class="st0" d="M106.08,31.51c.75,0,1.38-.26,1.91-.79s.79-1.17.79-1.91-.26-1.4-.79-1.92-1.17-.79-1.91-.79-1.39.26-1.92.79-.8,1.16-.8,1.92.27,1.38.8,1.91c.53.53,1.17.79,1.92.79Z"/>
      <path class="st0" d="M109.7,48.79c-.37-.08-.62-.22-.74-.43-.12-.21-.18-.51-.18-.91v-12.75l-7.02.25v1.45h.48c.87,0,1.45.19,1.74.58.29.38.43,1.23.43,2.55v8.07c0,.38-.07.67-.2.87-.01.02-.05.03-.07.05h-.85c-.86,0-1.41-.1-1.65-.3s-.36-.73-.36-1.6v-20.68l-7.63.5v1.45h1.1c.62,0,1.09.06,1.4.18.31.12.51.4.62.84s.16,1.13.16,2.08v6.1c-.61-.84-1.32-1.52-2.11-2.06-.8-.54-1.73-.81-2.81-.81-1.47,0-2.79.38-3.97,1.14s-2.1,1.79-2.78,3.08c-.68,1.3-1.02,2.76-1.02,4.39s.31,3.02.94,4.24c.62,1.22,1.49,2.17,2.59,2.86s2.37,1.03,3.81,1.03c1.17,0,2.2-.32,3.09-.95s1.68-1.43,2.36-2.39c.04.48.1.97.17,1.48s.14.96.22,1.36l4.36-.25v.25h9.64v-1.54c-.77,0-1.34-.04-1.71-.12h-.01ZM96.42,45.8c-.4.89-.89,1.57-1.49,2.04s-1.19.7-1.78.7c-1.17,0-2.09-.47-2.75-1.4s-.99-2.39-.99-4.39.34-3.65,1.03-4.7,1.61-1.58,2.78-1.58,2.05.55,2.75,1.65,1.04,2.58,1.04,4.45c0,1.26-.2,2.33-.59,3.22h0Z"/>
    </g>
    <path class="st0" d="M117.81,34.22c1.72,0,3.24.35,4.59,1.04,1.34.69,2.4,1.67,3.17,2.93.77,1.26,1.16,2.76,1.16,4.49s-.39,3.19-1.16,4.43c-.77,1.24-1.83,2.19-3.17,2.85s-2.87.99-4.59.99-3.25-.33-4.6-1-2.42-1.62-3.19-2.87c-.77-1.24-1.16-2.72-1.16-4.44s.39-3.22,1.16-4.48c.77-1.26,1.84-2.23,3.19-2.92,1.35-.69,2.89-1.03,4.6-1.03h0ZM117.81,35.77c-1.25,0-2.19.53-2.81,1.6-.63,1.07-.94,2.81-.94,5.23s.31,4.14.94,5.2,1.57,1.59,2.81,1.59,2.19-.52,2.82-1.57.95-2.77.95-5.18-.32-4.17-.95-5.25-1.58-1.62-2.82-1.62Z"/>
  </g>
  <g>
    <path class="st0" d="M35.75.99v1.16c0,1.45-.29,2.57-.86,3.38s-1.39,1.43-2.44,1.87c-.82.34-1.84.61-3.1.81s-2.45.3-3.61.3v24.5c2.23-.78,4.09-1.84,5.58-3.2,1.08-1.01,2.21-2.45,3.4-4.31l.35.15c-.57,3.62-2.17,6.65-4.79,9.08-2.62,2.44-5.78,3.65-9.46,3.65-5.14,0-9.41-1.45-12.81-4.34-3.4-2.89-5.1-6.51-5.1-10.85,0-3.04.88-6.11,2.64-9.19,1.93-3.39,4.41-5.91,7.45-7.57-.64-.11-1.17-.18-1.58-.21s-1.01-.05-1.83-.05h-.66c-1.08,0-2.5.5-4.26,1.49-1.76,1-3.06,2.14-3.9,3.42h-.29c-.21-.98.15-2.32,1.07-4C3.84,2.89,7.56.79,12.74.79c1.46,0,4.65.49,9.57,1.47,4.93.98,7.66,1.47,8.21,1.47,1.22,0,2.15-.17,2.79-.51.78-.43,1.44-1.25,1.98-2.44l.45.2h0ZM15.21,24.58V6.88l-.76-.2c-2.03,1.21-3.57,3.06-4.62,5.53-.91,2.13-1.37,4.37-1.37,6.69,0,3.28.76,6.07,2.28,8.37.51.74,1.27,1.58,2.28,2.48.24-.2.43-.37.56-.51.41-.43.69-.86.83-1.27.15-.41.26-.74.33-1.01.31-.94.45-1.74.45-2.38h.02ZM24.34,33.16V8.5l-3.45-.76v10.85c0,1.83-.17,3.37-.51,4.64s-.95,2.37-1.83,3.32c-.71.78-1.56,1.58-2.54,2.38-.71.57-1.4,1.15-2.08,1.72.74.51,1.52.94,2.34,1.32s1.68.66,2.59.86c.34.07.82.14,1.45.2.63.07,1.31.1,2.06.1h1.98v.02h0Z"/>
    <g>
      <path class="st0" d="M29.13,11.11h-.88v-.75l4.95-.36v3.05c.66-1.96,1.56-2.93,2.7-2.93h.21c.79,0,1.36.49,1.73,1.48.26.67.4,1.43.4,2.28,0,.7-.14,1.35-.4,1.94-.37.78-.9,1.18-1.59,1.18-1.31-.22-1.97-1.36-1.97-3.42l.14-1.35c-.05-.06-.08-.1-.1-.12l-.07-.06c-.25,0-.49.61-.71,1.82-.09.5-.14,1.34-.14,2.53v7.58h1.22v.71h-6.36v-.71h.88v-12.84h0v-.03Z"/>
      <path class="st0" d="M39.86,11.12h-.88v-.77c.81,0,1.76-.05,2.84-.15l2.3-.21v13.96h.95v.71h-6.09v-.71h.88v-12.83ZM39.68,5.68c0-1.82.78-2.74,2.34-2.74s2.23.99,2.23,2.96c0,.75-.14,1.39-.43,1.94-.38.72-.96,1.07-1.73,1.07-1.62,0-2.44-.99-2.44-2.95l.04-.29h-.01Z"/>
      <path class="st0" d="M50.67,12.14c.69-1.45,1.49-2.18,2.4-2.18.17,0,.3,0,.36.03,1.18.14,2.05,1.2,2.63,3.16.39,1.34.59,2.76.59,4.26,0,3.67-.72,6.07-2.17,7.19-.2.16-.4.27-.59.34-.25.1-.55.15-.91.15-1.21,0-2.06-.92-2.52-2.78v2.78c-.76-.11-1.91-.24-3.46-.41-.42-.02-.86-.03-1.33-.03v-.71h.91V4.42h-.91v-.68c1.05,0,2.72-.16,5-.5,0,0,0,8.9,0,8.9ZM52.26,14.03c0-1.48-.22-2.21-.64-2.21-.63,0-.95.99-.95,2.94v5.37c0,2.11.31,3.17.91,3.17.34,0,.55-.5.62-1.49.04-.44.05-1.02.05-1.75v-6.04h.01Z"/>
      <path class="st0" d="M58.35,11.12h-.87v-.77c1.19,0,2.87-.12,5.05-.36v11.37c0,.82.05,1.3.15,1.44.07.16.23.24.48.24.34,0,.61-.32.78-.94.16-.59.24-1.31.24-2.16v-8.81h-.93v-.77c.57,0,1.41-.05,2.53-.15s1.96-.15,2.53-.15v13.89h.97v.71c-.93,0-1.81.05-2.63.15l-2.3.29v-2.84c-.81,1.89-1.86,2.84-3.14,2.84-.2,0-.34,0-.43-.03-.88-.08-1.49-.63-1.87-1.65-.37-1.01-.55-2.33-.55-3.91v-8.38h-.01Z"/>
      <path class="st0" d="M70.96,23.96v-12.83h-.87v-.77c.48,0,1.06-.03,1.73-.09,1.55-.14,2.65-.21,3.32-.21v2.8c.72-1.9,1.7-2.85,2.97-2.85.26,0,.47,0,.61.03.17.05.37.13.61.24,1.06.53,1.59,2.23,1.59,5.12v8.57h.93v.71h-5.63v-.71h.59v-10.07c0-1.15-.2-1.73-.59-1.73h-.07c-.31,0-.55.27-.71.82-.2.67-.29,1.3-.29,1.89v9.09h.64v.71h-5.69v-.71h.87-.02,0Z"/>
    </g>
  </g>
  <g>
    <path class="st0" d="M65.37,32.8c2.8-.1,1.76.08,3.5,1.86l14.24-4.5-.76-2.5c-.12-.38-.56-.68-1.01-.54l-16.6,5.19c-.49.15-.85.53-.67,1.05l.47,1.42c.25-.46-.23-1.94.83-1.98ZM79.65,28.11l2.66,1.83-2,.63-2.65-1.83,1.98-.63h0ZM75.75,29.32l2.61,1.83c-.67.26-1.25.45-1.92.66l-2.69-1.86,2-.63ZM71.83,30.54l2.68,1.84-1.92.66-2.71-1.88,1.96-.63h-.01Z"/>
    <path class="st0" d="M69.89,36.55l-2.64-3.42-1.8-.03c-.21,0-.49.22-.49.45v3.97c0,.28.23.51.51.51h3.96c.67,0,.52-1.05.47-1.48h-.01ZM65.96,37.52c-.27,0-.49-.22-.49-.49s.22-.49.49-.49.49.22.49.49-.22.49-.49.49ZM65.96,34.62c-.27,0-.49-.22-.49-.49s.22-.49.49-.49.49.22.49.49-.22.49-.49.49ZM68.89,37.52c-.27,0-.49-.22-.49-.49s.22-.49.49-.49.49.22.49.49-.22.49-.49.49Z"/>
  </g>
  <path class="st0" d="M83.66,35.44h-14.26c.64.88.97.95.77,2.25-.06.36-.43.65-.77.65h-4.02c-.22,0-.54-.28-.67-.43-.16.41.02.8.42.94v10.32c.01.99.81,1.79,1.8,1.79h14.68c.99,0,1.79-.8,1.79-1.79v-9.79c0-.6.22-.63.23-.89.05-1.01.04-1.94.03-3.06h0ZM72.65,35.87l2.08.03-1.93,2.48c-.67,0-1.3,0-2.07-.02l1.92-2.48h0ZM74.56,48.57c-2.21,0-4-1.79-4-4s1.79-4,4-4,4,1.79,4,4-1.79,4-4,4ZM76.9,38.38h-2.09l1.94-2.51,2.07.02s-1.92,2.49-1.92,2.49ZM80.99,38.38h-2.1l1.94-2.51h2.07l-1.92,2.51h0Z"/>
  <path class="st0" d="M76.27,46.48c-.24.18-.51.31-.82.38v-3.69h.23c.4,0,.72-.1.96-.31.23-.21.36-.5.39-.88l-.07-.02c-.09.16-.19.27-.3.34-.1.07-.23.1-.39.1-.2,0-.52-.05-.96-.15-.23-.05-.4-.09-.52-.11-.27-.05-.49-.09-.66-.11-.17-.02-.31-.03-.44-.03-.6,0-1.08.14-1.44.41s-.58.67-.65,1.19h.08c.18-.27.37-.47.59-.6.22-.13.47-.19.77-.19.06,0,.13,0,.21,0,.08,0,.16.02.26.04-.49.34-.87.71-1.12,1.12s-.38.85-.38,1.31c0,.33.06.63.17.91s.29.52.51.74c.26.24.55.42.88.54.33.12.69.18,1.08.18.61,0,1.12-.16,1.53-.49.41-.33.69-.8.83-1.41l-.09-.03c-.19.31-.41.56-.65.74h0ZM73.55,46.36c-.23-.2-.4-.43-.51-.69s-.17-.55-.17-.86c0-.38.07-.73.21-1.03.14-.31.35-.6.65-.89l.11.02v2.78c0,.17-.02.3-.06.4-.04.1-.11.19-.21.27h-.02ZM75.25,46.89h-.21c-.27,0-.51-.03-.73-.1s-.41-.17-.56-.3c.37-.29.62-.56.76-.81s.2-.55.2-.92v-1.71l.55.11v3.74h-.01Z"/>
</svg>