<?xml version="1.0" encoding="UTF-8"?>
<svg id="Layer_1" xmlns="http://www.w3.org/2000/svg" version="1.1" viewBox="0 0 90.64 16.15">
  <!-- Generator: Adobe Illustrator 30.1.0, SVG Export Plug-In . SVG Version: 2.1.1 Build 136)  -->
  <defs>
    <style>
      .st0 {
        fill: #fff;
      }
    </style>
  </defs>
  <path class="st0" d="M1.81,1.34H0V.11h4.95v1.23h-1.81v5.07h-1.33V1.34Z"/>
  <path class="st0" d="M5.18,4.56V2h1.29v2.51c0,.48.22.82.67.82.56,0,.76-.4.76-1.07V2h1.29v4.41h-1.26v-.31c-.27.28-.67.4-1.1.4-1.03,0-1.65-.69-1.65-1.94Z"/>
  <path class="st0" d="M10.32,2h1.26v.4c.24-.29.65-.46,1.1-.46.15,0,.22,0,.34,0v1.23h-.2c-.71,0-1.22.45-1.22,1.39v1.85h-1.28V2Z"/>
  <path class="st0" d="M13.78,2h1.26v.31c.24-.23.59-.41,1.04-.41,1.08,0,1.8.7,1.8,1.95v2.57h-1.28v-2.47c0-.47-.22-.86-.74-.86-.6,0-.81.45-.81,1.12v2.21h-1.28V2Z"/>
  <path class="st0" d="M19.66,0c.41,0,.75.33.75.75s-.33.74-.75.74-.74-.33-.74-.74.32-.75.74-.75ZM19.02,2h1.28v4.41h-1.28V2Z"/>
  <path class="st0" d="M21.48,2h1.26v.31c.24-.23.59-.41,1.04-.41,1.08,0,1.8.7,1.8,1.95v2.57h-1.28v-2.47c0-.47-.22-.86-.74-.86-.6,0-.81.45-.81,1.12v2.21h-1.28V2Z"/>
  <path class="st0" d="M26.56,7.36l.89-.86c.21.3.59.57,1.11.57.68,0,1.12-.4,1.12-.98v-.12c-.23.2-.59.33-1.08.33-1.22,0-2.16-.81-2.16-2.21s1.03-2.21,2.16-2.21c.49,0,.86.2,1.11.42v-.31h1.25v3.95c0,1.33-.86,2.3-2.39,2.3-1.13,0-1.72-.53-2.01-.89ZM28.71,5.15c.54,0,.99-.41.99-1.04s-.45-1.05-.99-1.05-.97.41-.97,1.05.44,1.04.97,1.04Z"/>
  <path class="st0" d="M34.6,2h1.26v.4c.24-.29.65-.46,1.1-.46.15,0,.22,0,.34,0v1.23h-.2c-.71,0-1.22.45-1.22,1.39v1.85h-1.28V2Z"/>
  <path class="st0" d="M37.6,4.23c0-1.33.89-2.34,2.17-2.34,1.42,0,2.12,1.14,2.12,2.26v.38h-3c.07.46.42.81.99.81.46,0,.81-.17,1.08-.51l.85.79c-.39.49-.95.89-1.89.89-1.32,0-2.32-.89-2.32-2.28ZM40.55,3.67c-.03-.37-.32-.66-.75-.66-.48,0-.76.3-.84.66h1.58Z"/>
  <path class="st0" d="M42.44,5.65l.78-.8c.44.43.86.58,1.26.58.26,0,.5-.12.5-.29,0-.13-.12-.21-.4-.28l-.59-.14c-.98-.24-1.44-.73-1.44-1.44,0-.86.79-1.4,1.71-1.4.65,0,1.25.23,1.77.69l-.78.83c-.27-.22-.64-.43-1.04-.43-.25,0-.42.12-.42.26,0,.12.12.19.32.23l.66.15c.79.19,1.45.58,1.45,1.46,0,.83-.7,1.42-1.85,1.42-.86,0-1.59-.42-1.94-.85Z"/>
  <path class="st0" d="M47.1,2h1.26v.31c.23-.22.66-.42,1.15-.42,1.22,0,2.21.88,2.21,2.31s-.99,2.3-2.21,2.3c-.5,0-.91-.18-1.13-.38v2.03h-1.28V2ZM49.38,5.36c.59,0,1.03-.47,1.03-1.15s-.44-1.15-1.03-1.15-1.03.47-1.03,1.15.44,1.15,1.03,1.15Z"/>
  <path class="st0" d="M52.34,4.2c0-1.32,1.01-2.31,2.33-2.31s2.33.99,2.33,2.31-1.01,2.3-2.33,2.3-2.33-.98-2.33-2.3ZM54.67,5.32c.59,0,1.03-.47,1.03-1.12s-.43-1.12-1.03-1.12-1.03.47-1.03,1.12.43,1.12,1.03,1.12Z"/>
  <path class="st0" d="M57.88,2h1.26v.31c.24-.23.59-.41,1.04-.41,1.08,0,1.8.7,1.8,1.95v2.57h-1.28v-2.47c0-.47-.22-.86-.74-.86-.6,0-.81.45-.81,1.12v2.21h-1.28V2Z"/>
  <path class="st0" d="M62.81,5.65l.78-.8c.44.43.86.58,1.26.58.26,0,.5-.12.5-.29,0-.13-.12-.21-.4-.28l-.58-.14c-.98-.24-1.44-.73-1.44-1.44,0-.86.79-1.4,1.71-1.4.65,0,1.25.23,1.77.69l-.78.83c-.27-.22-.64-.43-1.04-.43-.25,0-.42.12-.42.26,0,.12.12.19.32.23l.66.15c.79.19,1.45.58,1.45,1.46,0,.83-.7,1.42-1.85,1.42-.86,0-1.59-.42-1.94-.85Z"/>
  <path class="st0" d="M68.15,0c.41,0,.75.33.75.75s-.33.74-.75.74-.74-.33-.74-.74.32-.75.74-.75ZM67.51,2h1.28v4.41h-1.28V2Z"/>
  <path class="st0" d="M71.25,6.09v.32h-1.28V.11h1.3v2.17c.23-.2.61-.39,1.12-.39,1.22,0,2.21.92,2.21,2.31s-.99,2.3-2.21,2.3c-.5,0-.9-.19-1.13-.41ZM72.26,5.36c.59,0,1.03-.47,1.03-1.15s-.44-1.15-1.03-1.15-1.01.47-1.01,1.15.42,1.15,1.01,1.15Z"/>
  <path class="st0" d="M76.15,0c.41,0,.75.33.75.75s-.33.74-.75.74-.74-.33-.74-.74.32-.75.74-.75ZM75.52,2h1.28v4.41h-1.28V2Z"/>
  <path class="st0" d="M77.98.11h1.28v6.3h-1.28V.11Z"/>
  <path class="st0" d="M81.08,0c.41,0,.75.33.75.75s-.33.74-.75.74-.74-.33-.74-.74.32-.75.74-.75ZM80.44,2h1.28v4.41h-1.28V2Z"/>
  <path class="st0" d="M83.06,4.85v-1.67h-.58v-1.18h.58V.77h1.28v1.23h.97v1.18h-.97v1.52c0,.44.21.54.58.54h.38v1.17c-.14,0-.44.02-.69.02-1.04,0-1.54-.56-1.54-1.58Z"/>
  <path class="st0" d="M87.55,6.41l-1.72-4.41h1.42l.99,2.73,1.03-2.73h1.37l-2.46,6.16h-1.35l.72-1.75Z"/>
  <path class="st0" d="M2.26,9.64c.41,0,.75.33.75.75s-.33.74-.75.74-.74-.33-.74-.74.32-.75.74-.75ZM1.62,11.64h1.28v4.41h-1.28v-4.41Z"/>
  <path class="st0" d="M4.08,11.64h1.26v.31c.24-.23.59-.41,1.04-.41,1.08,0,1.8.7,1.8,1.95v2.57h-1.28v-2.47c0-.47-.22-.86-.74-.86-.6,0-.81.45-.81,1.12v2.21h-1.28v-4.41Z"/>
  <path class="st0" d="M9.44,14.49v-1.67h-.58v-1.18h.58v-1.23h1.28v1.23h.97v1.18h-.97v1.52c0,.44.21.54.58.54h.38v1.17c-.14,0-.44.02-.69.02-1.04,0-1.54-.56-1.54-1.58Z"/>
  <path class="st0" d="M12.3,13.84c0-1.32,1.01-2.31,2.33-2.31s2.33.99,2.33,2.31-1.01,2.3-2.33,2.3-2.33-.98-2.33-2.3ZM14.63,14.96c.59,0,1.03-.47,1.03-1.12s-.43-1.12-1.03-1.12-1.03.47-1.03,1.12.43,1.12,1.03,1.12Z"/>
  <path class="st0" d="M20.15,14.75c0-.97.84-1.42,1.75-1.42.34,0,.66.06.87.13v-.07c0-.41-.27-.72-.73-.72-.34,0-.71.16-.95.51l-.81-.77c.57-.67,1.22-.87,1.85-.87,1.07,0,1.94.64,1.94,1.76v2.75h-1.28v-.29c-.23.2-.6.39-1.11.39-.95,0-1.53-.6-1.53-1.4ZM21.99,15.07c.31,0,.57-.11.78-.27v-.5c-.15-.04-.36-.08-.58-.08-.5,0-.75.2-.75.46,0,.23.22.4.55.4Z"/>
  <path class="st0" d="M24.9,13.84c0-1.32,1.01-2.31,2.33-2.31.84,0,1.38.36,1.85.88l-.86.84c-.25-.31-.53-.51-.94-.51-.6,0-1.07.46-1.07,1.11s.47,1.11,1.07,1.11c.44,0,.75-.22,1.03-.58l.86.84c-.45.59-1.08.94-1.94.94-1.32,0-2.33-.98-2.33-2.3Z"/>
  <path class="st0" d="M30.15,14.49v-1.67h-.58v-1.18h.58v-1.23h1.28v1.23h.97v1.18h-.97v1.52c0,.44.21.54.58.54h.38v1.17c-.14,0-.44.02-.69.02-1.04,0-1.54-.56-1.54-1.58Z"/>
  <path class="st0" d="M34.05,9.64c.41,0,.75.33.75.75s-.33.74-.75.74-.74-.33-.74-.74.32-.75.74-.75ZM33.41,11.64h1.28v4.41h-1.28v-4.41Z"/>
  <path class="st0" d="M35.63,13.84c0-1.32,1.01-2.31,2.33-2.31s2.33.99,2.33,2.31-1.01,2.3-2.33,2.3-2.33-.98-2.33-2.3ZM37.96,14.96c.59,0,1.03-.47,1.03-1.12s-.43-1.12-1.03-1.12-1.03.47-1.03,1.12.43,1.12,1.03,1.12Z"/>
  <path class="st0" d="M41.17,11.64h1.26v.31c.24-.23.59-.41,1.04-.41,1.08,0,1.8.7,1.8,1.95v2.57h-1.28v-2.47c0-.47-.22-.86-.74-.86-.6,0-.81.45-.81,1.12v2.21h-1.28v-4.41Z"/>
  <path class="st0" d="M49.04,14.49v-1.67h-.58v-1.18h.58v-1.23h1.28v1.23h.97v1.18h-.97v1.52c0,.44.21.54.58.54h.38v1.17c-.14,0-.44.02-.69.02-1.04,0-1.54-.56-1.54-1.58Z"/>
  <path class="st0" d="M52.26,9.75h1.27v2.14c.2-.18.58-.36,1.04-.36,1.08,0,1.8.7,1.8,1.95v2.57h-1.28v-2.47c0-.47-.22-.86-.74-.86-.6,0-.81.45-.81,1.12v2.21h-1.28v-6.3Z"/>
  <path class="st0" d="M57.25,14.75c0-.97.84-1.42,1.75-1.42.34,0,.66.06.87.13v-.07c0-.41-.27-.72-.73-.72-.34,0-.71.16-.95.51l-.81-.77c.57-.67,1.22-.87,1.85-.87,1.07,0,1.94.64,1.94,1.76v2.75h-1.28v-.29c-.23.2-.6.39-1.11.39-.95,0-1.53-.6-1.53-1.4ZM59.08,15.07c.31,0,.57-.11.78-.27v-.5c-.15-.04-.36-.08-.58-.08-.5,0-.75.2-.75.46,0,.23.23.4.55.4Z"/>
  <path class="st0" d="M62.41,14.49v-1.67h-.58v-1.18h.58v-1.23h1.28v1.23h.97v1.18h-.97v1.52c0,.44.21.54.58.54h.38v1.17c-.14,0-.44.02-.69.02-1.04,0-1.54-.56-1.54-1.58Z"/>
  <path class="st0" d="M68.15,9.75h1.28v6.3h-1.28v-6.3Z"/>
  <path class="st0" d="M70.35,14.75c0-.97.84-1.42,1.75-1.42.34,0,.66.06.87.13v-.07c0-.41-.27-.72-.73-.72-.34,0-.71.16-.95.51l-.81-.77c.57-.67,1.22-.87,1.85-.87,1.07,0,1.94.64,1.94,1.76v2.75h-1.28v-.29c-.23.2-.6.39-1.11.39-.95,0-1.53-.6-1.53-1.4ZM72.19,15.07c.31,0,.57-.11.78-.27v-.5c-.15-.04-.36-.08-.58-.08-.5,0-.75.2-.75.46,0,.23.23.4.55.4Z"/>
  <path class="st0" d="M75.09,15.29l.78-.8c.44.43.86.58,1.26.58.26,0,.5-.12.5-.29,0-.13-.12-.21-.4-.28l-.59-.14c-.98-.24-1.44-.73-1.44-1.44,0-.86.79-1.4,1.71-1.4.65,0,1.25.23,1.77.69l-.78.83c-.27-.22-.64-.43-1.04-.43-.25,0-.42.12-.42.26,0,.12.12.19.32.23l.66.15c.79.19,1.45.58,1.45,1.46,0,.83-.7,1.42-1.85,1.42-.86,0-1.59-.42-1.94-.85Z"/>
  <path class="st0" d="M79.85,14.49v-1.67h-.58v-1.18h.58v-1.23h1.28v1.23h.97v1.18h-.97v1.52c0,.44.21.54.58.54h.38v1.17c-.14,0-.44.02-.69.02-1.04,0-1.54-.56-1.54-1.58Z"/>
  <path class="st0" d="M82.81,15.29l.78-.8c.44.43.86.58,1.26.58.26,0,.5-.12.5-.29,0-.13-.12-.21-.4-.28l-.59-.14c-.98-.24-1.44-.73-1.44-1.44,0-.86.79-1.4,1.71-1.4.65,0,1.25.23,1.77.69l-.78.83c-.27-.22-.64-.43-1.04-.43-.25,0-.42.12-.42.26,0,.12.12.19.32.23l.66.15c.79.19,1.45.58,1.45,1.46,0,.83-.7,1.42-1.85,1.42-.86,0-1.59-.42-1.94-.85Z"/>
  <path class="st0" d="M87.38,15.38c0-.43.33-.77.76-.77s.78.34.78.77-.35.77-.78.77-.76-.34-.76-.77Z"/>
</svg>