<?xml version="1.0" encoding="UTF-8"?>
<svg id="Layer_1" xmlns="http://www.w3.org/2000/svg" version="1.1" viewBox="0 0 94.27 16.15">
  <!-- Generator: Adobe Illustrator 30.1.0, SVG Export Plug-In . SVG Version: 2.1.1 Build 136)  -->
  <defs>
    <style>
      .st0 {
        fill: #fff;
      }
    </style>
  </defs>
  <path class="st0" d="M0,.11h1.43l.97,4.03L3.42.11h1.43l1.02,4.03L6.84.11h1.43l-1.68,6.3h-1.37l-1.08-4.16-1.09,4.16h-1.37L0,.11Z"/>
  <path class="st0" d="M9.02.11h1.27v2.14c.2-.18.58-.36,1.04-.36,1.08,0,1.8.7,1.8,1.95v2.57h-1.28v-2.47c0-.47-.22-.86-.74-.86-.6,0-.81.45-.81,1.12v2.21h-1.28V.11Z"/>
  <path class="st0" d="M13.95,4.23c0-1.33.89-2.34,2.17-2.34,1.42,0,2.12,1.14,2.12,2.26v.38h-3c.07.46.42.81.99.81.46,0,.81-.17,1.08-.51l.85.79c-.39.49-.95.89-1.89.89-1.32,0-2.32-.89-2.32-2.28ZM16.9,3.67c-.03-.37-.32-.66-.75-.66-.48,0-.76.3-.84.66h1.58Z"/>
  <path class="st0" d="M19.12,2h1.26v.31c.24-.23.59-.41,1.04-.41,1.08,0,1.8.7,1.8,1.95v2.57h-1.28v-2.47c0-.47-.22-.86-.74-.86-.6,0-.81.45-.81,1.12v2.21h-1.28V2Z"/>
  <path class="st0" d="M26.58,4.2c0-1.32,1.01-2.31,2.33-2.31.84,0,1.38.36,1.85.88l-.86.84c-.25-.31-.53-.51-.94-.51-.6,0-1.07.46-1.07,1.11s.47,1.11,1.07,1.11c.44,0,.75-.22,1.03-.58l.86.84c-.45.59-1.08.94-1.94.94-1.32,0-2.33-.98-2.33-2.3Z"/>
  <path class="st0" d="M31.23,4.2c0-1.32,1.01-2.31,2.33-2.31s2.33.99,2.33,2.31-1.01,2.3-2.33,2.3-2.33-.98-2.33-2.3ZM33.56,5.32c.59,0,1.03-.47,1.03-1.12s-.43-1.12-1.03-1.12-1.03.47-1.03,1.12.43,1.12,1.03,1.12Z"/>
  <path class="st0" d="M36.77,2h1.26v.4c.24-.29.65-.46,1.1-.46.15,0,.22,0,.34,0v1.23h-.2c-.71,0-1.22.45-1.22,1.39v1.85h-1.28V2Z"/>
  <path class="st0" d="M40.23,2h1.26v.31c.23-.22.66-.42,1.15-.42,1.22,0,2.21.88,2.21,2.31s-.99,2.3-2.21,2.3c-.5,0-.91-.18-1.13-.38v2.03h-1.28V2ZM42.52,5.36c.59,0,1.03-.47,1.03-1.15s-.44-1.15-1.03-1.15-1.03.47-1.03,1.15.44,1.15,1.03,1.15Z"/>
  <path class="st0" d="M45.48,4.2c0-1.32,1.01-2.31,2.33-2.31s2.33.99,2.33,2.31-1.01,2.3-2.33,2.3-2.33-.98-2.33-2.3ZM47.81,5.32c.59,0,1.03-.47,1.03-1.12s-.43-1.12-1.03-1.12-1.03.47-1.03,1.12.43,1.12,1.03,1.12Z"/>
  <path class="st0" d="M51.02,2h1.26v.4c.24-.29.65-.46,1.1-.46.15,0,.22,0,.34,0v1.23h-.2c-.71,0-1.22.45-1.22,1.39v1.85h-1.28V2Z"/>
  <path class="st0" d="M54.11,5.11c0-.97.84-1.42,1.75-1.42.34,0,.66.06.87.13v-.07c0-.41-.27-.72-.73-.72-.34,0-.71.16-.95.51l-.81-.77c.57-.67,1.22-.87,1.85-.87,1.07,0,1.94.64,1.94,1.76v2.75h-1.28v-.29c-.23.2-.6.39-1.11.39-.95,0-1.53-.6-1.53-1.39ZM55.95,5.43c.31,0,.57-.11.78-.27v-.5c-.15-.04-.36-.08-.58-.08-.5,0-.75.2-.75.46,0,.23.23.4.55.4Z"/>
  <path class="st0" d="M59.28,4.85v-1.67h-.58v-1.18h.58V.77h1.28v1.23h.97v1.18h-.97v1.52c0,.44.21.54.58.54h.38v1.17c-.14,0-.44.02-.69.02-1.04,0-1.54-.56-1.54-1.58Z"/>
  <path class="st0" d="M62.14,4.23c0-1.33.89-2.34,2.17-2.34,1.42,0,2.12,1.14,2.12,2.26v.38h-3c.07.46.42.81.99.81.46,0,.81-.17,1.08-.51l.85.79c-.39.49-.95.89-1.89.89-1.32,0-2.32-.89-2.32-2.28ZM65.08,3.67c-.03-.37-.32-.66-.75-.66-.48,0-.76.3-.84.66h1.58Z"/>
  <path class="st0" d="M69.71,7.36l.89-.86c.21.3.59.57,1.11.57.68,0,1.12-.4,1.12-.98v-.12c-.23.2-.59.33-1.08.33-1.22,0-2.16-.81-2.16-2.21s1.03-2.21,2.16-2.21c.49,0,.86.2,1.11.42v-.31h1.25v3.95c0,1.33-.86,2.3-2.39,2.3-1.13,0-1.72-.53-2.01-.89ZM71.86,5.15c.54,0,.99-.41.99-1.04s-.45-1.05-.99-1.05-.97.41-.97,1.05.44,1.04.97,1.04Z"/>
  <path class="st0" d="M75.91,0c.41,0,.75.33.75.75s-.33.74-.75.74-.74-.33-.74-.74.32-.75.74-.75ZM75.27,2h1.28v4.41h-1.28V2Z"/>
  <path class="st0" d="M77.23,2h1.36l.86,2.73.86-2.73h1.36l-1.57,4.41h-1.31l-1.57-4.41Z"/>
  <path class="st0" d="M82.97,0c.41,0,.75.33.75.75s-.33.74-.75.74-.74-.33-.74-.74.32-.75.74-.75ZM82.34,2h1.28v4.41h-1.28V2Z"/>
  <path class="st0" d="M84.8,2h1.26v.31c.24-.23.59-.41,1.04-.41,1.08,0,1.8.7,1.8,1.95v2.57h-1.28v-2.47c0-.47-.22-.86-.74-.86-.6,0-.81.45-.81,1.12v2.21h-1.28V2Z"/>
  <path class="st0" d="M89.88,7.36l.89-.86c.21.3.59.57,1.11.57.68,0,1.12-.4,1.12-.98v-.12c-.23.2-.59.33-1.08.33-1.22,0-2.16-.81-2.16-2.21s1.03-2.21,2.16-2.21c.49,0,.86.2,1.11.42v-.31h1.25v3.95c0,1.33-.86,2.3-2.39,2.3-1.13,0-1.72-.53-2.01-.89ZM92.03,5.15c.54,0,.99-.41.99-1.04s-.45-1.05-.99-1.05-.97.41-.97,1.05.44,1.04.97,1.04Z"/>
  <path class="st0" d="M5.26,11.64h1.26v.31c.24-.23.61-.41,1.06-.41.5,0,.93.19,1.22.53.31-.31.78-.53,1.32-.53,1.18,0,1.85.7,1.85,1.95v2.57h-1.28v-2.51c0-.48-.22-.82-.68-.82-.49,0-.76.37-.76.98v2.35h-1.28v-2.51c0-.48-.22-.82-.68-.82-.5,0-.76.4-.76,1.07v2.26h-1.28v-4.41Z"/>
  <path class="st0" d="M12.81,13.84c0-1.32,1.01-2.31,2.33-2.31s2.33.99,2.33,2.31-1.01,2.3-2.33,2.3-2.33-.98-2.33-2.3ZM15.14,14.96c.59,0,1.03-.47,1.03-1.12s-.43-1.12-1.03-1.12-1.03.47-1.03,1.12.43,1.12,1.03,1.12Z"/>
  <path class="st0" d="M17.71,11.64h1.36l.86,2.73.86-2.73h1.36l-1.57,4.41h-1.31l-1.57-4.41Z"/>
  <path class="st0" d="M22.38,13.87c0-1.33.89-2.34,2.17-2.34,1.42,0,2.12,1.14,2.12,2.26v.38h-3c.07.46.42.81.99.81.46,0,.81-.17,1.08-.51l.85.79c-.39.49-.95.89-1.89.89-1.32,0-2.32-.89-2.32-2.28ZM25.33,13.31c-.03-.37-.32-.66-.75-.66-.48,0-.76.3-.84.66h1.58Z"/>
  <path class="st0" d="M27.22,15.29l.78-.8c.44.43.86.58,1.26.58.26,0,.5-.12.5-.29,0-.13-.12-.21-.4-.28l-.59-.14c-.98-.24-1.44-.73-1.44-1.44,0-.86.79-1.4,1.71-1.4.65,0,1.25.23,1.77.69l-.78.83c-.27-.22-.64-.43-1.04-.43-.25,0-.42.12-.42.26,0,.12.12.19.32.23l.66.15c.79.19,1.45.58,1.45,1.46,0,.83-.7,1.42-1.85,1.42-.86,0-1.59-.42-1.94-.85Z"/>
  <path class="st0" d="M34.39,9.75h1.28v6.3h-1.28v-6.3Z"/>
  <path class="st0" d="M37.49,9.64c.41,0,.75.33.75.75s-.33.74-.75.74-.74-.33-.74-.74.32-.75.74-.75ZM36.85,11.64h1.28v4.41h-1.28v-4.41Z"/>
  <path class="st0" d="M38.8,11.64h1.36l.86,2.73.86-2.73h1.36l-1.57,4.41h-1.31l-1.57-4.41Z"/>
  <path class="st0" d="M43.48,13.87c0-1.33.89-2.34,2.17-2.34,1.42,0,2.12,1.14,2.12,2.26v.38h-3c.07.46.42.81.99.81.46,0,.81-.17,1.08-.51l.85.79c-.39.49-.95.89-1.89.89-1.32,0-2.32-.89-2.32-2.28ZM46.42,13.31c-.03-.37-.32-.66-.75-.66-.48,0-.76.3-.84.66h1.58Z"/>
  <path class="st0" d="M48.32,15.29l.78-.8c.44.43.86.58,1.26.58.26,0,.5-.12.5-.29,0-.13-.12-.21-.4-.28l-.59-.14c-.98-.24-1.44-.73-1.44-1.44,0-.86.79-1.4,1.71-1.4.65,0,1.25.23,1.77.69l-.78.83c-.27-.22-.64-.43-1.04-.43-.25,0-.42.12-.42.26,0,.12.12.19.32.23l.66.15c.79.19,1.45.58,1.45,1.46,0,.83-.7,1.42-1.85,1.42-.86,0-1.59-.42-1.94-.85Z"/>
  <path class="st0" d="M55.71,12.82h-.58v-1.18h.58v-.22c0-1.22.8-1.78,1.94-1.78.15,0,.28,0,.33,0v1.21h-.22c-.58,0-.78.2-.78.64v.14h.96v1.18h-.96v3.23h-1.28v-3.23Z"/>
  <path class="st0" d="M58.32,13.84c0-1.32,1.01-2.31,2.33-2.31s2.33.99,2.33,2.31-1.01,2.3-2.33,2.3-2.33-.98-2.33-2.3ZM60.66,14.96c.59,0,1.03-.47,1.03-1.12s-.43-1.12-1.03-1.12-1.03.47-1.03,1.12.43,1.12,1.03,1.12Z"/>
  <path class="st0" d="M63.87,11.64h1.26v.4c.24-.29.65-.46,1.1-.46.15,0,.22,0,.34,0v1.23h-.2c-.71,0-1.22.45-1.22,1.39v1.85h-1.28v-4.41Z"/>
  <path class="st0" d="M66.99,11.64h1.37l.63,2.64.72-2.64h1.42l.73,2.64.62-2.64h1.37l-1.24,4.41h-1.4l-.79-2.72-.79,2.72h-1.4l-1.24-4.41Z"/>
  <path class="st0" d="M74.25,14.75c0-.97.84-1.42,1.75-1.42.34,0,.66.06.87.13v-.07c0-.41-.27-.72-.73-.72-.34,0-.71.16-.95.51l-.81-.77c.57-.67,1.22-.87,1.85-.87,1.07,0,1.94.64,1.94,1.76v2.75h-1.28v-.29c-.23.2-.6.39-1.11.39-.95,0-1.53-.6-1.53-1.4ZM76.08,15.07c.31,0,.57-.11.78-.27v-.5c-.15-.04-.36-.08-.58-.08-.5,0-.75.2-.75.46,0,.23.22.4.55.4Z"/>
  <path class="st0" d="M79.25,11.64h1.26v.4c.24-.29.65-.46,1.1-.46.15,0,.22,0,.34,0v1.23h-.2c-.71,0-1.22.45-1.22,1.39v1.85h-1.28v-4.41Z"/>
  <path class="st0" d="M82.25,13.84c0-1.4.99-2.31,2.21-2.31.5,0,.89.19,1.12.39v-2.17h1.3v6.3h-1.28v-.32c-.23.23-.64.41-1.13.41-1.21,0-2.21-.88-2.21-2.3ZM84.59,15c.59,0,1.01-.47,1.01-1.15s-.42-1.15-1.01-1.15-1.03.47-1.03,1.15.44,1.15,1.03,1.15Z"/>
  <path class="st0" d="M87.92,15.38c0-.43.33-.77.76-.77s.78.34.78.77-.35.77-.78.77-.76-.34-.76-.77Z"/>
</svg>