<?xml version="1.0" encoding="UTF-8"?>
<svg id="Layer_1" xmlns="http://www.w3.org/2000/svg" version="1.1" viewBox="0 0 45.42 37.2">
  <!-- Generator: Adobe Illustrator 30.1.0, SVG Export Plug-In . SVG Version: 2.1.1 Build 136)  -->
  <defs>
    <style>
      .st0 {
        fill: #fff;
      }

      .st1 {
        fill: #0d393b;
      }
    </style>
  </defs>
  <rect class="st1" width="45.42" height="37.2"/>
  <g>
    <polygon class="st0" points="34.07 22.83 11.35 22.83 11.35 22.65 34.07 22.65 34.07 22.83 34.07 22.83"/>
    <path class="st0" d="M24.17,12.11h-2.36l-3.78,9.74h2.06l.85-2.33h3.7l.83,2.33h2.59l-3.89-9.74h0ZM21.44,18.1l1.28-3.58,1.39,3.58h-2.67Z"/>
    <path class="st0" d="M24.17,12.1h-2.36l-3.78,9.74h2.06l.85-2.33h3.7l.83,2.33h2.59l-3.89-9.74h0ZM21.44,18.09l1.28-3.58,1.39,3.58h-2.67Z"/>
    <path class="st0" d="M12.45,25.07c-.1.02-.22.05-.33.05-.46,0-.78-.23-.78-.71s.3-.76.78-.76c.09,0,.22.02.32.06l-.02.24c-.11-.06-.21-.08-.31-.08-.29,0-.48.23-.48.52s.18.51.49.51c.11,0,.25-.02.31-.06v.24h.01Z"/>
    <path class="st0" d="M12.63,23.56h.27v.62h0c.07-.1.19-.17.33-.17.25,0,.36.18.36.41v.67h-.27v-.56c0-.13,0-.3-.18-.3-.2,0-.24.21-.24.35v.52h-.27v-1.54h0Z"/>
    <path class="st0" d="M14.19,24.92c.08,0,.15-.04.19-.09.04-.06.06-.14.06-.22h-.12c-.12,0-.31.02-.31.18,0,.09.08.13.17.13h0ZM13.86,24.1c.11-.05.25-.08.37-.08.32,0,.45.13.45.44v.14c0,.11,0,.19,0,.26,0,.08,0,.15.01.24h-.24c-.01-.06-.01-.12-.01-.16h0c-.06.12-.2.18-.33.18-.19,0-.37-.11-.37-.31,0-.16.08-.25.18-.3.1-.05.24-.06.35-.06h.15c0-.17-.08-.23-.24-.23-.12,0-.23.05-.33.11v-.24h0Z"/>
    <path class="st0" d="M14.9,24.04h.24v.24h0c.01-.1.12-.26.29-.26.03,0,.06,0,.08,0v.28s-.07-.02-.12-.02c-.22,0-.22.28-.22.43v.39h-.27v-1.05h0Z"/>
    <path class="st0" d="M15.69,24.04h.27v1.05h-.27v-1.05h0ZM15.69,23.59h.27v.26h-.27v-.26h0Z"/>
    <path class="st0" d="M16.33,24.24h-.2v-.2h.2v-.21l.27-.09v.3h.24v.2h-.24v.49c0,.09.02.17.13.17.05,0,.1-.01.12-.03v.22s-.11.02-.19.02c-.21,0-.33-.13-.33-.34v-.54h0Z"/>
    <path class="st0" d="M17.04,24.04h.27v1.05h-.27v-1.05h0ZM17.04,23.59h.27v.26h-.27v-.26h0Z"/>
    <path class="st0" d="M18.25,24.46c0-.13-.07-.25-.22-.25s-.23.11-.24.25h.47ZM18.43,25.04c-.1.06-.22.08-.36.08-.35,0-.55-.2-.55-.55,0-.31.16-.56.49-.56.39,0,.5.27.5.64h-.73c.01.17.13.27.3.27.13,0,.25-.05.35-.11v.22h0Z"/>
    <path class="st0" d="M19.34,24.26c-.08-.03-.15-.05-.25-.05-.07,0-.16.03-.16.12,0,.17.48.06.48.44,0,.25-.22.34-.44.34-.1,0-.21-.02-.31-.04l.02-.23c.09.04.18.07.27.07.07,0,.18-.03.18-.13,0-.21-.48-.07-.48-.45,0-.23.2-.33.41-.33.13,0,.21.02.3.04l-.02.21h0Z"/>
    <path class="st0" d="M20.62,23.95h0l-.21.59h.42l-.21-.59h0ZM20.47,23.67h.32l.56,1.43h-.32l-.12-.33h-.58l-.13.33h-.3l.56-1.43h0Z"/>
    <path class="st0" d="M21.51,24.04h.27v1.05h-.27v-1.05h0ZM21.51,23.59h.27v.26h-.27v-.26h0Z"/>
    <path class="st0" d="M22.51,24.91c.18,0,.24-.19.24-.34s-.07-.34-.25-.34-.23.19-.23.34.05.34.23.34h0ZM22.77,24.98h0c-.08.1-.19.14-.32.14-.32,0-.44-.27-.44-.55s.12-.55.44-.55c.14,0,.23.05.32.15h0v-.6h.27v1.54h-.27v-.12h0Z"/>
    <polygon class="st0" points="23.69 23.67 24.49 23.67 24.49 23.89 23.98 23.89 23.98 24.24 24.46 24.24 24.46 24.47 23.98 24.47 23.98 25.09 23.69 25.09 23.69 23.67 23.69 23.67"/>
    <path class="st0" d="M25.12,24.91c.21,0,.27-.19.27-.36,0-.16-.09-.31-.27-.31s-.26.16-.26.31c0,.17.06.36.26.36h0ZM25.12,24.02c.31,0,.55.21.55.56,0,.3-.2.54-.55.54s-.55-.24-.55-.54c0-.35.24-.56.55-.56h0Z"/>
    <path class="st0" d="M26.79,25.09h-.26v-.14h0c-.08.1-.2.17-.35.17-.25,0-.36-.18-.36-.41v-.67h.27v.56c0,.13,0,.3.18.3.2,0,.24-.22.24-.35v-.52h.27v1.05h0Z"/>
    <path class="st0" d="M27.01,24.04h.26v.14h0c.09-.12.2-.17.35-.17.25,0,.36.18.36.41v.67h-.27v-.56c0-.13,0-.3-.18-.3-.2,0-.24.22-.24.35v.52h-.27v-1.05h0Z"/>
    <path class="st0" d="M28.67,24.91c.18,0,.24-.19.24-.34s-.07-.34-.25-.34-.23.19-.23.34.05.34.23.34h0ZM28.92,24.98h0c-.08.1-.19.14-.32.14-.32,0-.44-.27-.44-.55s.12-.55.44-.55c.14,0,.23.05.32.15h0v-.6h.27v1.54h-.27v-.12h0Z"/>
    <path class="st0" d="M29.81,24.92c.08,0,.15-.04.19-.09.04-.06.06-.14.06-.22h-.12c-.12,0-.3.02-.3.18,0,.09.08.13.17.13h0ZM29.49,24.1c.11-.05.25-.08.37-.08.32,0,.45.13.45.44v.14c0,.11,0,.19,0,.26,0,.08,0,.15.01.24h-.24c-.01-.06-.01-.12-.01-.16h0c-.06.12-.2.18-.33.18-.19,0-.37-.11-.37-.31,0-.16.08-.25.18-.3.1-.05.24-.06.35-.06h.15c0-.17-.08-.23-.24-.23-.12,0-.23.04-.33.11v-.24h0Z"/>
    <path class="st0" d="M30.66,24.24h-.2v-.2h.2v-.21l.27-.09v.3h.24v.2h-.24v.49c0,.09.02.17.13.17.05,0,.1-.01.12-.03v.22s-.11.02-.19.02c-.21,0-.33-.13-.33-.34v-.54h0Z"/>
    <path class="st0" d="M31.4,24.04h.27v1.05h-.27v-1.05h0ZM31.4,23.59h.27v.26h-.27v-.26h0Z"/>
    <path class="st0" d="M32.38,24.91c.21,0,.27-.19.27-.36,0-.16-.09-.31-.27-.31s-.26.16-.26.31c0,.17.06.36.26.36h0ZM32.38,24.02c.31,0,.55.21.55.56,0,.3-.2.54-.55.54-.35,0-.55-.24-.55-.54,0-.35.24-.56.55-.56h0Z"/>
    <path class="st0" d="M33.1,24.04h.26v.14h0c.09-.12.2-.17.35-.17.25,0,.36.18.36.41v.67h-.27v-.56c0-.13,0-.3-.18-.3-.2,0-.24.21-.24.35v.52h-.27v-1.05h0Z"/>
    <path class="st0" d="M17.85,20.23c-.38.1-.85.15-1.39.15-.8,0-1.43-.27-1.89-.81-.46-.54-.69-1.37-.69-2.5v-.14c0-1.05.25-1.88.75-2.48.49-.6,1.19-.9,2.07-.9.47,0,.89.04,1.24.11.35.07.63.15.84.25v-1.49c-.23-.1-.54-.18-.95-.24-.41-.06-.92-.09-1.53-.09-1.42,0-2.6.43-3.54,1.29-.94.86-1.41,2-1.41,3.43v.38c0,1.52.46,2.68,1.39,3.47.91.78,2.09,1.17,3.52,1.18h0s1.59,0,1.59,0l.7-1.81c-.19.06-.42.13-.7.2h0Z"/>
    <polygon class="st0" points="34.07 13.56 34.07 12.1 27.26 12.1 27.26 19.35 28.25 21.84 29.77 21.84 29.77 17.63 33.11 17.63 33.11 16.17 29.77 16.17 29.77 13.56 34.07 13.56 34.07 13.56"/>
  </g>
</svg>