<?xml version="1.0" encoding="UTF-8"?>
<svg id="Layer_1" xmlns="http://www.w3.org/2000/svg" version="1.1" viewBox="0 0 316.96 155.9">
  <!-- Generator: Adobe Illustrator 30.1.0, SVG Export Plug-In . SVG Version: 2.1.1 Build 136)  -->
  <defs>
    <style>
      .st0 {
        fill: #fff;
      }
    </style>
  </defs>
  <path class="st0" d="M86.1,7h-9.45V.56h25.85v6.44h-9.45v26.46h-6.96V7Z"/>
  <path class="st0" d="M103.73,23.83v-13.39h6.72v13.11c0,2.49,1.13,4.28,3.53,4.28,2.91,0,3.95-2.07,3.95-5.59v-11.8h6.72v23.03h-6.58v-1.6c-1.41,1.46-3.52,2.11-5.73,2.11-5.36,0-8.6-3.62-8.6-10.15Z"/>
  <path class="st0" d="M130.56,10.43h6.58v2.07c1.27-1.5,3.38-2.4,5.73-2.4.8,0,1.13,0,1.79.05v6.44h-1.03c-3.71,0-6.39,2.35-6.39,7.24v9.63h-6.67V10.43Z"/>
  <path class="st0" d="M148.66,10.43h6.58v1.6c1.27-1.22,3.1-2.16,5.45-2.16,5.64,0,9.4,3.67,9.4,10.2v13.39h-6.67v-12.88c0-2.44-1.18-4.51-3.85-4.51-3.15,0-4.23,2.35-4.23,5.87v11.51h-6.67V10.43Z"/>
  <path class="st0" d="M179.35,0c2.16,0,3.9,1.74,3.9,3.9s-1.74,3.85-3.9,3.85-3.85-1.74-3.85-3.85,1.69-3.9,3.85-3.9ZM176.01,10.43h6.67v23.03h-6.67V10.43Z"/>
  <path class="st0" d="M188.89,10.43h6.58v1.6c1.27-1.22,3.1-2.16,5.45-2.16,5.64,0,9.4,3.67,9.4,10.2v13.39h-6.67v-12.88c0-2.44-1.17-4.51-3.85-4.51-3.15,0-4.23,2.35-4.23,5.87v11.51h-6.67V10.43Z"/>
  <path class="st0" d="M215.4,38.44l4.65-4.46c1.08,1.55,3.1,2.96,5.78,2.96,3.53,0,5.83-2.07,5.83-5.12v-.61c-1.18,1.03-3.05,1.74-5.64,1.74-6.39,0-11.28-4.23-11.28-11.51s5.36-11.56,11.28-11.56c2.54,0,4.51,1.03,5.78,2.21v-1.64h6.53v20.63c0,6.96-4.51,12.03-12.46,12.03-5.92,0-8.98-2.77-10.48-4.65ZM226.63,26.88c2.82,0,5.17-2.16,5.17-5.45s-2.35-5.5-5.17-5.5-5.07,2.16-5.07,5.5,2.3,5.45,5.07,5.45Z"/>
  <path class="st0" d="M14.5,83.09c0-5.08,4.37-7.43,9.12-7.43,1.79,0,3.43.33,4.56.66v-.38c0-2.16-1.41-3.76-3.81-3.76-1.79,0-3.71.85-4.93,2.68l-4.23-4.04c2.96-3.52,6.35-4.56,9.63-4.56,5.59,0,10.1,3.34,10.1,9.21v14.38h-6.67v-1.5c-1.18,1.03-3.15,2.02-5.78,2.02-4.98,0-7.99-3.15-7.99-7.28ZM24.09,84.74c1.6,0,2.96-.56,4.09-1.41v-2.63c-.8-.19-1.88-.42-3.05-.42-2.63,0-3.9,1.03-3.9,2.4,0,1.22,1.18,2.07,2.87,2.07Z"/>
  <path class="st0" d="M40.63,66.83h6.58v1.6c1.27-1.22,3.2-2.16,5.55-2.16,2.58,0,4.84.99,6.39,2.77,1.6-1.6,4.09-2.77,6.91-2.77,6.16,0,9.63,3.67,9.63,10.2v13.39h-6.67v-13.11c0-2.49-1.13-4.28-3.52-4.28-2.54,0-4,1.93-4,5.12v12.27h-6.67v-13.11c0-2.49-1.13-4.28-3.53-4.28-2.63,0-3.99,2.07-3.99,5.59v11.8h-6.67v-23.03Z"/>
  <path class="st0" d="M88.05,88.22v1.64h-6.67v-32.9h6.77v11.33c1.17-1.03,3.2-2.02,5.83-2.02,6.35,0,11.52,4.79,11.52,12.08s-5.17,12.03-11.52,12.03c-2.58,0-4.7-.99-5.92-2.16ZM93.32,84.36c3.05,0,5.36-2.44,5.36-6.02s-2.3-6.02-5.36-6.02-5.26,2.44-5.26,6.02,2.21,6.02,5.26,6.02Z"/>
  <path class="st0" d="M113.67,56.4c2.16,0,3.9,1.74,3.9,3.9s-1.74,3.85-3.9,3.85-3.85-1.74-3.85-3.85,1.69-3.9,3.85-3.9ZM110.33,66.83h6.67v23.03h-6.67v-23.03Z"/>
  <path class="st0" d="M124.05,81.73v-8.74h-3.01v-6.16h3.01v-6.44h6.67v6.44h5.08v6.16h-5.08v7.94c0,2.3,1.08,2.82,3.01,2.82h1.97v6.11c-.75.05-2.3.09-3.62.09-5.45,0-8.04-2.91-8.04-8.22Z"/>
  <path class="st0" d="M144.45,56.4c2.16,0,3.9,1.74,3.9,3.9s-1.74,3.85-3.9,3.85-3.85-1.74-3.85-3.85,1.69-3.9,3.85-3.9ZM141.11,66.83h6.67v23.03h-6.67v-23.03Z"/>
  <path class="st0" d="M152.68,78.35c0-6.91,5.26-12.08,12.17-12.08s12.17,5.17,12.17,12.08-5.26,12.03-12.17,12.03-12.17-5.12-12.17-12.03ZM164.85,84.18c3.1,0,5.36-2.44,5.36-5.83s-2.26-5.83-5.36-5.83-5.36,2.44-5.36,5.83,2.26,5.83,5.36,5.83Z"/>
  <path class="st0" d="M181.63,66.83h6.58v1.6c1.27-1.22,3.1-2.16,5.45-2.16,5.64,0,9.4,3.67,9.4,10.2v13.39h-6.67v-12.88c0-2.44-1.17-4.51-3.85-4.51-3.15,0-4.23,2.35-4.23,5.87v11.51h-6.67v-23.03Z"/>
  <path class="st0" d="M225.48,56.4c2.16,0,3.9,1.74,3.9,3.9s-1.74,3.85-3.9,3.85-3.85-1.74-3.85-3.85,1.69-3.9,3.85-3.9ZM222.14,66.83h6.67v23.03h-6.67v-23.03Z"/>
  <path class="st0" d="M235.02,66.83h6.58v1.6c1.27-1.22,3.1-2.16,5.45-2.16,5.64,0,9.4,3.67,9.4,10.2v13.39h-6.67v-12.88c0-2.44-1.17-4.51-3.85-4.51-3.15,0-4.23,2.35-4.23,5.87v11.51h-6.67v-23.03Z"/>
  <path class="st0" d="M262.98,81.73v-8.74h-3.01v-6.16h3.01v-6.44h6.67v6.44h5.07v6.16h-5.07v7.94c0,2.3,1.08,2.82,3.01,2.82h1.97v6.11c-.75.05-2.3.09-3.62.09-5.45,0-8.04-2.91-8.04-8.22Z"/>
  <path class="st0" d="M277.93,78.35c0-6.91,5.26-12.08,12.17-12.08s12.17,5.17,12.17,12.08-5.26,12.03-12.17,12.03-12.17-5.12-12.17-12.03ZM290.1,84.18c3.1,0,5.36-2.44,5.36-5.83s-2.26-5.83-5.36-5.83-5.36,2.44-5.36,5.83,2.26,5.83,5.36,5.83Z"/>
  <path class="st0" d="M0,113.36h6.67v32.9H0v-32.9Z"/>
  <path class="st0" d="M11.51,139.49c0-5.08,4.37-7.43,9.12-7.43,1.79,0,3.43.33,4.56.66v-.38c0-2.16-1.41-3.76-3.81-3.76-1.79,0-3.71.85-4.93,2.68l-4.23-4.04c2.96-3.52,6.35-4.56,9.63-4.56,5.59,0,10.1,3.34,10.1,9.21v14.38h-6.67v-1.5c-1.18,1.03-3.15,2.02-5.78,2.02-4.98,0-7.99-3.15-7.99-7.28ZM21.1,141.14c1.6,0,2.96-.56,4.09-1.41v-2.63c-.8-.19-1.88-.42-3.05-.42-2.63,0-3.9,1.03-3.9,2.4,0,1.22,1.18,2.07,2.87,2.07Z"/>
  <path class="st0" d="M36.28,142.31l4.09-4.18c2.3,2.26,4.51,3.05,6.58,3.05,1.36,0,2.58-.61,2.58-1.5,0-.7-.61-1.08-2.07-1.46l-3.05-.75c-5.12-1.27-7.52-3.81-7.52-7.52,0-4.51,4.13-7.29,8.93-7.29,3.38,0,6.53,1.17,9.26,3.62l-4.09,4.32c-1.41-1.17-3.34-2.26-5.45-2.26-1.32,0-2.16.61-2.16,1.36,0,.61.61.99,1.64,1.22l3.43.8c4.14.99,7.57,3.01,7.57,7.61,0,4.32-3.67,7.42-9.63,7.42-4.51,0-8.32-2.21-10.1-4.46Z"/>
  <path class="st0" d="M61.14,138.13v-8.74h-3.01v-6.16h3.01v-6.44h6.67v6.44h5.08v6.16h-5.08v7.94c0,2.3,1.08,2.82,3.01,2.82h1.97v6.11c-.75.05-2.3.09-3.62.09-5.45,0-8.04-2.91-8.04-8.22Z"/>
  <path class="st0" d="M81.54,112.8c2.16,0,3.9,1.74,3.9,3.9s-1.74,3.85-3.9,3.85-3.85-1.74-3.85-3.85,1.69-3.9,3.85-3.9ZM78.21,123.23h6.67v23.03h-6.67v-23.03Z"/>
  <path class="st0" d="M91.08,123.23h6.58v1.6c1.27-1.22,3.1-2.16,5.45-2.16,5.64,0,9.4,3.67,9.4,10.2v13.39h-6.67v-12.88c0-2.44-1.17-4.51-3.85-4.51-3.15,0-4.23,2.35-4.23,5.87v11.51h-6.67v-23.03Z"/>
  <path class="st0" d="M117.59,151.24l4.65-4.46c1.08,1.55,3.1,2.96,5.78,2.96,3.52,0,5.83-2.07,5.83-5.12v-.61c-1.17,1.03-3.05,1.74-5.64,1.74-6.39,0-11.28-4.23-11.28-11.51s5.36-11.56,11.28-11.56c2.54,0,4.51,1.03,5.78,2.21v-1.64h6.53v20.63c0,6.96-4.51,12.03-12.45,12.03-5.92,0-8.98-2.77-10.48-4.65ZM128.82,139.68c2.82,0,5.17-2.16,5.17-5.45s-2.35-5.5-5.17-5.5-5.08,2.16-5.08,5.5,2.3,5.45,5.08,5.45Z"/>
  <path class="st0" d="M163.18,112.8c2.16,0,3.9,1.74,3.9,3.9s-1.74,3.85-3.9,3.85-3.85-1.74-3.85-3.85,1.69-3.9,3.85-3.9ZM159.84,123.23h6.67v23.03h-6.67v-23.03Z"/>
  <path class="st0" d="M172.72,123.23h6.58v1.6c1.27-1.22,3.2-2.16,5.55-2.16,2.58,0,4.84.99,6.39,2.77,1.6-1.6,4.09-2.77,6.91-2.77,6.16,0,9.63,3.67,9.63,10.2v13.39h-6.67v-13.11c0-2.49-1.13-4.28-3.52-4.28-2.54,0-4,1.93-4,5.12v12.27h-6.67v-13.11c0-2.49-1.13-4.28-3.53-4.28-2.63,0-3.99,2.07-3.99,5.59v11.8h-6.67v-23.03Z"/>
  <path class="st0" d="M213.47,123.23h6.58v1.64c1.22-1.17,3.43-2.21,6.02-2.21,6.35,0,11.52,4.61,11.52,12.08s-5.17,12.03-11.52,12.03c-2.63,0-4.75-.94-5.92-1.97v10.57h-6.67v-32.15ZM225.41,140.76c3.05,0,5.36-2.44,5.36-6.02s-2.3-6.02-5.36-6.02-5.36,2.44-5.36,6.02,2.3,6.02,5.36,6.02Z"/>
  <path class="st0" d="M240.26,139.49c0-5.08,4.37-7.43,9.12-7.43,1.79,0,3.43.33,4.56.66v-.38c0-2.16-1.41-3.76-3.81-3.76-1.79,0-3.71.85-4.93,2.68l-4.23-4.04c2.96-3.52,6.35-4.56,9.63-4.56,5.59,0,10.1,3.34,10.1,9.21v14.38h-6.67v-1.5c-1.18,1.03-3.15,2.02-5.78,2.02-4.98,0-7.99-3.15-7.99-7.28ZM249.85,141.14c1.6,0,2.96-.56,4.09-1.41v-2.63c-.8-.19-1.88-.42-3.05-.42-2.63,0-3.9,1.03-3.9,2.4,0,1.22,1.18,2.07,2.87,2.07Z"/>
  <path class="st0" d="M265.08,134.75c0-6.91,5.26-12.08,12.17-12.08,4.37,0,7.19,1.88,9.63,4.61l-4.51,4.37c-1.32-1.6-2.77-2.68-4.89-2.68-3.15,0-5.59,2.4-5.59,5.78s2.44,5.78,5.59,5.78c2.3,0,3.9-1.13,5.36-3.01l4.51,4.37c-2.35,3.1-5.64,4.89-10.11,4.89-6.91,0-12.17-5.12-12.17-12.03Z"/>
  <path class="st0" d="M292.48,138.13v-8.74h-3.01v-6.16h3.01v-6.44h6.67v6.44h5.07v6.16h-5.07v7.94c0,2.3,1.08,2.82,3.01,2.82h1.97v6.11c-.75.05-2.3.09-3.62.09-5.45,0-8.04-2.91-8.04-8.22Z"/>
  <path class="st0" d="M308.88,142.74c0-2.26,1.74-4.04,3.99-4.04s4.09,1.79,4.09,4.04-1.83,4.04-4.09,4.04-3.99-1.79-3.99-4.04Z"/>
</svg>