<?xml version="1.0" encoding="UTF-8"?>
<svg id="Layer_1" xmlns="http://www.w3.org/2000/svg" version="1.1" viewBox="0 0 103.76 85">
  <!-- Generator: Adobe Illustrator 30.1.0, SVG Export Plug-In . SVG Version: 2.1.1 Build 136)  -->
  <defs>
    <style>
      .st0 {
        fill: #fff;
      }

      .st1 {
        fill: #0d393b;
      }
    </style>
  </defs>
  <rect class="st1" width="103.76" height="85"/>
  <g>
    <polygon class="st0" points="77.83 52.16 25.93 52.16 25.93 51.75 77.83 51.75 77.83 52.16 77.83 52.16"/>
    <path class="st0" d="M55.22,27.66h-5.38l-8.63,22.26h4.71l1.94-5.33h8.45l1.89,5.33h5.91l-8.88-22.26h0ZM48.98,41.35l2.92-8.18,3.18,8.18h-6.1Z"/>
    <path class="st0" d="M55.22,27.64h-5.38l-8.63,22.26h4.71l1.94-5.33h8.45l1.89,5.33h5.91l-8.88-22.26h0ZM48.98,41.33l2.92-8.18,3.18,8.18h-6.1Z"/>
    <path class="st0" d="M28.45,57.29c-.24.06-.5.1-.74.1-1.06,0-1.79-.53-1.79-1.63s.68-1.74,1.79-1.74c.22,0,.5.04.74.14l-.05.55c-.25-.14-.47-.17-.71-.17-.67,0-1.09.51-1.09,1.18s.41,1.16,1.11,1.16c.26,0,.56-.06.72-.14l.03.55h0Z"/>
    <path class="st0" d="M28.85,53.83h.63v1.43h0c.16-.23.43-.38.76-.38.57,0,.82.4.82.94v1.52h-.63v-1.29c0-.29,0-.69-.41-.69-.45,0-.55.49-.55.8v1.18h-.63v-3.51h0Z"/>
    <path class="st0" d="M32.41,56.93c.19,0,.34-.08.44-.22.1-.14.13-.31.13-.5h-.27c-.28,0-.7.05-.7.42,0,.21.17.29.4.29h0ZM31.67,55.05c.24-.11.57-.18.84-.18.73,0,1.04.3,1.04,1.01v.31c0,.24,0,.43,0,.6,0,.18.01.35.03.54h-.55c-.02-.13-.02-.29-.03-.36h0c-.14.27-.46.42-.74.42-.43,0-.84-.26-.84-.72,0-.36.17-.57.41-.69.24-.12.55-.14.81-.14h.35c0-.39-.17-.52-.54-.52-.27,0-.53.1-.74.26l-.02-.54h0Z"/>
    <path class="st0" d="M34.05,54.93h.56v.55h0c.03-.22.29-.6.66-.6.06,0,.13,0,.19.02v.63c-.06-.03-.17-.05-.28-.05-.51,0-.51.64-.51.98v.88h-.63v-2.41h0Z"/>
    <path class="st0" d="M35.85,54.93h.63v2.41h-.63v-2.41h0ZM35.85,53.89h.63v.6h-.63v-.6h0Z"/>
    <path class="st0" d="M37.31,55.38h-.46v-.46h.46v-.48l.63-.2v.68h.56v.46h-.56v1.12c0,.21.06.4.29.4.11,0,.22-.02.29-.07l.02.5c-.13.04-.28.06-.46.06-.49,0-.76-.3-.76-.78v-1.23h0Z"/>
    <path class="st0" d="M38.92,54.93h.63v2.41h-.63v-2.41h0ZM38.92,53.89h.63v.6h-.63v-.6h0Z"/>
    <path class="st0" d="M41.7,55.89c-.02-.3-.16-.57-.51-.57s-.53.24-.56.57h1.07ZM42.12,57.2c-.23.13-.49.19-.83.19-.8,0-1.26-.46-1.26-1.25,0-.7.37-1.27,1.12-1.27.89,0,1.15.61,1.15,1.45h-1.66c.03.39.3.61.69.61.3,0,.57-.11.8-.24v.51h0Z"/>
    <path class="st0" d="M44.19,55.43c-.19-.07-.33-.1-.56-.1-.17,0-.37.06-.37.27,0,.38,1.09.14,1.09,1.01,0,.56-.5.79-1.01.79-.24,0-.48-.04-.71-.1l.04-.51c.2.1.4.16.62.16.16,0,.41-.06.41-.29,0-.47-1.09-.15-1.09-1.02,0-.52.45-.75.94-.75.29,0,.49.05.68.09l-.04.47h0Z"/>
    <path class="st0" d="M47.12,54.72h0l-.47,1.35h.95l-.47-1.35h0ZM46.76,54.07h.74l1.28,3.26h-.72l-.28-.75h-1.32l-.29.75h-.68l1.27-3.26h0Z"/>
    <path class="st0" d="M49.14,54.93h.63v2.41h-.63v-2.41h0ZM49.14,53.89h.63v.6h-.63v-.6h0Z"/>
    <path class="st0" d="M51.44,56.9c.42,0,.55-.44.55-.78s-.16-.77-.56-.77-.52.44-.52.77.12.78.53.78h0ZM52.01,57.06h0c-.19.23-.44.33-.74.33-.74,0-1.01-.61-1.01-1.27s.27-1.25,1.01-1.25c.31,0,.53.11.72.34h0v-1.38h.63v3.51h-.61v-.27h0Z"/>
    <polygon class="st0" points="54.13 54.07 55.95 54.07 55.95 54.58 54.79 54.58 54.79 55.39 55.89 55.39 55.89 55.9 54.79 55.9 54.79 57.33 54.13 57.33 54.13 54.07 54.13 54.07"/>
    <path class="st0" d="M57.38,56.9c.48,0,.61-.43.61-.83,0-.37-.2-.72-.61-.72s-.6.36-.6.72c0,.4.13.83.6.83h0ZM57.38,54.87c.72,0,1.26.48,1.26,1.28,0,.69-.46,1.24-1.26,1.24s-1.26-.55-1.26-1.24c0-.79.55-1.28,1.26-1.28h0Z"/>
    <path class="st0" d="M61.21,57.33h-.59v-.33h0c-.19.23-.46.38-.79.38-.57,0-.82-.4-.82-.94v-1.52h.63v1.29c0,.29,0,.69.41.69.45,0,.55-.49.55-.8v-1.18h.63v2.41h0Z"/>
    <path class="st0" d="M61.71,54.93h.59v.33h0c.2-.28.46-.38.79-.38.57,0,.82.4.82.94v1.52h-.63v-1.29c0-.29,0-.69-.41-.69-.45,0-.55.49-.55.8v1.18h-.63v-2.41h0Z"/>
    <path class="st0" d="M65.51,56.9c.42,0,.55-.44.55-.78s-.16-.77-.56-.77-.52.44-.52.77.12.78.53.78h0ZM66.08,57.06h0c-.19.23-.44.33-.74.33-.74,0-1.01-.61-1.01-1.27s.27-1.25,1.01-1.25c.31,0,.53.11.72.34h0v-1.38h.63v3.51h-.61v-.27h0Z"/>
    <path class="st0" d="M68.11,56.93c.19,0,.34-.08.44-.21.1-.14.13-.31.13-.5h-.27c-.28,0-.7.05-.7.42,0,.21.17.29.4.29h0ZM67.37,55.05c.24-.11.57-.18.84-.18.73,0,1.04.3,1.04,1.01v.31c0,.24,0,.43,0,.6,0,.18.01.35.03.54h-.55c-.02-.13-.02-.29-.03-.36h0c-.15.27-.46.42-.74.42-.43,0-.84-.26-.84-.72,0-.36.17-.57.41-.69.24-.12.55-.14.81-.14h.35c0-.39-.17-.52-.54-.52-.27,0-.53.1-.74.26l-.02-.54h0Z"/>
    <path class="st0" d="M70.05,55.38h-.46v-.46h.46v-.48l.63-.2v.68h.56v.46h-.56v1.12c0,.21.06.4.29.4.11,0,.22-.02.29-.07l.02.5c-.13.04-.28.06-.46.06-.49,0-.76-.3-.76-.78v-1.22h0Z"/>
    <path class="st0" d="M71.73,54.93h.63v2.41h-.63v-2.41h0ZM71.73,53.89h.63v.6h-.63v-.6h0Z"/>
    <path class="st0" d="M73.98,56.9c.48,0,.61-.43.61-.83,0-.37-.2-.72-.61-.72s-.6.36-.6.72c0,.4.13.83.6.83h0ZM73.98,54.87c.72,0,1.26.48,1.26,1.28,0,.69-.46,1.24-1.26,1.24-.79,0-1.26-.55-1.26-1.24,0-.79.55-1.28,1.26-1.28h0Z"/>
    <path class="st0" d="M75.63,54.93h.59v.33h0c.2-.28.46-.38.79-.38.57,0,.82.4.82.94v1.52h-.63v-1.29c0-.29,0-.69-.41-.69-.45,0-.55.49-.55.8v1.18h-.63v-2.41h0Z"/>
    <path class="st0" d="M40.78,46.22c-.87.22-1.93.33-3.17.33-1.83,0-3.27-.62-4.33-1.86-1.06-1.24-1.59-3.14-1.59-5.71v-.32c0-2.41.57-4.29,1.7-5.66,1.13-1.36,2.71-2.05,4.72-2.05,1.08,0,2.03.09,2.83.25.8.16,1.44.35,1.91.56v-3.4c-.52-.23-1.24-.42-2.17-.56-.93-.14-2.1-.21-3.49-.21-3.24,0-5.93.99-8.08,2.95-2.14,1.97-3.22,4.58-3.22,7.83v.87c0,3.48,1.06,6.13,3.17,7.93,2.08,1.77,4.77,2.67,8.05,2.7h0s3.64,0,3.64,0l1.6-4.14c-.44.15-.97.3-1.59.46h0Z"/>
    <polygon class="st0" points="77.85 30.98 77.85 27.64 62.27 27.64 62.27 44.2 64.55 49.91 68.02 49.91 68.02 40.29 75.65 40.29 75.65 36.94 68.02 36.94 68.02 30.98 77.85 30.98 77.85 30.98"/>
  </g>
</svg>