<?xml version="1.0" encoding="UTF-8"?>
<svg id="Layer_1" xmlns="http://www.w3.org/2000/svg" version="1.1" viewBox="0 0 102.95 21.97">
  <!-- Generator: Adobe Illustrator 30.1.0, SVG Export Plug-In . SVG Version: 2.1.1 Build 136)  -->
  <defs>
    <style>
      .st0 {
        fill: #fff;
      }
    </style>
  </defs>
  <path class="st0" d="M0,.13h1.75l1.19,4.93L4.18.13h1.75l1.24,4.93L8.36.13h1.75l-2.06,7.7h-1.67l-1.32-5.08-1.33,5.08h-1.67L0,.13Z"/>
  <path class="st0" d="M11.02.13h1.55v2.62c.24-.22.72-.44,1.27-.44,1.32,0,2.2.86,2.2,2.39v3.14h-1.56v-3.01c0-.57-.27-1.06-.9-1.06-.74,0-.99.55-.99,1.38v2.7h-1.56V.13Z"/>
  <path class="st0" d="M17.06,5.17c0-1.63,1.09-2.86,2.65-2.86,1.74,0,2.6,1.4,2.6,2.76v.46h-3.66c.09.56.52.99,1.21.99.56,0,.99-.21,1.32-.63l1.03.97c-.47.59-1.16,1.09-2.31,1.09-1.62,0-2.84-1.09-2.84-2.78ZM20.66,4.49c-.03-.45-.4-.8-.91-.8-.58,0-.92.36-1.02.8h1.94Z"/>
  <path class="st0" d="M23.37,2.44h1.54v.37c.3-.29.73-.51,1.28-.51,1.32,0,2.2.86,2.2,2.39v3.14h-1.56v-3.01c0-.57-.27-1.06-.9-1.06-.74,0-.99.55-.99,1.38v2.7h-1.56V2.44Z"/>
  <path class="st0" d="M32.66,9l1.09-1.04c.25.36.73.69,1.35.69.82,0,1.36-.48,1.36-1.2v-.14c-.27.24-.71.41-1.32.41-1.5,0-2.64-.99-2.64-2.7s1.25-2.71,2.64-2.71c.59,0,1.06.24,1.35.52v-.38h1.53v4.83c0,1.63-1.06,2.82-2.92,2.82-1.39,0-2.1-.65-2.45-1.09ZM35.29,6.29c.66,0,1.21-.51,1.21-1.28s-.55-1.29-1.21-1.29-1.19.51-1.19,1.29.54,1.28,1.19,1.28Z"/>
  <path class="st0" d="M40.25,0c.51,0,.91.41.91.91s-.41.9-.91.9-.9-.41-.9-.9.4-.91.9-.91ZM39.47,2.44h1.56v5.39h-1.56V2.44Z"/>
  <path class="st0" d="M41.85,2.44h1.66l1.06,3.33,1.06-3.33h1.66l-1.91,5.39h-1.61l-1.91-5.39Z"/>
  <path class="st0" d="M48.88,0c.51,0,.91.41.91.91s-.41.9-.91.9-.9-.41-.9-.9.4-.91.9-.91ZM48.1,2.44h1.56v5.39h-1.56V2.44Z"/>
  <path class="st0" d="M51.12,2.44h1.54v.37c.3-.29.73-.51,1.28-.51,1.32,0,2.2.86,2.2,2.39v3.14h-1.56v-3.01c0-.57-.27-1.06-.9-1.06-.74,0-.99.55-.99,1.38v2.7h-1.56V2.44Z"/>
  <path class="st0" d="M57.32,9l1.09-1.04c.25.36.73.69,1.35.69.82,0,1.36-.48,1.36-1.2v-.14c-.27.24-.71.41-1.32.41-1.5,0-2.64-.99-2.64-2.7s1.25-2.71,2.64-2.71c.59,0,1.06.24,1.35.52v-.38h1.53v4.83c0,1.63-1.06,2.82-2.92,2.82-1.39,0-2.1-.65-2.45-1.09ZM59.95,6.29c.66,0,1.21-.51,1.21-1.28s-.55-1.29-1.21-1.29-1.19.51-1.19,1.29.54,1.28,1.19,1.28Z"/>
  <path class="st0" d="M66.85,5.14c0-1.62,1.23-2.83,2.85-2.83,1.02,0,1.68.44,2.26,1.08l-1.06,1.02c-.31-.37-.65-.63-1.14-.63-.74,0-1.31.56-1.31,1.35s.57,1.35,1.31,1.35c.54,0,.91-.26,1.25-.7l1.06,1.02c-.55.73-1.32,1.14-2.37,1.14-1.62,0-2.85-1.2-2.85-2.82Z"/>
  <path class="st0" d="M73.06,2.44h1.54v.48c.3-.35.79-.56,1.34-.56.19,0,.26,0,.42.01v1.51h-.24c-.87,0-1.5.55-1.5,1.69v2.25h-1.56V2.44Z"/>
  <path class="st0" d="M76.74,5.17c0-1.63,1.09-2.86,2.65-2.86,1.74,0,2.6,1.4,2.6,2.76v.46h-3.66c.09.56.52.99,1.21.99.56,0,.99-.21,1.32-.63l1.03.97c-.47.59-1.16,1.09-2.31,1.09-1.62,0-2.84-1.09-2.84-2.78ZM80.33,4.49c-.03-.45-.4-.8-.91-.8-.58,0-.92.36-1.02.8h1.94Z"/>
  <path class="st0" d="M82.6,6.25c0-1.19,1.02-1.74,2.13-1.74.42,0,.8.08,1.07.15v-.09c0-.51-.33-.88-.89-.88-.42,0-.87.2-1.16.63l-.99-.95c.69-.83,1.49-1.07,2.26-1.07,1.31,0,2.37.78,2.37,2.16v3.37h-1.56v-.35c-.27.24-.74.47-1.35.47-1.17,0-1.87-.74-1.87-1.71ZM84.84,6.63c.37,0,.69-.13.96-.33v-.62c-.19-.04-.44-.1-.72-.1-.62,0-.91.24-.91.56,0,.29.28.48.67.48Z"/>
  <path class="st0" d="M88.91,5.93v-2.05h-.7v-1.44h.7V.93h1.56v1.51h1.19v1.44h-1.19v1.86c0,.54.25.66.7.66h.46v1.43c-.18.01-.54.02-.85.02-1.28,0-1.88-.68-1.88-1.93Z"/>
  <path class="st0" d="M92.41,5.17c0-1.63,1.09-2.86,2.65-2.86,1.74,0,2.6,1.4,2.6,2.76v.46h-3.66c.09.56.52.99,1.21.99.56,0,.99-.21,1.32-.63l1.03.97c-.47.59-1.16,1.09-2.31,1.09-1.62,0-2.84-1.09-2.84-2.78ZM96.01,4.49c-.03-.45-.4-.8-.91-.8-.58,0-.92.36-1.02.8h1.94Z"/>
  <path class="st0" d="M98.33,6.91l.96-.98c.54.53,1.06.71,1.54.71.32,0,.6-.14.6-.35,0-.17-.14-.25-.48-.34l-.72-.18c-1.2-.3-1.76-.89-1.76-1.76,0-1.06.97-1.71,2.09-1.71.79,0,1.53.27,2.17.85l-.96,1.01c-.33-.28-.78-.53-1.28-.53-.31,0-.51.14-.51.32,0,.14.14.23.39.29l.8.19c.97.23,1.77.7,1.77,1.78,0,1.01-.86,1.74-2.26,1.74-1.06,0-1.95-.52-2.37-1.04Z"/>
  <path class="st0" d="M4.16,14.44h1.54v.37c.3-.29.73-.51,1.28-.51,1.32,0,2.2.86,2.2,2.39v3.14h-1.56v-3.01c0-.57-.27-1.06-.9-1.06-.74,0-.99.55-.99,1.38v2.7h-1.56v-5.39Z"/>
  <path class="st0" d="M10.2,17.17c0-1.63,1.09-2.86,2.65-2.86,1.74,0,2.6,1.4,2.6,2.76v.46h-3.66c.09.56.52.99,1.21.99.56,0,.99-.21,1.32-.63l1.03.97c-.47.59-1.16,1.09-2.31,1.09-1.62,0-2.84-1.09-2.84-2.78ZM13.79,16.49c-.03-.45-.4-.8-.91-.8-.58,0-.92.36-1.02.8h1.94Z"/>
  <path class="st0" d="M15.87,14.44h1.67l.77,3.22.88-3.22h1.74l.89,3.22.76-3.22h1.67l-1.52,5.39h-1.71l-.97-3.32-.97,3.32h-1.71l-1.52-5.39Z"/>
  <path class="st0" d="M27.88,17.14c0-1.62,1.23-2.83,2.85-2.83s2.85,1.21,2.85,2.83-1.23,2.82-2.85,2.82-2.85-1.2-2.85-2.82ZM30.73,18.5c.73,0,1.25-.57,1.25-1.36s-.53-1.36-1.25-1.36-1.25.57-1.25,1.36.53,1.36,1.25,1.36Z"/>
  <path class="st0" d="M34.66,14.44h1.54v.38c.29-.28.8-.52,1.41-.52,1.49,0,2.7,1.08,2.7,2.83s-1.21,2.82-2.7,2.82c-.62,0-1.11-.22-1.39-.46v2.48h-1.56v-7.53ZM37.46,18.55c.72,0,1.25-.57,1.25-1.41s-.54-1.41-1.25-1.41-1.25.57-1.25,1.41.54,1.41,1.25,1.41Z"/>
  <path class="st0" d="M41.38,14.44h1.54v.38c.29-.28.8-.52,1.41-.52,1.49,0,2.7,1.08,2.7,2.83s-1.21,2.82-2.7,2.82c-.62,0-1.11-.22-1.39-.46v2.48h-1.56v-7.53ZM44.18,18.55c.72,0,1.25-.57,1.25-1.41s-.54-1.41-1.25-1.41-1.25.57-1.25,1.41.54,1.41,1.25,1.41Z"/>
  <path class="st0" d="M47.79,17.14c0-1.62,1.23-2.83,2.85-2.83s2.85,1.21,2.85,2.83-1.23,2.82-2.85,2.82-2.85-1.2-2.85-2.82ZM50.64,18.5c.73,0,1.25-.57,1.25-1.36s-.53-1.36-1.25-1.36-1.25.57-1.25,1.36.53,1.36,1.25,1.36Z"/>
  <path class="st0" d="M54.57,14.44h1.54v.48c.3-.35.79-.56,1.34-.56.19,0,.26,0,.42.01v1.51h-.24c-.87,0-1.5.55-1.5,1.69v2.25h-1.56v-5.39Z"/>
  <path class="st0" d="M59.17,17.93v-2.05h-.7v-1.44h.7v-1.51h1.56v1.51h1.19v1.44h-1.19v1.86c0,.54.25.66.7.66h.46v1.43c-.18.01-.54.02-.85.02-1.28,0-1.88-.68-1.88-1.93Z"/>
  <path class="st0" d="M63.05,17.58v-3.14h1.57v3.07c0,.58.26,1,.83,1,.68,0,.92-.48.92-1.31v-2.76h1.57v5.39h-1.54v-.37c-.33.34-.83.5-1.34.5-1.25,0-2.01-.85-2.01-2.38Z"/>
  <path class="st0" d="M69.33,14.44h1.54v.37c.3-.29.73-.51,1.28-.51,1.32,0,2.2.86,2.2,2.39v3.14h-1.56v-3.01c0-.57-.27-1.06-.9-1.06-.74,0-.99.55-.99,1.38v2.7h-1.56v-5.39Z"/>
  <path class="st0" d="M76.52,12c.51,0,.91.41.91.91s-.41.9-.91.9-.9-.41-.9-.9.4-.91.9-.91ZM75.73,14.44h1.56v5.39h-1.56v-5.39Z"/>
  <path class="st0" d="M78.95,17.93v-2.05h-.7v-1.44h.7v-1.51h1.56v1.51h1.19v1.44h-1.19v1.86c0,.54.25.66.7.66h.46v1.43c-.18.01-.54.02-.85.02-1.28,0-1.88-.68-1.88-1.93Z"/>
  <path class="st0" d="M83.72,12c.51,0,.91.41.91.91s-.41.9-.91.9-.9-.41-.9-.9.4-.91.9-.91ZM82.94,14.44h1.56v5.39h-1.56v-5.39Z"/>
  <path class="st0" d="M85.65,17.17c0-1.63,1.09-2.86,2.65-2.86,1.74,0,2.6,1.4,2.6,2.76v.46h-3.66c.09.56.52.99,1.21.99.56,0,.99-.21,1.32-.63l1.03.97c-.47.59-1.16,1.09-2.31,1.09-1.62,0-2.84-1.09-2.84-2.78ZM89.24,16.49c-.03-.45-.4-.8-.91-.8-.58,0-.92.36-1.02.8h1.94Z"/>
  <path class="st0" d="M91.56,18.91l.96-.98c.54.53,1.06.71,1.54.71.32,0,.6-.14.6-.35,0-.17-.14-.25-.48-.34l-.71-.18c-1.2-.3-1.76-.89-1.76-1.76,0-1.06.97-1.71,2.09-1.71.79,0,1.53.27,2.17.85l-.96,1.01c-.33-.28-.78-.53-1.28-.53-.31,0-.51.14-.51.32,0,.14.14.23.39.29l.8.19c.97.23,1.77.7,1.77,1.78,0,1.01-.86,1.74-2.26,1.74-1.06,0-1.95-.52-2.37-1.04Z"/>
  <path class="st0" d="M97.15,19.01c0-.53.41-.95.94-.95s.96.42.96.95-.43.95-.96.95-.94-.42-.94-.95Z"/>
</svg>