<?xml version="1.0" encoding="UTF-8"?>
<svg id="Layer_1" xmlns="http://www.w3.org/2000/svg" version="1.1" viewBox="0 0 836.59 196.01">
  <!-- Generator: Adobe Illustrator 30.1.0, SVG Export Plug-In . SVG Version: 2.1.1 Build 136)  -->
  <defs>
    <style>
      .st0, .st1 {
        fill: #0066b3;
      }

      .st1 {
        fill-rule: evenodd;
      }
    </style>
  </defs>
  <path class="st1" d="M178.85,1.26c.65.28,1.58.3,2.21.61-2.25,28.42-19.82,42.58-52,40.43v126c23.08-5.4,37.56-20.3,48.38-38.3.92.35,1.8.73,2.71,1.1-7.05,29.38-22.89,51.8-50.29,60.85-13.66,4.52-33.19,5.39-49.39,2-13.84-2.78-26.81-8.85-37.81-17.69-15.21-12.34-26.16-29.74-28-55.43-.58-8.5.09-17.04,2-25.34,3.46-14.75,10.34-26.83,18.56-37.11s18.31-18.93,28.86-26.65c-13.28-2.73-28.08-1.73-38.02,3.42-8.28,4.29-14.81,11.14-20,18.9-.64,1-1.73,3-2.41,3.12s-1.52-.13-2.22,0C4.17,38.3,12,24.53,24.66,15.32,37.08,6.32,55.09,1.43,76.86,2.86c24.8,1.64,45.53,9.15,68.79,12.57,4.95.74,10.13,1.22,14.9.5,9.41-1.43,13.91-7.38,18.1-14.37.08-.09.06-.29.2-.3ZM43.55,90c-2.36,28.93,7.74,48.66,22.55,61.47,2.89-2.48,5.23-5.55,6.84-9,1.66-3.82,2.12-8.49,2.12-13.78V33.43c-1.15-.09-2.29-.25-3.42-.5-14,13.73-25.95,31.22-28.09,57.07ZM104.12,38.51v37.17c0,12.54.75,25.15-1.21,36.12-3.79,21.2-17.32,32.46-30.47,44.14,11,9.74,28.29,15.19,49.78,13.58V41.88c-6-1.18-11.91-2.49-18-3.61-.03-.16-.15,0-.1.2v.04Z"/>
  <path class="st1" d="M207,9.6c5.49,0,8.73,2.46,10.35,6.73,3.16,8.29,1.09,21.57-5.82,24.55-4.92,2.12-11.3,0-13.89-3.72-1.9-2.76-2.72-6.61-2.71-10.87.07-9.29,2.45-16.65,12.07-16.69Z"/>
  <path class="st1" d="M250.85,58.78c2.29-3.86,4.21-8.11,8.16-10.35,3.65-2.09,8.78-.87,11.36,1.11,2.8,2.14,4.69,5.32,6.14,8.52,5.77,13,7,35,3.12,51.43-1.85,7.78-5.62,15.14-11.27,18-4.27,2.04-9.34,1.33-12.88-1.81-2.94-2.93-4.38-7.18-5.54-11.68-.22,4.68,0,9.78-.1,14.59-8.13-.87-15.7-2.33-24.73-2.31v-3.71h4.62c.25-34.85,0-70.11.1-105.11h-4.72v-3.65c8.36-.26,16.69-1.1,24.94-2.5.87-.15.75-.07.8,1,.45,7.45,0,15.13,0,22.52v23.95ZM251,71.06c-.24,5.16-.12,11.09-.12,17.59,0,5.76-.09,11.81.12,17.51.05,2.67.35,5.33.9,7.94.52,2.23,1.7,5.13,3.91,4.93,2-.18,2.51-3.39,2.82-5.73,1.06-7.86.51-17.22.51-25.36v-17.18c.08-2.72-.06-5.43-.41-8.13-.43-3-1.09-5.71-3.52-5.25-3.94.76-4.05,9.15-4.21,13.68Z"/>
  <path class="st1" d="M162.55,47.52v16.19c3-7.11,5.85-16.68,16-15.59,1.69.24,3.27.98,4.52,2.14,6.69,6.3,7.45,26,.8,32.57-1.51,1.52-3.59,2.32-5.73,2.2-2.58-.36-4.9-1.73-6.45-3.82-2.58-3.32-3.64-8.93-3.62-14.08,0-1.42.35-3.18.52-4.72s.65-3.25-.71-4c-1.85,1.08-2.31,3.58-2.82,5.74-1.59,6.74-1.5,15.49-1.5,24.13v34.2c1.91.23,4.24,0,6.34.11v3.71h-32.79v-3.71h4.43c.22-22.85,0-46.1.09-69.11h-4.52v-4c8.45-.7,16.89-1.39,25.44-1.96Z"/>
  <path class="st1" d="M217.76,47.52c.47,24.56.08,50,.21,74.93,1.45.23,3.32,0,4.93.11v3.71h-31.39v-3.71h4.43c.23-22.8.05-46,.1-69h-4.53v-4.13c9.35-.05,17.57-1.2,26.25-1.91Z"/>
  <path class="st1" d="M319.75,53.56h-4.82v-4.13c9.11-.1,16.86-1.57,26.06-1.6v74.73h5v3.71c-9.24,0-17.23,1.28-25.36,2.41-.22-4.86,0-10.16-.09-15.17-3.37,6.84-6.56,14.29-15.29,15.07-10.08.91-12.95-7.08-14.48-15.59-1.58-8.76-1.21-18.86-1.21-29.16v-30.27h-4.41v-4.13c8.19-.28,17.38-.74,25-1.81.65-.08.9-.53,1,.69.43,5.21,0,11.93,0,16.82v45.06c0,3.58-.16,8.25,3.93,7.44,3.42-.7,4.29-8.69,4.52-12.68.36-6.18.1-12.15.1-17.11l.05-34.28Z"/>
  <path class="st1" d="M405.14,122.56h4.86v3.71h-29.09v-3.71h2.91c.17-15.69.12-33.11.1-49.6,0-2.43,0-5.47-.2-8s-.72-5.78-2.81-5.96c-2.53-.23-3.55,2.57-4.12,4.53-2,6.57-1.41,16.08-1.41,24.52v34.52h3.21v3.71h-29.27v-3.71h4.43V53.57h-4.43v-4.14c9.08-.15,16.84-1.6,26.06-1.6v14.8c2.74-6.63,5.85-13.63,13.62-15.01,3.02-.53,6.13.08,8.73,1.71,3.79,2.44,5.62,8.07,6.55,13.68,1,6,.9,12.69.9,19.2-.02,14.1-.04,27.98-.04,40.35Z"/>
  <path class="st0" d="M463.79,125.78l-35.52-89.87v71.94c0,8.84,1.94,13.51,5.83,14l2.29-.33v4.27h-18.26v-4.27l1.68.33c3.58-.49,5.37-5.63,5.38-15.42V26.43c-.45-1-1.1-2.63-2-4.77-1.11-2.52-2.57-3.79-4.38-3.79h-.7v-3.93h33.43l23.66,59.82V25.84c0-3.21-.5-5.29-1.5-6.23-1.23-1.02-2.81-1.53-4.41-1.41h-1.68v-4.26h17.91v4.26h-1.59c-2.82,0-4.56,1.72-5.2,5.15-.26,2.72-.35,5.46-.27,8.2v94.23h-14.67Z"/>
  <path class="st0" d="M509.34,92.65c0,7.77.12,12.81.35,15.12.71,7.23,2.41,11.81,5.12,13.74l4,1.29c6.35,0,11.76-5.71,16.23-17.12l1.67,2.17c-3.64,7.88-6.67,12.97-9.08,15.27-3.55,3.48-8.35,5.39-13.32,5.31-8.82,0-15.52-3.7-20.11-11.09s-6.88-16.94-6.88-28.63c0-9.81,1.62-18.44,4.85-25.89,4.46-10.29,11.22-15.43,20.28-15.43,7.33,0,13.33,4.14,18,12.42s7.03,19.23,7.1,32.84h-28.21ZM509.34,64.03v24.84h7.58v-25.16c.09-2.87-.03-5.75-.35-8.6-.57-2.74-1.79-4.11-3.57-4.11-2.44,0-3.66,4.33-3.66,13v.03Z"/>
  <path class="st0" d="M540,53.34v-3.94c10.34,0,18.67-9.51,25-28.54h1.76v28.54h10v3.94h-10v56.92c0,5.52.8,8.28,2.38,8.28h.36c4.23-.91,6.35-7.45,6.35-19.62h1.94c0,8.79-1.26,15.55-3.79,20.3-2.53,4.75-6.19,7.6-11,8.57-.87.19-1.76.3-2.65.32h-2.35c-4.47,0-7.47-1.23-9-3.7-1.33-1.66-2.3-4.5-2.91-8.52-.65-4.26-.98-8.56-1-12.87v-49.68h-5.09Z"/>
  <path class="st0" d="M609,53.42h-2.93l11.08,51.2,4-19.21-6.59-32h-3.76v-4.1h29.9v4.1h-4.94l10.5,49.6,7.58-36.12c.59-2.82.89-5.7.88-8.59,0-3.26-.94-4.89-2.82-4.89h-1.14v-4.1h13.58v4.1c-2.77,0-4.89,2.33-6.35,7-.36,1.07-.94,3.63-1.77,7.68l-11.91,57.65h-14.46l-7.25-33.74-7.25,33.83h-15.16l-15.79-72.41h-4.32v-4.1h28.92v4.1Z"/>
  <path class="st0" d="M696.16,47.39c9.06,0,15.94,4.39,20.64,13.18,3.83,7.19,5.75,16.15,5.74,26.86,0,9.91-1.74,18.57-5.21,26-4.7,10-11.81,15-21.34,15-10.41,0-17.97-4.72-22.67-14.15-3.42-6.85-5.13-15.7-5.12-26.53,0-10.18,1.91-18.97,5.73-26.37,4.83-9.33,11.71-14,20.64-14h1.59ZM699.43,63.71c0-4.24-.06-6.78-.18-7.64-.47-3.38-1.8-5.06-4-5.06-2.83,0-4.25,4.23-4.25,12.7v50.29c0,6.67,1.44,10,4.32,10,2.17,0,3.5-1.29,4-3.86.17-2.06.23-4.12.18-6.19l-.07-50.24Z"/>
  <path class="st0" d="M730.74,53.34h-4.5v-4l25.23-1.93v16.3c3.35-10.47,7.94-15.71,13.76-15.71h1.06c4,0,6.94,2.63,8.82,7.88,1.4,3.92,2.07,8.06,2,12.22.05,3.56-.63,7.09-2,10.37-1.88,4.18-4.59,6.27-8.12,6.27-6.7-1.18-10.03-7.29-10-18.33l.7-7.23c-.16-.23-.33-.45-.53-.65l-.35-.32c-1.29,0-2.49,3.24-3.61,9.73-.59,4.48-.82,9-.71,13.51v40.55h6.26v3.78h-32.51v-3.78h4.5V53.34Z"/>
  <path class="st0" d="M803.34,88.07l7.23-11.95c1-1.51,2.38-3.78,4.14-6.79,1.63-2.85,2.57-6.05,2.74-9.33,0-4.52-2.12-6.78-6.35-6.78h-1.1v-3.9h24.35v3.86h-1.24c-2.71,0-6.04,2.63-10,7.88-1.06,1.39-2.55,3.53-4.5,6.43l16.83,54.51h1.15v3.78h-26.9v-3.78h3.5l-8.6-30.65-1.25,1.65v29h3.44v3.78h-27.7v-3.78h4.14V17.56h-4.14v-3.62c5.29,0,13.37-.88,24.26-2.65v76.78Z"/>
</svg>