<?xml version="1.0" encoding="UTF-8"?>
<svg id="Layer_1" xmlns="http://www.w3.org/2000/svg" version="1.1" viewBox="0 0 124.56 19.35">
  <!-- Generator: Adobe Illustrator 30.1.0, SVG Export Plug-In . SVG Version: 2.1.1 Build 136)  -->
  <defs>
    <style>
      .st0 {
        fill: #fff;
      }

      .st1 {
        fill: #ff3b21;
      }
    </style>
  </defs>
  <rect class="st1" width="124.56" height="19.35"/>
  <g>
    <path class="st0" d="M25.91,6.33h2.95c1.34,0,2.27.61,2.27,1.81,0,.51-.25,1-.68,1.33.6.42.83.91.83,1.5,0,1.15-.9,1.92-2.27,1.92h-3.11v-6.56ZM28.64,8.96c.76,0,1.09-.23,1.09-.68,0-.51-.36-.67-1.14-.67h-1.28v1.34h1.33ZM28.71,11.61c.72,0,1.18-.18,1.18-.76,0-.53-.47-.72-1.14-.72h-1.43v1.48h1.4Z"/>
    <path class="st0" d="M32.32,6.33h4.85v1.28h-3.45v1.29h3.29v1.27h-3.29v1.43h3.45v1.29h-4.85v-6.56Z"/>
    <path class="st0" d="M39.9,7.62h-1.88v-1.28h5.16v1.28h-1.89v5.28h-1.39v-5.28Z"/>
    <path class="st0" d="M45.6,7.62h-1.88v-1.28h5.16v1.28h-1.89v5.28h-1.39v-5.28Z"/>
    <path class="st0" d="M49.66,6.33h4.85v1.28h-3.45v1.29h3.29v1.27h-3.29v1.43h3.45v1.29h-4.85v-6.56Z"/>
    <path class="st0" d="M55.63,6.33h2.72c1.43,0,2.51.77,2.51,2.14,0,.94-.52,1.69-1.29,2.05l1.45,2.37h-1.59l-1.29-2.11h-1.12v2.11h-1.4v-6.56ZM58.11,9.51c.94,0,1.37-.34,1.37-.97s-.42-.93-1.37-.93h-1.08v1.89h1.08Z"/>
    <path class="st0" d="M63.96,9.63c0-2.09,1.52-3.4,3.44-3.4,1.13,0,2.01.49,2.62,1.24l-.94.96c-.38-.54-1.01-.89-1.74-.89-.95,0-1.95.72-1.95,2.07s.93,2.1,2.03,2.1c.5,0,.97-.12,1.34-.39v-.78h-1.3v-1.29h2.67v2.64c-.59.61-1.55,1.12-2.73,1.12-1.91,0-3.43-1.37-3.43-3.38Z"/>
    <path class="st0" d="M71.31,6.33h1.39v6.56h-1.39v-6.56Z"/>
    <path class="st0" d="M73.21,6.33h1.42l1.57,4.75,1.54-4.75h1.43l-2.25,6.56h-1.44l-2.25-6.56Z"/>
    <path class="st0" d="M79.87,6.33h1.39v6.56h-1.39v-6.56Z"/>
    <path class="st0" d="M82.5,6.33h1.68l2.65,4.45v-4.45h1.39v6.56h-1.67l-2.65-4.43v4.43h-1.4v-6.56Z"/>
    <path class="st0" d="M88.97,9.63c0-2.09,1.52-3.4,3.44-3.4,1.13,0,2.01.49,2.62,1.24l-.94.96c-.38-.54-1.01-.89-1.74-.89-.95,0-1.95.72-1.95,2.07s.93,2.1,2.03,2.1c.5,0,.97-.12,1.34-.39v-.78h-1.3v-1.29h2.67v2.64c-.59.61-1.55,1.12-2.73,1.12-1.91,0-3.43-1.37-3.43-3.38Z"/>
  </g>
</svg>