<?xml version="1.0" encoding="UTF-8"?>
<svg id="Layer_1" xmlns="http://www.w3.org/2000/svg" version="1.1" viewBox="0 0 270.24 202.61">
  <!-- Generator: Adobe Illustrator 30.1.0, SVG Export Plug-In . SVG Version: 2.1.1 Build 136)  -->
  <defs>
    <style>
      .st0 {
        fill: #fff;
      }
    </style>
  </defs>
  <path class="st0" d="M73.58,0h7.47l5.08,21.05L91.44,0h7.47l5.31,21.05L109.29,0h7.47l-8.79,32.9h-7.14l-5.64-21.71-5.69,21.71h-7.14L73.58,0Z"/>
  <path class="st0" d="M120.67,0h6.63v11.18c1.03-.94,3.06-1.88,5.41-1.88,5.64,0,9.4,3.67,9.4,10.2v13.39h-6.67v-12.88c0-2.44-1.17-4.51-3.85-4.51-3.15,0-4.23,2.35-4.23,5.87v11.51h-6.67V0Z"/>
  <path class="st0" d="M146.47,21.52c0-6.96,4.65-12.22,11.33-12.22,7.43,0,11.09,5.97,11.09,11.8l-.05,1.97h-15.6c.38,2.4,2.21,4.23,5.17,4.23,2.4,0,4.23-.89,5.64-2.68l4.42,4.14c-2.02,2.54-4.93,4.65-9.87,4.65-6.91,0-12.13-4.65-12.13-11.89ZM161.84,18.61c-.14-1.93-1.69-3.43-3.9-3.43-2.49,0-3.95,1.55-4.37,3.43h8.27Z"/>
  <path class="st0" d="M173.45,9.87h6.58v1.6c1.27-1.22,3.1-2.16,5.45-2.16,5.64,0,9.4,3.67,9.4,10.2v13.39h-6.67v-12.88c0-2.44-1.17-4.51-3.85-4.51-3.15,0-4.23,2.35-4.23,5.87v11.51h-6.67V9.87Z"/>
  <path class="st0" d="M22.11,94.28l4.65-4.46c1.08,1.55,3.1,2.96,5.78,2.96,3.52,0,5.83-2.07,5.83-5.12v-.61c-1.17,1.03-3.05,1.74-5.64,1.74-6.39,0-11.28-4.23-11.28-11.51s5.36-11.56,11.28-11.56c2.54,0,4.51,1.03,5.78,2.21v-1.64h6.53v20.63c0,6.96-4.51,12.03-12.45,12.03-5.92,0-8.98-2.77-10.48-4.65ZM33.34,82.72c2.82,0,5.17-2.16,5.17-5.45s-2.35-5.5-5.17-5.5-5.08,2.16-5.08,5.5,2.3,5.45,5.08,5.45Z"/>
  <path class="st0" d="M49.65,77.92c0-6.96,4.65-12.22,11.33-12.22,7.43,0,11.09,5.97,11.09,11.8l-.05,1.97h-15.6c.38,2.4,2.21,4.23,5.17,4.23,2.4,0,4.23-.89,5.64-2.68l4.42,4.14c-2.02,2.54-4.93,4.65-9.87,4.65-6.91,0-12.13-4.65-12.13-11.89ZM65.02,75.01c-.14-1.93-1.69-3.43-3.9-3.43-2.49,0-3.95,1.55-4.37,3.43h8.27Z"/>
  <path class="st0" d="M76.63,66.27h6.58v1.6c1.27-1.22,3.1-2.16,5.45-2.16,5.64,0,9.4,3.67,9.4,10.2v13.39h-6.67v-12.88c0-2.44-1.17-4.51-3.85-4.51-3.15,0-4.23,2.35-4.23,5.87v11.51h-6.67v-23.03Z"/>
  <path class="st0" d="M102.43,77.92c0-6.96,4.65-12.22,11.33-12.22,7.42,0,11.09,5.97,11.09,11.8l-.05,1.97h-15.6c.38,2.4,2.21,4.23,5.17,4.23,2.4,0,4.23-.89,5.64-2.68l4.42,4.14c-2.02,2.54-4.93,4.65-9.87,4.65-6.91,0-12.13-4.65-12.13-11.89ZM117.8,75.01c-.14-1.93-1.69-3.43-3.9-3.43-2.49,0-3.95,1.55-4.37,3.43h8.27Z"/>
  <path class="st0" d="M129.41,66.27h6.58v2.07c1.27-1.5,3.38-2.4,5.73-2.4.8,0,1.13,0,1.79.05v6.44h-1.03c-3.71,0-6.39,2.35-6.39,7.24v9.63h-6.67v-23.03Z"/>
  <path class="st0" d="M145.11,77.78c0-6.91,5.26-12.08,12.17-12.08s12.17,5.17,12.17,12.08-5.26,12.03-12.17,12.03-12.17-5.12-12.17-12.03ZM157.28,83.61c3.1,0,5.36-2.44,5.36-5.83s-2.26-5.83-5.36-5.83-5.36,2.44-5.36,5.83,2.26,5.83,5.36,5.83Z"/>
  <path class="st0" d="M172.37,85.35l4.09-4.18c2.3,2.26,4.51,3.06,6.58,3.06,1.36,0,2.58-.61,2.58-1.5,0-.71-.61-1.08-2.07-1.46l-3.05-.75c-5.12-1.27-7.52-3.81-7.52-7.52,0-4.51,4.14-7.29,8.93-7.29,3.38,0,6.53,1.17,9.26,3.62l-4.09,4.32c-1.41-1.17-3.34-2.26-5.45-2.26-1.32,0-2.16.61-2.16,1.36,0,.61.61.99,1.64,1.22l3.43.8c4.14.99,7.57,3.01,7.57,7.61,0,4.32-3.67,7.42-9.63,7.42-4.51,0-8.32-2.21-10.1-4.46Z"/>
  <path class="st0" d="M200.24,55.84c2.16,0,3.9,1.74,3.9,3.9s-1.74,3.85-3.9,3.85-3.85-1.74-3.85-3.85,1.69-3.9,3.85-3.9ZM196.9,66.27h6.67v23.03h-6.67v-23.03Z"/>
  <path class="st0" d="M210.63,81.17v-8.74h-3.01v-6.16h3.01v-6.44h6.67v6.44h5.08v6.16h-5.08v7.94c0,2.3,1.08,2.82,3.01,2.82h1.97v6.11c-.75.05-2.3.09-3.62.09-5.45,0-8.04-2.91-8.04-8.22Z"/>
  <path class="st0" d="M234.08,89.3l-8.98-23.03h7.43l5.17,14.24,5.36-14.24h7.14l-12.83,32.15h-7.05l3.76-9.12Z"/>
  <path class="st0" d="M0,112.8h6.67v32.9H0v-32.9Z"/>
  <path class="st0" d="M11.51,138.93c0-5.08,4.37-7.43,9.12-7.43,1.79,0,3.43.33,4.56.66v-.38c0-2.16-1.41-3.76-3.81-3.76-1.79,0-3.71.85-4.93,2.68l-4.23-4.04c2.96-3.52,6.34-4.56,9.63-4.56,5.59,0,10.1,3.34,10.1,9.21v14.38h-6.67v-1.5c-1.18,1.03-3.15,2.02-5.78,2.02-4.98,0-7.99-3.15-7.99-7.28ZM21.1,140.57c1.6,0,2.96-.56,4.09-1.41v-2.63c-.8-.19-1.88-.42-3.05-.42-2.63,0-3.9,1.03-3.9,2.4,0,1.22,1.17,2.07,2.87,2.07Z"/>
  <path class="st0" d="M36.28,141.75l4.09-4.18c2.3,2.26,4.51,3.05,6.58,3.05,1.36,0,2.58-.61,2.58-1.5,0-.7-.61-1.08-2.07-1.46l-3.05-.75c-5.12-1.27-7.52-3.81-7.52-7.52,0-4.51,4.14-7.29,8.93-7.29,3.38,0,6.53,1.17,9.26,3.62l-4.09,4.32c-1.41-1.17-3.34-2.26-5.45-2.26-1.32,0-2.16.61-2.16,1.36,0,.61.61.99,1.65,1.22l3.43.8c4.14.99,7.57,3.01,7.57,7.61,0,4.32-3.67,7.42-9.63,7.42-4.51,0-8.32-2.21-10.1-4.46Z"/>
  <path class="st0" d="M61.15,137.57v-8.74h-3.01v-6.16h3.01v-6.44h6.67v6.44h5.08v6.16h-5.08v7.94c0,2.3,1.08,2.82,3.01,2.82h1.97v6.11c-.75.05-2.3.09-3.62.09-5.45,0-8.04-2.91-8.04-8.22Z"/>
  <path class="st0" d="M76.61,141.75l4.09-4.18c2.3,2.26,4.51,3.05,6.58,3.05,1.36,0,2.58-.61,2.58-1.5,0-.7-.61-1.08-2.07-1.46l-3.05-.75c-5.12-1.27-7.52-3.81-7.52-7.52,0-4.51,4.14-7.29,8.93-7.29,3.38,0,6.53,1.17,9.26,3.62l-4.09,4.32c-1.41-1.17-3.34-2.26-5.45-2.26-1.32,0-2.16.61-2.16,1.36,0,.61.61.99,1.64,1.22l3.43.8c4.14.99,7.57,3.01,7.57,7.61,0,4.32-3.67,7.42-9.63,7.42-4.51,0-8.32-2.21-10.1-4.46Z"/>
  <path class="st0" d="M120.74,144.05v1.64h-6.67v-32.9h6.77v11.33c1.17-1.03,3.2-2.02,5.83-2.02,6.34,0,11.51,4.79,11.51,12.08s-5.17,12.03-11.51,12.03c-2.58,0-4.7-.99-5.92-2.16ZM126,140.2c3.05,0,5.36-2.44,5.36-6.02s-2.3-6.02-5.36-6.02-5.26,2.44-5.26,6.02,2.21,6.02,5.26,6.02Z"/>
  <path class="st0" d="M141.47,134.32c0-6.96,4.65-12.22,11.33-12.22,7.43,0,11.09,5.97,11.09,11.8l-.05,1.97h-15.6c.38,2.4,2.21,4.23,5.17,4.23,2.4,0,4.23-.89,5.64-2.68l4.42,4.14c-2.02,2.54-4.93,4.65-9.87,4.65-6.91,0-12.13-4.65-12.13-11.89ZM156.83,131.41c-.14-1.93-1.69-3.43-3.9-3.43-2.49,0-3.95,1.55-4.37,3.43h8.27Z"/>
  <path class="st0" d="M174.04,145.7l-8.98-23.03h7.42l5.17,14.24,5.36-14.24h7.14l-12.83,32.15h-7.05l3.76-9.12Z"/>
  <path class="st0" d="M191.38,134.18c0-6.91,5.26-12.08,12.17-12.08s12.17,5.17,12.17,12.08-5.26,12.03-12.17,12.03-12.17-5.12-12.17-12.03ZM203.55,140.01c3.1,0,5.36-2.44,5.36-5.83s-2.26-5.83-5.36-5.83-5.36,2.44-5.36,5.83,2.26,5.83,5.36,5.83Z"/>
  <path class="st0" d="M220.33,122.67h6.58v1.6c1.27-1.22,3.1-2.16,5.45-2.16,5.64,0,9.4,3.67,9.4,10.2v13.39h-6.67v-12.88c0-2.44-1.17-4.51-3.85-4.51-3.15,0-4.23,2.35-4.23,5.87v11.51h-6.67v-23.03Z"/>
  <path class="st0" d="M246.13,134.18c0-7.28,5.17-12.08,11.51-12.08,2.63,0,4.65.99,5.83,2.02v-11.33h6.77v32.9h-6.67v-1.64c-1.22,1.17-3.34,2.16-5.92,2.16-6.34,0-11.51-4.61-11.51-12.03ZM258.31,140.2c3.05,0,5.26-2.44,5.26-6.02s-2.21-6.02-5.26-6.02-5.36,2.44-5.36,6.02,2.3,6.02,5.36,6.02Z"/>
  <path class="st0" d="M29.3,195.33c0-5.08,4.37-7.43,9.12-7.43,1.79,0,3.43.33,4.56.66v-.38c0-2.16-1.41-3.76-3.81-3.76-1.79,0-3.71.85-4.93,2.68l-4.23-4.04c2.96-3.52,6.34-4.56,9.63-4.56,5.59,0,10.1,3.34,10.1,9.21v14.38h-6.67v-1.5c-1.18,1.03-3.15,2.02-5.78,2.02-4.98,0-7.99-3.15-7.99-7.28ZM38.89,196.97c1.6,0,2.96-.56,4.09-1.41v-2.63c-.8-.19-1.88-.42-3.05-.42-2.63,0-3.9,1.03-3.9,2.4,0,1.22,1.17,2.07,2.87,2.07Z"/>
  <path class="st0" d="M68.6,169.2h6.67v32.9h-6.67v-32.9Z"/>
  <path class="st0" d="M84.76,168.64c2.16,0,3.9,1.74,3.9,3.9s-1.74,3.85-3.9,3.85-3.85-1.74-3.85-3.85,1.69-3.9,3.85-3.9ZM81.43,179.07h6.67v23.03h-6.67v-23.03Z"/>
  <path class="st0" d="M95.43,185.23h-3.01v-6.16h3.01v-1.13c0-6.39,4.18-9.31,10.15-9.31.8,0,1.46.05,1.74.05v6.3h-1.13c-3.01,0-4.09,1.03-4.09,3.34v.75h5.03v6.16h-5.03v16.87h-6.67v-16.87Z"/>
  <path class="st0" d="M109.11,190.72c0-6.96,4.65-12.22,11.33-12.22,7.42,0,11.09,5.97,11.09,11.8l-.05,1.97h-15.6c.38,2.4,2.21,4.23,5.17,4.23,2.4,0,4.23-.89,5.64-2.68l4.42,4.14c-2.02,2.54-4.93,4.65-9.87,4.65-6.91,0-12.13-4.65-12.13-11.89ZM124.48,187.81c-.14-1.93-1.69-3.43-3.9-3.43-2.49,0-3.95,1.55-4.37,3.43h8.27Z"/>
  <path class="st0" d="M136.7,193.97v-8.74h-3.01v-6.16h3.01v-6.44h6.67v6.44h5.08v6.16h-5.08v7.94c0,2.3,1.08,2.82,3.01,2.82h1.97v6.11c-.75.05-2.3.09-3.62.09-5.45,0-8.04-2.91-8.04-8.22Z"/>
  <path class="st0" d="M157.09,168.64c2.16,0,3.9,1.74,3.9,3.9s-1.74,3.85-3.9,3.85-3.85-1.74-3.85-3.85,1.69-3.9,3.85-3.9ZM153.76,179.07h6.67v23.03h-6.67v-23.03Z"/>
  <path class="st0" d="M166.64,179.07h6.58v1.6c1.27-1.22,3.2-2.16,5.55-2.16,2.58,0,4.84.99,6.39,2.77,1.6-1.6,4.09-2.77,6.91-2.77,6.16,0,9.63,3.67,9.63,10.2v13.39h-6.67v-13.11c0-2.49-1.13-4.28-3.52-4.28-2.54,0-4,1.93-4,5.12v12.27h-6.67v-13.11c0-2.49-1.13-4.28-3.53-4.28-2.63,0-3.99,2.07-3.99,5.59v11.8h-6.67v-23.03Z"/>
  <path class="st0" d="M206.07,190.72c0-6.96,4.65-12.22,11.33-12.22,7.42,0,11.09,5.97,11.09,11.8l-.05,1.97h-15.6c.38,2.4,2.21,4.23,5.17,4.23,2.4,0,4.23-.89,5.64-2.68l4.42,4.14c-2.02,2.54-4.93,4.65-9.87,4.65-6.91,0-12.13-4.65-12.13-11.89ZM221.44,187.81c-.14-1.93-1.69-3.43-3.9-3.43-2.49,0-3.95,1.55-4.37,3.43h8.27Z"/>
  <path class="st0" d="M232.2,198.57c0-2.26,1.74-4.04,3.99-4.04s4.09,1.79,4.09,4.04-1.83,4.04-4.09,4.04-3.99-1.79-3.99-4.04Z"/>
</svg>