<?xml version="1.0" encoding="UTF-8"?>
<svg id="Layer_1" xmlns="http://www.w3.org/2000/svg" version="1.1" viewBox="0 0 460 60">
  <!-- Generator: Adobe Illustrator 30.1.0, SVG Export Plug-In . SVG Version: 2.1.1 Build 136)  -->
  <defs>
    <style>
      .st0 {
        fill: #fff;
      }

      .st1 {
        fill: #ff3b21;
      }
    </style>
  </defs>
  <rect class="st1" width="460" height="60"/>
  <g>
    <g>
      <path class="st0" d="M32.67,23.71h8.69v2.47h-6.01v2.72h5.59v2.45h-5.59v4.97h-2.68v-12.59Z"/>
      <path class="st0" d="M44.68,23.5c.83,0,1.49.67,1.49,1.49s-.67,1.48-1.49,1.48-1.48-.67-1.48-1.48.65-1.49,1.48-1.49ZM43.4,27.49h2.55v8.82h-2.55v-8.82Z"/>
      <path class="st0" d="M48.33,27.49h2.52v.61c.49-.47,1.19-.83,2.09-.83,2.16,0,3.6,1.4,3.6,3.91v5.13h-2.55v-4.93c0-.93-.45-1.73-1.48-1.73-1.21,0-1.62.9-1.62,2.25v4.41h-2.55v-8.82Z"/>
      <path class="st0" d="M58.21,31.9c0-2.79,1.98-4.62,4.41-4.62,1.01,0,1.78.38,2.23.77v-4.34h2.59v12.59h-2.55v-.63c-.47.45-1.28.83-2.27.83-2.43,0-4.41-1.76-4.41-4.61ZM62.87,34.2c1.17,0,2.01-.93,2.01-2.3s-.85-2.3-2.01-2.3-2.05.94-2.05,2.3.88,2.3,2.05,2.3Z"/>
      <path class="st0" d="M74.25,31.9c0-2.64,2.01-4.62,4.66-4.62s4.66,1.98,4.66,4.62-2.01,4.61-4.66,4.61-4.66-1.96-4.66-4.61ZM78.91,34.13c1.19,0,2.05-.94,2.05-2.23s-.86-2.23-2.05-2.23-2.05.93-2.05,2.23.86,2.23,2.05,2.23Z"/>
      <path class="st0" d="M85.25,32.62v-5.13h2.57v5.02c0,.95.43,1.64,1.35,1.64,1.12,0,1.51-.79,1.51-2.14v-4.51h2.57v8.82h-2.52v-.61c-.54.56-1.35.81-2.19.81-2.05,0-3.29-1.38-3.29-3.88Z"/>
      <path class="st0" d="M95.85,33.19v-3.35h-1.15v-2.36h1.15v-2.47h2.55v2.47h1.94v2.36h-1.94v3.04c0,.88.41,1.08,1.15,1.08h.76v2.34c-.29.02-.88.04-1.39.04-2.09,0-3.08-1.12-3.08-3.15Z"/>
      <path class="st0" d="M107.33,27.49h2.52v.61c.49-.47,1.22-.83,2.12-.83.99,0,1.85.38,2.45,1.06.61-.61,1.57-1.06,2.64-1.06,2.36,0,3.69,1.4,3.69,3.91v5.13h-2.55v-5.02c0-.95-.43-1.64-1.35-1.64-.97,0-1.53.74-1.53,1.96v4.7h-2.55v-5.02c0-.95-.43-1.64-1.35-1.64-1.01,0-1.53.79-1.53,2.14v4.52h-2.55v-8.82Z"/>
      <path class="st0" d="M122.44,31.9c0-2.64,2.01-4.62,4.66-4.62s4.66,1.98,4.66,4.62-2.01,4.61-4.66,4.61-4.66-1.96-4.66-4.61ZM127.1,34.13c1.19,0,2.05-.94,2.05-2.23s-.86-2.23-2.05-2.23-2.05.93-2.05,2.23.86,2.23,2.05,2.23Z"/>
      <path class="st0" d="M133.52,27.49h2.52v.79c.49-.58,1.3-.92,2.2-.92.31,0,.43,0,.68.02v2.46h-.4c-1.42,0-2.45.9-2.45,2.77v3.69h-2.55v-8.82Z"/>
      <path class="st0" d="M139.54,31.95c0-2.66,1.78-4.68,4.34-4.68,2.84,0,4.25,2.29,4.25,4.52l-.02.75h-5.97c.14.92.85,1.62,1.98,1.62.92,0,1.62-.34,2.16-1.03l1.69,1.58c-.77.97-1.89,1.78-3.78,1.78-2.64,0-4.64-1.78-4.64-4.55ZM145.42,30.84c-.05-.74-.65-1.31-1.49-1.31-.95,0-1.51.59-1.67,1.31h3.17Z"/>
    </g>
    <polygon class="st0" points="168.59 30.44 167.19 29.05 167.19 29.05 163.51 25.37 162.11 26.77 165.79 30.45 162.11 34.13 163.51 35.52 167.19 31.84 167.19 31.85 168.59 30.45 168.59 30.45 168.59 30.44"/>
  </g>
</svg>