<?xml version="1.0" encoding="UTF-8"?>
<svg id="Layer_1" xmlns="http://www.w3.org/2000/svg" version="1.1" viewBox="0 0 109.15 19.35">
  <!-- Generator: Adobe Illustrator 30.1.0, SVG Export Plug-In . SVG Version: 2.1.1 Build 136)  -->
  <defs>
    <style>
      .st0 {
        fill: #fff;
      }

      .st1 {
        fill: #ff3b21;
      }
    </style>
  </defs>
  <rect class="st1" width="109.15" height="19.35"/>
  <g>
    <path class="st0" d="M23.5,11.76l.95-.96c.4.52,1.02.94,1.85.94.73,0,1.14-.31,1.14-.71,0-.33-.24-.57-.91-.69l-.8-.14c-1.22-.21-2.06-.84-2.06-1.96,0-1.27,1.18-1.98,2.42-1.98,1.15,0,2,.5,2.52,1.05l-.93.98c-.42-.43-.96-.76-1.66-.76-.59,0-.96.26-.96.64,0,.32.24.58.93.69l.64.1c1.44.23,2.2.89,2.2,2.05s-1.03,2-2.6,2c-1.21,0-2.18-.57-2.72-1.25Z"/>
    <path class="st0" d="M31.16,7.65h-1.88v-1.28h5.14v1.28h-1.88v5.26h-1.38v-5.26Z"/>
    <path class="st0" d="M36.37,6.37h1.33l2.56,6.54h-1.44l-.52-1.29h-2.53l-.51,1.29h-1.44l2.56-6.54ZM37.85,10.38l-.81-2.13-.81,2.13h1.62Z"/>
    <path class="st0" d="M40.96,6.37h2.71c1.42,0,2.5.77,2.5,2.13,0,.93-.51,1.68-1.29,2.05l1.45,2.36h-1.58l-1.29-2.1h-1.11v2.1h-1.39v-6.54ZM43.42,9.53c.93,0,1.36-.34,1.36-.96s-.42-.93-1.36-.93h-1.07v1.89h1.07Z"/>
    <path class="st0" d="M48.51,7.65h-1.88v-1.28h5.14v1.28h-1.88v5.26h-1.38v-5.26Z"/>
    <path class="st0" d="M52.25,11.76l.95-.96c.4.52,1.02.94,1.85.94.73,0,1.14-.31,1.14-.71,0-.33-.24-.57-.91-.69l-.8-.14c-1.22-.21-2.06-.84-2.06-1.96,0-1.27,1.18-1.98,2.42-1.98,1.15,0,2,.5,2.52,1.05l-.93.98c-.42-.43-.96-.76-1.66-.76-.59,0-.96.26-.96.64,0,.32.24.58.93.69l.64.1c1.44.23,2.2.89,2.2,2.05s-1.03,2-2.6,2c-1.21,0-2.18-.57-2.72-1.25Z"/>
    <path class="st0" d="M61.1,6.37h1.39v2.56h2.75v-2.56h1.38v6.54h-1.38v-2.71h-2.75v2.71h-1.39v-6.54Z"/>
    <path class="st0" d="M67.87,6.37h4.83v1.28h-3.44v1.29h3.28v1.26h-3.28v1.43h3.44v1.28h-4.83v-6.54Z"/>
    <path class="st0" d="M73.88,6.37h2.71c1.42,0,2.5.77,2.5,2.13,0,.93-.51,1.68-1.29,2.05l1.45,2.36h-1.58l-1.29-2.1h-1.11v2.1h-1.39v-6.54ZM76.35,9.53c.93,0,1.36-.34,1.36-.96s-.42-.93-1.36-.93h-1.07v1.89h1.07Z"/>
    <path class="st0" d="M80.17,6.37h4.83v1.28h-3.44v1.29h3.28v1.26h-3.28v1.43h3.44v1.28h-4.83v-6.54Z"/>
  </g>
</svg>