<?xml version="1.0" encoding="UTF-8"?>
<svg id="Layer_1" xmlns="http://www.w3.org/2000/svg" version="1.1" viewBox="0 0 131.22 87.24">
  <!-- Generator: Adobe Illustrator 30.1.0, SVG Export Plug-In . SVG Version: 2.1.1 Build 136)  -->
  <defs>
    <style>
      .st0 {
        fill: #fff;
      }
    </style>
  </defs>
  <path class="st0" d="M32.66,3.14h-4.24V.25h11.59v2.89h-4.24v11.86h-3.12V3.14Z"/>
  <path class="st0" d="M40.56,10.68v-6h3.01v5.88c0,1.12.51,1.92,1.58,1.92,1.31,0,1.77-.93,1.77-2.51v-5.29h3.01v10.33h-2.95v-.72c-.63.65-1.58.95-2.57.95-2.4,0-3.86-1.62-3.86-4.55Z"/>
  <path class="st0" d="M52.59,4.68h2.95v.93c.57-.67,1.52-1.07,2.57-1.07.36,0,.51,0,.8.02v2.89h-.46c-1.66,0-2.87,1.05-2.87,3.25v4.32h-2.99V4.68Z"/>
  <path class="st0" d="M60.7,4.68h2.95v.72c.57-.55,1.39-.97,2.44-.97,2.53,0,4.21,1.64,4.21,4.57v6.01h-2.99v-5.77c0-1.1-.53-2.02-1.73-2.02-1.41,0-1.9,1.05-1.9,2.63v5.16h-2.99V4.68Z"/>
  <path class="st0" d="M74.46,0c.97,0,1.75.78,1.75,1.75s-.78,1.73-1.75,1.73-1.73-.78-1.73-1.73.76-1.75,1.73-1.75ZM72.96,4.68h2.99v10.33h-2.99V4.68Z"/>
  <path class="st0" d="M78.73,4.68h2.95v.72c.57-.55,1.39-.97,2.44-.97,2.53,0,4.21,1.64,4.21,4.57v6.01h-2.99v-5.77c0-1.1-.53-2.02-1.73-2.02-1.41,0-1.9,1.05-1.9,2.63v5.16h-2.99V4.68Z"/>
  <path class="st0" d="M90.62,17.24l2.09-2c.48.7,1.39,1.33,2.59,1.33,1.58,0,2.61-.93,2.61-2.3v-.27c-.53.46-1.37.78-2.53.78-2.87,0-5.06-1.9-5.06-5.16s2.4-5.18,5.06-5.18c1.14,0,2.02.46,2.59.99v-.74h2.93v9.25c0,3.12-2.02,5.39-5.58,5.39-2.66,0-4.02-1.24-4.7-2.09ZM95.65,12.05c1.26,0,2.32-.97,2.32-2.44s-1.05-2.47-2.32-2.47-2.28.97-2.28,2.47,1.03,2.44,2.28,2.44Z"/>
  <path class="st0" d="M0,28.68h2.95v.93c.57-.67,1.52-1.07,2.57-1.07.36,0,.51,0,.8.02v2.89h-.46c-1.66,0-2.87,1.05-2.87,3.25v4.32H0v-10.33Z"/>
  <path class="st0" d="M7.04,33.9c0-3.12,2.09-5.48,5.08-5.48,3.33,0,4.97,2.68,4.97,5.29l-.02.88h-7c.17,1.08.99,1.9,2.32,1.9,1.07,0,1.9-.4,2.53-1.2l1.98,1.85c-.91,1.14-2.21,2.09-4.43,2.09-3.1,0-5.44-2.09-5.44-5.33ZM13.93,32.6c-.06-.86-.76-1.54-1.75-1.54-1.12,0-1.77.7-1.96,1.54h3.71Z"/>
  <path class="st0" d="M18.37,37.23l1.83-1.88c1.03,1.01,2.02,1.37,2.95,1.37.61,0,1.16-.27,1.16-.67,0-.32-.27-.48-.93-.65l-1.37-.34c-2.3-.57-3.37-1.71-3.37-3.37,0-2.02,1.85-3.27,4-3.27,1.52,0,2.93.53,4.15,1.62l-1.83,1.94c-.63-.53-1.5-1.01-2.44-1.01-.59,0-.97.27-.97.61,0,.27.27.44.74.55l1.54.36c1.85.44,3.39,1.35,3.39,3.41,0,1.94-1.64,3.33-4.32,3.33-2.02,0-3.73-.99-4.53-2Z"/>
  <path class="st0" d="M29.26,28.68h2.95v.74c.55-.53,1.54-.99,2.7-.99,2.84,0,5.16,2.06,5.16,5.42s-2.32,5.39-5.16,5.39c-1.18,0-2.13-.42-2.66-.88v4.74h-2.99v-14.41ZM34.61,36.54c1.37,0,2.4-1.1,2.4-2.7s-1.03-2.7-2.4-2.7-2.4,1.1-2.4,2.7,1.03,2.7,2.4,2.7Z"/>
  <path class="st0" d="M41.54,33.84c0-3.1,2.36-5.42,5.46-5.42s5.46,2.32,5.46,5.42-2.36,5.39-5.46,5.39-5.46-2.3-5.46-5.39ZM47,36.45c1.39,0,2.4-1.1,2.4-2.61s-1.01-2.61-2.4-2.61-2.4,1.1-2.4,2.61,1.01,2.61,2.4,2.61Z"/>
  <path class="st0" d="M54.52,28.68h2.95v.72c.57-.55,1.39-.97,2.44-.97,2.53,0,4.21,1.64,4.21,4.57v6.01h-2.99v-5.77c0-1.1-.53-2.02-1.73-2.02-1.41,0-1.9,1.05-1.9,2.63v5.16h-2.99v-10.33Z"/>
  <path class="st0" d="M66.06,37.23l1.83-1.88c1.03,1.01,2.02,1.37,2.95,1.37.61,0,1.16-.27,1.16-.67,0-.32-.27-.48-.93-.65l-1.37-.34c-2.3-.57-3.37-1.71-3.37-3.37,0-2.02,1.85-3.27,4-3.27,1.52,0,2.93.53,4.15,1.62l-1.83,1.94c-.63-.53-1.5-1.01-2.44-1.01-.59,0-.97.27-.97.61,0,.27.27.44.74.55l1.54.36c1.85.44,3.39,1.35,3.39,3.41,0,1.94-1.64,3.33-4.32,3.33-2.02,0-3.73-.99-4.53-2Z"/>
  <path class="st0" d="M78.56,24c.97,0,1.75.78,1.75,1.75s-.78,1.73-1.75,1.73-1.73-.78-1.73-1.73.76-1.75,1.73-1.75ZM77.06,28.68h2.99v10.33h-2.99v-10.33Z"/>
  <path class="st0" d="M85.82,38.27v.74h-2.99v-14.75h3.03v5.08c.53-.46,1.43-.91,2.61-.91,2.84,0,5.16,2.15,5.16,5.42s-2.32,5.39-5.16,5.39c-1.16,0-2.11-.44-2.66-.97ZM88.19,36.54c1.37,0,2.4-1.1,2.4-2.7s-1.03-2.7-2.4-2.7-2.36,1.1-2.36,2.7.99,2.7,2.36,2.7Z"/>
  <path class="st0" d="M97.31,24c.97,0,1.75.78,1.75,1.75s-.78,1.73-1.75,1.73-1.73-.78-1.73-1.73.76-1.75,1.73-1.75ZM95.81,28.68h2.99v10.33h-2.99v-10.33Z"/>
  <path class="st0" d="M101.58,24.25h2.99v14.75h-2.99v-14.75Z"/>
  <path class="st0" d="M108.83,24c.97,0,1.75.78,1.75,1.75s-.78,1.73-1.75,1.73-1.73-.78-1.73-1.73.76-1.75,1.73-1.75ZM107.33,28.68h2.99v10.33h-2.99v-10.33Z"/>
  <path class="st0" d="M113.48,35.36v-3.92h-1.35v-2.76h1.35v-2.89h2.99v2.89h2.28v2.76h-2.28v3.56c0,1.03.48,1.26,1.35,1.26h.88v2.74c-.34.02-1.03.04-1.62.04-2.44,0-3.6-1.31-3.6-3.69Z"/>
  <path class="st0" d="M124,39l-4.03-10.33h3.33l2.32,6.38,2.4-6.38h3.2l-5.75,14.41h-3.16l1.69-4.09Z"/>
  <path class="st0" d="M15.5,48c.97,0,1.75.78,1.75,1.75s-.78,1.73-1.75,1.73-1.73-.78-1.73-1.73.76-1.75,1.73-1.75ZM14.01,52.68h2.99v10.33h-2.99v-10.33Z"/>
  <path class="st0" d="M19.78,52.68h2.95v.72c.57-.55,1.39-.97,2.44-.97,2.53,0,4.21,1.64,4.21,4.57v6.01h-2.99v-5.77c0-1.1-.53-2.02-1.73-2.02-1.41,0-1.9,1.05-1.9,2.63v5.16h-2.99v-10.33Z"/>
  <path class="st0" d="M32.32,59.36v-3.92h-1.35v-2.76h1.35v-2.89h2.99v2.89h2.28v2.76h-2.28v3.56c0,1.03.48,1.26,1.35,1.26h.88v2.74c-.34.02-1.03.04-1.62.04-2.44,0-3.6-1.31-3.6-3.69Z"/>
  <path class="st0" d="M39.01,57.84c0-3.1,2.36-5.42,5.46-5.42s5.46,2.32,5.46,5.42-2.36,5.39-5.46,5.39-5.46-2.3-5.46-5.39ZM44.47,60.45c1.39,0,2.4-1.1,2.4-2.61s-1.01-2.61-2.4-2.61-2.4,1.1-2.4,2.61,1.01,2.61,2.4,2.61Z"/>
  <path class="st0" d="M57.4,59.97c0-2.28,1.96-3.33,4.09-3.33.8,0,1.54.15,2.04.29v-.17c0-.97-.63-1.69-1.71-1.69-.8,0-1.66.38-2.21,1.2l-1.9-1.81c1.33-1.58,2.84-2.04,4.32-2.04,2.51,0,4.53,1.5,4.53,4.13v6.45h-2.99v-.67c-.53.46-1.41.91-2.59.91-2.23,0-3.58-1.41-3.58-3.27ZM61.7,60.71c.72,0,1.33-.25,1.83-.63v-1.18c-.36-.08-.84-.19-1.37-.19-1.18,0-1.75.46-1.75,1.08,0,.55.53.93,1.29.93Z"/>
  <path class="st0" d="M68.53,57.84c0-3.1,2.36-5.42,5.46-5.42,1.96,0,3.22.84,4.32,2.06l-2.02,1.96c-.59-.72-1.24-1.2-2.19-1.2-1.41,0-2.51,1.08-2.51,2.59s1.1,2.59,2.51,2.59c1.03,0,1.75-.5,2.4-1.35l2.02,1.96c-1.05,1.39-2.53,2.19-4.53,2.19-3.1,0-5.46-2.3-5.46-5.39Z"/>
  <path class="st0" d="M80.81,59.36v-3.92h-1.35v-2.76h1.35v-2.89h2.99v2.89h2.28v2.76h-2.28v3.56c0,1.03.48,1.26,1.35,1.26h.88v2.74c-.34.02-1.03.04-1.62.04-2.44,0-3.6-1.31-3.6-3.69Z"/>
  <path class="st0" d="M89.95,48c.97,0,1.75.78,1.75,1.75s-.78,1.73-1.75,1.73-1.73-.78-1.73-1.73.76-1.75,1.73-1.75ZM88.46,52.68h2.99v10.33h-2.99v-10.33Z"/>
  <path class="st0" d="M93.64,57.84c0-3.1,2.36-5.42,5.46-5.42s5.46,2.32,5.46,5.42-2.36,5.39-5.46,5.39-5.46-2.3-5.46-5.39ZM99.1,60.45c1.39,0,2.4-1.1,2.4-2.61s-1.01-2.61-2.4-2.61-2.4,1.1-2.4,2.61,1.01,2.61,2.4,2.61Z"/>
  <path class="st0" d="M106.62,52.68h2.95v.72c.57-.55,1.39-.97,2.44-.97,2.53,0,4.21,1.64,4.21,4.57v6.01h-2.99v-5.77c0-1.1-.53-2.02-1.73-2.02-1.41,0-1.9,1.05-1.9,2.63v5.16h-2.99v-10.33Z"/>
  <path class="st0" d="M18.59,83.36v-3.92h-1.35v-2.76h1.35v-2.89h2.99v2.89h2.28v2.76h-2.28v3.56c0,1.03.48,1.26,1.35,1.26h.88v2.74c-.34.02-1.03.04-1.62.04-2.44,0-3.6-1.31-3.6-3.69Z"/>
  <path class="st0" d="M26.13,72.25h2.97v5.02c.46-.42,1.37-.84,2.42-.84,2.53,0,4.21,1.64,4.21,4.57v6.01h-2.99v-5.77c0-1.1-.53-2.02-1.73-2.02-1.41,0-1.9,1.05-1.9,2.63v5.16h-2.99v-14.75Z"/>
  <path class="st0" d="M37.8,83.97c0-2.28,1.96-3.33,4.09-3.33.8,0,1.54.15,2.04.29v-.17c0-.97-.63-1.69-1.71-1.69-.8,0-1.66.38-2.21,1.2l-1.9-1.81c1.33-1.58,2.84-2.04,4.32-2.04,2.51,0,4.53,1.5,4.53,4.13v6.45h-2.99v-.67c-.53.46-1.41.91-2.59.91-2.23,0-3.58-1.41-3.58-3.27ZM42.1,84.71c.72,0,1.33-.25,1.83-.63v-1.18c-.36-.08-.84-.19-1.37-.19-1.18,0-1.75.46-1.75,1.08,0,.55.53.93,1.29.93Z"/>
  <path class="st0" d="M49.9,83.36v-3.92h-1.35v-2.76h1.35v-2.89h2.99v2.89h2.28v2.76h-2.28v3.56c0,1.03.48,1.26,1.35,1.26h.88v2.74c-.34.02-1.03.04-1.62.04-2.44,0-3.6-1.31-3.6-3.69Z"/>
  <path class="st0" d="M63.33,72.25h2.99v14.75h-2.99v-14.75Z"/>
  <path class="st0" d="M68.5,83.97c0-2.28,1.96-3.33,4.09-3.33.8,0,1.54.15,2.04.29v-.17c0-.97-.63-1.69-1.71-1.69-.8,0-1.66.38-2.21,1.2l-1.9-1.81c1.33-1.58,2.84-2.04,4.32-2.04,2.51,0,4.53,1.5,4.53,4.13v6.45h-2.99v-.67c-.53.46-1.41.91-2.59.91-2.23,0-3.58-1.41-3.58-3.27ZM72.79,84.71c.72,0,1.33-.25,1.83-.63v-1.18c-.36-.08-.84-.19-1.37-.19-1.18,0-1.75.46-1.75,1.08,0,.55.53.93,1.29.93Z"/>
  <path class="st0" d="M79.6,85.23l1.83-1.88c1.03,1.01,2.02,1.37,2.95,1.37.61,0,1.16-.27,1.16-.67,0-.32-.27-.48-.93-.65l-1.37-.34c-2.3-.57-3.37-1.71-3.37-3.37,0-2.02,1.85-3.27,4-3.27,1.52,0,2.93.53,4.15,1.62l-1.83,1.94c-.63-.53-1.5-1.01-2.44-1.01-.59,0-.97.27-.97.61,0,.27.27.44.74.55l1.54.36c1.85.44,3.39,1.35,3.39,3.41,0,1.94-1.64,3.33-4.32,3.33-2.02,0-3.73-.99-4.53-2Z"/>
  <path class="st0" d="M90.74,83.36v-3.92h-1.35v-2.76h1.35v-2.89h2.99v2.89h2.28v2.76h-2.28v3.56c0,1.03.48,1.26,1.35,1.26h.88v2.74c-.34.02-1.03.04-1.62.04-2.44,0-3.6-1.31-3.6-3.69Z"/>
  <path class="st0" d="M97.67,85.23l1.83-1.88c1.03,1.01,2.02,1.37,2.95,1.37.61,0,1.16-.27,1.16-.67,0-.32-.27-.48-.93-.65l-1.37-.34c-2.3-.57-3.37-1.71-3.37-3.37,0-2.02,1.85-3.27,4-3.27,1.52,0,2.93.53,4.15,1.62l-1.83,1.94c-.63-.53-1.5-1.01-2.44-1.01-.59,0-.97.27-.97.61,0,.27.27.44.74.55l1.54.36c1.85.44,3.39,1.35,3.39,3.41,0,1.94-1.64,3.33-4.32,3.33-2.02,0-3.73-.99-4.53-2Z"/>
  <path class="st0" d="M108.37,85.42c0-1.01.78-1.81,1.79-1.81s1.83.8,1.83,1.81-.82,1.81-1.83,1.81-1.79-.8-1.79-1.81Z"/>
</svg>