<?xml version="1.0" encoding="UTF-8"?>
<svg id="Layer_1" xmlns="http://www.w3.org/2000/svg" version="1.1" viewBox="0 0 119.58 54.26">
  <!-- Generator: Adobe Illustrator 30.1.0, SVG Export Plug-In . SVG Version: 2.1.1 Build 136)  -->
  <defs>
    <style>
      .st0 {
        fill: #fff;
      }
    </style>
  </defs>
  <path class="st0" d="M32.48,2.64h-3.56V.21h9.75v2.43h-3.56v9.98h-2.62V2.64Z"/>
  <path class="st0" d="M39.13,8.99V3.94h2.54v4.95c0,.94.43,1.61,1.33,1.61,1.1,0,1.49-.78,1.49-2.11V3.94h2.54v8.69h-2.48v-.6c-.53.55-1.33.8-2.16.8-2.02,0-3.25-1.37-3.25-3.83Z"/>
  <path class="st0" d="M49.26,3.94h2.48v.78c.48-.57,1.28-.9,2.16-.9.3,0,.43,0,.67.02v2.43h-.39c-1.4,0-2.41.89-2.41,2.73v3.63h-2.52V3.94Z"/>
  <path class="st0" d="M56.09,3.94h2.48v.6c.48-.46,1.17-.82,2.06-.82,2.13,0,3.55,1.38,3.55,3.85v5.05h-2.52v-4.86c0-.92-.44-1.7-1.45-1.7-1.19,0-1.6.89-1.6,2.22v4.34h-2.52V3.94Z"/>
  <path class="st0" d="M67.67,0c.82,0,1.47.66,1.47,1.47s-.66,1.45-1.47,1.45-1.45-.66-1.45-1.45.64-1.47,1.45-1.47ZM66.41,3.94h2.52v8.69h-2.52V3.94Z"/>
  <path class="st0" d="M71.26,3.94h2.48v.6c.48-.46,1.17-.82,2.06-.82,2.13,0,3.55,1.38,3.55,3.85v5.05h-2.52v-4.86c0-.92-.44-1.7-1.45-1.7-1.19,0-1.6.89-1.6,2.22v4.34h-2.52V3.94Z"/>
  <path class="st0" d="M81.27,14.5l1.75-1.68c.41.58,1.17,1.12,2.18,1.12,1.33,0,2.2-.78,2.2-1.93v-.23c-.44.39-1.15.66-2.13.66-2.41,0-4.25-1.6-4.25-4.34s2.02-4.36,4.25-4.36c.96,0,1.7.39,2.18.83v-.62h2.46v7.78c0,2.62-1.7,4.54-4.7,4.54-2.23,0-3.39-1.05-3.95-1.75ZM85.5,10.14c1.06,0,1.95-.82,1.95-2.06s-.89-2.07-1.95-2.07-1.92.82-1.92,2.07.87,2.06,1.92,2.06Z"/>
  <path class="st0" d="M5.47,29.07c0-1.91,1.65-2.8,3.44-2.8.67,0,1.29.12,1.72.25v-.14c0-.82-.53-1.42-1.44-1.42-.67,0-1.4.32-1.86,1.01l-1.6-1.52c1.12-1.33,2.39-1.72,3.63-1.72,2.11,0,3.81,1.26,3.81,3.47v5.43h-2.52v-.57c-.44.39-1.19.76-2.18.76-1.88,0-3.01-1.19-3.01-2.75ZM9.09,29.69c.6,0,1.12-.21,1.54-.53v-.99c-.3-.07-.71-.16-1.15-.16-.99,0-1.47.39-1.47.9,0,.46.44.78,1.08.78Z"/>
  <path class="st0" d="M15.33,22.94h2.48v.6c.48-.46,1.21-.82,2.09-.82.98,0,1.83.37,2.41,1.05.6-.6,1.54-1.05,2.61-1.05,2.32,0,3.63,1.38,3.63,3.85v5.05h-2.52v-4.95c0-.94-.43-1.61-1.33-1.61-.96,0-1.51.73-1.51,1.93v4.63h-2.52v-4.95c0-.94-.43-1.61-1.33-1.61-.99,0-1.51.78-1.51,2.11v4.45h-2.52v-8.69Z"/>
  <path class="st0" d="M33.22,31v.62h-2.52v-12.41h2.55v4.27c.44-.39,1.21-.76,2.2-.76,2.39,0,4.34,1.81,4.34,4.56s-1.95,4.54-4.34,4.54c-.98,0-1.77-.37-2.23-.82ZM35.21,29.55c1.15,0,2.02-.92,2.02-2.27s-.87-2.27-2.02-2.27-1.99.92-1.99,2.27.83,2.27,1.99,2.27Z"/>
  <path class="st0" d="M42.88,19c.82,0,1.47.66,1.47,1.47s-.66,1.45-1.47,1.45-1.45-.66-1.45-1.45.64-1.47,1.45-1.47ZM41.63,22.94h2.52v8.69h-2.52v-8.69Z"/>
  <path class="st0" d="M46.8,28.56v-3.3h-1.13v-2.32h1.13v-2.43h2.52v2.43h1.92v2.32h-1.92v3c0,.87.41,1.06,1.13,1.06h.74v2.3c-.28.02-.87.04-1.37.04-2.06,0-3.03-1.1-3.03-3.1Z"/>
  <path class="st0" d="M54.5,19c.82,0,1.47.66,1.47,1.47s-.66,1.45-1.47,1.45-1.45-.66-1.45-1.45.64-1.47,1.45-1.47ZM53.24,22.94h2.52v8.69h-2.52v-8.69Z"/>
  <path class="st0" d="M57.6,27.28c0-2.61,1.99-4.56,4.59-4.56s4.59,1.95,4.59,4.56-1.99,4.54-4.59,4.54-4.59-1.93-4.59-4.54ZM62.19,29.48c1.17,0,2.02-.92,2.02-2.2s-.85-2.2-2.02-2.2-2.02.92-2.02,2.2.85,2.2,2.02,2.2Z"/>
  <path class="st0" d="M68.52,22.94h2.48v.6c.48-.46,1.17-.82,2.06-.82,2.13,0,3.55,1.38,3.55,3.85v5.05h-2.52v-4.86c0-.92-.44-1.7-1.45-1.7-1.19,0-1.6.89-1.6,2.22v4.34h-2.52v-8.69Z"/>
  <path class="st0" d="M85.07,19c.82,0,1.47.66,1.47,1.47s-.66,1.45-1.47,1.45-1.45-.66-1.45-1.45.64-1.47,1.45-1.47ZM83.81,22.94h2.52v8.69h-2.52v-8.69Z"/>
  <path class="st0" d="M88.67,22.94h2.48v.6c.48-.46,1.17-.82,2.06-.82,2.13,0,3.55,1.38,3.55,3.85v5.05h-2.52v-4.86c0-.92-.44-1.7-1.45-1.7-1.19,0-1.6.89-1.6,2.22v4.34h-2.52v-8.69Z"/>
  <path class="st0" d="M99.22,28.56v-3.3h-1.13v-2.32h1.13v-2.43h2.52v2.43h1.92v2.32h-1.92v3c0,.87.41,1.06,1.13,1.06h.74v2.3c-.28.02-.87.04-1.37.04-2.06,0-3.03-1.1-3.03-3.1Z"/>
  <path class="st0" d="M104.86,27.28c0-2.61,1.99-4.56,4.59-4.56s4.59,1.95,4.59,4.56-1.99,4.54-4.59,4.54-4.59-1.93-4.59-4.54ZM109.45,29.48c1.17,0,2.02-.92,2.02-2.2s-.85-2.2-2.02-2.2-2.02.92-2.02,2.2.85,2.2,2.02,2.2Z"/>
  <path class="st0" d="M0,38.21h2.52v12.41H0v-12.41Z"/>
  <path class="st0" d="M4.34,48.07c0-1.91,1.65-2.8,3.44-2.8.67,0,1.29.12,1.72.25v-.14c0-.82-.53-1.42-1.44-1.42-.67,0-1.4.32-1.86,1.01l-1.6-1.52c1.12-1.33,2.39-1.72,3.63-1.72,2.11,0,3.81,1.26,3.81,3.47v5.43h-2.52v-.57c-.44.39-1.19.76-2.18.76-1.88,0-3.01-1.19-3.01-2.75ZM7.96,48.69c.6,0,1.12-.21,1.54-.53v-.99c-.3-.07-.71-.16-1.15-.16-.99,0-1.47.39-1.47.9,0,.46.44.78,1.08.78Z"/>
  <path class="st0" d="M13.69,49.13l1.54-1.58c.87.85,1.7,1.15,2.48,1.15.51,0,.97-.23.97-.57,0-.27-.23-.41-.78-.55l-1.15-.28c-1.93-.48-2.84-1.44-2.84-2.84,0-1.7,1.56-2.75,3.37-2.75,1.28,0,2.46.44,3.49,1.37l-1.54,1.63c-.53-.44-1.26-.85-2.06-.85-.5,0-.82.23-.82.51,0,.23.23.37.62.46l1.29.3c1.56.37,2.85,1.13,2.85,2.87,0,1.63-1.38,2.8-3.63,2.8-1.7,0-3.14-.83-3.81-1.68Z"/>
  <path class="st0" d="M23.07,47.56v-3.3h-1.13v-2.32h1.13v-2.43h2.52v2.43h1.92v2.32h-1.92v3c0,.87.41,1.06,1.13,1.06h.74v2.3c-.28.02-.87.04-1.37.04-2.06,0-3.03-1.1-3.03-3.1Z"/>
  <path class="st0" d="M30.76,38c.82,0,1.47.66,1.47,1.47s-.66,1.45-1.47,1.45-1.45-.66-1.45-1.45.64-1.47,1.45-1.47ZM29.51,41.94h2.52v8.69h-2.52v-8.69Z"/>
  <path class="st0" d="M34.36,41.94h2.48v.6c.48-.46,1.17-.82,2.06-.82,2.13,0,3.55,1.38,3.55,3.85v5.05h-2.52v-4.86c0-.92-.44-1.7-1.45-1.7-1.19,0-1.6.89-1.6,2.22v4.34h-2.52v-8.69Z"/>
  <path class="st0" d="M44.37,52.5l1.75-1.68c.41.58,1.17,1.12,2.18,1.12,1.33,0,2.2-.78,2.2-1.93v-.23c-.44.39-1.15.66-2.13.66-2.41,0-4.25-1.6-4.25-4.34s2.02-4.36,4.25-4.36c.96,0,1.7.39,2.18.83v-.62h2.46v7.78c0,2.62-1.7,4.54-4.7,4.54-2.23,0-3.39-1.05-3.95-1.75ZM48.6,48.14c1.06,0,1.95-.82,1.95-2.06s-.89-2.07-1.95-2.07-1.92.82-1.92,2.07.87,2.06,1.92,2.06Z"/>
  <path class="st0" d="M61.57,38c.82,0,1.47.66,1.47,1.47s-.66,1.45-1.47,1.45-1.45-.66-1.45-1.45.64-1.47,1.45-1.47ZM60.31,41.94h2.52v8.69h-2.52v-8.69Z"/>
  <path class="st0" d="M65.17,41.94h2.48v.6c.48-.46,1.21-.82,2.09-.82.98,0,1.83.37,2.41,1.05.6-.6,1.54-1.05,2.61-1.05,2.32,0,3.63,1.38,3.63,3.85v5.05h-2.52v-4.95c0-.94-.43-1.61-1.33-1.61-.96,0-1.51.73-1.51,1.93v4.63h-2.52v-4.95c0-.94-.43-1.61-1.33-1.61-.99,0-1.51.78-1.51,2.11v4.45h-2.52v-8.69Z"/>
  <path class="st0" d="M80.54,41.94h2.48v.62c.46-.44,1.29-.83,2.27-.83,2.39,0,4.34,1.74,4.34,4.56s-1.95,4.54-4.34,4.54c-.99,0-1.79-.35-2.23-.75v3.99h-2.52v-12.13ZM85.04,48.55c1.15,0,2.02-.92,2.02-2.27s-.87-2.27-2.02-2.27-2.02.92-2.02,2.27.87,2.27,2.02,2.27Z"/>
  <path class="st0" d="M90.65,48.07c0-1.91,1.65-2.8,3.44-2.8.67,0,1.29.12,1.72.25v-.14c0-.82-.53-1.42-1.44-1.42-.67,0-1.4.32-1.86,1.01l-1.6-1.52c1.12-1.33,2.39-1.72,3.63-1.72,2.11,0,3.81,1.26,3.81,3.47v5.43h-2.52v-.57c-.44.39-1.19.76-2.18.76-1.88,0-3.01-1.19-3.01-2.75ZM94.26,48.69c.6,0,1.12-.21,1.54-.53v-.99c-.3-.07-.71-.16-1.15-.16-.99,0-1.47.39-1.47.9,0,.46.44.78,1.08.78Z"/>
  <path class="st0" d="M100.01,46.28c0-2.61,1.99-4.56,4.59-4.56,1.65,0,2.71.71,3.63,1.74l-1.7,1.65c-.5-.6-1.05-1.01-1.84-1.01-1.19,0-2.11.9-2.11,2.18s.92,2.18,2.11,2.18c.87,0,1.47-.43,2.02-1.13l1.7,1.65c-.89,1.17-2.13,1.84-3.81,1.84-2.61,0-4.59-1.93-4.59-4.54Z"/>
  <path class="st0" d="M110.35,47.56v-3.3h-1.13v-2.32h1.13v-2.43h2.52v2.43h1.92v2.32h-1.92v3c0,.87.41,1.06,1.13,1.06h.74v2.3c-.28.02-.87.04-1.37.04-2.06,0-3.03-1.1-3.03-3.1Z"/>
  <path class="st0" d="M116.53,49.29c0-.85.66-1.52,1.51-1.52s1.54.67,1.54,1.52-.69,1.53-1.54,1.53-1.51-.67-1.51-1.53Z"/>
</svg>