<?xml version="1.0" encoding="UTF-8"?>
<svg id="Layer_1" xmlns="http://www.w3.org/2000/svg" version="1.1" viewBox="0 0 130.93 54.05">
  <!-- Generator: Adobe Illustrator 30.1.0, SVG Export Plug-In . SVG Version: 2.1.1 Build 136)  -->
  <defs>
    <style>
      .st0 {
        fill: #fff;
      }
    </style>
  </defs>
  <path class="st0" d="M0,0h2.82l1.92,7.94L6.74,0h2.82l2,7.94,1.92-7.94h2.82l-3.32,12.41h-2.7l-2.13-8.19-2.15,8.19h-2.7L0,0Z"/>
  <path class="st0" d="M17.77,0h2.5v4.22c.39-.35,1.15-.71,2.04-.71,2.13,0,3.55,1.38,3.55,3.85v5.05h-2.52v-4.86c0-.92-.44-1.7-1.45-1.7-1.19,0-1.6.89-1.6,2.22v4.34h-2.52V0Z"/>
  <path class="st0" d="M27.5,8.12c0-2.62,1.76-4.61,4.27-4.61,2.8,0,4.18,2.25,4.18,4.45l-.02.74h-5.89c.14.9.83,1.6,1.95,1.6.9,0,1.6-.34,2.13-1.01l1.67,1.56c-.76.96-1.86,1.76-3.72,1.76-2.61,0-4.58-1.76-4.58-4.49ZM33.3,7.02c-.05-.73-.64-1.29-1.47-1.29-.94,0-1.49.58-1.65,1.29h3.12Z"/>
  <path class="st0" d="M37.68,3.72h2.48v.6c.48-.46,1.17-.82,2.06-.82,2.13,0,3.55,1.38,3.55,3.85v5.05h-2.52v-4.86c0-.92-.44-1.7-1.45-1.7-1.19,0-1.6.89-1.6,2.22v4.34h-2.52V3.72Z"/>
  <path class="st0" d="M52.38,8.07c0-2.61,1.99-4.56,4.59-4.56,1.65,0,2.71.71,3.63,1.74l-1.7,1.65c-.5-.6-1.05-1.01-1.84-1.01-1.19,0-2.11.9-2.11,2.18s.92,2.18,2.11,2.18c.87,0,1.47-.43,2.02-1.13l1.7,1.65c-.89,1.17-2.13,1.84-3.81,1.84-2.61,0-4.59-1.93-4.59-4.54Z"/>
  <path class="st0" d="M61.55,8.07c0-2.61,1.99-4.56,4.59-4.56s4.59,1.95,4.59,4.56-1.99,4.54-4.59,4.54-4.59-1.93-4.59-4.54ZM66.14,10.27c1.17,0,2.02-.92,2.02-2.2s-.85-2.2-2.02-2.2-2.02.92-2.02,2.2.85,2.2,2.02,2.2Z"/>
  <path class="st0" d="M72.47,3.72h2.48v.78c.48-.57,1.28-.9,2.16-.9.3,0,.43,0,.67.02v2.43h-.39c-1.4,0-2.41.89-2.41,2.73v3.63h-2.52V3.72Z"/>
  <path class="st0" d="M79.3,3.72h2.48v.62c.46-.44,1.29-.83,2.27-.83,2.39,0,4.34,1.74,4.34,4.56s-1.95,4.54-4.34,4.54c-.99,0-1.79-.35-2.23-.75v3.99h-2.52V3.72ZM83.8,10.34c1.15,0,2.02-.92,2.02-2.27s-.87-2.27-2.02-2.27-2.02.92-2.02,2.27.87,2.27,2.02,2.27Z"/>
  <path class="st0" d="M89.63,8.07c0-2.61,1.99-4.56,4.59-4.56s4.59,1.95,4.59,4.56-1.99,4.54-4.59,4.54-4.59-1.93-4.59-4.54ZM94.23,10.27c1.17,0,2.02-.92,2.02-2.2s-.85-2.2-2.02-2.2-2.02.92-2.02,2.2.85,2.2,2.02,2.2Z"/>
  <path class="st0" d="M100.56,3.72h2.48v.78c.48-.57,1.28-.9,2.16-.9.3,0,.43,0,.67.02v2.43h-.39c-1.4,0-2.41.89-2.41,2.73v3.63h-2.52V3.72Z"/>
  <path class="st0" d="M106.66,9.86c0-1.91,1.65-2.8,3.44-2.8.67,0,1.29.12,1.72.25v-.14c0-.82-.53-1.42-1.44-1.42-.67,0-1.4.32-1.86,1.01l-1.6-1.52c1.12-1.33,2.39-1.72,3.63-1.72,2.11,0,3.81,1.26,3.81,3.47v5.43h-2.52v-.57c-.44.39-1.19.76-2.18.76-1.88,0-3.01-1.19-3.01-2.75ZM110.28,10.48c.6,0,1.12-.21,1.54-.53v-.99c-.3-.07-.71-.16-1.15-.16-.99,0-1.47.39-1.47.9,0,.46.44.78,1.08.78Z"/>
  <path class="st0" d="M116.84,9.34v-3.3h-1.13v-2.32h1.13V1.29h2.52v2.43h1.92v2.32h-1.92v3c0,.87.41,1.06,1.13,1.06h.74v2.3c-.28.02-.87.04-1.37.04-2.06,0-3.03-1.1-3.03-3.1Z"/>
  <path class="st0" d="M122.47,8.12c0-2.62,1.76-4.61,4.27-4.61,2.8,0,4.18,2.25,4.18,4.45l-.02.74h-5.89c.14.9.83,1.6,1.95,1.6.9,0,1.6-.34,2.13-1.01l1.67,1.56c-.76.96-1.86,1.76-3.72,1.76-2.61,0-4.58-1.76-4.58-4.49ZM128.27,7.02c-.05-.73-.64-1.29-1.47-1.29-.94,0-1.49.58-1.65,1.29h3.12Z"/>
  <path class="st0" d="M3.55,33.29l1.75-1.68c.41.58,1.17,1.12,2.18,1.12,1.33,0,2.2-.78,2.2-1.93v-.23c-.44.39-1.15.66-2.13.66-2.41,0-4.25-1.6-4.25-4.34s2.02-4.36,4.25-4.36c.96,0,1.7.39,2.18.83v-.62h2.46v7.78c0,2.62-1.7,4.54-4.7,4.54-2.23,0-3.39-1.05-3.95-1.75ZM7.78,28.93c1.06,0,1.95-.82,1.95-2.06s-.89-2.07-1.95-2.07-1.92.82-1.92,2.07.87,2.06,1.92,2.06Z"/>
  <path class="st0" d="M15.78,18.79c.82,0,1.47.66,1.47,1.47s-.66,1.45-1.47,1.45-1.45-.66-1.45-1.45.64-1.47,1.45-1.47ZM14.52,22.72h2.52v8.69h-2.52v-8.69Z"/>
  <path class="st0" d="M18.37,22.72h2.68l1.7,5.37,1.7-5.37h2.68l-3.08,8.69h-2.59l-3.08-8.69Z"/>
  <path class="st0" d="M29.7,18.79c.82,0,1.47.66,1.47,1.47s-.66,1.45-1.47,1.45-1.45-.66-1.45-1.45.64-1.47,1.45-1.47ZM28.44,22.72h2.52v8.69h-2.52v-8.69Z"/>
  <path class="st0" d="M33.3,22.72h2.48v.6c.48-.46,1.17-.82,2.06-.82,2.13,0,3.55,1.38,3.55,3.85v5.05h-2.52v-4.86c0-.92-.44-1.7-1.45-1.7-1.19,0-1.6.89-1.6,2.22v4.34h-2.52v-8.69Z"/>
  <path class="st0" d="M43.3,33.29l1.75-1.68c.41.58,1.17,1.12,2.18,1.12,1.33,0,2.2-.78,2.2-1.93v-.23c-.44.39-1.15.66-2.13.66-2.41,0-4.25-1.6-4.25-4.34s2.02-4.36,4.25-4.36c.96,0,1.7.39,2.18.83v-.62h2.46v7.78c0,2.62-1.7,4.54-4.7,4.54-2.23,0-3.39-1.05-3.95-1.75ZM47.54,28.93c1.06,0,1.95-.82,1.95-2.06s-.89-2.07-1.95-2.07-1.92.82-1.92,2.07.87,2.06,1.92,2.06Z"/>
  <path class="st0" d="M58.75,28.86c0-1.91,1.65-2.8,3.44-2.8.67,0,1.29.12,1.72.25v-.14c0-.82-.53-1.42-1.44-1.42-.67,0-1.4.32-1.86,1.01l-1.6-1.52c1.12-1.33,2.39-1.72,3.63-1.72,2.11,0,3.81,1.26,3.81,3.47v5.43h-2.52v-.57c-.44.39-1.19.76-2.18.76-1.88,0-3.01-1.19-3.01-2.75ZM62.36,29.48c.6,0,1.12-.21,1.54-.53v-.99c-.3-.07-.71-.16-1.15-.16-.99,0-1.47.39-1.47.9,0,.46.44.78,1.08.78Z"/>
  <path class="st0" d="M68.11,27.07c0-2.61,1.99-4.56,4.59-4.56,1.65,0,2.71.71,3.63,1.74l-1.7,1.65c-.5-.6-1.05-1.01-1.84-1.01-1.19,0-2.11.9-2.11,2.18s.92,2.18,2.11,2.18c.87,0,1.47-.43,2.02-1.13l1.7,1.65c-.89,1.17-2.13,1.84-3.81,1.84-2.61,0-4.59-1.93-4.59-4.54Z"/>
  <path class="st0" d="M78.13,19h2.5v4.22c.39-.35,1.15-.71,2.04-.71,2.13,0,3.55,1.38,3.55,3.85v5.05h-2.52v-4.86c0-.92-.44-1.7-1.45-1.7-1.19,0-1.6.89-1.6,2.22v4.34h-2.52v-12.41Z"/>
  <path class="st0" d="M89.71,18.79c.82,0,1.47.66,1.47,1.47s-.66,1.45-1.47,1.45-1.45-.66-1.45-1.45.64-1.47,1.45-1.47ZM88.45,22.72h2.52v8.69h-2.52v-8.69Z"/>
  <path class="st0" d="M92.81,27.12c0-2.62,1.76-4.61,4.27-4.61,2.8,0,4.18,2.25,4.18,4.45l-.02.74h-5.89c.14.9.83,1.6,1.95,1.6.9,0,1.6-.34,2.13-1.01l1.67,1.56c-.76.96-1.86,1.76-3.72,1.76-2.61,0-4.58-1.76-4.58-4.49ZM98.61,26.02c-.05-.73-.64-1.29-1.47-1.29-.94,0-1.49.58-1.65,1.29h3.12Z"/>
  <path class="st0" d="M101.71,22.72h2.68l1.7,5.37,1.7-5.37h2.68l-3.08,8.69h-2.59l-3.08-8.69Z"/>
  <path class="st0" d="M110.93,27.12c0-2.62,1.76-4.61,4.27-4.61,2.8,0,4.18,2.25,4.18,4.45l-.02.74h-5.89c.14.9.83,1.6,1.95,1.6.9,0,1.6-.34,2.13-1.01l1.67,1.56c-.76.96-1.86,1.76-3.72,1.76-2.61,0-4.58-1.76-4.58-4.49ZM116.73,26.02c-.05-.73-.64-1.29-1.47-1.29-.94,0-1.49.58-1.65,1.29h3.12Z"/>
  <path class="st0" d="M120.47,29.92l1.54-1.58c.87.85,1.7,1.15,2.48,1.15.51,0,.97-.23.97-.57,0-.27-.23-.41-.78-.55l-1.15-.28c-1.93-.48-2.84-1.44-2.84-2.84,0-1.7,1.56-2.75,3.37-2.75,1.28,0,2.46.44,3.49,1.37l-1.54,1.63c-.53-.44-1.26-.85-2.06-.85-.5,0-.82.23-.82.51,0,.23.23.37.62.46l1.29.3c1.56.37,2.85,1.13,2.85,2.87,0,1.63-1.38,2.8-3.63,2.8-1.7,0-3.14-.83-3.81-1.68Z"/>
  <path class="st0" d="M16.94,41.72h2.48v.78c.48-.57,1.28-.9,2.16-.9.3,0,.43,0,.67.02v2.43h-.39c-1.4,0-2.41.89-2.41,2.73v3.63h-2.52v-8.69Z"/>
  <path class="st0" d="M22.87,46.12c0-2.62,1.76-4.61,4.27-4.61,2.8,0,4.18,2.25,4.18,4.45l-.02.74h-5.89c.14.9.83,1.6,1.95,1.6.9,0,1.6-.34,2.13-1.01l1.67,1.56c-.76.96-1.86,1.76-3.72,1.76-2.61,0-4.58-1.76-4.58-4.49ZM28.66,45.02c-.05-.73-.64-1.29-1.47-1.29-.94,0-1.49.58-1.65,1.29h3.12Z"/>
  <path class="st0" d="M32.32,47.86c0-1.91,1.65-2.8,3.44-2.8.67,0,1.29.12,1.72.25v-.14c0-.82-.53-1.42-1.44-1.42-.67,0-1.4.32-1.86,1.01l-1.6-1.52c1.12-1.33,2.39-1.72,3.63-1.72,2.11,0,3.81,1.26,3.81,3.47v5.43h-2.52v-.57c-.44.39-1.19.76-2.18.76-1.88,0-3.01-1.19-3.01-2.75ZM35.93,48.48c.6,0,1.12-.21,1.54-.53v-.99c-.3-.07-.71-.16-1.15-.16-.99,0-1.47.39-1.47.9,0,.46.44.78,1.08.78Z"/>
  <path class="st0" d="M42.18,38h2.52v12.41h-2.52v-12.41Z"/>
  <path class="st0" d="M51.4,46.07c0-2.61,1.99-4.56,4.59-4.56,1.65,0,2.71.71,3.63,1.74l-1.7,1.65c-.5-.6-1.05-1.01-1.84-1.01-1.19,0-2.11.9-2.11,2.18s.92,2.18,2.11,2.18c.87,0,1.47-.43,2.02-1.13l1.7,1.65c-.89,1.17-2.13,1.84-3.81,1.84-2.61,0-4.59-1.93-4.59-4.54Z"/>
  <path class="st0" d="M61.42,38h2.5v4.22c.39-.35,1.15-.71,2.04-.71,2.13,0,3.55,1.38,3.55,3.85v5.05h-2.52v-4.86c0-.92-.44-1.7-1.45-1.7-1.19,0-1.6.89-1.6,2.22v4.34h-2.52v-12.41Z"/>
  <path class="st0" d="M71.24,47.86c0-1.91,1.65-2.8,3.44-2.8.67,0,1.29.12,1.72.25v-.14c0-.82-.53-1.42-1.44-1.42-.67,0-1.4.32-1.86,1.01l-1.6-1.52c1.12-1.33,2.39-1.72,3.63-1.72,2.11,0,3.81,1.26,3.81,3.47v5.43h-2.52v-.57c-.44.39-1.19.76-2.18.76-1.88,0-3.01-1.19-3.01-2.75ZM74.86,48.48c.6,0,1.12-.21,1.54-.53v-.99c-.3-.07-.71-.16-1.15-.16-.99,0-1.47.39-1.47.9,0,.46.44.78,1.08.78Z"/>
  <path class="st0" d="M81.1,41.72h2.48v.6c.48-.46,1.17-.82,2.06-.82,2.13,0,3.55,1.38,3.55,3.85v5.05h-2.52v-4.86c0-.92-.44-1.7-1.45-1.7-1.19,0-1.6.89-1.6,2.22v4.34h-2.52v-8.69Z"/>
  <path class="st0" d="M91.1,52.29l1.75-1.68c.41.58,1.17,1.12,2.18,1.12,1.33,0,2.2-.78,2.2-1.93v-.23c-.44.39-1.15.66-2.13.66-2.41,0-4.25-1.6-4.25-4.34s2.02-4.36,4.25-4.36c.96,0,1.7.39,2.18.83v-.62h2.46v7.78c0,2.62-1.7,4.54-4.7,4.54-2.23,0-3.39-1.05-3.95-1.75ZM95.34,47.93c1.06,0,1.95-.82,1.95-2.06s-.89-2.07-1.95-2.07-1.92.82-1.92,2.07.87,2.06,1.92,2.06Z"/>
  <path class="st0" d="M101.49,46.12c0-2.62,1.76-4.61,4.27-4.61,2.8,0,4.18,2.25,4.18,4.45l-.02.74h-5.89c.14.9.83,1.6,1.95,1.6.9,0,1.6-.34,2.13-1.01l1.67,1.56c-.76.96-1.86,1.76-3.72,1.76-2.61,0-4.58-1.76-4.58-4.49ZM107.29,45.02c-.05-.73-.64-1.29-1.47-1.29-.94,0-1.49.58-1.65,1.29h3.12Z"/>
  <path class="st0" d="M111.35,49.08c0-.85.66-1.52,1.51-1.52s1.54.67,1.54,1.52-.69,1.53-1.54,1.53-1.51-.67-1.51-1.53Z"/>
</svg>