<?xml version="1.0" encoding="UTF-8"?>
<svg id="Layer_1" xmlns="http://www.w3.org/2000/svg" version="1.1" viewBox="0 0 136.76 25.4">
  <!-- Generator: Adobe Illustrator 30.1.0, SVG Export Plug-In . SVG Version: 2.1.1 Build 136)  -->
  <defs>
    <style>
      .st0 {
        fill: #fff;
      }
    </style>
  </defs>
  <path class="st0" d="M0,.14h1.79v3.29h3.53V.14h1.77v8.4h-1.77v-3.48H1.79v3.48H0V.14Z"/>
  <path class="st0" d="M8.35,5.64c0-1.78,1.19-3.12,2.89-3.12,1.9,0,2.83,1.52,2.83,3.01v.5h-3.99c.1.61.56,1.08,1.32,1.08.61,0,1.08-.23,1.44-.68l1.13,1.05c-.52.65-1.26,1.19-2.52,1.19-1.76,0-3.09-1.19-3.09-3.03ZM12.27,4.89c-.04-.49-.43-.88-1-.88-.64,0-1.01.4-1.12.88h2.11Z"/>
  <path class="st0" d="M15.24.14h1.7v8.4h-1.7V.14Z"/>
  <path class="st0" d="M18.46,2.66h1.68v.42c.31-.3.88-.56,1.54-.56,1.62,0,2.94,1.17,2.94,3.08s-1.32,3.07-2.94,3.07c-.67,0-1.21-.24-1.51-.5v2.7h-1.7V2.66ZM21.5,7.14c.78,0,1.37-.62,1.37-1.54s-.59-1.54-1.37-1.54-1.37.62-1.37,1.54.59,1.54,1.37,1.54Z"/>
  <path class="st0" d="M26.7,0c.55,0,1,.44,1,1s-.44.98-1,.98-.98-.44-.98-.98.43-1,.98-1ZM25.85,2.66h1.7v5.88h-1.7V2.66Z"/>
  <path class="st0" d="M29.14,2.66h1.68v.41c.32-.31.79-.55,1.39-.55,1.44,0,2.4.94,2.4,2.6v3.42h-1.7v-3.29c0-.62-.3-1.15-.98-1.15-.8,0-1.08.6-1.08,1.5v2.94h-1.7V2.66Z"/>
  <path class="st0" d="M35.9,9.81l1.19-1.14c.28.4.79.76,1.48.76.9,0,1.49-.53,1.49-1.31v-.16c-.3.26-.78.44-1.44.44-1.63,0-2.88-1.08-2.88-2.94s1.37-2.95,2.88-2.95c.65,0,1.15.26,1.48.56v-.42h1.67v5.27c0,1.77-1.15,3.07-3.18,3.07-1.51,0-2.29-.71-2.67-1.19ZM38.77,6.86c.72,0,1.32-.55,1.32-1.39s-.6-1.4-1.32-1.4-1.3.55-1.3,1.4.59,1.39,1.3,1.39Z"/>
  <path class="st0" d="M46.85,6.46v-2.23h-.77v-1.57h.77v-1.64h1.7v1.64h1.3v1.57h-1.3v2.03c0,.59.28.72.77.72h.5v1.56c-.19.01-.59.02-.92.02-1.39,0-2.05-.74-2.05-2.1Z"/>
  <path class="st0" d="M51.14,2.66h1.68v.53c.32-.38.86-.61,1.46-.61.2,0,.29,0,.46.01v1.64h-.26c-.95,0-1.63.6-1.63,1.85v2.46h-1.7V2.66Z"/>
  <path class="st0" d="M55.15,5.64c0-1.78,1.19-3.12,2.89-3.12,1.9,0,2.83,1.52,2.83,3.01v.5h-3.99c.1.61.56,1.08,1.32,1.08.61,0,1.08-.23,1.44-.68l1.13,1.05c-.52.65-1.26,1.19-2.52,1.19-1.76,0-3.09-1.19-3.09-3.03ZM59.07,4.89c-.04-.49-.43-.88-1-.88-.64,0-1.01.4-1.12.88h2.11Z"/>
  <path class="st0" d="M61.55,6.81c0-1.29,1.12-1.89,2.33-1.89.46,0,.88.08,1.16.17v-.1c0-.55-.36-.96-.97-.96-.46,0-.95.22-1.26.68l-1.08-1.03c.76-.9,1.62-1.16,2.46-1.16,1.43,0,2.58.85,2.58,2.35v3.67h-1.7v-.38c-.3.26-.8.52-1.48.52-1.27,0-2.04-.8-2.04-1.86ZM63.99,7.23c.41,0,.76-.14,1.04-.36v-.67c-.2-.05-.48-.11-.78-.11-.67,0-1,.26-1,.61,0,.31.3.53.73.53Z"/>
  <path class="st0" d="M67.87,7.53l1.04-1.07c.59.58,1.15.78,1.68.78.35,0,.66-.16.66-.38,0-.18-.16-.28-.53-.37l-.78-.19c-1.31-.32-1.92-.97-1.92-1.92,0-1.15,1.06-1.86,2.28-1.86.86,0,1.67.3,2.36.92l-1.04,1.1c-.36-.3-.85-.58-1.39-.58-.34,0-.55.16-.55.35,0,.16.16.25.42.31l.88.2c1.06.25,1.93.77,1.93,1.94,0,1.1-.94,1.89-2.46,1.89-1.15,0-2.12-.56-2.58-1.14Z"/>
  <path class="st0" d="M74.02,6.08v-3.42h1.71v3.35c0,.64.29,1.09.9,1.09.74,0,1.01-.53,1.01-1.43v-3.01h1.72v5.88h-1.68v-.41c-.36.37-.9.54-1.46.54-1.37,0-2.19-.92-2.19-2.59Z"/>
  <path class="st0" d="M80.87,2.66h1.68v.53c.32-.38.86-.61,1.46-.61.2,0,.29,0,.46.01v1.64h-.26c-.95,0-1.63.6-1.63,1.85v2.46h-1.7V2.66Z"/>
  <path class="st0" d="M84.88,5.64c0-1.78,1.19-3.12,2.89-3.12,1.9,0,2.83,1.52,2.83,3.01v.5h-3.99c.1.61.56,1.08,1.32,1.08.61,0,1.08-.23,1.44-.68l1.13,1.05c-.52.65-1.26,1.19-2.52,1.19-1.76,0-3.09-1.19-3.09-3.03ZM88.8,4.89c-.04-.49-.43-.88-1-.88-.64,0-1.01.4-1.12.88h2.11Z"/>
  <path class="st0" d="M91.43,5.6c0-1.86,1.32-3.08,2.94-3.08.67,0,1.19.25,1.49.52V.14h1.73v8.4h-1.7v-.42c-.31.3-.85.55-1.51.55-1.62,0-2.94-1.17-2.94-3.07ZM94.53,7.14c.78,0,1.34-.62,1.34-1.54s-.56-1.54-1.34-1.54-1.37.62-1.37,1.54.59,1.54,1.37,1.54Z"/>
  <path class="st0" d="M102.45,2.66h1.68v.42c.31-.3.88-.56,1.54-.56,1.62,0,2.94,1.17,2.94,3.08s-1.32,3.07-2.94,3.07c-.67,0-1.21-.24-1.51-.5v2.7h-1.7V2.66ZM105.5,7.14c.78,0,1.37-.62,1.37-1.54s-.59-1.54-1.37-1.54-1.37.62-1.37,1.54.59,1.54,1.37,1.54Z"/>
  <path class="st0" d="M109.79.14h1.7v8.4h-1.7V.14Z"/>
  <path class="st0" d="M112.73,6.81c0-1.29,1.12-1.89,2.33-1.89.46,0,.88.08,1.16.17v-.1c0-.55-.36-.96-.97-.96-.46,0-.95.22-1.26.68l-1.08-1.03c.76-.9,1.62-1.16,2.46-1.16,1.43,0,2.58.85,2.58,2.35v3.67h-1.7v-.38c-.3.26-.8.52-1.48.52-1.27,0-2.04-.8-2.04-1.86ZM115.17,7.23c.41,0,.75-.14,1.04-.36v-.67c-.2-.05-.48-.11-.78-.11-.67,0-1,.26-1,.61,0,.31.3.53.73.53Z"/>
  <path class="st0" d="M119.06,5.6c0-1.76,1.34-3.08,3.11-3.08,1.12,0,1.83.48,2.46,1.17l-1.15,1.12c-.34-.41-.71-.68-1.25-.68-.8,0-1.43.61-1.43,1.47s.62,1.48,1.43,1.48c.59,0,1-.29,1.37-.77l1.15,1.12c-.6.79-1.44,1.25-2.58,1.25-1.76,0-3.11-1.31-3.11-3.07Z"/>
  <path class="st0" d="M125.27,5.64c0-1.78,1.19-3.12,2.89-3.12,1.89,0,2.83,1.52,2.83,3.01v.5h-3.99c.1.61.56,1.08,1.32,1.08.61,0,1.08-.23,1.44-.68l1.13,1.05c-.52.65-1.26,1.19-2.52,1.19-1.76,0-3.09-1.19-3.09-3.03ZM129.19,4.89c-.04-.49-.43-.88-1-.88-.63,0-1.01.4-1.12.88h2.11Z"/>
  <path class="st0" d="M131.72,7.53l1.04-1.07c.59.58,1.15.78,1.68.78.35,0,.66-.16.66-.38,0-.18-.16-.28-.53-.37l-.78-.19c-1.31-.32-1.92-.97-1.92-1.92,0-1.15,1.06-1.86,2.28-1.86.86,0,1.67.3,2.36.92l-1.04,1.1c-.36-.3-.85-.58-1.39-.58-.34,0-.55.16-.55.35,0,.16.16.25.42.31l.88.2c1.06.25,1.93.77,1.93,1.94,0,1.1-.94,1.89-2.46,1.89-1.15,0-2.12-.56-2.58-1.14Z"/>
  <path class="st0" d="M7.41,20.86v-2.23h-.77v-1.57h.77v-1.64h1.7v1.64h1.3v1.57h-1.3v2.03c0,.59.28.72.77.72h.5v1.56c-.19.01-.59.02-.92.02-1.39,0-2.05-.74-2.05-2.1Z"/>
  <path class="st0" d="M11.71,14.54h1.69v2.85c.26-.24.78-.48,1.38-.48,1.44,0,2.4.94,2.4,2.6v3.42h-1.7v-3.29c0-.62-.3-1.15-.98-1.15-.8,0-1.08.6-1.08,1.5v2.94h-1.7v-8.4Z"/>
  <path class="st0" d="M18.63,17.06h1.68v.53c.32-.38.86-.61,1.46-.61.2,0,.29,0,.46.01v1.64h-.26c-.95,0-1.63.6-1.63,1.85v2.46h-1.7v-5.88Z"/>
  <path class="st0" d="M24.16,14.4c.55,0,1,.44,1,1s-.44.98-1,.98-.98-.44-.98-.98.43-1,.98-1ZM23.31,17.06h1.7v5.88h-1.7v-5.88Z"/>
  <path class="st0" d="M25.91,17.06h1.81l1.15,3.63,1.15-3.63h1.81l-2.09,5.88h-1.75l-2.09-5.88Z"/>
  <path class="st0" d="M32.15,20.04c0-1.78,1.19-3.12,2.89-3.12,1.9,0,2.83,1.52,2.83,3.01v.5h-3.99c.1.61.56,1.08,1.32,1.08.61,0,1.08-.23,1.44-.68l1.13,1.05c-.52.65-1.26,1.19-2.52,1.19-1.76,0-3.09-1.19-3.09-3.03ZM36.08,19.29c-.04-.49-.43-.88-1-.88-.64,0-1.01.4-1.12.88h2.11Z"/>
  <path class="st0" d="M42.69,18.63h-.77v-1.57h.77v-.29c0-1.63,1.07-2.37,2.59-2.37.2,0,.37.01.44.01v1.61h-.29c-.77,0-1.04.26-1.04.85v.19h1.28v1.57h-1.28v4.31h-1.7v-4.31Z"/>
  <path class="st0" d="M46.18,20c0-1.76,1.34-3.08,3.11-3.08s3.11,1.32,3.11,3.08-1.34,3.07-3.11,3.07-3.11-1.31-3.11-3.07ZM49.29,21.49c.79,0,1.37-.62,1.37-1.49s-.58-1.49-1.37-1.49-1.37.62-1.37,1.49.58,1.49,1.37,1.49Z"/>
  <path class="st0" d="M53.57,17.06h1.68v.53c.32-.38.86-.61,1.46-.61.2,0,.29,0,.46.01v1.64h-.26c-.95,0-1.63.6-1.63,1.85v2.46h-1.7v-5.88Z"/>
  <path class="st0" d="M61.4,24.21l1.19-1.14c.28.4.79.76,1.48.76.9,0,1.49-.53,1.49-1.31v-.16c-.3.26-.78.44-1.44.44-1.63,0-2.88-1.08-2.88-2.94s1.37-2.95,2.88-2.95c.65,0,1.15.26,1.48.56v-.42h1.67v5.27c0,1.77-1.15,3.07-3.18,3.07-1.51,0-2.29-.71-2.67-1.19ZM64.26,21.26c.72,0,1.32-.55,1.32-1.39s-.6-1.4-1.32-1.4-1.3.55-1.3,1.4.59,1.39,1.3,1.39Z"/>
  <path class="st0" d="M68.43,20.04c0-1.78,1.19-3.12,2.89-3.12,1.9,0,2.83,1.52,2.83,3.01v.5h-3.99c.1.61.56,1.08,1.32,1.08.61,0,1.08-.23,1.44-.68l1.13,1.05c-.52.65-1.26,1.19-2.52,1.19-1.76,0-3.09-1.19-3.09-3.03ZM72.35,19.29c-.04-.49-.43-.88-1-.88-.64,0-1.01.4-1.12.88h2.11Z"/>
  <path class="st0" d="M75.32,17.06h1.68v.41c.32-.31.79-.55,1.39-.55,1.44,0,2.4.94,2.4,2.6v3.42h-1.7v-3.29c0-.62-.3-1.15-.98-1.15-.8,0-1.08.6-1.08,1.5v2.94h-1.7v-5.88Z"/>
  <path class="st0" d="M81.91,20.04c0-1.78,1.19-3.12,2.89-3.12,1.9,0,2.83,1.52,2.83,3.01v.5h-3.99c.1.61.56,1.08,1.32,1.08.61,0,1.08-.23,1.44-.68l1.13,1.05c-.52.65-1.26,1.19-2.52,1.19-1.76,0-3.09-1.19-3.09-3.03ZM85.83,19.29c-.04-.49-.43-.88-1-.88-.64,0-1.01.4-1.12.88h2.11Z"/>
  <path class="st0" d="M88.79,17.06h1.68v.53c.32-.38.86-.61,1.46-.61.2,0,.29,0,.46.01v1.64h-.26c-.95,0-1.63.6-1.63,1.85v2.46h-1.7v-5.88Z"/>
  <path class="st0" d="M92.92,21.21c0-1.29,1.12-1.89,2.33-1.89.46,0,.88.08,1.16.17v-.1c0-.55-.36-.96-.97-.96-.46,0-.95.22-1.26.68l-1.08-1.03c.76-.9,1.62-1.16,2.46-1.16,1.43,0,2.58.85,2.58,2.35v3.67h-1.7v-.38c-.3.26-.8.52-1.48.52-1.27,0-2.04-.8-2.04-1.86ZM95.37,21.63c.41,0,.76-.14,1.04-.36v-.67c-.2-.05-.48-.11-.78-.11-.67,0-1,.26-1,.61,0,.31.3.53.73.53Z"/>
  <path class="st0" d="M99.81,20.86v-2.23h-.77v-1.57h.77v-1.64h1.7v1.64h1.3v1.57h-1.3v2.03c0,.59.28.72.77.72h.5v1.56c-.19.01-.59.02-.92.02-1.39,0-2.05-.74-2.05-2.1Z"/>
  <path class="st0" d="M105.02,14.4c.55,0,1,.44,1,1s-.44.98-1,.98-.98-.44-.98-.98.43-1,.98-1ZM104.16,17.06h1.7v5.88h-1.7v-5.88Z"/>
  <path class="st0" d="M107.12,20c0-1.76,1.34-3.08,3.11-3.08s3.11,1.32,3.11,3.08-1.34,3.07-3.11,3.07-3.11-1.31-3.11-3.07ZM110.22,21.49c.79,0,1.37-.62,1.37-1.49s-.58-1.49-1.37-1.49-1.37.62-1.37,1.49.58,1.49,1.37,1.49Z"/>
  <path class="st0" d="M114.51,17.06h1.68v.41c.32-.31.79-.55,1.39-.55,1.44,0,2.4.94,2.4,2.6v3.42h-1.7v-3.29c0-.62-.3-1.15-.98-1.15-.8,0-1.08.6-1.08,1.5v2.94h-1.7v-5.88Z"/>
  <path class="st0" d="M121.09,21.93l1.04-1.07c.59.58,1.15.78,1.68.78.35,0,.66-.16.66-.38,0-.18-.16-.28-.53-.37l-.78-.19c-1.31-.32-1.92-.97-1.92-1.92,0-1.15,1.06-1.86,2.28-1.86.86,0,1.67.3,2.36.92l-1.04,1.1c-.36-.3-.85-.58-1.39-.58-.34,0-.55.16-.55.35,0,.16.16.25.42.31l.88.2c1.06.25,1.93.77,1.93,1.94,0,1.1-.94,1.89-2.46,1.89-1.15,0-2.12-.56-2.58-1.14Z"/>
  <path class="st0" d="M127.18,22.04c0-.58.44-1.03,1.02-1.03s1.04.46,1.04,1.03-.47,1.03-1.04,1.03-1.02-.46-1.02-1.03Z"/>
</svg>