<?xml version="1.0" encoding="UTF-8"?>
<svg id="Layer_1" xmlns="http://www.w3.org/2000/svg" version="1.1" viewBox="0 0 122.65 25.27">
  <!-- Generator: Adobe Illustrator 30.1.0, SVG Export Plug-In . SVG Version: 2.1.1 Build 136)  -->
  <defs>
    <style>
      .st0 {
        fill: #fff;
      }
    </style>
  </defs>
  <path class="st0" d="M0,.14h1.91l1.3,5.37L4.56.14h1.91l1.36,5.37L9.11.14h1.91l-2.24,8.4h-1.82l-1.44-5.54-1.45,5.54h-1.82L0,.14Z"/>
  <path class="st0" d="M12.02.14h1.69v2.85c.26-.24.78-.48,1.38-.48,1.44,0,2.4.94,2.4,2.6v3.42h-1.7v-3.29c0-.62-.3-1.15-.98-1.15-.8,0-1.08.6-1.08,1.5v2.94h-1.7V.14Z"/>
  <path class="st0" d="M18.61,5.64c0-1.78,1.19-3.12,2.89-3.12,1.89,0,2.83,1.52,2.83,3.01v.5h-3.99c.1.61.56,1.08,1.32,1.08.61,0,1.08-.23,1.44-.68l1.13,1.05c-.52.65-1.26,1.19-2.52,1.19-1.76,0-3.09-1.19-3.09-3.03ZM22.53,4.89c-.04-.49-.43-.88-1-.88-.63,0-1.01.4-1.12.88h2.11Z"/>
  <path class="st0" d="M25.5,2.66h1.68v.41c.32-.31.79-.55,1.39-.55,1.44,0,2.4.94,2.4,2.6v3.42h-1.7v-3.29c0-.62-.3-1.15-.98-1.15-.8,0-1.08.6-1.08,1.5v2.94h-1.7V2.66Z"/>
  <path class="st0" d="M35.63,9.81l1.19-1.14c.28.4.79.76,1.48.76.9,0,1.49-.53,1.49-1.31v-.16c-.3.26-.78.44-1.44.44-1.63,0-2.88-1.08-2.88-2.94s1.37-2.95,2.88-2.95c.65,0,1.15.26,1.47.56v-.42h1.67v5.27c0,1.77-1.15,3.07-3.18,3.07-1.51,0-2.29-.71-2.67-1.19ZM38.49,6.86c.72,0,1.32-.55,1.32-1.39s-.6-1.4-1.32-1.4-1.29.55-1.29,1.4.59,1.39,1.29,1.39Z"/>
  <path class="st0" d="M42.66,5.64c0-1.78,1.19-3.12,2.89-3.12,1.89,0,2.83,1.52,2.83,3.01v.5h-3.99c.1.61.56,1.08,1.32,1.08.61,0,1.08-.23,1.44-.68l1.13,1.05c-.52.65-1.26,1.19-2.52,1.19-1.76,0-3.09-1.19-3.09-3.03ZM46.58,4.89c-.04-.49-.43-.88-1-.88-.63,0-1.01.4-1.12.88h2.11Z"/>
  <path class="st0" d="M49.55,2.66h1.68v.41c.32-.31.79-.55,1.39-.55,1.44,0,2.4.94,2.4,2.6v3.42h-1.7v-3.29c0-.62-.3-1.15-.98-1.15-.8,0-1.08.6-1.08,1.5v2.94h-1.7V2.66Z"/>
  <path class="st0" d="M56.14,5.64c0-1.78,1.19-3.12,2.89-3.12,1.89,0,2.83,1.52,2.83,3.01v.5h-3.99c.1.61.56,1.08,1.32,1.08.61,0,1.08-.23,1.44-.68l1.13,1.05c-.52.65-1.26,1.19-2.52,1.19-1.76,0-3.09-1.19-3.09-3.03ZM60.06,4.89c-.04-.49-.43-.88-1-.88-.63,0-1.01.4-1.12.88h2.11Z"/>
  <path class="st0" d="M63.02,2.66h1.68v.53c.32-.38.86-.61,1.46-.61.2,0,.29,0,.46.01v1.64h-.26c-.95,0-1.63.6-1.63,1.85v2.46h-1.7V2.66Z"/>
  <path class="st0" d="M67.03,5.6c0-1.76,1.34-3.08,3.11-3.08s3.11,1.32,3.11,3.08-1.34,3.07-3.11,3.07-3.11-1.31-3.11-3.07ZM70.14,7.09c.79,0,1.37-.62,1.37-1.49s-.58-1.49-1.37-1.49-1.37.62-1.37,1.49.58,1.49,1.37,1.49Z"/>
  <path class="st0" d="M73.99,7.53l1.04-1.07c.59.58,1.15.78,1.68.78.35,0,.66-.16.66-.38,0-.18-.16-.28-.53-.37l-.78-.19c-1.31-.32-1.92-.97-1.92-1.92,0-1.15,1.06-1.86,2.28-1.86.86,0,1.67.3,2.36.92l-1.04,1.1c-.36-.3-.85-.58-1.39-.58-.34,0-.55.16-.55.35,0,.16.16.25.42.31l.88.2c1.06.25,1.93.77,1.93,1.94,0,1.1-.94,1.89-2.46,1.89-1.15,0-2.12-.56-2.58-1.14Z"/>
  <path class="st0" d="M81.11,0c.55,0,1,.44,1,1s-.44.98-1,.98-.98-.44-.98-.98.43-1,.98-1ZM80.25,2.66h1.7v5.88h-1.7V2.66Z"/>
  <path class="st0" d="M83.76,6.46v-2.23h-.77v-1.57h.77v-1.64h1.7v1.64h1.29v1.57h-1.29v2.03c0,.59.28.72.77.72h.5v1.56c-.19.01-.59.02-.92.02-1.39,0-2.05-.74-2.05-2.1Z"/>
  <path class="st0" d="M89.75,8.54l-2.29-5.88h1.89l1.32,3.63,1.37-3.63h1.82l-3.27,8.2h-1.8l.96-2.33Z"/>
  <path class="st0" d="M98.05.14h1.7v8.4h-1.7V.14Z"/>
  <path class="st0" d="M100.99,6.81c0-1.29,1.12-1.89,2.33-1.89.46,0,.88.08,1.16.17v-.1c0-.55-.36-.96-.97-.96-.46,0-.95.22-1.26.68l-1.08-1.03c.76-.9,1.62-1.16,2.46-1.16,1.43,0,2.58.85,2.58,2.35v3.67h-1.7v-.38c-.3.26-.8.52-1.48.52-1.27,0-2.04-.8-2.04-1.86ZM103.44,7.23c.41,0,.75-.14,1.04-.36v-.67c-.2-.05-.48-.11-.78-.11-.67,0-1,.26-1,.61,0,.31.3.53.73.53Z"/>
  <path class="st0" d="M107.31,7.53l1.04-1.07c.59.58,1.15.78,1.68.78.35,0,.66-.16.66-.38,0-.18-.16-.28-.53-.37l-.78-.19c-1.31-.32-1.92-.97-1.92-1.92,0-1.15,1.06-1.86,2.28-1.86.86,0,1.67.3,2.36.92l-1.04,1.1c-.36-.3-.85-.58-1.39-.58-.34,0-.55.16-.55.35,0,.16.16.25.42.31l.88.2c1.06.25,1.93.77,1.93,1.94,0,1.1-.94,1.89-2.46,1.89-1.15,0-2.12-.56-2.58-1.14Z"/>
  <path class="st0" d="M113.66,6.46v-2.23h-.77v-1.57h.77v-1.64h1.7v1.64h1.29v1.57h-1.29v2.03c0,.59.28.72.77.72h.5v1.56c-.19.01-.59.02-.92.02-1.39,0-2.05-.74-2.05-2.1Z"/>
  <path class="st0" d="M117.61,7.53l1.04-1.07c.59.58,1.15.78,1.68.78.35,0,.66-.16.66-.38,0-.18-.16-.28-.53-.37l-.78-.19c-1.31-.32-1.92-.97-1.92-1.92,0-1.15,1.06-1.86,2.28-1.86.86,0,1.67.3,2.36.92l-1.04,1.1c-.36-.3-.85-.58-1.39-.58-.34,0-.55.16-.55.35,0,.16.16.25.42.31l.88.2c1.06.25,1.93.77,1.93,1.94,0,1.1-.94,1.89-2.46,1.89-1.15,0-2.12-.56-2.58-1.14Z"/>
  <path class="st0" d="M14,22.52v.42h-1.7v-8.4h1.73v2.89c.3-.26.82-.52,1.49-.52,1.62,0,2.94,1.22,2.94,3.08s-1.32,3.07-2.94,3.07c-.66,0-1.2-.25-1.51-.55ZM15.34,21.54c.78,0,1.37-.62,1.37-1.54s-.59-1.54-1.37-1.54-1.34.62-1.34,1.54.56,1.54,1.34,1.54Z"/>
  <path class="st0" d="M19.29,20.04c0-1.78,1.19-3.12,2.89-3.12,1.89,0,2.83,1.52,2.83,3.01v.5h-3.99c.1.61.56,1.08,1.32,1.08.61,0,1.08-.23,1.44-.68l1.13,1.05c-.52.65-1.26,1.19-2.52,1.19-1.76,0-3.09-1.19-3.09-3.03ZM23.21,19.29c-.04-.49-.43-.88-1-.88-.63,0-1.01.4-1.12.88h2.11Z"/>
  <path class="st0" d="M27.6,22.94l-2.29-5.88h1.89l1.32,3.63,1.37-3.63h1.82l-3.27,8.2h-1.8l.96-2.33Z"/>
  <path class="st0" d="M32.03,20c0-1.76,1.34-3.08,3.11-3.08s3.11,1.32,3.11,3.08-1.34,3.07-3.11,3.07-3.11-1.31-3.11-3.07ZM35.14,21.49c.79,0,1.37-.62,1.37-1.49s-.58-1.49-1.37-1.49-1.37.62-1.37,1.49.58,1.49,1.37,1.49Z"/>
  <path class="st0" d="M39.43,17.06h1.68v.41c.32-.31.79-.55,1.39-.55,1.44,0,2.4.94,2.4,2.6v3.42h-1.7v-3.29c0-.62-.3-1.15-.98-1.15-.8,0-1.08.6-1.08,1.5v2.94h-1.7v-5.88Z"/>
  <path class="st0" d="M46.01,20c0-1.86,1.32-3.08,2.94-3.08.67,0,1.19.25,1.49.52v-2.89h1.73v8.4h-1.7v-.42c-.31.3-.85.55-1.51.55-1.62,0-2.94-1.17-2.94-3.07ZM49.12,21.54c.78,0,1.34-.62,1.34-1.54s-.56-1.54-1.34-1.54-1.37.62-1.37,1.54.59,1.54,1.37,1.54Z"/>
  <path class="st0" d="M56.76,21.21c0-1.29,1.12-1.89,2.33-1.89.46,0,.88.08,1.16.17v-.1c0-.55-.36-.96-.97-.96-.46,0-.95.22-1.26.68l-1.08-1.03c.76-.9,1.62-1.16,2.46-1.16,1.43,0,2.58.85,2.58,2.35v3.67h-1.7v-.38c-.3.26-.8.52-1.48.52-1.27,0-2.04-.8-2.04-1.86ZM59.21,21.63c.41,0,.75-.14,1.04-.36v-.67c-.2-.05-.48-.11-.78-.11-.67,0-1,.26-1,.61,0,.31.3.53.73.53Z"/>
  <path class="st0" d="M66.8,14.54h1.7v8.4h-1.7v-8.4Z"/>
  <path class="st0" d="M70.92,14.4c.55,0,1,.44,1,1s-.44.98-1,.98-.98-.44-.98-.98.43-1,.98-1ZM70.07,17.06h1.7v5.88h-1.7v-5.88Z"/>
  <path class="st0" d="M73.65,18.63h-.77v-1.57h.77v-.29c0-1.63,1.07-2.37,2.59-2.37.2,0,.37.01.44.01v1.61h-.29c-.77,0-1.04.26-1.04.85v.19h1.28v1.57h-1.28v4.31h-1.7v-4.31Z"/>
  <path class="st0" d="M77.14,20.04c0-1.78,1.19-3.12,2.89-3.12,1.89,0,2.83,1.52,2.83,3.01v.5h-3.99c.1.61.56,1.08,1.32,1.08.61,0,1.08-.23,1.44-.68l1.13,1.05c-.52.65-1.26,1.19-2.52,1.19-1.76,0-3.09-1.19-3.09-3.03ZM81.06,19.29c-.04-.49-.43-.88-1-.88-.63,0-1.01.4-1.12.88h2.11Z"/>
  <path class="st0" d="M84.18,20.86v-2.23h-.77v-1.57h.77v-1.64h1.7v1.64h1.29v1.57h-1.29v2.03c0,.59.28.72.77.72h.5v1.56c-.19.01-.59.02-.92.02-1.39,0-2.05-.74-2.05-2.1Z"/>
  <path class="st0" d="M89.39,14.4c.55,0,1,.44,1,1s-.44.98-1,.98-.98-.44-.98-.98.43-1,.98-1ZM88.54,17.06h1.7v5.88h-1.7v-5.88Z"/>
  <path class="st0" d="M91.83,17.06h1.68v.41c.32-.31.82-.55,1.42-.55.66,0,1.24.25,1.63.71.41-.41,1.04-.71,1.76-.71,1.57,0,2.46.94,2.46,2.6v3.42h-1.7v-3.35c0-.64-.29-1.09-.9-1.09-.65,0-1.02.49-1.02,1.31v3.13h-1.7v-3.35c0-.64-.29-1.09-.9-1.09-.67,0-1.02.53-1.02,1.43v3.01h-1.7v-5.88Z"/>
  <path class="st0" d="M101.9,20.04c0-1.78,1.19-3.12,2.89-3.12,1.89,0,2.83,1.52,2.83,3.01v.5h-3.99c.1.61.56,1.08,1.32,1.08.61,0,1.08-.23,1.44-.68l1.13,1.05c-.52.65-1.26,1.19-2.52,1.19-1.76,0-3.09-1.19-3.09-3.03ZM105.82,19.29c-.04-.49-.43-.88-1-.88-.63,0-1.01.4-1.12.88h2.11Z"/>
  <path class="st0" d="M108.57,22.04c0-.58.44-1.03,1.02-1.03s1.04.46,1.04,1.03-.47,1.03-1.04,1.03-1.02-.46-1.02-1.03Z"/>
</svg>