<?xml version="1.0" encoding="UTF-8"?>
<svg id="Layer_1" xmlns="http://www.w3.org/2000/svg" version="1.1" viewBox="0 0 34.18 28">
  <!-- Generator: Adobe Illustrator 30.1.0, SVG Export Plug-In . SVG Version: 2.1.1 Build 136)  -->
  <defs>
    <style>
      .st0 {
        fill: #fff;
      }

      .st1 {
        fill: #0d393b;
      }
    </style>
  </defs>
  <rect class="st1" width="34.18" height="28"/>
  <g>
    <polygon class="st0" points="25.64 17.18 8.54 17.18 8.54 17.05 25.64 17.05 25.64 17.18 25.64 17.18"/>
    <path class="st0" d="M18.19,9.11h-1.77l-2.84,7.33h1.55l.64-1.76h2.78l.62,1.76h1.95l-2.92-7.33h0ZM16.13,13.62l.96-2.7,1.05,2.7h-2.01Z"/>
    <path class="st0" d="M18.19,9.11h-1.77l-2.84,7.33h1.55l.64-1.76h2.78l.62,1.76h1.95l-2.92-7.33h0ZM16.13,13.62l.96-2.7,1.05,2.7h-2.01Z"/>
    <path class="st0" d="M9.37,18.87c-.08.02-.16.03-.25.03-.35,0-.59-.17-.59-.54s.22-.57.59-.57c.07,0,.16.01.24.04l-.02.18c-.08-.05-.16-.06-.23-.06-.22,0-.36.17-.36.39s.14.38.37.38c.08,0,.18-.02.24-.04v.18h0Z"/>
    <path class="st0" d="M9.5,17.73h.21v.47h0c.05-.08.14-.13.25-.13.19,0,.27.13.27.31v.5h-.21v-.42c0-.1,0-.23-.13-.23-.15,0-.18.16-.18.26v.39h-.21v-1.16h0Z"/>
    <path class="st0" d="M10.68,18.75c.06,0,.11-.03.14-.07.03-.04.04-.1.04-.16h-.09c-.09,0-.23.02-.23.14,0,.07.06.1.13.1h0ZM10.43,18.13c.08-.04.19-.06.28-.06.24,0,.34.1.34.33v.1c0,.08,0,.14,0,.2,0,.06,0,.12,0,.18h-.18s0-.09,0-.12h0c-.05.09-.15.14-.24.14-.14,0-.28-.08-.28-.24,0-.12.06-.19.14-.23.08-.04.18-.05.27-.05h.11c0-.13-.06-.17-.18-.17-.09,0-.18.03-.24.09v-.18h0Z"/>
    <path class="st0" d="M11.22,18.09h.18v.18h0c0-.07.09-.2.22-.2.02,0,.04,0,.06,0v.21s-.06-.02-.09-.02c-.17,0-.17.21-.17.32v.29h-.21v-.79h0Z"/>
    <path class="st0" d="M11.81,18.09h.21v.79h-.21v-.79h0ZM11.81,17.75h.21v.2h-.21v-.2h0Z"/>
    <path class="st0" d="M12.29,18.24h-.15v-.15h.15v-.16l.21-.07v.22h.18v.15h-.18v.37c0,.07.02.13.1.13.04,0,.07,0,.09-.02v.16s-.08.02-.15.02c-.16,0-.25-.1-.25-.26v-.4h0Z"/>
    <path class="st0" d="M12.82,18.09h.21v.79h-.21v-.79h0ZM12.82,17.75h.21v.2h-.21v-.2h0Z"/>
    <path class="st0" d="M13.74,18.41c0-.1-.05-.19-.17-.19s-.17.08-.18.19h.35ZM13.87,18.84c-.08.04-.16.06-.27.06-.26,0-.41-.15-.41-.41,0-.23.12-.42.37-.42.29,0,.38.2.38.48h-.55c0,.13.1.2.23.2.1,0,.19-.04.26-.08v.17h0Z"/>
    <path class="st0" d="M14.56,18.26c-.06-.02-.11-.03-.18-.03-.06,0-.12.02-.12.09,0,.13.36.05.36.33,0,.18-.16.26-.33.26-.08,0-.16-.01-.23-.03v-.17c.08.03.14.05.22.05.05,0,.14-.02.14-.1,0-.16-.36-.05-.36-.34,0-.17.15-.25.31-.25.1,0,.16.02.22.03v.16h-.01Z"/>
    <path class="st0" d="M15.52,18.03h0l-.16.44h.31l-.16-.44h0ZM15.4,17.81h.24l.42,1.08h-.24l-.09-.25h-.44l-.09.25h-.22l.42-1.08h0Z"/>
    <path class="st0" d="M16.19,18.09h.21v.79h-.21v-.79h0ZM16.19,17.75h.21v.2h-.21v-.2h0Z"/>
    <path class="st0" d="M16.94,18.74c.14,0,.18-.14.18-.26s-.05-.25-.18-.25-.17.15-.17.25.04.26.17.26h0ZM17.13,18.8h0c-.06.08-.15.11-.24.11-.24,0-.33-.2-.33-.42s.09-.41.33-.41c.1,0,.18.04.24.11h0v-.45h.21v1.16h-.2v-.09h0Z"/>
    <polygon class="st0" points="17.83 17.81 18.43 17.81 18.43 17.98 18.05 17.98 18.05 18.25 18.41 18.25 18.41 18.42 18.05 18.42 18.05 18.89 17.83 18.89 17.83 17.81 17.83 17.81"/>
    <path class="st0" d="M18.9,18.74c.16,0,.2-.14.2-.27,0-.12-.06-.24-.2-.24s-.2.12-.2.24c0,.13.04.27.2.27h0ZM18.9,18.07c.24,0,.42.16.42.42,0,.23-.15.41-.42.41s-.41-.18-.41-.41c0-.26.18-.42.41-.42h0Z"/>
    <path class="st0" d="M20.16,18.89h-.2v-.11h0c-.06.08-.15.13-.26.13-.19,0-.27-.13-.27-.31v-.5h.21v.42c0,.1,0,.23.13.23.15,0,.18-.16.18-.26v-.39h.21v.79h0Z"/>
    <path class="st0" d="M20.33,18.09h.2v.11h0c.06-.09.15-.13.26-.13.19,0,.27.13.27.31v.5h-.21v-.42c0-.1,0-.23-.13-.23-.15,0-.18.16-.18.26v.39h-.21v-.79h0Z"/>
    <path class="st0" d="M21.58,18.74c.14,0,.18-.14.18-.26s-.05-.25-.18-.25-.17.15-.17.25.04.26.17.26h0ZM21.77,18.8h0c-.06.08-.15.11-.24.11-.24,0-.33-.2-.33-.42s.09-.41.33-.41c.1,0,.18.04.24.11h0v-.45h.21v1.16h-.2v-.09h0Z"/>
    <path class="st0" d="M22.43,18.75c.06,0,.11-.03.14-.07.03-.04.04-.1.04-.16h-.09c-.09,0-.23.02-.23.14,0,.07.06.1.13.1h0ZM22.19,18.13c.08-.04.19-.06.28-.06.24,0,.34.1.34.33v.1c0,.08,0,.14,0,.2,0,.06,0,.12,0,.18h-.18s0-.09,0-.12h0c-.05.09-.15.14-.24.14-.14,0-.28-.08-.28-.24,0-.12.06-.19.14-.23.08-.04.18-.05.27-.05h.11c0-.13-.06-.17-.18-.17-.09,0-.18.03-.25.09v-.18h0Z"/>
    <path class="st0" d="M23.07,18.24h-.15v-.15h.15v-.16l.21-.07v.22h.18v.15h-.18v.37c0,.07.02.13.1.13.04,0,.07,0,.09-.02v.16s-.08.02-.15.02c-.16,0-.25-.1-.25-.26v-.4h0Z"/>
    <path class="st0" d="M23.63,18.09h.21v.79h-.21v-.79h0ZM23.63,17.75h.21v.2h-.21v-.2h0Z"/>
    <path class="st0" d="M24.37,18.74c.16,0,.2-.14.2-.27,0-.12-.06-.24-.2-.24s-.2.12-.2.24c0,.13.04.27.2.27h0ZM24.37,18.07c.24,0,.42.16.42.42,0,.23-.15.41-.42.41-.26,0-.41-.18-.41-.41,0-.26.18-.42.41-.42h0Z"/>
    <path class="st0" d="M24.91,18.09h.2v.11h0c.06-.09.15-.13.26-.13.19,0,.27.13.27.31v.5h-.21v-.42c0-.1,0-.23-.13-.23-.15,0-.18.16-.18.26v.39h-.21v-.79h0Z"/>
    <path class="st0" d="M13.43,15.23c-.29.07-.64.11-1.04.11-.6,0-1.08-.2-1.43-.61-.35-.41-.52-1.03-.52-1.88v-.1c0-.79.19-1.41.56-1.86.37-.45.89-.67,1.56-.67.36,0,.67.03.93.08.26.05.47.12.63.19v-1.12c-.17-.08-.41-.14-.72-.18-.31-.05-.69-.07-1.15-.07-1.07,0-1.95.32-2.66.97-.71.65-1.06,1.51-1.06,2.58v.29c0,1.15.35,2.02,1.04,2.61.69.58,1.57.88,2.65.89h0s1.2,0,1.2,0l.53-1.36c-.14.05-.32.1-.52.15h0Z"/>
    <polygon class="st0" points="25.64 10.21 25.64 9.11 20.51 9.11 20.51 14.56 21.26 16.44 22.41 16.44 22.41 13.27 24.92 13.27 24.92 12.17 22.41 12.17 22.41 10.21 25.64 10.21 25.64 10.21"/>
  </g>
</svg>