<?xml version="1.0" encoding="UTF-8"?>
<svg id="Layer_1" xmlns="http://www.w3.org/2000/svg" version="1.1" viewBox="0 0 172.5 117.33">
  <!-- Generator: Adobe Illustrator 30.1.0, SVG Export Plug-In . SVG Version: 2.1.1 Build 136)  -->
  <defs>
    <style>
      .st0 {
        fill: #fff;
      }
    </style>
  </defs>
  <path class="st0" d="M46.96,0h4.77l3.24,13.44,3.39-13.44h4.77l3.39,13.44,3.24-13.44h4.77l-5.61,21h-4.56l-3.6-13.86-3.63,13.86h-4.56L46.96,0Z"/>
  <path class="st0" d="M77.02,0h4.23v7.14c.66-.6,1.95-1.2,3.45-1.2,3.6,0,6,2.34,6,6.51v8.55h-4.26v-8.22c0-1.56-.75-2.88-2.46-2.88-2.01,0-2.7,1.5-2.7,3.75v7.35h-4.26V0Z"/>
  <path class="st0" d="M93.49,13.74c0-4.44,2.97-7.8,7.23-7.8,4.74,0,7.08,3.81,7.08,7.53l-.03,1.26h-9.96c.24,1.53,1.41,2.7,3.3,2.7,1.53,0,2.7-.57,3.6-1.71l2.82,2.64c-1.29,1.62-3.15,2.97-6.3,2.97-4.41,0-7.74-2.97-7.74-7.59ZM103.3,11.88c-.09-1.23-1.08-2.19-2.49-2.19-1.59,0-2.52.99-2.79,2.19h5.28Z"/>
  <path class="st0" d="M110.71,6.3h4.2v1.02c.81-.78,1.98-1.38,3.48-1.38,3.6,0,6,2.34,6,6.51v8.55h-4.26v-8.22c0-1.56-.75-2.88-2.46-2.88-2.01,0-2.7,1.5-2.7,3.75v7.35h-4.26V6.3Z"/>
  <path class="st0" d="M14.12,56.18l2.97-2.85c.69.99,1.98,1.89,3.69,1.89,2.25,0,3.72-1.32,3.72-3.27v-.39c-.75.66-1.95,1.11-3.6,1.11-4.08,0-7.2-2.7-7.2-7.35s3.42-7.38,7.2-7.38c1.62,0,2.88.66,3.69,1.41v-1.05h4.17v13.17c0,4.44-2.88,7.68-7.95,7.68-3.78,0-5.73-1.77-6.69-2.97ZM21.29,48.8c1.8,0,3.3-1.38,3.3-3.48s-1.5-3.51-3.3-3.51-3.24,1.38-3.24,3.51,1.47,3.48,3.24,3.48Z"/>
  <path class="st0" d="M31.7,45.74c0-4.44,2.97-7.8,7.23-7.8,4.74,0,7.08,3.81,7.08,7.53l-.03,1.26h-9.96c.24,1.53,1.41,2.7,3.3,2.7,1.53,0,2.7-.57,3.6-1.71l2.82,2.64c-1.29,1.62-3.15,2.97-6.3,2.97-4.41,0-7.74-2.97-7.74-7.59ZM41.5,43.88c-.09-1.23-1.08-2.19-2.49-2.19-1.59,0-2.52.99-2.79,2.19h5.28Z"/>
  <path class="st0" d="M48.91,38.3h4.2v1.02c.81-.78,1.98-1.38,3.48-1.38,3.6,0,6,2.34,6,6.51v8.55h-4.26v-8.22c0-1.56-.75-2.88-2.46-2.88-2.01,0-2.7,1.5-2.7,3.75v7.35h-4.26v-14.7Z"/>
  <path class="st0" d="M65.38,45.74c0-4.44,2.97-7.8,7.23-7.8,4.74,0,7.08,3.81,7.08,7.53l-.03,1.26h-9.96c.24,1.53,1.41,2.7,3.3,2.7,1.53,0,2.7-.57,3.6-1.71l2.82,2.64c-1.29,1.62-3.15,2.97-6.3,2.97-4.41,0-7.74-2.97-7.74-7.59ZM75.19,43.88c-.09-1.23-1.08-2.19-2.49-2.19-1.59,0-2.52.99-2.79,2.19h5.28Z"/>
  <path class="st0" d="M82.6,38.3h4.2v1.32c.81-.96,2.16-1.53,3.66-1.53.51,0,.72,0,1.14.03v4.11h-.66c-2.37,0-4.08,1.5-4.08,4.62v6.15h-4.26v-14.7Z"/>
  <path class="st0" d="M92.62,45.65c0-4.41,3.36-7.71,7.77-7.71s7.77,3.3,7.77,7.71-3.36,7.68-7.77,7.68-7.77-3.27-7.77-7.68ZM100.39,49.37c1.98,0,3.42-1.56,3.42-3.72s-1.44-3.72-3.42-3.72-3.42,1.56-3.42,3.72,1.44,3.72,3.42,3.72Z"/>
  <path class="st0" d="M110.02,50.48l2.61-2.67c1.47,1.44,2.88,1.95,4.2,1.95.87,0,1.65-.39,1.65-.96,0-.45-.39-.69-1.32-.93l-1.95-.48c-3.27-.81-4.8-2.43-4.8-4.8,0-2.88,2.64-4.65,5.7-4.65,2.16,0,4.17.75,5.91,2.31l-2.61,2.76c-.9-.75-2.13-1.44-3.48-1.44-.84,0-1.38.39-1.38.87,0,.39.39.63,1.05.78l2.19.51c2.64.63,4.83,1.92,4.83,4.86,0,2.76-2.34,4.74-6.15,4.74-2.88,0-5.31-1.41-6.45-2.85Z"/>
  <path class="st0" d="M127.81,31.64c1.38,0,2.49,1.11,2.49,2.49s-1.11,2.46-2.49,2.46-2.46-1.11-2.46-2.46,1.08-2.49,2.46-2.49ZM125.68,38.3h4.26v14.7h-4.26v-14.7Z"/>
  <path class="st0" d="M134.44,47.81v-5.58h-1.92v-3.93h1.92v-4.11h4.26v4.11h3.24v3.93h-3.24v5.07c0,1.47.69,1.8,1.92,1.8h1.26v3.9c-.48.03-1.47.06-2.31.06-3.48,0-5.13-1.86-5.13-5.25Z"/>
  <path class="st0" d="M149.41,53l-5.73-14.7h4.74l3.3,9.09,3.42-9.09h4.56l-8.19,20.52h-4.5l2.4-5.82Z"/>
  <path class="st0" d="M0,64h4.26v21H0v-21Z"/>
  <path class="st0" d="M7.35,80.68c0-3.24,2.79-4.74,5.82-4.74,1.14,0,2.19.21,2.91.42v-.24c0-1.38-.9-2.4-2.43-2.4-1.14,0-2.37.54-3.15,1.71l-2.7-2.58c1.89-2.25,4.05-2.91,6.15-2.91,3.57,0,6.45,2.13,6.45,5.88v9.18h-4.26v-.96c-.75.66-2.01,1.29-3.69,1.29-3.18,0-5.1-2.01-5.1-4.65ZM13.47,81.73c1.02,0,1.89-.36,2.61-.9v-1.68c-.51-.12-1.2-.27-1.95-.27-1.68,0-2.49.66-2.49,1.53,0,.78.75,1.32,1.83,1.32Z"/>
  <path class="st0" d="M23.16,82.48l2.61-2.67c1.47,1.44,2.88,1.95,4.2,1.95.87,0,1.65-.39,1.65-.96,0-.45-.39-.69-1.32-.93l-1.95-.48c-3.27-.81-4.8-2.43-4.8-4.8,0-2.88,2.64-4.65,5.7-4.65,2.16,0,4.17.75,5.91,2.31l-2.61,2.76c-.9-.75-2.13-1.44-3.48-1.44-.84,0-1.38.39-1.38.87,0,.39.39.63,1.05.78l2.19.51c2.64.63,4.83,1.92,4.83,4.86,0,2.76-2.34,4.74-6.15,4.74-2.88,0-5.31-1.41-6.45-2.85Z"/>
  <path class="st0" d="M39.03,79.81v-5.58h-1.92v-3.93h1.92v-4.11h4.26v4.11h3.24v3.93h-3.24v5.07c0,1.47.69,1.8,1.92,1.8h1.26v3.9c-.48.03-1.47.06-2.31.06-3.48,0-5.13-1.86-5.13-5.25Z"/>
  <path class="st0" d="M48.9,82.48l2.61-2.67c1.47,1.44,2.88,1.95,4.2,1.95.87,0,1.65-.39,1.65-.96,0-.45-.39-.69-1.32-.93l-1.95-.48c-3.27-.81-4.8-2.43-4.8-4.8,0-2.88,2.64-4.65,5.7-4.65,2.16,0,4.17.75,5.91,2.31l-2.61,2.76c-.9-.75-2.13-1.44-3.48-1.44-.84,0-1.38.39-1.38.87,0,.39.39.63,1.05.78l2.19.51c2.64.63,4.83,1.92,4.83,4.86,0,2.76-2.34,4.74-6.15,4.74-2.88,0-5.31-1.41-6.45-2.85Z"/>
  <path class="st0" d="M77.07,83.95v1.05h-4.26v-21h4.32v7.23c.75-.66,2.04-1.29,3.72-1.29,4.05,0,7.35,3.06,7.35,7.71s-3.3,7.68-7.35,7.68c-1.65,0-3-.63-3.78-1.38ZM80.43,81.49c1.95,0,3.42-1.56,3.42-3.84s-1.47-3.84-3.42-3.84-3.36,1.56-3.36,3.84,1.41,3.84,3.36,3.84Z"/>
  <path class="st0" d="M90.3,77.74c0-4.44,2.97-7.8,7.23-7.8,4.74,0,7.08,3.81,7.08,7.53l-.03,1.26h-9.96c.24,1.53,1.41,2.7,3.3,2.7,1.53,0,2.7-.57,3.6-1.71l2.82,2.64c-1.29,1.62-3.15,2.97-6.3,2.97-4.41,0-7.74-2.97-7.74-7.59ZM100.11,75.88c-.09-1.23-1.08-2.19-2.49-2.19-1.59,0-2.52.99-2.79,2.19h5.28Z"/>
  <path class="st0" d="M111.09,85l-5.73-14.7h4.74l3.3,9.09,3.42-9.09h4.56l-8.19,20.52h-4.5l2.4-5.82Z"/>
  <path class="st0" d="M122.16,77.65c0-4.41,3.36-7.71,7.77-7.71s7.77,3.3,7.77,7.71-3.36,7.68-7.77,7.68-7.77-3.27-7.77-7.68ZM129.93,81.37c1.98,0,3.42-1.56,3.42-3.72s-1.44-3.72-3.42-3.72-3.42,1.56-3.42,3.72,1.44,3.72,3.42,3.72Z"/>
  <path class="st0" d="M140.64,70.3h4.2v1.02c.81-.78,1.98-1.38,3.48-1.38,3.6,0,6,2.34,6,6.51v8.55h-4.26v-8.22c0-1.56-.75-2.88-2.46-2.88-2.01,0-2.7,1.5-2.7,3.75v7.35h-4.26v-14.7Z"/>
  <path class="st0" d="M157.11,77.65c0-4.65,3.3-7.71,7.35-7.71,1.68,0,2.97.63,3.72,1.29v-7.23h4.32v21h-4.26v-1.05c-.78.75-2.13,1.38-3.78,1.38-4.05,0-7.35-2.94-7.35-7.68ZM164.88,81.49c1.95,0,3.36-1.56,3.36-3.84s-1.41-3.84-3.36-3.84-3.42,1.56-3.42,3.84,1.47,3.84,3.42,3.84Z"/>
  <path class="st0" d="M18.71,112.68c0-3.24,2.79-4.74,5.82-4.74,1.14,0,2.19.21,2.91.42v-.24c0-1.38-.9-2.4-2.43-2.4-1.14,0-2.37.54-3.15,1.71l-2.7-2.58c1.89-2.25,4.05-2.91,6.15-2.91,3.57,0,6.45,2.13,6.45,5.88v9.18h-4.26v-.96c-.75.66-2.01,1.29-3.69,1.29-3.18,0-5.1-2.01-5.1-4.65ZM24.82,113.73c1.02,0,1.89-.36,2.61-.9v-1.68c-.51-.12-1.2-.27-1.95-.27-1.68,0-2.49.66-2.49,1.53,0,.78.75,1.32,1.83,1.32Z"/>
  <path class="st0" d="M43.78,96h4.26v21h-4.26v-21Z"/>
  <path class="st0" d="M54.1,95.64c1.38,0,2.49,1.11,2.49,2.49s-1.11,2.46-2.49,2.46-2.46-1.11-2.46-2.46,1.08-2.49,2.46-2.49ZM51.97,102.3h4.26v14.7h-4.26v-14.7Z"/>
  <path class="st0" d="M60.91,106.23h-1.92v-3.93h1.92v-.72c0-4.08,2.67-5.94,6.48-5.94.51,0,.93.03,1.11.03v4.02h-.72c-1.92,0-2.61.66-2.61,2.13v.48h3.21v3.93h-3.21v10.77h-4.26v-10.77Z"/>
  <path class="st0" d="M69.64,109.74c0-4.44,2.97-7.8,7.23-7.8,4.74,0,7.08,3.81,7.08,7.53l-.03,1.26h-9.96c.24,1.53,1.41,2.7,3.3,2.7,1.53,0,2.7-.57,3.6-1.71l2.82,2.64c-1.29,1.62-3.15,2.97-6.3,2.97-4.41,0-7.74-2.97-7.74-7.59ZM79.45,107.88c-.09-1.23-1.08-2.19-2.49-2.19-1.59,0-2.52.99-2.79,2.19h5.28Z"/>
  <path class="st0" d="M87.25,111.81v-5.58h-1.92v-3.93h1.92v-4.11h4.26v4.11h3.24v3.93h-3.24v5.07c0,1.47.69,1.8,1.92,1.8h1.26v3.9c-.48.03-1.47.06-2.31.06-3.48,0-5.13-1.86-5.13-5.25Z"/>
  <path class="st0" d="M100.27,95.64c1.38,0,2.49,1.11,2.49,2.49s-1.11,2.46-2.49,2.46-2.46-1.11-2.46-2.46,1.08-2.49,2.46-2.49ZM98.14,102.3h4.26v14.7h-4.26v-14.7Z"/>
  <path class="st0" d="M106.36,102.3h4.2v1.02c.81-.78,2.04-1.38,3.54-1.38,1.65,0,3.09.63,4.08,1.77,1.02-1.02,2.61-1.77,4.41-1.77,3.93,0,6.15,2.34,6.15,6.51v8.55h-4.26v-8.37c0-1.59-.72-2.73-2.25-2.73-1.62,0-2.55,1.23-2.55,3.27v7.83h-4.26v-8.37c0-1.59-.72-2.73-2.25-2.73-1.68,0-2.55,1.32-2.55,3.57v7.53h-4.26v-14.7Z"/>
  <path class="st0" d="M131.53,109.74c0-4.44,2.97-7.8,7.23-7.8,4.74,0,7.08,3.81,7.08,7.53l-.03,1.26h-9.96c.24,1.53,1.41,2.7,3.3,2.7,1.53,0,2.7-.57,3.6-1.71l2.82,2.64c-1.29,1.62-3.15,2.97-6.3,2.97-4.41,0-7.74-2.97-7.74-7.59ZM141.34,107.88c-.09-1.23-1.08-2.19-2.49-2.19-1.59,0-2.52.99-2.79,2.19h5.28Z"/>
  <path class="st0" d="M148.21,114.75c0-1.44,1.11-2.58,2.55-2.58s2.61,1.14,2.61,2.58-1.17,2.58-2.61,2.58-2.55-1.14-2.55-2.58Z"/>
</svg>