<?xml version="1.0" encoding="UTF-8"?>
<svg id="Layer_1" xmlns="http://www.w3.org/2000/svg" version="1.1" viewBox="0 0 170.04 155.51">
  <!-- Generator: Adobe Illustrator 30.1.0, SVG Export Plug-In . SVG Version: 2.1.1 Build 136)  -->
  <defs>
    <style>
      .st0 {
        fill: #fff;
      }
    </style>
  </defs>
  <path class="st0" d="M33.19.36h4.47v8.22h8.82V.36h4.44v21h-4.44v-8.7h-8.82v8.7h-4.47V.36Z"/>
  <path class="st0" d="M54.07,14.1c0-4.44,2.97-7.8,7.23-7.8,4.74,0,7.08,3.81,7.08,7.53l-.03,1.26h-9.96c.24,1.53,1.41,2.7,3.3,2.7,1.53,0,2.7-.57,3.6-1.71l2.82,2.64c-1.29,1.62-3.15,2.97-6.3,2.97-4.41,0-7.74-2.97-7.74-7.59ZM63.88,12.24c-.09-1.23-1.08-2.19-2.49-2.19-1.59,0-2.52.99-2.79,2.19h5.28Z"/>
  <path class="st0" d="M71.29.36h4.26v21h-4.26V.36Z"/>
  <path class="st0" d="M79.33,6.66h4.2v1.05c.78-.75,2.19-1.41,3.84-1.41,4.05,0,7.35,2.94,7.35,7.71s-3.3,7.68-7.35,7.68c-1.68,0-3.03-.6-3.78-1.26v6.75h-4.26V6.66ZM86.95,17.85c1.95,0,3.42-1.56,3.42-3.84s-1.47-3.84-3.42-3.84-3.42,1.56-3.42,3.84,1.47,3.84,3.42,3.84Z"/>
  <path class="st0" d="M99.94,0c1.38,0,2.49,1.11,2.49,2.49s-1.11,2.46-2.49,2.46-2.46-1.11-2.46-2.46,1.08-2.49,2.46-2.49ZM97.81,6.66h4.26v14.7h-4.26V6.66Z"/>
  <path class="st0" d="M106.03,6.66h4.2v1.02c.81-.78,1.98-1.38,3.48-1.38,3.6,0,6,2.34,6,6.51v8.55h-4.26v-8.22c0-1.56-.75-2.88-2.46-2.88-2.01,0-2.7,1.5-2.7,3.75v7.35h-4.26V6.66Z"/>
  <path class="st0" d="M122.95,24.54l2.97-2.85c.69.99,1.98,1.89,3.69,1.89,2.25,0,3.72-1.32,3.72-3.27v-.39c-.75.66-1.95,1.11-3.6,1.11-4.08,0-7.2-2.7-7.2-7.35s3.42-7.38,7.2-7.38c1.62,0,2.88.66,3.69,1.41v-1.05h4.17v13.17c0,4.44-2.88,7.68-7.95,7.68-3.78,0-5.73-1.77-6.69-2.97ZM130.12,17.16c1.8,0,3.3-1.38,3.3-3.48s-1.5-3.51-3.3-3.51-3.24,1.38-3.24,3.51,1.47,3.48,3.24,3.48Z"/>
  <path class="st0" d="M22.14,48.17v-5.58h-1.92v-3.93h1.92v-4.11h4.26v4.11h3.24v3.93h-3.24v5.07c0,1.47.69,1.8,1.92,1.8h1.26v3.9c-.48.03-1.47.06-2.31.06-3.48,0-5.13-1.86-5.13-5.25Z"/>
  <path class="st0" d="M32.88,38.66h4.2v1.32c.81-.96,2.16-1.53,3.66-1.53.51,0,.72,0,1.14.03v4.11h-.66c-2.37,0-4.08,1.5-4.08,4.62v6.15h-4.26v-14.7Z"/>
  <path class="st0" d="M42.9,46.1c0-4.44,2.97-7.8,7.23-7.8,4.74,0,7.08,3.81,7.08,7.53l-.03,1.26h-9.96c.24,1.53,1.41,2.7,3.3,2.7,1.53,0,2.7-.57,3.6-1.71l2.82,2.64c-1.29,1.62-3.15,2.97-6.3,2.97-4.41,0-7.74-2.97-7.74-7.59ZM52.71,44.24c-.09-1.23-1.08-2.19-2.49-2.19-1.59,0-2.52.99-2.79,2.19h5.28Z"/>
  <path class="st0" d="M58.89,49.04c0-3.24,2.79-4.74,5.82-4.74,1.14,0,2.19.21,2.91.42v-.24c0-1.38-.9-2.4-2.43-2.4-1.14,0-2.37.54-3.15,1.71l-2.7-2.58c1.89-2.25,4.05-2.91,6.15-2.91,3.57,0,6.45,2.13,6.45,5.88v9.18h-4.26v-.96c-.75.66-2.01,1.29-3.69,1.29-3.18,0-5.1-2.01-5.1-4.65ZM65.01,50.09c1.02,0,1.89-.36,2.61-.9v-1.68c-.51-.12-1.2-.27-1.95-.27-1.68,0-2.49.66-2.49,1.53,0,.78.75,1.32,1.83,1.32Z"/>
  <path class="st0" d="M74.7,50.84l2.61-2.67c1.47,1.44,2.88,1.95,4.2,1.95.87,0,1.65-.39,1.65-.96,0-.45-.39-.69-1.32-.93l-1.95-.48c-3.27-.81-4.8-2.43-4.8-4.8,0-2.88,2.64-4.65,5.7-4.65,2.16,0,4.17.75,5.91,2.31l-2.61,2.76c-.9-.75-2.13-1.44-3.48-1.44-.84,0-1.38.39-1.38.87,0,.39.39.63,1.05.78l2.19.51c2.64.63,4.83,1.92,4.83,4.86,0,2.76-2.34,4.74-6.15,4.74-2.88,0-5.31-1.41-6.45-2.85Z"/>
  <path class="st0" d="M90.06,47.21v-8.55h4.29v8.37c0,1.59.72,2.73,2.25,2.73,1.86,0,2.52-1.32,2.52-3.57v-7.53h4.29v14.7h-4.2v-1.02c-.9.93-2.25,1.35-3.66,1.35-3.42,0-5.49-2.31-5.49-6.48Z"/>
  <path class="st0" d="M107.19,38.66h4.2v1.32c.81-.96,2.16-1.53,3.66-1.53.51,0,.72,0,1.14.03v4.11h-.66c-2.37,0-4.08,1.5-4.08,4.62v6.15h-4.26v-14.7Z"/>
  <path class="st0" d="M117.21,46.1c0-4.44,2.97-7.8,7.23-7.8,4.74,0,7.08,3.81,7.08,7.53l-.03,1.26h-9.96c.24,1.53,1.41,2.7,3.3,2.7,1.53,0,2.7-.57,3.6-1.71l2.82,2.64c-1.29,1.62-3.15,2.97-6.3,2.97-4.41,0-7.74-2.97-7.74-7.59ZM127.02,44.24c-.09-1.23-1.08-2.19-2.49-2.19-1.59,0-2.52.99-2.79,2.19h5.28Z"/>
  <path class="st0" d="M133.59,46.01c0-4.65,3.3-7.71,7.35-7.71,1.68,0,2.97.63,3.72,1.29v-7.23h4.32v21h-4.26v-1.05c-.78.75-2.13,1.38-3.78,1.38-4.05,0-7.35-2.94-7.35-7.68ZM141.36,49.85c1.95,0,3.36-1.56,3.36-3.84s-1.41-3.84-3.36-3.84-3.42,1.56-3.42,3.84,1.47,3.84,3.42,3.84Z"/>
  <path class="st0" d="M42.84,70.66h4.2v1.05c.78-.75,2.19-1.41,3.84-1.41,4.05,0,7.35,2.94,7.35,7.71s-3.3,7.68-7.35,7.68c-1.68,0-3.03-.6-3.78-1.26v6.75h-4.26v-20.52ZM50.46,81.85c1.95,0,3.42-1.56,3.42-3.84s-1.47-3.84-3.42-3.84-3.42,1.56-3.42,3.84,1.47,3.84,3.42,3.84Z"/>
  <path class="st0" d="M61.17,64.36h4.26v21h-4.26v-21Z"/>
  <path class="st0" d="M68.52,81.04c0-3.24,2.79-4.74,5.82-4.74,1.14,0,2.19.21,2.91.42v-.24c0-1.38-.9-2.4-2.43-2.4-1.14,0-2.37.54-3.15,1.71l-2.7-2.58c1.89-2.25,4.05-2.91,6.15-2.91,3.57,0,6.45,2.13,6.45,5.88v9.18h-4.26v-.96c-.75.66-2.01,1.29-3.69,1.29-3.18,0-5.1-2.01-5.1-4.65ZM74.64,82.09c1.02,0,1.89-.36,2.61-.9v-1.68c-.51-.12-1.2-.27-1.95-.27-1.68,0-2.49.66-2.49,1.53,0,.78.75,1.32,1.83,1.32Z"/>
  <path class="st0" d="M84.36,78.01c0-4.41,3.36-7.71,7.77-7.71,2.79,0,4.59,1.2,6.15,2.94l-2.88,2.79c-.84-1.02-1.77-1.71-3.12-1.71-2.01,0-3.57,1.53-3.57,3.69s1.56,3.69,3.57,3.69c1.47,0,2.49-.72,3.42-1.92l2.88,2.79c-1.5,1.98-3.6,3.12-6.45,3.12-4.41,0-7.77-3.27-7.77-7.68Z"/>
  <path class="st0" d="M99.87,78.1c0-4.44,2.97-7.8,7.23-7.8,4.74,0,7.08,3.81,7.08,7.53l-.03,1.26h-9.96c.24,1.53,1.41,2.7,3.3,2.7,1.53,0,2.7-.57,3.6-1.71l2.82,2.64c-1.29,1.62-3.15,2.97-6.3,2.97-4.41,0-7.74-2.97-7.74-7.59ZM109.68,76.24c-.09-1.23-1.08-2.19-2.49-2.19-1.59,0-2.52.99-2.79,2.19h5.28Z"/>
  <path class="st0" d="M116.01,82.84l2.61-2.67c1.47,1.44,2.88,1.95,4.2,1.95.87,0,1.65-.39,1.65-.96,0-.45-.39-.69-1.32-.93l-1.95-.48c-3.27-.81-4.8-2.43-4.8-4.8,0-2.88,2.64-4.65,5.7-4.65,2.16,0,4.17.75,5.91,2.31l-2.61,2.76c-.9-.75-2.13-1.44-3.48-1.44-.84,0-1.38.39-1.38.87,0,.39.39.63,1.05.78l2.19.51c2.64.63,4.83,1.92,4.83,4.86,0,2.76-2.34,4.74-6.15,4.74-2.88,0-5.31-1.41-6.45-2.85Z"/>
  <path class="st0" d="M23.97,112.17v-5.58h-1.92v-3.93h1.92v-4.11h4.26v4.11h3.24v3.93h-3.24v5.07c0,1.47.69,1.8,1.92,1.8h1.26v3.9c-.48.03-1.47.06-2.31.06-3.48,0-5.13-1.86-5.13-5.25Z"/>
  <path class="st0" d="M34.71,96.36h4.23v7.14c.66-.6,1.95-1.2,3.45-1.2,3.6,0,6,2.34,6,6.51v8.55h-4.26v-8.22c0-1.56-.75-2.88-2.46-2.88-2.01,0-2.7,1.5-2.7,3.75v7.35h-4.26v-21Z"/>
  <path class="st0" d="M52.02,102.66h4.2v1.32c.81-.96,2.16-1.53,3.66-1.53.51,0,.72,0,1.14.03v4.11h-.66c-2.37,0-4.08,1.5-4.08,4.62v6.15h-4.26v-14.7Z"/>
  <path class="st0" d="M65.85,96c1.38,0,2.49,1.11,2.49,2.49s-1.11,2.46-2.49,2.46-2.46-1.11-2.46-2.46,1.08-2.49,2.46-2.49ZM63.72,102.66h4.26v14.7h-4.26v-14.7Z"/>
  <path class="st0" d="M70.23,102.66h4.53l2.88,9.09,2.88-9.09h4.53l-5.22,14.7h-4.38l-5.22-14.7Z"/>
  <path class="st0" d="M85.83,110.1c0-4.44,2.97-7.8,7.23-7.8,4.74,0,7.08,3.81,7.08,7.53l-.03,1.26h-9.96c.24,1.53,1.41,2.7,3.3,2.7,1.53,0,2.7-.57,3.6-1.71l2.82,2.64c-1.29,1.62-3.15,2.97-6.3,2.97-4.41,0-7.74-2.97-7.74-7.59ZM95.64,108.24c-.09-1.23-1.08-2.19-2.49-2.19-1.59,0-2.52.99-2.79,2.19h5.28Z"/>
  <path class="st0" d="M112.17,106.59h-1.92v-3.93h1.92v-.72c0-4.08,2.67-5.94,6.48-5.94.51,0,.93.03,1.11.03v4.02h-.72c-1.92,0-2.61.66-2.61,2.13v.48h3.21v3.93h-3.21v10.77h-4.26v-10.77Z"/>
  <path class="st0" d="M120.9,110.01c0-4.41,3.36-7.71,7.77-7.71s7.77,3.3,7.77,7.71-3.36,7.68-7.77,7.68-7.77-3.27-7.77-7.68ZM128.67,113.73c1.98,0,3.42-1.56,3.42-3.72s-1.44-3.72-3.42-3.72-3.42,1.56-3.42,3.72,1.44,3.72,3.42,3.72Z"/>
  <path class="st0" d="M139.38,102.66h4.2v1.32c.81-.96,2.16-1.53,3.66-1.53.51,0,.72,0,1.14.03v4.11h-.66c-2.37,0-4.08,1.5-4.08,4.62v6.15h-4.26v-14.7Z"/>
  <path class="st0" d="M.42,152.54l2.97-2.85c.69.99,1.98,1.89,3.69,1.89,2.25,0,3.72-1.32,3.72-3.27v-.39c-.75.66-1.95,1.11-3.6,1.11-4.08,0-7.2-2.7-7.2-7.35s3.42-7.38,7.2-7.38c1.62,0,2.88.66,3.69,1.41v-1.05h4.17v13.17c0,4.44-2.88,7.68-7.95,7.68-3.78,0-5.73-1.77-6.69-2.97ZM7.59,145.16c1.8,0,3.3-1.38,3.3-3.48s-1.5-3.51-3.3-3.51-3.24,1.38-3.24,3.51,1.47,3.48,3.24,3.48Z"/>
  <path class="st0" d="M18,142.1c0-4.44,2.97-7.8,7.23-7.8,4.74,0,7.08,3.81,7.08,7.53l-.03,1.26h-9.96c.24,1.53,1.41,2.7,3.3,2.7,1.53,0,2.7-.57,3.6-1.71l2.82,2.64c-1.29,1.62-3.15,2.97-6.3,2.97-4.41,0-7.74-2.97-7.74-7.59ZM27.81,140.24c-.09-1.23-1.08-2.19-2.49-2.19-1.59,0-2.52.99-2.79,2.19h5.28Z"/>
  <path class="st0" d="M35.22,134.66h4.2v1.02c.81-.78,1.98-1.38,3.48-1.38,3.6,0,6,2.34,6,6.51v8.55h-4.26v-8.22c0-1.56-.75-2.88-2.46-2.88-2.01,0-2.7,1.5-2.7,3.75v7.35h-4.26v-14.7Z"/>
  <path class="st0" d="M51.69,142.1c0-4.44,2.97-7.8,7.23-7.8,4.74,0,7.08,3.81,7.08,7.53l-.03,1.26h-9.96c.24,1.53,1.41,2.7,3.3,2.7,1.53,0,2.7-.57,3.6-1.71l2.82,2.64c-1.29,1.62-3.15,2.97-6.3,2.97-4.41,0-7.74-2.97-7.74-7.59ZM61.5,140.24c-.09-1.23-1.08-2.19-2.49-2.19-1.59,0-2.52.99-2.79,2.19h5.28Z"/>
  <path class="st0" d="M68.91,134.66h4.2v1.32c.81-.96,2.16-1.53,3.66-1.53.51,0,.72,0,1.14.03v4.11h-.66c-2.37,0-4.08,1.5-4.08,4.62v6.15h-4.26v-14.7Z"/>
  <path class="st0" d="M79.23,145.04c0-3.24,2.79-4.74,5.82-4.74,1.14,0,2.19.21,2.91.42v-.24c0-1.38-.9-2.4-2.43-2.4-1.14,0-2.37.54-3.15,1.71l-2.7-2.58c1.89-2.25,4.05-2.91,6.15-2.91,3.57,0,6.45,2.13,6.45,5.88v9.18h-4.26v-.96c-.75.66-2.01,1.29-3.69,1.29-3.18,0-5.1-2.01-5.1-4.65ZM85.35,146.09c1.02,0,1.89-.36,2.61-.9v-1.68c-.51-.12-1.2-.27-1.95-.27-1.68,0-2.49.66-2.49,1.53,0,.78.75,1.32,1.83,1.32Z"/>
  <path class="st0" d="M96.45,144.17v-5.58h-1.92v-3.93h1.92v-4.11h4.26v4.11h3.24v3.93h-3.24v5.07c0,1.47.69,1.8,1.92,1.8h1.26v3.9c-.48.03-1.47.06-2.31.06-3.48,0-5.13-1.86-5.13-5.25Z"/>
  <path class="st0" d="M109.47,128c1.38,0,2.49,1.11,2.49,2.49s-1.11,2.46-2.49,2.46-2.46-1.11-2.46-2.46,1.08-2.49,2.46-2.49ZM107.34,134.66h4.26v14.7h-4.26v-14.7Z"/>
  <path class="st0" d="M114.72,142.01c0-4.41,3.36-7.71,7.77-7.71s7.77,3.3,7.77,7.71-3.36,7.68-7.77,7.68-7.77-3.27-7.77-7.68ZM122.49,145.73c1.98,0,3.42-1.56,3.42-3.72s-1.44-3.72-3.42-3.72-3.42,1.56-3.42,3.72,1.44,3.72,3.42,3.72Z"/>
  <path class="st0" d="M133.2,134.66h4.2v1.02c.81-.78,1.98-1.38,3.48-1.38,3.6,0,6,2.34,6,6.51v8.55h-4.26v-8.22c0-1.56-.75-2.88-2.46-2.88-2.01,0-2.7,1.5-2.7,3.75v7.35h-4.26v-14.7Z"/>
  <path class="st0" d="M149.64,146.84l2.61-2.67c1.47,1.44,2.88,1.95,4.2,1.95.87,0,1.65-.39,1.65-.96,0-.45-.39-.69-1.32-.93l-1.95-.48c-3.27-.81-4.8-2.43-4.8-4.8,0-2.88,2.64-4.65,5.7-4.65,2.16,0,4.17.75,5.91,2.31l-2.61,2.76c-.9-.75-2.13-1.44-3.48-1.44-.84,0-1.38.39-1.38.87,0,.39.39.63,1.05.78l2.19.51c2.64.63,4.83,1.92,4.83,4.86,0,2.76-2.34,4.74-6.15,4.74-2.88,0-5.31-1.41-6.45-2.85Z"/>
  <path class="st0" d="M164.88,147.11c0-1.44,1.11-2.58,2.55-2.58s2.61,1.14,2.61,2.58-1.17,2.58-2.61,2.58-2.55-1.14-2.55-2.58Z"/>
</svg>